<?xml version="1.0" encoding="utf-8"?>
<!-- Generator: Adobe Illustrator 22.1.0, SVG Export Plug-In . SVG Version: 6.00 Build 0)  -->
<svg version="1.1"
	 id="svg4640" inkscape:export-filename="/home/qui00214/Ãrea de Trabalho/JURUBAMANJI 2/menu/Logo/jurubamanji contornado" inkscape:export-xdpi="56" inkscape:export-ydpi="56" inkscape:version="0.91 r13725" sodipodi:docname="jurubamanji contornado.svg" xmlns:cc="http://creativecommons.org/ns#" xmlns:dc="http://purl.org/dc/elements/1.1/" xmlns:inkscape="http://www.inkscape.org/namespaces/inkscape" xmlns:rdf="http://www.w3.org/1999/02/22-rdf-syntax-ns#" xmlns:sodipodi="http://sodipodi.sourceforge.net/DTD/sodipodi-0.dtd" xmlns:svg="http://www.w3.org/2000/svg"
	 xmlns="http://www.w3.org/2000/svg" xmlns:xlink="http://www.w3.org/1999/xlink" x="0px" y="0px" viewBox="0 0 595.3 841.9"
	 style="enable-background:new 0 0 595.3 841.9;" xml:space="preserve">
<style type="text/css">
	.st0{fill:#502D16;}
</style>
<sodipodi:namedview  bordercolor="#666666" borderopacity="1.0" id="base" inkscape:current-layer="layer1" inkscape:cx="241.15531" inkscape:cy="966.13102" inkscape:document-units="px" inkscape:pageopacity="0.0" inkscape:pageshadow="2" inkscape:window-height="744" inkscape:window-maximized="1" inkscape:window-width="1301" inkscape:window-x="65" inkscape:window-y="24" inkscape:zoom="0.8" pagecolor="#ffffff" showgrid="false">
	</sodipodi:namedview>
<path class="st0" d="M222.4,405.6c0.1,0.4,0.1,0.9,0,1.6l-3.6-0.2l-2.5-0.4c-0.6-0.1-1,0.6-1,0.6c-0.1-0.3-0.1-0.6-0.1-0.9
	s0-0.7,0.1-1.1c1.3,0,2.1,0.1,3.6,0.3l2.4,0.5C222.1,406.1,222.4,405.6,222.4,405.6z M236.8,429.4l-0.9,2.7c-0.4,1.5-0.5,2-0.7,3.3
	c-5.7-2.4-10.7-6-14.5-11.6c-0.2-0.4-5.1-7.3-5.3-12.2c0-0.5,0.6-0.9,1-0.9h2.3l3.4-0.2c0,0.7-0.1,1.4-0.1,2.1
	c0,3.2,0.5,5.4,2.6,8.7c3.4,4.6,6.6,6.5,11.9,7.7C236.8,428.9,236.9,429,236.8,429.4z M222.4,403.2l-2.7-0.9c-1.5-0.4-2-0.5-3.3-0.7
	c-0.4-0.4,5.3-11.1,11.7-14.1c4.6-2.7,12.6-6.8,12.7-4.1l0.1,2.3l0.4,3.3c-4.5,0-6.9,0.2-10.8,2.5c-4.5,3.1-6.4,5.9-7.6,11.4
	C222.9,403.2,222.8,403.3,222.4,403.2z M239,429.4c0.4-0.1,0.8-0.1,1.4-0.1l-0.2,3.6l-0.4,2.5c-0.1,0.6,0.5,0.9,0.5,0.9
	c-0.3,0.1-0.5,0.1-0.9,0.1c-0.3,0-0.6,0-1-0.1c0-1.3,0.1-2.1,0.3-3.6l0.5-2.4C239.5,429.7,239,429.4,239,429.4z M262.5,415
	c-0.1-0.8-0.2-1.7-0.3-2.6v-0.1c-0.2,0.1-0.3,0.3-0.3,0.3c-0.2-0.4-0.2-0.8-0.1-1.4h3.7l2.5,0.3c0.6,0,0.9-0.6,0.9-0.6
	c0.2,0.5,0.2,1,0.1,1.9h-0.1c-0.3,2.1-1.1,8-1.1,12.1c0,3.6,0.7,5.6,1.1,8.7v0.4c0,0.3-0.6,0.6-1,0.6h-2.3l-3.4,0.2
	c0.4-3.8,0.8-5.8,0.8-9.8c0-0.3,0-0.5,0-0.7c-1.7,2.5-3.7,4.8-6.4,6.7c-4.3,2.8-6.9,4.4-11.7,5.3l-0.6,0.1c-0.5,0-1-0.6-1-1v-2.3
	l-0.3-3.4c0.6,0,1.2,0,1.8,0c3.4,0,5.7-0.5,9.1-2.6c4.6-3.4,6.5-6.6,7.5-11.9C261.5,414.6,262.1,414.9,262.5,415z M245.5,389.2
	c-0.4,0.2-0.8,0.2-1.4,0.1v-3.7l0.2-2.5c0-0.6-0.6-0.9-0.6-0.9c0.3-0.1,0.7-0.2,1.1-0.2c0.2,0,0.5,0,0.8,0c0,0.4,0,0.8,0,1.1
	c0,0.8,0,1.5-0.2,2.6l-0.4,2.5C245,388.9,245.5,389.2,245.5,389.2z M268.8,406c0,0.1-0.1,0.3-0.3,0.4c0.3,1.5-0.6,1.6-0.8,1.6
	l-2.3,0.1l-3.3,0.4c0-4.6-0.3-7.1-2.6-11.2c-4.8-7-9.2-7.1-11.5-7.7c-0.1,0-0.2-0.2-0.1-0.5l0.8-2.7c0.4-1.5,0.4-2,0.6-3.3
	c0.1-0.1,0.1-0.1,0.3-0.1c1.7,0,10.1,5.5,13.6,11.2c-0.1-6.4-0.8-9-0.8-9.9c0-0.1,0.2-0.2,0.5-0.2l2.8,0.1l3.4-0.2
	c0,0-1.2,7.9-1.2,13C267.7,400.6,268.8,405.1,268.8,406z M262.1,410.2c-0.2-0.3-0.3-0.7-0.3-1.2l3.6-0.2l2.5,0.1
	c0.6,0,0.9-0.4,0.9-0.4c0.2,0.3,0.3,0.6,0.3,1.2l-3.6,0.2l-2.5-0.1C262.4,409.8,262.1,410.2,262.1,410.2z"/>
<path class="st0" d="M285.2,408.4c0.2,0.3,0.3,0.7,0.3,1.2l-3.6,0.2l-2.5-0.1c-0.6,0-0.9,0.4-0.9,0.4c-0.2-0.3-0.3-0.6-0.3-1.2
	l3.6-0.2l2.5,0.1C285,408.8,285.2,408.4,285.2,408.4z M284.7,402.4c0.3,3.1,0.4,3.5,0.4,3.9c0,0.1-0.2,0.2-0.5,0.2l-2.8-0.1
	l-3.4,0.2c0,0,0.3-1.7,0.5-4.1h-0.5c0.5-3.7,1.2-2.4,1.2-8.9c0-3.7-1.1-8.2-1.1-9.1c0-0.3,0.6-0.6,1-0.6h2.3l3.4-0.2
	c-0.3,3-0.6,4.8-0.8,7.4c6.2-6.9,12.7-8.5,12.8-8.5c0.1,0,0.4,0.1,0.4,0.4l0.5,2.8l0.9,3.3c-5.6,0.2-8.7,3.3-11.9,6.2
	c-1.7,2.2-2,3.9-2,5.4C285.1,402.3,285.4,402.2,284.7,402.4z M285.2,434.4c0,0.1-0.2,0.2-0.5,0.2l-2.8-0.1l-3.4,0.2l1.2-13
	c0-3.7-1.1-8.2-1.1-9.1c0-0.3,0.6-0.6,1-0.6h2.3l3.4-0.2c-0.4,3.8-0.8,5.8-0.8,9.9C284.4,430.6,285.2,433.5,285.2,434.4z
	 M300.3,382.1c0.4-0.2,1.1-0.3,1.8-0.3c0.1,1.2,0.2,1.9,0.2,3.1c0,0.2,0,0.3,0,0.5l-0.1,2.5c0,0.6,0.4,0.9,0.4,0.9
	c0,0.1-0.4,0.2-1.2,0.3l-0.4-3.6V383C300.9,382.3,300.3,382.1,300.3,382.1z M322.8,403.2l-2.8-0.1l-3.4,0.2c0.1-0.5,0.1-1.1,0.1-1.6
	c0-3.8-1.5-7-3.8-9.9c-4.8-4.3-8.8-1.5-8.4-4l0.4-2.3c0.2-1.6,0.3-2,0.3-3.4c5,1.3,7.1,2.9,10.9,6.2c4.3,4.5,6.1,7.8,7.2,14.2
	C323.4,403,323.2,403.2,322.8,403.2z M323.4,405.3c0.2,0.3,0.3,0.8,0.3,1.3l-3.6,0.2l-2.5-0.1c-0.6,0-0.9,0.5-0.9,0.5
	c-0.2-0.3-0.3-0.7-0.3-1.3l3.6-0.2l2.5,0.1C323.1,405.7,323.4,405.3,323.4,405.3z M323.3,434.4c0,0.1-0.2,0.3-0.5,0.3l-2.8-0.1
	l-3.4,0.2c0,0,1.2-8.9,1.2-14.6c0-4.1-1.1-9.2-1.1-10.2c0-0.3,0.6-0.7,1-0.7h2.3l3.4-0.2c-0.4,4.3-0.8,6.5-0.8,11
	C322.5,430.1,323.3,433.3,323.3,434.4z"/>
<path class="st0" d="M336,434.8l-0.7-9.8v-0.2c0-0.1,0.2-0.3,0.5-0.3l2.8,0.1c1.6,0,2.1-0.1,3.4-0.2l-0.9,10.5
	c-0.2,3.5-1.5,6.9-3.1,9.3c-3.4,4.9-6,7.5-11.2,8.9c-0.2,0-0.4,0.1-0.7,0.1c-0.5,0-1-0.6-1-0.9V450l-0.2-3.4c0.2,0,0.4,0,0.7,0
	C332.4,446.6,336.2,439.9,336,434.8z M335.3,421.7c-0.2-0.4-0.3-1-0.3-1.7l3.6-0.2l2.5,0.1c0.6,0,0.9-0.6,0.9-0.6
	c0.2,0.4,0.3,0.9,0.3,1.7l-3.6,0.2l-2.5-0.1C335.6,421.1,335.3,421.7,335.3,421.7z M335.4,365.7l0.5-0.1h2.8l3.4-0.1
	c0,0-1.2,4.2-1.2,6.9c0,1.9,1.1,4.3,1.1,4.8c0,0.2-0.6,0.3-1,0.3h-2.3l-3.4,0.1c0.4-2,0.8-3.1,0.8-5.2
	C336.2,369.7,336,368.2,335.4,365.7z M342,415.7c0,0.4-0.6,0.9-1,0.9h-2.3c-1.6,0-2.1,0.1-3.4,0.2l0.8-14.2l-0.8-18.1v-0.2
	c0-0.1,0.2-0.3,0.5-0.3l2.8,0.1c1.6,0,2.1-0.1,3.4-0.2l-1.2,18.8C340.8,407.8,342,414.3,342,415.7z"/>
<path class="st0" d="M354,410.1c-0.2-0.3-0.3-0.7-0.3-1.2l3.6-0.2l2.5,0.1c0.6,0,0.9-0.4,0.9-0.4c0.2,0.3,0.3,0.6,0.3,1.2l-3.6,0.2
	l-2.5-0.1C354.3,409.7,354,410.1,354,410.1z M354.1,365.7l0.5-0.1h2.8l3.4-0.1c0,0-1.2,4.2-1.2,6.9c0,1.9,1.1,4.3,1.1,4.8
	c0,0.2-0.6,0.3-1,0.3h-2.3l-3.4,0.1c0.4-2,0.8-3.1,0.8-5.2C354.9,369.7,354.7,368.2,354.1,365.7z M354.1,384.1
	c0-0.1,0.2-0.2,0.5-0.2l2.8,0.1l3.4-0.2c0,0-1.2,7.9-1.2,13c0,3.7,1.1,8.2,1.1,9.1c0,0.3-0.6,0.6-1,0.6h-2.3l-3.4,0.2
	c0.4-3.8,0.8-5.8,0.8-9.9C354.9,387.9,354.1,385,354.1,384.1z M354.1,412.2c0-0.1,0.2-0.2,0.5-0.2l2.8,0.1l3.4-0.2
	c0,0-1.2,7.9-1.2,13c0,3.7,1.1,8.2,1.1,9.1c0,0.3-0.6,0.6-1,0.6h-2.3l-3.4,0.2c0.4-3.8,0.8-5.8,0.8-9.9
	C354.9,416.1,354.1,413.2,354.1,412.2z"/>
</svg>
