<?xml version="1.0" encoding="utf-8"?>
<!-- Generator: Adobe Illustrator 22.1.0, SVG Export Plug-In . SVG Version: 6.00 Build 0)  -->
<svg version="1.1"
	 id="svg4640" inkscape:export-filename="/home/qui00214/Ãrea de Trabalho/JURUBAMANJI 2/menu/Logo/jurubamanji contornado" inkscape:export-xdpi="56" inkscape:export-ydpi="56" inkscape:version="0.91 r13725" sodipodi:docname="jurubamanji contornado.svg" xmlns:cc="http://creativecommons.org/ns#" xmlns:dc="http://purl.org/dc/elements/1.1/" xmlns:inkscape="http://www.inkscape.org/namespaces/inkscape" xmlns:rdf="http://www.w3.org/1999/02/22-rdf-syntax-ns#" xmlns:sodipodi="http://sodipodi.sourceforge.net/DTD/sodipodi-0.dtd" xmlns:svg="http://www.w3.org/2000/svg"
	 xmlns="http://www.w3.org/2000/svg" xmlns:xlink="http://www.w3.org/1999/xlink" x="0px" y="0px" viewBox="0 0 595.3 841.9"
	 style="enable-background:new 0 0 595.3 841.9;" xml:space="preserve">
<style type="text/css">
	.st0{fill:#502D16;}
</style>
<sodipodi:namedview  bordercolor="#666666" borderopacity="1.0" id="base" inkscape:current-layer="layer1" inkscape:cx="241.15531" inkscape:cy="966.13102" inkscape:document-units="px" inkscape:pageopacity="0.0" inkscape:pageshadow="2" inkscape:window-height="744" inkscape:window-maximized="1" inkscape:window-width="1301" inkscape:window-x="65" inkscape:window-y="24" inkscape:zoom="0.8" pagecolor="#ffffff" showgrid="false">
	</sodipodi:namedview>
<g>
	<path class="st0" d="M228,423.3l-0.1,2.3c0,0.3,0,0.5,0,0.8c0,1,0.1,1.5,0.2,2.6c-6-0.7-8.7-2.1-13.6-5.2c-2.7-2.1-4.7-3.9-6.4-6
		c0.3,3.4,1,7.7,1,8.6c0,0.4-0.6,0.8-1,0.8h-2.3l-3.4,0.2l0.8-13.4l-0.8-17.1v-0.2c0-0.1,0.2-0.3,0.5-0.3h0.5c0.3-1.1,0.6-2.1,1-3.1
		h-1.2c-0.6,0-0.9,0.6-0.9,0.6c-0.2-0.4-0.3-0.9-0.3-1.6l2.9-0.2c0.5-1,1-2,1.6-3.2h-0.9l-3.4,0.2l0.8-13.4l-0.8-17.1v-0.2
		c0-0.1,0.2-0.3,0.5-0.3l2.8,0.1l3.4-0.2l-1.2,17.7c0,4.1,0.5,6.7,0.9,9.9c3.5-4.7,6.7-7.2,12.7-9.7c0.3-0.1,0.6-0.1,0.7,0.3
		l0.6,2.8l1,3.2c-5.9,1.3-9.4,4.2-12.2,7.6c-2.6,3.9-2.4,9.8-2.7,11c0,3.3,0.1,2.4,0.7,6.5c1,5.8,4.3,9.4,7.6,12.7
		c3.3,2.2,5.8,2.4,9,2.4C227.4,422.3,228,422.2,228,423.3z M224.9,375c0.4-0.3,1.1-0.4,1.9-0.4c0.3,1.3,0.4,2,0.4,3.6v2.5
		c0,0.6,0.6,0.9,0.6,0.9c-0.4,0.2-0.8,0.3-1.4,0.4l-0.6-3.6l-0.2-2.5C225.6,375.2,224.9,375,224.9,375z M254.3,394.2l-2.8,0.7
		l-3.2,1.1c0.1-5.8-3.9-8.9-7.5-12.2c-3.5-2.1-6-2.1-9.7-2.2h-0.4c-0.4,0-0.7-0.7-0.6-1l0.2-2.3c0-0.7,0.1-1.2,0.1-1.6
		c0-0.6,0-1-0.1-1.8c5.6,0.9,8.3,2.1,13.1,4.9c5.7,3.9,8.3,7,11.2,13.8C254.7,393.8,254.7,394.1,254.3,394.2z M233.4,428.5
		c-0.4,0.3-1,0.4-1.8,0.5c-0.3-1.3-0.5-2-0.6-3.6l-0.2-2.5c-0.1-0.6-0.6-0.8-0.6-0.8c0.3-0.2,0.7-0.3,1.3-0.4l0.8,3.6l0.3,2.5
		C232.7,428.4,233.4,428.5,233.4,428.5z M250.3,403l2.3,0.1c0.1,0,0.3,0,0.4,0c1.3,0,1.8-0.1,3-0.2c-0.6,6-2,8.7-5.1,13.6
		c-4.3,5.7-7.7,8.2-14.2,11.2l-0.2,0.1c-0.1,0-0.4-0.1-0.5-0.4l-0.7-2.8l-1.1-3.2c4.9-0.9,9.1-3.7,12.8-7.6c2-3.1,2.3-5.4,2.3-8.4
		C249.3,404.7,248.9,403,250.3,403z M255.5,397c0.3,0.4,0.4,1.1,0.5,1.9c-1.3,0.3-2,0.5-3.6,0.6l-2.5,0.2c-0.6,0.1-0.8,0.7-0.8,0.7
		c-0.2-0.4-0.3-0.8-0.4-1.5l3.6-0.8l2.5-0.3C255.3,397.7,255.5,397,255.5,397z"/>
	<path class="st0" d="M269.1,398.2c0.1,0.4,0.1,0.9,0,1.6l-3.6-0.2l-2.5-0.4c-0.6-0.1-1,0.6-1,0.6c-0.1-0.3-0.1-0.6-0.1-0.9
		s0-0.7,0.1-1.1c1.3,0,2.1,0.1,3.6,0.3l2.4,0.5C268.7,398.6,269.1,398.2,269.1,398.2z M283.4,421.9l-0.9,2.7c-0.4,1.5-0.5,2-0.7,3.3
		c-5.7-2.4-10.7-6-14.5-11.6c-0.2-0.4-5.1-7.3-5.3-12.2c0-0.5,0.6-0.9,1-0.9h2.3l3.4-0.2c0,0.7-0.1,1.4-0.1,2.1
		c0,3.2,0.5,5.4,2.6,8.7c3.4,4.6,6.6,6.5,11.9,7.7C283.4,421.4,283.5,421.5,283.4,421.9z M269.1,395.7l-2.7-0.9
		c-1.5-0.4-2-0.5-3.3-0.7c-0.4-0.4,5.3-11.1,11.7-14.1c4.6-2.7,12.6-6.8,12.7-4.1l0.1,2.3l0.4,3.3c-4.5,0-6.9,0.2-10.8,2.5
		c-4.5,3.1-6.4,5.9-7.6,11.4C269.6,395.7,269.4,395.8,269.1,395.7z M285.7,421.9c0.4-0.1,0.8-0.1,1.4-0.1l-0.2,3.6l-0.4,2.5
		c-0.1,0.6,0.5,0.9,0.5,0.9c-0.3,0.1-0.5,0.1-0.9,0.1c-0.3,0-0.6,0-1-0.1c0-1.3,0.1-2.1,0.3-3.6l0.5-2.4
		C286.1,422.2,285.7,421.9,285.7,421.9z M309.1,407.6c-0.1-0.8-0.2-1.7-0.3-2.6v-0.1c-0.2,0.1-0.3,0.3-0.3,0.3
		c-0.2-0.4-0.2-0.8-0.1-1.4h3.7l2.5,0.3c0.6,0,0.9-0.6,0.9-0.6c0.2,0.5,0.2,1,0.1,1.9h-0.1c-0.3,2.1-1.1,8-1.1,12.1
		c0,3.6,0.7,5.6,1.1,8.7v0.4c0,0.3-0.6,0.6-1,0.6h-2.3l-3.4,0.2c0.4-3.8,0.8-5.8,0.8-9.8c0-0.3,0-0.5,0-0.7
		c-1.7,2.5-3.7,4.8-6.4,6.7c-4.3,2.8-6.9,4.4-11.7,5.3l-0.6,0.1c-0.5,0-0.9-0.6-1-1v-2.3l-0.3-3.4c0.6,0,1.2,0,1.8,0
		c3.4,0,5.7-0.5,9.1-2.6c4.6-3.4,6.5-6.6,7.5-11.9C308.1,407.1,308.8,407.5,309.1,407.6z M292.1,381.7c-0.4,0.2-0.8,0.2-1.4,0.1
		v-3.7l0.2-2.5c0-0.6-0.6-0.9-0.6-0.9c0.3-0.1,0.7-0.2,1.1-0.2c0.2,0,0.5,0,0.8,0c0,0.4,0,0.8,0,1.1c0,0.8,0,1.5-0.2,2.6l-0.4,2.5
		C291.7,381.4,292.1,381.7,292.1,381.7z M315.4,398.6c0,0.1-0.1,0.3-0.3,0.4c0.3,1.5-0.6,1.6-0.8,1.6l-2.3,0.1l-3.3,0.4
		c0-4.6-0.3-7.1-2.6-11.2c-4.8-7-9.2-7.1-11.5-7.7c-0.1,0-0.2-0.2-0.1-0.5l0.8-2.7c0.4-1.5,0.4-2,0.6-3.3c0-0.1,0.1-0.1,0.3-0.1
		c1.7,0,10.1,5.5,13.6,11.2c-0.1-6.4-0.8-9-0.8-9.9c0-0.1,0.2-0.2,0.5-0.2l2.8,0.1l3.4-0.2c0,0-1.2,7.9-1.2,13
		C314.3,393.1,315.4,397.6,315.4,398.6z M308.8,402.8c-0.2-0.3-0.3-0.7-0.3-1.2l3.6-0.2l2.5,0.1c0.6,0,0.9-0.4,0.9-0.4
		c0.2,0.3,0.3,0.6,0.3,1.2l-3.6,0.2l-2.5-0.1C309,402.3,308.8,402.8,308.8,402.8z"/>
	<path class="st0" d="M331.9,400.9c0.2,0.3,0.3,0.7,0.3,1.2l-3.6,0.2l-2.5-0.1c-0.6,0-0.9,0.4-0.9,0.4c-0.2-0.3-0.3-0.6-0.3-1.2
		l3.6-0.2l2.5,0.1C331.6,401.3,331.9,400.9,331.9,400.9z M331.4,394.9c0.3,3.2,0.5,3.5,0.5,3.9c0,0.1-0.2,0.2-0.5,0.2l-2.8-0.1
		l-3.4,0.2c0,0,0.3-1.7,0.6-4.1h-0.6c0.6-4,1.2-2.7,1.2-8.9c0-3.7-1.1-8.2-1.1-9.1c0-0.3,0.6-0.6,1-0.6h2.3l3.4-0.2
		c-0.3,2.6-0.6,4.4-0.7,6.5c5.2-6.2,11.5-7.7,11.5-7.7c0.1,0,0.4,0.1,0.4,0.4l0.4,2.8l0.8,3.3c-5.6,0.7-8.4,3.2-11,6
		c-1.4,2.1-1.7,3.7-1.7,5.2C331.7,394.6,332,394.7,331.4,394.9z M331.8,426.9c0,0.1-0.2,0.2-0.5,0.2l-2.8-0.1l-3.4,0.2l1.2-13
		c0-3.7-1.1-8.2-1.1-9.1c0-0.3,0.6-0.6,1-0.6h2.3l3.4-0.2c-0.4,3.8-0.8,5.8-0.8,9.9C331,423.1,331.8,426,331.8,426.9z M345.8,374.6
		c0.4-0.2,1-0.3,1.5-0.3c0.1,0,0.1,0,0.2,0c0.1,0.9,0.1,1.6,0.1,2.4c0,0.4,0,0.8,0,1.2l-0.2,2.5c0,0,1,1.1-0.7,1.2l-0.3-3.6v-2.5
		C346.4,374.8,345.8,374.6,345.8,374.6z M366.4,394.8c0,0.3,0.2,1.3,0.2,1.5c0,0.1-0.2,0.3-0.5,0.3l-2.8-0.1l-3.4,0.2
		c0.1-0.5,0.1-1.1,0.1-1.6h-0.1c0-0.3,0.1-0.7,0.1-0.9c0-4-1.1-6.9-2.8-9.3c-4.1-4.6-8-1.9-7.5-4.3l0.5-2.2c0.3-1.6,0.3-2,0.4-3.3
		c2.1,0.7,8.4,2.7,12.9,11l0.7-1.1c3.6-4.8,6.5-7.4,13-9.7c0.3-0.1,0.5,0,0.6,0.4l0.4,2.8l0.8,3.3c-6.1,0.1-9.3,2.5-11,6
		c-1.4,2.1-1.7,3.7-1.7,5.2C366.4,394.4,366.7,394.6,366.4,394.8z M366.6,398.5c0.2,0.3,0.3,0.8,0.3,1.3l-3.6,0.2l-2.5-0.1
		c-0.6,0-0.9,0.5-0.9,0.5c-0.2-0.3-0.3-0.7-0.3-1.3l3.6-0.2l2.5,0.1C366.4,399,366.6,398.5,366.6,398.5z M366.6,426.9
		c0,0.1-0.2,0.3-0.5,0.3l-2.8-0.1l-3.4,0.2c0,0,1.2-8.6,1.2-14.2c0-4-1.1-8.9-1.1-9.9c0-0.3,0.6-0.6,1-0.6h2.3l3.4-0.2
		c-0.4,4.2-0.8,6.3-0.8,10.7C365.8,422.7,366.6,425.9,366.6,426.9z M380.5,374.6c0.4-0.2,1-0.3,1.5-0.3c0.1,0,0.1,0,0.2,0
		c0.1,0.9,0.1,1.6,0.1,2.4c0,0.4,0,0.8,0,1.2l-0.2,2.5c0,0.6,0.4,0.9,0.4,0.9s-0.4,0.2-1.1,0.2l-0.3-3.6v-2.5
		C381.2,374.8,380.5,374.6,380.5,374.6z M400.9,396.5l-2.8-0.1l-3.4,0.2c0-0.5,0-0.9,0-1.3c0-4-1.1-7.4-2.7-10.5
		c-4.1-4.6-8-1.9-7.5-4.3l0.5-2.2c0.3-1.6,0.3-2,0.4-3.3c5,1.5,6.9,3.3,10.2,6.9c5.6,7.2,5.8,14.4,5.8,14.5
		C401.4,396.3,401.2,396.5,400.9,396.5z M401.4,398.5c0.2,0.3,0.3,0.8,0.3,1.3L398,400l-2.5-0.1c-0.6,0-0.9,0.5-0.9,0.5
		c-0.2-0.3-0.3-0.7-0.3-1.3l3.6-0.2l2.5,0.1C401.1,399,401.4,398.5,401.4,398.5z M401.4,426.9c0,0.1-0.2,0.3-0.5,0.3l-2.8-0.1
		l-3.4,0.2c0,0,1.2-8.6,1.2-14.2c0-4-1.1-8.9-1.1-9.9c0-0.3,0.6-0.6,1-0.6h2.3l3.4-0.2c-0.4,4.2-0.8,6.3-0.8,10.7
		C400.6,422.7,401.4,425.9,401.4,426.9z"/>
</g>
</svg>
