<?xml version="1.0" encoding="utf-8"?>
<!-- Generator: Adobe Illustrator 22.1.0, SVG Export Plug-In . SVG Version: 6.00 Build 0)  -->
<svg version="1.1"
	 id="svg4640" inkscape:export-filename="/home/qui00214/Ãrea de Trabalho/JURUBAMANJI 2/menu/Logo/jurubamanji contornado" inkscape:export-xdpi="56" inkscape:export-ydpi="56" inkscape:version="0.91 r13725" sodipodi:docname="jurubamanji contornado.svg" xmlns:cc="http://creativecommons.org/ns#" xmlns:dc="http://purl.org/dc/elements/1.1/" xmlns:inkscape="http://www.inkscape.org/namespaces/inkscape" xmlns:rdf="http://www.w3.org/1999/02/22-rdf-syntax-ns#" xmlns:sodipodi="http://sodipodi.sourceforge.net/DTD/sodipodi-0.dtd" xmlns:svg="http://www.w3.org/2000/svg"
	 xmlns="http://www.w3.org/2000/svg" xmlns:xlink="http://www.w3.org/1999/xlink" x="0px" y="0px" viewBox="0 0 595.3 841.9"
	 style="enable-background:new 0 0 595.3 841.9;" xml:space="preserve">
<style type="text/css">
	.st0{fill:#502D16;}
</style>
<sodipodi:namedview  bordercolor="#666666" borderopacity="1.0" id="base" inkscape:current-layer="layer1" inkscape:cx="241.15531" inkscape:cy="966.13102" inkscape:document-units="px" inkscape:pageopacity="0.0" inkscape:pageshadow="2" inkscape:window-height="744" inkscape:window-maximized="1" inkscape:window-width="1301" inkscape:window-x="65" inkscape:window-y="24" inkscape:zoom="0.8" pagecolor="#ffffff" showgrid="false">
	</sodipodi:namedview>
<g>
	<path class="st0" d="M43.4,422.8l-0.7-9.8v-0.2c0-0.1,0.2-0.3,0.5-0.3l2.8,0.1c1.6,0,2.1-0.1,3.4-0.2l-0.9,10.5
		c-0.2,3.5-1.5,6.9-3.1,9.3c-3.4,4.9-6,7.5-11.2,8.9c-0.2,0-0.4,0.1-0.7,0.1c-0.5,0-1-0.6-1-0.9V438l-0.2-3.4c0.2,0,0.4,0,0.7,0
		C39.7,434.6,43.6,428,43.4,422.8z M42.6,409.8c-0.2-0.4-0.3-1-0.3-1.7l3.6-0.2l2.5,0.1c0.6,0,0.9-0.6,0.9-0.6
		c0.2,0.4,0.3,0.9,0.3,1.7l-3.6,0.2l-2.5-0.1C42.9,409.2,42.6,409.8,42.6,409.8z M42.7,353.7l0.5-0.1H46l3.4-0.1
		c0,0-1.2,4.2-1.2,6.9c0,1.9,1.1,4.3,1.1,4.8c0,0.2-0.6,0.3-1,0.3H46l-3.4,0.1c0.4-2,0.8-3.1,0.8-5.2
		C43.5,357.8,43.3,356.2,42.7,353.7z M49.3,403.7c0,0.4-0.6,0.9-1,0.9H46c-1.6,0-2.1,0.1-3.4,0.2l0.8-14.2l-0.8-18.1v-0.2
		c0-0.1,0.2-0.3,0.5-0.3H46c1.6,0,2.1-0.1,3.4-0.2l-1.2,18.8C48.2,395.8,49.3,402.4,49.3,403.7z"/>
	<path class="st0" d="M61.3,401.7c-0.2-0.3-0.3-0.8-0.3-1.4l3.6-0.2l2.5,0.1c0.6,0,0.9-0.5,0.9-0.5c0.2,0.3,0.3,0.7,0.3,1.4
		l-3.6,0.2l-2.5-0.1C61.6,401.3,61.3,401.7,61.3,401.7z M61.4,372.2c0-0.1,0.2-0.3,0.5-0.3l2.8,0.1l3.4-0.2c0,0-1.2,9-1.2,14.8
		c0,4.1,1.1,9.3,1.1,10.4c0,0.4-0.6,0.7-1,0.7h-2.3l-3.4,0.2c0.4-4.3,0.8-6.6,0.8-11.2C62.2,376.5,61.4,373.3,61.4,372.2z
		 M61.9,403.9h2.8l3.4-0.3c-0.1,0.5-0.1,1.1-0.1,1.6c0,3.5,1.5,6.8,4.3,9.8c5.1,4.2,9,1.2,8.7,3.7l-0.3,2.3
		c-0.1,1.2-0.2,1.7-0.2,2.5c0,0.3,0,0.6,0,0.9c-5.2-1.1-7.4-2.6-11.4-5.8c-4.5-4.4-6.4-7.7-7.7-14.1
		C61.4,404.1,61.5,403.9,61.9,403.9z M85.6,424.3c-0.4,0.3-1,0.4-1.8,0.5c-0.2-1.3-0.3-2-0.4-3.6v-2.5c0-0.6-0.5-0.9-0.5-0.9
		c0-0.1,0.4-0.3,1.1-0.3l0.6,3.6l0.2,2.5C84.9,424.1,85.6,424.3,85.6,424.3z M99.7,402.2c-0.2-1.6-0.2-1.8-0.2-2
		c0-0.1,0.2-0.2,0.5-0.2l2.8,0.1l3.4-0.2c0,0-0.1,0.8-0.3,2.1h0.3c-0.2,1.1-1.2,4.4-1.2,10.9c0,3.7,1.1,8.2,1.1,9.1
		c0,0.3-0.6,0.6-1,0.6h-2.3l-3.4,0.2c0.3-3.4,0.7-5.4,0.8-8.7c-5.7,7.3-11.7,9.4-11.7,9.4c-0.1,0-0.4-0.1-0.5-0.4l-0.7-2.7l-1.1-3.2
		c0.3,0,0.5,0,0.8,0c4.2,0,7.5-3.7,10.7-7.5c1.6-2.4,1.9-4.2,1.9-5.8C99.6,402.4,99.4,402.4,99.7,402.2z M99.5,398.2
		c-0.2-0.3-0.3-0.7-0.3-1.2l3.6-0.2l2.5,0.1c0.6,0,0.9-0.4,0.9-0.4c0.2,0.3,0.3,0.6,0.3,1.2l-3.6,0.2l-2.5-0.1
		C99.7,397.8,99.5,398.2,99.5,398.2z M99.5,372.1c0-0.1,0.2-0.2,0.5-0.2l2.8,0.1l3.4-0.2c0,0-1.2,7.9-1.2,13c0,3.7,1.1,8.2,1.1,9.1
		c0,0.3-0.6,0.6-1,0.6h-2.3l-3.4,0.2c0.4-3.8,0.8-5.8,0.8-9.9C100.3,376,99.5,373.1,99.5,372.1z"/>
	<path class="st0" d="M117.9,398.3c-0.2-0.3-0.3-0.7-0.3-1.2l3.6-0.2l2.5,0.1c0.6,0,0.9-0.4,0.9-0.4c0.2,0.3,0.3,0.6,0.3,1.2
		l-3.6,0.2l-2.5-0.1C118.1,397.9,117.9,398.3,117.9,398.3z M117.9,372.4c0-0.1,0.2-0.2,0.5-0.2l2.8,0.1l3.4-0.2c0,0-0.5,3.3-0.9,7
		l0.6-0.6c5.1-4.5,8.6-6.2,14.1-7.4c0.2,0,0.4,0.1,0.4,0.5v2.8l0.1,3.4c-0.1,0-0.2,0-0.2,0c-5.8,0-8.9,1.8-11.1,4.1
		c-4.8,4.9-2.1,8-3.6,8.6c0.1,0.7,0.6,3.4,0.6,3.8c0,0.3-0.6,0.6-1,0.6h-2.3l-3.4,0.2c0.2-1.7,0.4-3,0.5-4.3l-0.6,0.1
		c0.5-4.5,0.9-2.8,0.9-5.5C118.7,376.2,117.9,373.4,117.9,372.4z M117.9,400.4c0-0.1,0.2-0.2,0.5-0.2l2.8,0.1l3.4-0.2
		c0,0-1.2,7.9-1.2,13c0,3.6,1.1,8.2,1.1,9.1c0,0.3-0.6,0.6-1,0.6h-2.3l-3.4,0.2c0.4-3.8,0.8-5.8,0.8-9.8
		C118.7,404.2,117.9,401.4,117.9,400.4z"/>
	<path class="st0" d="M146.3,401.7c-0.2-0.3-0.3-0.8-0.3-1.4l3.6-0.2l2.5,0.1c0.6,0,0.9-0.5,0.9-0.5c0.2,0.3,0.3,0.7,0.3,1.4
		l-3.6,0.2l-2.5-0.1C146.6,401.3,146.3,401.7,146.3,401.7z M146.3,372.2c0-0.1,0.2-0.3,0.5-0.3l2.8,0.1l3.4-0.2c0,0-1.2,9-1.2,14.8
		c0,4.1,1.1,9.3,1.1,10.4c0,0.4-0.6,0.7-1,0.7h-2.3l-3.4,0.2c0.4-4.3,0.8-6.6,0.8-11.2C147.1,376.5,146.3,373.3,146.3,372.2z
		 M146.8,403.9h2.8l3.4-0.3c-0.1,0.5-0.1,1.1-0.1,1.6c0,3.5,1.5,6.8,4.3,9.8c5.1,4.2,9,1.2,8.7,3.7l-0.3,2.3
		c-0.1,1.2-0.2,1.7-0.2,2.5c0,0.3,0,0.6,0,0.9c-5.2-1.1-7.4-2.6-11.4-5.8c-4.5-4.4-6.4-7.7-7.7-14.1
		C146.3,404.1,146.4,403.9,146.8,403.9z M170.5,424.3c-0.4,0.3-1,0.4-1.8,0.5c-0.2-1.3-0.3-2-0.4-3.6v-2.5c0-0.6-0.5-0.9-0.5-0.9
		c0-0.1,0.4-0.3,1.1-0.3l0.6,3.6l0.2,2.5C169.9,424.1,170.5,424.3,170.5,424.3z M184.7,402.2c-0.2-1.6-0.2-1.8-0.2-2
		c0-0.1,0.2-0.2,0.5-0.2l2.8,0.1l3.4-0.2c0,0-0.1,0.8-0.3,2.1h0.3c-0.2,1.1-1.2,4.4-1.2,10.9c0,3.7,1.1,8.2,1.1,9.1
		c0,0.3-0.6,0.6-1,0.6h-2.3l-3.4,0.2c0.3-3.4,0.7-5.4,0.8-8.7c-5.7,7.3-11.7,9.4-11.7,9.4c-0.1,0-0.4-0.1-0.5-0.4l-0.7-2.7l-1.1-3.2
		c0.3,0,0.5,0,0.8,0c4.2,0,7.5-3.7,10.7-7.5c1.6-2.4,1.9-4.2,1.9-5.8C184.6,402.4,184.3,402.4,184.7,402.2z M184.4,398.2
		c-0.2-0.3-0.3-0.7-0.3-1.2l3.6-0.2l2.5,0.1c0.6,0,0.9-0.4,0.9-0.4c0.2,0.3,0.3,0.6,0.3,1.2l-3.6,0.2l-2.5-0.1
		C184.7,397.8,184.4,398.2,184.4,398.2z M184.5,372.1c0-0.1,0.2-0.2,0.5-0.2l2.8,0.1l3.4-0.2c0,0-1.2,7.9-1.2,13
		c0,3.7,1.1,8.2,1.1,9.1c0,0.3-0.6,0.6-1,0.6h-2.3l-3.4,0.2c0.4-3.8,0.8-5.8,0.8-9.9C185.3,376,184.5,373.1,184.5,372.1z"/>
	<path class="st0" d="M228.4,418.8l-0.1,2.3c0,0.3,0,0.5,0,0.8c0,1,0.1,1.5,0.2,2.6c-6-0.7-8.7-2.1-13.6-5.2c-2.7-2.1-4.7-3.9-6.4-6
		c0.3,3.4,1,7.7,1,8.6c0,0.4-0.6,0.8-1,0.8h-2.3l-3.4,0.2l0.8-13.4l-0.8-17.1v-0.2c0-0.1,0.2-0.3,0.5-0.3h0.5c0.3-1.1,0.6-2.1,1-3.1
		h-1.2c-0.6,0-0.9,0.6-0.9,0.6c-0.2-0.4-0.3-0.9-0.3-1.6l2.9-0.2c0.5-1,1-2,1.6-3.2H206l-3.4,0.2l0.8-13.4l-0.8-17.1v-0.2
		c0-0.1,0.2-0.3,0.5-0.3l2.8,0.1l3.4-0.2l-1.2,17.7c0,4.1,0.5,6.7,0.9,9.9c3.5-4.7,6.7-7.2,12.7-9.7c0.3-0.1,0.6-0.1,0.7,0.3
		l0.6,2.8l1,3.2c-5.9,1.3-9.4,4.2-12.2,7.6c-2.6,3.9-2.4,9.8-2.7,11c0,3.3,0.1,2.4,0.7,6.5c1,5.8,4.3,9.4,7.6,12.7
		c3.3,2.2,5.8,2.4,9,2.4C227.9,417.8,228.4,417.8,228.4,418.8z M225.3,370.6c0.4-0.3,1.1-0.4,1.9-0.4c0.3,1.3,0.4,2,0.4,3.6v2.5
		c0,0.6,0.6,0.9,0.6,0.9c-0.4,0.2-0.8,0.3-1.4,0.4l-0.6-3.6l-0.2-2.5C226,370.8,225.3,370.6,225.3,370.6z M254.8,389.8l-2.8,0.7
		l-3.2,1.1c0.1-5.8-3.9-8.9-7.5-12.2c-3.5-2.1-6-2.1-9.7-2.2h-0.4c-0.4,0-0.7-0.7-0.6-1l0.2-2.3c0-0.7,0.1-1.2,0.1-1.6
		c0-0.6,0-1-0.1-1.8c5.6,0.9,8.3,2.1,13.1,4.9c5.7,3.9,8.3,7,11.2,13.8C255.2,389.4,255.1,389.7,254.8,389.8z M233.9,424.1
		c-0.4,0.3-1,0.4-1.8,0.5c-0.3-1.3-0.5-2-0.6-3.6l-0.2-2.5c-0.1-0.6-0.6-0.8-0.6-0.8c0.3-0.2,0.7-0.3,1.3-0.4l0.8,3.6l0.3,2.5
		C233.2,423.9,233.9,424.1,233.9,424.1z M250.8,398.6l2.3,0.1c0.1,0,0.3,0,0.4,0c1.3,0,1.8-0.1,3-0.2c-0.6,6-2,8.7-5.1,13.6
		c-4.3,5.7-7.7,8.2-14.2,11.2l-0.2,0.1c-0.1,0-0.4-0.1-0.5-0.4l-0.7-2.8l-1.1-3.2c4.9-0.9,9.1-3.7,12.8-7.6c2-3.1,2.3-5.4,2.3-8.4
		C249.8,400.2,249.4,398.6,250.8,398.6z M255.9,392.5c0.3,0.4,0.4,1.1,0.5,1.9c-1.3,0.3-2,0.5-3.6,0.6l-2.5,0.2
		c-0.6,0.1-0.8,0.7-0.8,0.7c-0.2-0.4-0.3-0.8-0.4-1.5l3.6-0.8l2.5-0.3C255.8,393.3,255.9,392.5,255.9,392.5z"/>
	<path class="st0" d="M269.5,393.7c0.1,0.4,0.1,0.9,0,1.6l-3.6-0.2l-2.5-0.4c-0.6-0.1-1,0.6-1,0.6c-0.1-0.3-0.1-0.6-0.1-0.9
		s0-0.7,0.1-1.1c1.3,0,2.1,0.1,3.6,0.3l2.4,0.5C269.2,394.2,269.5,393.7,269.5,393.7z M283.9,417.5l-0.9,2.7c-0.4,1.5-0.5,2-0.7,3.3
		c-5.7-2.4-10.7-6-14.5-11.6c-0.2-0.4-5.1-7.3-5.3-12.2c0-0.5,0.6-0.9,1-0.9h2.3l3.4-0.2c0,0.7-0.1,1.4-0.1,2.1
		c0,3.2,0.5,5.4,2.6,8.7c3.4,4.6,6.6,6.5,11.9,7.7C283.8,416.9,284,417,283.9,417.5z M269.5,391.3l-2.7-0.9c-1.5-0.4-2-0.5-3.3-0.7
		c-0.4-0.4,5.3-11.1,11.7-14.1c4.6-2.7,12.6-6.8,12.7-4.1l0.1,2.3l0.4,3.3c-4.5,0-6.9,0.2-10.8,2.5c-4.5,3.1-6.4,5.9-7.6,11.4
		C270,391.3,269.9,391.4,269.5,391.3z M286.1,417.4c0.4-0.1,0.8-0.1,1.4-0.1l-0.2,3.6l-0.4,2.5c-0.1,0.6,0.5,0.9,0.5,0.9
		c-0.3,0.1-0.5,0.1-0.9,0.1c-0.3,0-0.6,0-1-0.1c0-1.3,0.1-2.1,0.3-3.6l0.5-2.4C286.6,417.8,286.1,417.4,286.1,417.4z M309.6,403.1
		c-0.1-0.8-0.2-1.7-0.3-2.6v-0.1c-0.2,0.1-0.3,0.3-0.3,0.3c-0.2-0.4-0.2-0.8-0.1-1.4h3.7l2.5,0.3c0.6,0,0.9-0.6,0.9-0.6
		c0.2,0.5,0.2,1,0.1,1.9H316c-0.3,2.1-1.1,8-1.1,12.1c0,3.6,0.7,5.6,1.1,8.7v0.4c0,0.3-0.6,0.6-1,0.6h-2.3l-3.4,0.2
		c0.4-3.8,0.8-5.8,0.8-9.8c0-0.3,0-0.5,0-0.7c-1.7,2.5-3.7,4.8-6.4,6.7c-4.3,2.8-6.9,4.4-11.7,5.3l-0.6,0.1c-0.5,0-0.9-0.6-1-1v-2.3
		l-0.3-3.4c0.6,0,1.2,0,1.8,0c3.4,0,5.7-0.5,9.1-2.6c4.6-3.4,6.5-6.6,7.5-11.9C308.6,402.7,309.2,403,309.6,403.1z M292.6,377.3
		c-0.4,0.2-0.8,0.2-1.4,0.1v-3.7l0.2-2.5c0-0.6-0.6-0.9-0.6-0.9c0.3-0.1,0.7-0.2,1.1-0.2c0.2,0,0.5,0,0.8,0c0,0.4,0,0.8,0,1.1
		c0,0.8,0,1.5-0.2,2.6l-0.4,2.5C292.1,377,292.6,377.3,292.6,377.3z M315.9,394.1c0,0.1-0.1,0.3-0.3,0.4c0.3,1.5-0.6,1.6-0.8,1.6
		l-2.3,0.1l-3.3,0.4c0-4.6-0.3-7.1-2.6-11.2c-4.8-7-9.2-7.1-11.5-7.7c-0.1,0-0.2-0.2-0.1-0.5l0.8-2.7c0.4-1.5,0.4-2,0.6-3.3
		c0-0.1,0.1-0.1,0.3-0.1c1.7,0,10.1,5.5,13.6,11.2c-0.1-6.4-0.8-9-0.8-9.9c0-0.1,0.2-0.2,0.5-0.2l2.8,0.1l3.4-0.2
		c0,0-1.2,7.9-1.2,13C314.7,388.7,315.9,393.2,315.9,394.1z M309.2,398.3c-0.2-0.3-0.3-0.7-0.3-1.2l3.6-0.2l2.5,0.1
		c0.6,0,0.9-0.4,0.9-0.4c0.2,0.3,0.3,0.6,0.3,1.2l-3.6,0.2l-2.5-0.1C309.5,397.9,309.2,398.3,309.2,398.3z"/>
	<path class="st0" d="M332.3,396.4c0.2,0.3,0.3,0.7,0.3,1.2l-3.6,0.2l-2.5-0.1c-0.6,0-0.9,0.4-0.9,0.4c-0.2-0.3-0.3-0.6-0.3-1.2
		l3.6-0.2l2.5,0.1C332,396.9,332.3,396.4,332.3,396.4z M331.8,390.4c0.3,3.2,0.5,3.5,0.5,3.9c0,0.1-0.2,0.2-0.5,0.2l-2.8-0.1
		l-3.4,0.2c0,0,0.3-1.7,0.6-4.1h-0.6c0.6-4,1.2-2.7,1.2-8.9c0-3.7-1.1-8.2-1.1-9.1c0-0.3,0.6-0.6,1-0.6h2.3l3.4-0.2
		c-0.3,2.6-0.6,4.4-0.7,6.5c5.2-6.2,11.5-7.7,11.5-7.7c0.1,0,0.4,0.1,0.4,0.4l0.4,2.8l0.8,3.3c-5.6,0.7-8.4,3.2-11,6
		c-1.4,2.1-1.7,3.7-1.7,5.2C332.1,390.1,332.5,390.2,331.8,390.4z M332.3,422.5c0,0.1-0.2,0.2-0.5,0.2l-2.8-0.1l-3.4,0.2l1.2-13
		c0-3.7-1.1-8.2-1.1-9.1c0-0.3,0.6-0.6,1-0.6h2.3l3.4-0.2c-0.4,3.8-0.8,5.8-0.8,9.9C331.5,418.6,332.3,421.5,332.3,422.5z
		 M346.2,370.1c0.4-0.2,1-0.3,1.5-0.3c0.1,0,0.1,0,0.2,0c0.1,0.9,0.1,1.6,0.1,2.4c0,0.4,0,0.8,0,1.2l-0.2,2.5c0,0,1,1.1-0.7,1.2
		l-0.3-3.6V371C346.9,370.4,346.2,370.1,346.2,370.1z M366.8,390.3c0,0.3,0.2,1.3,0.2,1.5c0,0.1-0.2,0.3-0.5,0.3l-2.8-0.1l-3.4,0.2
		c0.1-0.5,0.1-1.1,0.1-1.6h-0.1c0-0.3,0.1-0.7,0.1-0.9c0-4-1.1-6.9-2.8-9.3c-4.1-4.6-8-1.9-7.5-4.3l0.5-2.2c0.3-1.6,0.3-2,0.4-3.3
		c2.1,0.7,8.4,2.7,12.9,11l0.7-1.1c3.6-4.8,6.5-7.4,13-9.7c0.3-0.1,0.5,0,0.6,0.4l0.4,2.8l0.8,3.3c-6.1,0.1-9.3,2.5-11,6
		c-1.4,2.1-1.7,3.7-1.7,5.2C366.9,390,367.2,390.2,366.8,390.3z M367.1,394.1c0.2,0.3,0.3,0.8,0.3,1.3l-3.6,0.2l-2.5-0.1
		c-0.6,0-0.9,0.5-0.9,0.5c-0.2-0.3-0.3-0.7-0.3-1.3l3.6-0.2l2.5,0.1C366.8,394.5,367.1,394.1,367.1,394.1z M367,422.5
		c0,0.1-0.2,0.3-0.5,0.3l-2.8-0.1l-3.4,0.2c0,0,1.2-8.6,1.2-14.2c0-4-1.1-8.9-1.1-9.9c0-0.3,0.6-0.6,1-0.6h2.3l3.4-0.2
		c-0.4,4.2-0.8,6.3-0.8,10.7C366.2,418.3,367,421.4,367,422.5z M381,370.1c0.4-0.2,1-0.3,1.5-0.3c0.1,0,0.1,0,0.2,0
		c0.1,0.9,0.1,1.6,0.1,2.4c0,0.4,0,0.8,0,1.2l-0.2,2.5c0,0.6,0.4,0.9,0.4,0.9s-0.4,0.2-1.1,0.2l-0.3-3.6v-2.5
		C381.6,370.4,381,370.1,381,370.1z M401.3,392.1l-2.8-0.1l-3.4,0.2c0-0.5,0-0.9,0-1.3c0-4-1.1-7.4-2.7-10.5c-4.1-4.6-8-1.9-7.5-4.3
		l0.5-2.2c0.3-1.6,0.3-2,0.4-3.3c5,1.5,6.9,3.3,10.2,6.9c5.6,7.2,5.8,14.4,5.8,14.5C401.8,391.9,401.6,392.1,401.3,392.1z
		 M401.9,394.1c0.2,0.3,0.3,0.8,0.3,1.3l-3.6,0.2l-2.5-0.1c-0.6,0-0.9,0.5-0.9,0.5c-0.2-0.3-0.3-0.7-0.3-1.3l3.6-0.2l2.5,0.1
		C401.6,394.5,401.9,394.1,401.9,394.1z M401.8,422.5c0,0.1-0.2,0.3-0.5,0.3l-2.8-0.1l-3.4,0.2c0,0,1.2-8.6,1.2-14.2
		c0-4-1.1-8.9-1.1-9.9c0-0.3,0.6-0.6,1-0.6h2.3l3.4-0.2c-0.4,4.2-0.8,6.3-0.8,10.7C401,418.3,401.8,421.4,401.8,422.5z"/>
	<path class="st0" d="M418.4,393.7c0.1,0.4,0.1,0.9,0,1.6l-3.6-0.2l-2.5-0.4c-0.6-0.1-1,0.6-1,0.6c-0.1-0.3-0.1-0.6-0.1-0.9
		s0-0.7,0.1-1.1c1.3,0,2.1,0.1,3.6,0.3l2.4,0.5C418.1,394.2,418.4,393.7,418.4,393.7z M432.8,417.5l-0.9,2.7c-0.4,1.5-0.5,2-0.7,3.3
		c-5.7-2.4-10.7-6-14.5-11.6c-0.2-0.4-5.1-7.3-5.3-12.2c0-0.5,0.6-0.9,1-0.9h2.3l3.4-0.2c0,0.7-0.1,1.4-0.1,2.1
		c0,3.2,0.5,5.4,2.6,8.7c3.4,4.6,6.6,6.5,11.9,7.7C432.7,416.9,432.9,417,432.8,417.5z M418.4,391.3l-2.7-0.9
		c-1.5-0.4-2-0.5-3.3-0.7c-0.4-0.4,5.3-11.1,11.7-14.1c4.6-2.7,12.6-6.8,12.7-4.1l0.1,2.3l0.4,3.3c-4.5,0-6.9,0.2-10.8,2.5
		c-4.5,3.1-6.4,5.9-7.6,11.4C418.9,391.3,418.8,391.4,418.4,391.3z M435,417.4c0.4-0.1,0.8-0.1,1.4-0.1l-0.2,3.6l-0.4,2.5
		c-0.1,0.6,0.5,0.9,0.5,0.9c-0.3,0.1-0.5,0.1-0.9,0.1c-0.3,0-0.6,0-1-0.1c0-1.3,0.1-2.1,0.3-3.6l0.5-2.4
		C435.5,417.8,435,417.4,435,417.4z M458.5,403.1c-0.1-0.8-0.2-1.7-0.3-2.6v-0.1c-0.2,0.1-0.3,0.3-0.3,0.3c-0.2-0.4-0.2-0.8-0.1-1.4
		h3.7l2.5,0.3c0.6,0,0.9-0.6,0.9-0.6c0.2,0.5,0.2,1,0.1,1.9h-0.1c-0.3,2.1-1.1,8-1.1,12.1c0,3.6,0.7,5.6,1.1,8.7v0.4
		c0,0.3-0.6,0.6-1,0.6h-2.3l-3.4,0.2c0.4-3.8,0.8-5.8,0.8-9.8c0-0.3,0-0.5,0-0.7c-1.7,2.5-3.7,4.8-6.4,6.7
		c-4.3,2.8-6.9,4.4-11.7,5.3l-0.6,0.1c-0.5,0-1-0.6-1-1v-2.3l-0.3-3.4c0.6,0,1.2,0,1.8,0c3.4,0,5.7-0.5,9.1-2.6
		c4.6-3.4,6.5-6.6,7.5-11.9C457.5,402.7,458.1,403,458.5,403.1z M441.5,377.3c-0.4,0.2-0.8,0.2-1.4,0.1v-3.7l0.2-2.5
		c0-0.6-0.6-0.9-0.6-0.9c0.3-0.1,0.7-0.2,1.1-0.2c0.2,0,0.5,0,0.8,0c0,0.4,0,0.8,0,1.1c0,0.8,0,1.5-0.2,2.6l-0.4,2.5
		C441,377,441.5,377.3,441.5,377.3z M464.8,394.1c0,0.1-0.1,0.3-0.3,0.4c0.3,1.5-0.6,1.6-0.8,1.6l-2.3,0.1l-3.3,0.4
		c0-4.6-0.3-7.1-2.6-11.2c-4.8-7-9.2-7.1-11.5-7.7c-0.1,0-0.2-0.2-0.1-0.5l0.8-2.7c0.4-1.5,0.4-2,0.6-3.3c0.1-0.1,0.1-0.1,0.3-0.1
		c1.7,0,10.1,5.5,13.6,11.2c-0.1-6.4-0.8-9-0.8-9.9c0-0.1,0.2-0.2,0.5-0.2l2.8,0.1l3.4-0.2c0,0-1.2,7.9-1.2,13
		C463.6,388.7,464.8,393.2,464.8,394.1z M458.1,398.3c-0.2-0.3-0.3-0.7-0.3-1.2l3.6-0.2l2.5,0.1c0.6,0,0.9-0.4,0.9-0.4
		c0.2,0.3,0.3,0.6,0.3,1.2l-3.6,0.2l-2.5-0.1C458.4,397.9,458.1,398.3,458.1,398.3z"/>
	<path class="st0" d="M481.2,396.4c0.2,0.3,0.3,0.7,0.3,1.2l-3.6,0.2l-2.5-0.1c-0.6,0-0.9,0.4-0.9,0.4c-0.2-0.3-0.3-0.6-0.3-1.2
		l3.6-0.2l2.5,0.1C480.9,396.9,481.2,396.4,481.2,396.4z M480.7,390.5c0.3,3.1,0.4,3.5,0.4,3.9c0,0.1-0.2,0.2-0.5,0.2l-2.8-0.1
		l-3.4,0.2c0,0,0.3-1.7,0.5-4.1h-0.5c0.5-3.7,1.2-2.4,1.2-8.9c0-3.7-1.1-8.2-1.1-9.1c0-0.3,0.6-0.6,1-0.6h2.3l3.4-0.2
		c-0.3,3-0.6,4.8-0.8,7.4c6.2-6.9,12.7-8.5,12.8-8.5c0.1,0,0.4,0.1,0.4,0.4l0.5,2.8l0.9,3.3c-5.6,0.2-8.7,3.3-11.9,6.2
		c-1.7,2.2-2,3.9-2,5.4C481,390.4,481.4,390.3,480.7,390.5z M481.2,422.5c0,0.1-0.2,0.2-0.5,0.2l-2.8-0.1l-3.4,0.2l1.2-13
		c0-3.7-1.1-8.2-1.1-9.1c0-0.3,0.6-0.6,1-0.6h2.3l3.4-0.2c-0.4,3.8-0.8,5.8-0.8,9.9C480.4,418.6,481.2,421.5,481.2,422.5z
		 M496.3,370.2c0.4-0.2,1.1-0.3,1.8-0.3c0.1,1.2,0.2,1.9,0.2,3.1c0,0.2,0,0.3,0,0.5l-0.1,2.5c0,0.6,0.4,0.9,0.4,0.9
		c0,0.1-0.4,0.2-1.2,0.3l-0.4-3.6v-2.5C496.9,370.4,496.3,370.2,496.3,370.2z M518.8,391.3l-2.8-0.1l-3.4,0.2
		c0.1-0.5,0.1-1.1,0.1-1.6c0-3.8-1.5-7-3.8-9.9c-4.8-4.3-8.8-1.5-8.4-4l0.4-2.3c0.2-1.6,0.3-2,0.3-3.4c5,1.3,7.1,2.9,10.9,6.2
		c4.3,4.5,6.1,7.8,7.2,14.2C519.3,391.1,519.2,391.3,518.8,391.3z M519.4,393.3c0.2,0.3,0.3,0.8,0.3,1.3l-3.6,0.2l-2.5-0.1
		c-0.6,0-0.9,0.5-0.9,0.5c-0.2-0.3-0.3-0.7-0.3-1.3l3.6-0.2l2.5,0.1C519.1,393.8,519.4,393.3,519.4,393.3z M519.3,422.5
		c0,0.1-0.2,0.3-0.5,0.3l-2.8-0.1l-3.4,0.2c0,0,1.2-8.9,1.2-14.6c0-4.1-1.1-9.2-1.1-10.2c0-0.3,0.6-0.7,1-0.7h2.3l3.4-0.2
		c-0.4,4.3-0.8,6.5-0.8,11C518.5,418.1,519.3,421.4,519.3,422.5z"/>
	<path class="st0" d="M532,422.8l-0.7-9.8v-0.2c0-0.1,0.2-0.3,0.5-0.3l2.8,0.1c1.6,0,2.1-0.1,3.4-0.2l-0.9,10.5
		c-0.2,3.5-1.5,6.9-3.1,9.3c-3.4,4.9-6,7.5-11.2,8.9c-0.2,0-0.4,0.1-0.7,0.1c-0.5,0-1-0.6-1-0.9V438l-0.2-3.4c0.2,0,0.4,0,0.7,0
		C528.4,434.6,532.2,428,532,422.8z M531.3,409.8c-0.2-0.4-0.3-1-0.3-1.7l3.6-0.2l2.5,0.1c0.6,0,0.9-0.6,0.9-0.6
		c0.2,0.4,0.3,0.9,0.3,1.7l-3.6,0.2l-2.5-0.1C531.6,409.2,531.3,409.8,531.3,409.8z M531.3,353.7l0.5-0.1h2.8l3.4-0.1
		c0,0-1.2,4.2-1.2,6.9c0,1.9,1.1,4.3,1.1,4.8c0,0.2-0.6,0.3-1,0.3h-2.3l-3.4,0.1c0.4-2,0.8-3.1,0.8-5.2
		C532.1,357.8,532,356.2,531.3,353.7z M538,403.7c0,0.4-0.6,0.9-1,0.9h-2.3c-1.6,0-2.1,0.1-3.4,0.2l0.8-14.2l-0.8-18.1v-0.2
		c0-0.1,0.2-0.3,0.5-0.3l2.8,0.1c1.6,0,2.1-0.1,3.4-0.2l-1.2,18.8C536.8,395.8,538,402.4,538,403.7z"/>
	<path class="st0" d="M550,398.2c-0.2-0.3-0.3-0.7-0.3-1.2l3.6-0.2l2.5,0.1c0.6,0,0.9-0.4,0.9-0.4c0.2,0.3,0.3,0.6,0.3,1.2l-3.6,0.2
		l-2.5-0.1C550.3,397.8,550,398.2,550,398.2z M550,353.7l0.5-0.1h2.8l3.4-0.1c0,0-1.2,4.2-1.2,6.9c0,1.9,1.1,4.3,1.1,4.8
		c0,0.2-0.6,0.3-1,0.3h-2.3l-3.4,0.1c0.4-2,0.8-3.1,0.8-5.2C550.8,357.8,550.7,356.2,550,353.7z M550,372.1c0-0.1,0.2-0.2,0.5-0.2
		l2.8,0.1l3.4-0.2c0,0-1.2,7.9-1.2,13c0,3.7,1.1,8.2,1.1,9.1c0,0.3-0.6,0.6-1,0.6h-2.3l-3.4,0.2c0.4-3.8,0.8-5.8,0.8-9.9
		C550.8,376,550,373.1,550,372.1z M550,400.3c0-0.1,0.2-0.2,0.5-0.2l2.8,0.1l3.4-0.2c0,0-1.2,7.9-1.2,13c0,3.7,1.1,8.2,1.1,9.1
		c0,0.3-0.6,0.6-1,0.6h-2.3l-3.4,0.2c0.4-3.8,0.8-5.8,0.8-9.9C550.8,404.1,550,401.2,550,400.3z"/>
</g>
</svg>
