<?xml version="1.0" encoding="utf-8"?>
<!-- Generator: Adobe Illustrator 22.1.0, SVG Export Plug-In . SVG Version: 6.00 Build 0)  -->
<svg version="1.1"
	 id="svg4640" inkscape:export-filename="/home/qui00214/Ãrea de Trabalho/JURUBAMANJI 2/menu/Logo/jurubamanji contornado" inkscape:export-xdpi="56" inkscape:export-ydpi="56" inkscape:version="0.91 r13725" sodipodi:docname="jurubamanji contornado.svg" xmlns:cc="http://creativecommons.org/ns#" xmlns:dc="http://purl.org/dc/elements/1.1/" xmlns:inkscape="http://www.inkscape.org/namespaces/inkscape" xmlns:rdf="http://www.w3.org/1999/02/22-rdf-syntax-ns#" xmlns:sodipodi="http://sodipodi.sourceforge.net/DTD/sodipodi-0.dtd" xmlns:svg="http://www.w3.org/2000/svg"
	 xmlns="http://www.w3.org/2000/svg" xmlns:xlink="http://www.w3.org/1999/xlink" x="0px" y="0px" viewBox="0 0 595.3 841.9"
	 style="enable-background:new 0 0 595.3 841.9;" xml:space="preserve">
<style type="text/css">
	.st0{fill:#502D16;}
</style>
<sodipodi:namedview  bordercolor="#666666" borderopacity="1.0" id="base" inkscape:current-layer="layer1" inkscape:cx="241.15531" inkscape:cy="966.13102" inkscape:document-units="px" inkscape:pageopacity="0.0" inkscape:pageshadow="2" inkscape:window-height="744" inkscape:window-maximized="1" inkscape:window-width="1301" inkscape:window-x="65" inkscape:window-y="24" inkscape:zoom="0.8" pagecolor="#ffffff" showgrid="false">
	</sodipodi:namedview>
<g>
	<path class="st0" d="M215,428.1l-0.7-9.8v-0.2c0-0.1,0.2-0.3,0.5-0.3l2.8,0.1c1.6,0,2.1-0.1,3.4-0.2l-0.9,10.5
		c-0.2,3.5-1.5,6.9-3.1,9.3c-3.4,4.9-6,7.5-11.2,8.9c-0.2,0-0.4,0.1-0.7,0.1c-0.5,0-1-0.6-1-0.9v-2.3l-0.2-3.4c0.2,0,0.4,0,0.7,0
		C211.4,439.9,215.2,433.2,215,428.1z M214.3,415c-0.2-0.4-0.3-1-0.3-1.7l3.6-0.2l2.5,0.1c0.6,0,0.9-0.6,0.9-0.6
		c0.2,0.4,0.3,0.9,0.3,1.7l-3.6,0.2l-2.5-0.1C214.6,414.4,214.3,415,214.3,415z M214.4,359l0.5-0.1h2.8l3.4-0.1c0,0-1.2,4.2-1.2,6.9
		c0,1.9,1.1,4.3,1.1,4.8c0,0.2-0.6,0.3-1,0.3h-2.3l-3.4,0.1c0.4-2,0.8-3.1,0.8-5.2C215.2,363,215,361.5,214.4,359z M221,409
		c0,0.4-0.6,0.9-1,0.9h-2.3c-1.6,0-2.1,0.1-3.4,0.2l0.8-14.2l-0.8-18.1v-0.2c0-0.1,0.2-0.3,0.5-0.3l2.8,0.1c1.6,0,2.1-0.1,3.4-0.2
		l-1.2,18.8C219.8,401.1,221,407.6,221,409z"/>
	<path class="st0" d="M233,407c-0.2-0.3-0.3-0.8-0.3-1.4l3.6-0.2l2.5,0.1c0.6,0,0.9-0.5,0.9-0.5c0.2,0.3,0.3,0.7,0.3,1.4l-3.6,0.2
		l-2.5-0.1C233.3,406.5,233,407,233,407z M233,377.4c0-0.1,0.2-0.3,0.5-0.3l2.8,0.1l3.4-0.2c0,0-1.2,9-1.2,14.8
		c0,4.1,1.1,9.3,1.1,10.4c0,0.4-0.6,0.7-1,0.7h-2.3L233,403c0.4-4.3,0.8-6.6,0.8-11.2C233.9,381.8,233,378.5,233,377.4z
		 M233.5,409.2h2.8l3.4-0.3c-0.1,0.5-0.1,1.1-0.1,1.6c0,3.5,1.5,6.8,4.3,9.8c5.1,4.2,9,1.2,8.7,3.7l-0.3,2.3
		c-0.1,1.2-0.2,1.7-0.2,2.5c0,0.3,0,0.6,0,0.9c-5.2-1.1-7.4-2.6-11.4-5.8c-4.5-4.4-6.4-7.7-7.7-14.1
		C233,409.4,233.2,409.2,233.5,409.2z M257.2,429.5c-0.4,0.3-1,0.4-1.8,0.5c-0.2-1.3-0.3-2-0.4-3.6v-2.5c0-0.6-0.5-0.9-0.5-0.9
		c0-0.1,0.4-0.3,1.1-0.3l0.6,3.6l0.2,2.5C256.6,429.3,257.2,429.5,257.2,429.5z M271.4,407.5c-0.2-1.6-0.2-1.8-0.2-2
		c0-0.1,0.2-0.2,0.5-0.2l2.8,0.1l3.4-0.2c0,0-0.1,0.8-0.3,2.1h0.3c-0.2,1.1-1.2,4.4-1.2,10.9c0,3.7,1.1,8.2,1.1,9.1
		c0,0.3-0.6,0.6-1,0.6h-2.3l-3.4,0.2c0.3-3.4,0.7-5.4,0.8-8.7c-5.7,7.3-11.7,9.4-11.7,9.4c-0.1,0-0.4-0.1-0.5-0.4l-0.7-2.7l-1.1-3.2
		c0.3,0,0.5,0,0.8,0c4.2,0,7.5-3.7,10.7-7.5c1.6-2.4,1.9-4.2,1.9-5.8C271.3,407.7,271.1,407.6,271.4,407.5z M271.1,403.4
		c-0.2-0.3-0.3-0.7-0.3-1.2l3.6-0.2l2.5,0.1c0.6,0,0.9-0.4,0.9-0.4c0.2,0.3,0.3,0.6,0.3,1.2l-3.6,0.2L272,403
		C271.4,403,271.1,403.4,271.1,403.4z M271.2,377.3c0-0.1,0.2-0.2,0.5-0.2l2.8,0.1l3.4-0.2c0,0-1.2,7.9-1.2,13
		c0,3.7,1.1,8.2,1.1,9.1c0,0.3-0.6,0.6-1,0.6h-2.3l-3.4,0.2c0.4-3.8,0.8-5.8,0.8-9.9C272,381.2,271.2,378.3,271.2,377.3z"/>
	<path class="st0" d="M289.5,403.5c-0.2-0.3-0.3-0.7-0.3-1.2l3.6-0.2l2.5,0.1c0.6,0,0.9-0.4,0.9-0.4c0.2,0.3,0.3,0.6,0.3,1.2
		l-3.6,0.2l-2.5-0.1C289.8,403.1,289.5,403.5,289.5,403.5z M289.6,377.6c0-0.1,0.2-0.2,0.5-0.2l2.8,0.1l3.4-0.2c0,0-0.5,3.3-0.9,7
		l0.6-0.6c5.1-4.5,8.6-6.2,14.1-7.4c0.2,0,0.4,0.1,0.4,0.5v2.8l0.1,3.4c-0.1,0-0.2,0-0.2,0c-5.8,0-8.9,1.8-11.1,4.1
		c-4.8,4.9-2.1,8-3.6,8.6c0.1,0.7,0.6,3.4,0.6,3.8c0,0.3-0.6,0.6-1,0.6H293l-3.4,0.2c0.2-1.7,0.4-3,0.5-4.3l-0.6,0.1
		c0.5-4.5,0.9-2.8,0.9-5.5C290.4,381.5,289.6,378.6,289.6,377.6z M289.6,405.6c0-0.1,0.2-0.2,0.5-0.2l2.8,0.1l3.4-0.2
		c0,0-1.2,7.9-1.2,13c0,3.6,1.1,8.2,1.1,9.1c0,0.3-0.6,0.6-1,0.6h-2.3l-3.4,0.2c0.4-3.8,0.8-5.8,0.8-9.8
		C290.4,409.5,289.6,406.6,289.6,405.6z"/>
	<path class="st0" d="M318,407c-0.2-0.3-0.3-0.8-0.3-1.4l3.6-0.2l2.5,0.1c0.6,0,0.9-0.5,0.9-0.5c0.2,0.3,0.3,0.7,0.3,1.4l-3.6,0.2
		l-2.5-0.1C318.2,406.5,318,407,318,407z M318,377.4c0-0.1,0.2-0.3,0.5-0.3l2.8,0.1l3.4-0.2c0,0-1.2,9-1.2,14.8
		c0,4.1,1.1,9.3,1.1,10.4c0,0.4-0.6,0.7-1,0.7h-2.3L318,403c0.4-4.3,0.8-6.6,0.8-11.2C318.8,381.8,318,378.5,318,377.4z
		 M318.5,409.2h2.8l3.4-0.3c-0.1,0.5-0.1,1.1-0.1,1.6c0,3.5,1.5,6.8,4.3,9.8c5.1,4.2,9,1.2,8.7,3.7l-0.3,2.3
		c-0.1,1.2-0.2,1.7-0.2,2.5c0,0.3,0,0.6,0,0.9c-5.2-1.1-7.4-2.6-11.4-5.8c-4.5-4.4-6.4-7.7-7.7-14.1
		C318,409.4,318.1,409.2,318.5,409.2z M342.2,429.5c-0.4,0.3-1,0.4-1.8,0.5c-0.2-1.3-0.3-2-0.4-3.6v-2.5c0-0.6-0.5-0.9-0.5-0.9
		c0-0.1,0.4-0.3,1.1-0.3l0.6,3.6l0.2,2.5C341.6,429.3,342.2,429.5,342.2,429.5z M356.4,407.5c-0.2-1.6-0.2-1.8-0.2-2
		c0-0.1,0.2-0.2,0.5-0.2l2.8,0.1l3.4-0.2c0,0-0.1,0.8-0.3,2.1h0.3c-0.2,1.1-1.2,4.4-1.2,10.9c0,3.7,1.1,8.2,1.1,9.1
		c0,0.3-0.6,0.6-1,0.6h-2.3l-3.4,0.2c0.3-3.4,0.7-5.4,0.8-8.7c-5.7,7.3-11.7,9.4-11.7,9.4c-0.1,0-0.4-0.1-0.5-0.4l-0.7-2.7l-1.1-3.2
		c0.3,0,0.5,0,0.8,0c4.2,0,7.5-3.7,10.7-7.5c1.6-2.4,1.9-4.2,1.9-5.8C356.3,407.7,356,407.6,356.4,407.5z M356.1,403.4
		c-0.2-0.3-0.3-0.7-0.3-1.2l3.6-0.2l2.5,0.1c0.6,0,0.9-0.4,0.9-0.4c0.2,0.3,0.3,0.6,0.3,1.2l-3.6,0.2L357,403
		C356.4,403,356.1,403.4,356.1,403.4z M356.1,377.3c0-0.1,0.2-0.2,0.5-0.2l2.8,0.1l3.4-0.2c0,0-1.2,7.9-1.2,13
		c0,3.7,1.1,8.2,1.1,9.1c0,0.3-0.6,0.6-1,0.6h-2.3l-3.4,0.2c0.4-3.8,0.8-5.8,0.8-9.9C357,381.2,356.1,378.3,356.1,377.3z"/>
</g>
</svg>
