<?xml version="1.0" encoding="utf-8"?>
<!-- Generator: Adobe Illustrator 22.1.0, SVG Export Plug-In . SVG Version: 6.00 Build 0)  -->
<svg version="1.1"
	 id="svg4747" inkscape:export-filename="/home/qui00214/Ãƒrea de Trabalho/JURUBAMANJI/Plantas do jogo/png/AnimaÃƒÂ§ÃƒÂ£o/arbusto1" inkscape:export-xdpi="8.3452215" inkscape:export-ydpi="8.3452215" inkscape:version="0.91 r13725" sodipodi:docname="arbusto1.svg" xmlns:cc="http://creativecommons.org/ns#" xmlns:dc="http://purl.org/dc/elements/1.1/" xmlns:inkscape="http://www.inkscape.org/namespaces/inkscape" xmlns:rdf="http://www.w3.org/1999/02/22-rdf-syntax-ns#" xmlns:sodipodi="http://sodipodi.sourceforge.net/DTD/sodipodi-0.dtd" xmlns:svg="http://www.w3.org/2000/svg"
	 xmlns="http://www.w3.org/2000/svg" xmlns:xlink="http://www.w3.org/1999/xlink" x="0px" y="0px" viewBox="0 0 595.3 841.9"
	 style="enable-background:new 0 0 595.3 841.9;" xml:space="preserve">
<style type="text/css">
	.st0{fill:#502D16;}
	.st1{fill:#89C93D;}
	.st2{fill:#331A0D;}
	.st3{fill:#A4CC2D;}
	.st4{fill:none;stroke:#222B00;}
</style>
<polygon class="st0" points="340.2,514.1 340.2,578.8 323.3,578.8 323.3,445.3 340.2,445.3 340.2,505.1 "/>
<path class="st1" d="M433.9,435.2c-15.5,44.9-62.9,69.8-108.2,58.1c-26.8,32.9-72.2,47.4-114.6,32.7
	c-54.3-18.8-83.1-77.9-64.3-132.2c18.7-54.2,77.9-83.1,132.2-64.3c4.5,1.5,8.8,3.3,12.9,5.4c23.4-18.7,55.6-25.4,86.1-14.8
	C425.2,336.4,450.2,388,433.9,435.2z"/>
<rect x="164.5" y="575.4" class="st2" width="308.9" height="6.8"/>
<g>
	<g>
		<path class="st3" d="M415.5,422.1c-13.5,39.1-54.8,60.8-94.2,50.6c-23.3,28.7-62.9,41.2-99.8,28.4c-47.2-16.3-72.3-67.8-56-115.1
			c16.3-47.2,67.8-72.3,115.1-56c3.9,1.4,7.6,2.9,11.2,4.8c20.4-16.3,48.4-22.1,74.9-12.9C407.9,336.2,429.7,381,415.5,422.1z"/>
	</g>
	<circle class="st1" cx="243.9" cy="435.2" r="14.4"/>
	<circle class="st1" cx="205.7" cy="396.3" r="14.4"/>
	<circle class="st1" cx="192.2" cy="435.5" r="14.4"/>
	<circle class="st1" cx="283.6" cy="476.9" r="14.4"/>
	<circle class="st1" cx="217" cy="469.2" r="14.4"/>
	
		<ellipse transform="matrix(0.3266 -0.9451 0.9451 0.3266 -256.5129 491.5229)" class="st1" cx="216.7" cy="425.8" rx="7.2" ry="7.2"/>
	
		<ellipse transform="matrix(0.3266 -0.9451 0.9451 0.3266 -285.6162 560.9493)" class="st1" cx="250.9" cy="480.9" rx="7.2" ry="7.2"/>
	<circle class="st1" cx="278.7" cy="447.2" r="7.2"/>
	
		<ellipse transform="matrix(0.3266 -0.9451 0.9451 0.3266 -198.8472 458.9694)" class="st1" cx="222.7" cy="369" rx="7.2" ry="7.2"/>
</g>
<defs>
	
	
		<inkscape:perspective  id="perspective5007" inkscape:persp3d-origin="372.04724 : 350.7874 : 1" inkscape:vp_x="0 : 526.1811 : 1" inkscape:vp_y="0 : 1000 : 0" inkscape:vp_z="744.09449 : 526.1811 : 1" sodipodi:type="inkscape:persp3d">
		</inkscape:perspective>
</defs>
<sodipodi:namedview  bordercolor="#666666" borderopacity="1.0" id="base" inkscape:current-layer="g8762" inkscape:cx="-132.05935" inkscape:cy="520" inkscape:document-units="px" inkscape:pageopacity="0.0" inkscape:pageshadow="2" inkscape:window-height="744" inkscape:window-maximized="1" inkscape:window-width="1301" inkscape:window-x="65" inkscape:window-y="24" inkscape:zoom="0.62" pagecolor="#ffffff" showgrid="false">
	</sodipodi:namedview>
<g id="g5057">
</g>
<rect id="rect5046" x="19.5" y="143.4" class="st4" width="560" height="560"/>
</svg>
