<?xml version="1.0" encoding="utf-8"?>
<!-- Generator: Adobe Illustrator 22.1.0, SVG Export Plug-In . SVG Version: 6.00 Build 0)  -->
<svg version="1.1"
	 id="svg3403" inkscape:export-filename="/home/musquito/Ãrea de Trabalho/Jogo/Plantas do jogo/png/arvore c.png" inkscape:export-xdpi="8.3452215" inkscape:export-ydpi="8.3452215" inkscape:version="0.91 r13725" sodipodi:docname="arvore colorida.svg" xmlns:cc="http://creativecommons.org/ns#" xmlns:dc="http://purl.org/dc/elements/1.1/" xmlns:inkscape="http://www.inkscape.org/namespaces/inkscape" xmlns:rdf="http://www.w3.org/1999/02/22-rdf-syntax-ns#" xmlns:sodipodi="http://sodipodi.sourceforge.net/DTD/sodipodi-0.dtd" xmlns:svg="http://www.w3.org/2000/svg"
	 xmlns="http://www.w3.org/2000/svg" xmlns:xlink="http://www.w3.org/1999/xlink" x="0px" y="0px" viewBox="0 0 743.4 1051.2"
	 style="enable-background:new 0 0 743.4 1051.2;" xml:space="preserve">
<style type="text/css">
	.st0{fill:none;}
	.st1{fill:none;stroke:#222B00;}
	.st2{fill:#512B12;}
	.st3{fill:#89C93D;}
	.st4{fill:#A4CC2D;}
	.st5{fill:#CC4B32;}
	.st6{fill:#F06543;}
	.st7{fill:#41200B;}
</style>
<sodipodi:namedview  bordercolor="#666666" borderopacity="1" gridtolerance="10" guidetolerance="10" id="namedview3405" inkscape:current-layer="svg3403" inkscape:cx="359.29324" inkscape:cy="574.10877" inkscape:guide-bbox="true" inkscape:pageopacity="0" inkscape:pageshadow="2" inkscape:window-height="744" inkscape:window-maximized="1" inkscape:window-width="1301" inkscape:window-x="65" inkscape:window-y="24" inkscape:zoom="0.99" objecttolerance="10" pagecolor="#ffffff" showgrid="false" showguides="false">
	<sodipodi:guide  id="guide5185" orientation="1,0" position="33.127543,470.60601"></sodipodi:guide>
</sodipodi:namedview>
<g id="layer1" inkscape:groupmode="layer" inkscape:label="Layer 1">
</g>
<g id="layer2" inkscape:groupmode="layer" inkscape:label="Layer 2">
</g>
<path id="path4459" inkscape:connector-curvature="0" class="st0" d="M0,0"/>
<path id="path4461" inkscape:connector-curvature="0" class="st0" d="M0,0"/>
<path id="path4465" inkscape:connector-curvature="0" class="st0" d="M0,0"/>
<path id="path4473" inkscape:connector-curvature="0" class="st0" d="M0,0"/>
<path id="path4479" inkscape:connector-curvature="0" class="st0" d="M0,0"/>
<path id="path5189" inkscape:connector-curvature="0" class="st0" d="M0,0"/>
<path id="path5191" inkscape:connector-curvature="0" class="st0" d="M0,0"/>
<path id="path6587" inkscape:connector-curvature="0" class="st0" d="M0,0"/>
<path id="path7355" inkscape:connector-curvature="0" class="st0" d="M0,0"/>
<path id="path7361" inkscape:connector-curvature="0" class="st0" d="M0,0"/>
<path id="path7363" inkscape:connector-curvature="0" class="st0" d="M0,0"/>
<path id="path7367" inkscape:connector-curvature="0" class="st0" d="M0,0"/>
<path id="path7383" inkscape:connector-curvature="0" class="st0" d="M0,0"/>
<path id="path7481" inkscape:connector-curvature="0" class="st0" d="M0,0"/>
<path id="path7483" inkscape:connector-curvature="0" class="st0" d="M0,0"/>
<path id="path7497" inkscape:connector-curvature="0" class="st0" d="M0,0"/>
<rect id="rect8196" x="20.1" y="63.5" class="st1" width="700" height="700"/>
<g>
	<g>
		<g>
			<polygon class="st2" points="410.7,510.5 354.3,566.7 355.5,552.8 404.3,504.2 			"/>
			<circle class="st3" cx="453.8" cy="448.7" r="79.5"/>
			<circle class="st4" cx="454.1" cy="436.9" r="74"/>
			<g>
				<g>
					<path class="st5" d="M471.8,447.9c-0.1-0.2-0.1-0.3-0.2-0.5h0c0,0.1,0.1,0.2,0.1,0.2C471.8,447.7,471.8,447.8,471.8,447.9z"/>
					<path class="st5" d="M505.4,447.4c-0.1,0.2-0.2,0.4-0.3,0.6c-0.1,0.3-0.3,0.7-0.5,1c-3,5.9-9.1,9.9-16.2,9.9
						c-7,0-13.1-4-16.1-9.8c1.9,3.4,5.5,5.7,9.7,5.7c2.4,0,4.6-0.8,6.4-2c1.8,1.3,4,2,6.4,2c0.2,0,0.4,0,0.6,0c0.1,0,0.2,0,0.3,0
						c0.1,0,0.2,0,0.3,0c0.2,0,0.3,0,0.5-0.1c0.1,0,0.2,0,0.3-0.1c0.2,0,0.3-0.1,0.5-0.1c0.1,0,0.2,0,0.3-0.1c0.2,0,0.3-0.1,0.5-0.1
						c0.2-0.1,0.4-0.1,0.5-0.2c0.2-0.1,0.3-0.1,0.5-0.2c0,0,0,0,0.1,0c0.2-0.1,0.3-0.1,0.5-0.2c0.1-0.1,0.3-0.1,0.4-0.2
						c0.4-0.2,0.9-0.5,1.3-0.8c0.2-0.2,0.4-0.3,0.6-0.5c0.2-0.2,0.4-0.4,0.6-0.6c0.2-0.2,0.4-0.4,0.6-0.6c0.2-0.2,0.4-0.4,0.5-0.7
						C504.5,449.5,505,448.5,505.4,447.4L505.4,447.4z"/>
				</g>
				<path class="st6" d="M506,443.7c0,0.2,0,0.4,0,0.6v0.1c-0.1,1.1-0.3,2.1-0.6,3.1c-0.4,1.1-0.9,2.1-1.6,3
					c-0.2,0.2-0.3,0.4-0.5,0.7c-0.2,0.2-0.4,0.4-0.6,0.6c-0.2,0.2-0.4,0.4-0.6,0.6c-0.2,0.2-0.4,0.3-0.6,0.5
					c-0.4,0.3-0.8,0.6-1.3,0.8c-0.1,0.1-0.3,0.1-0.4,0.2c-0.2,0.1-0.3,0.2-0.5,0.2c0,0,0,0-0.1,0c-0.1,0.1-0.3,0.1-0.5,0.2
					c-0.2,0.1-0.3,0.1-0.5,0.2c-0.2,0-0.3,0.1-0.5,0.1c-0.1,0-0.2,0.1-0.3,0.1c-0.1,0-0.3,0.1-0.5,0.1c-0.1,0-0.2,0-0.3,0.1
					c-0.2,0-0.3,0-0.5,0.1c-0.1,0-0.2,0-0.3,0c-0.1,0-0.2,0-0.3,0c-0.2,0-0.4,0-0.6,0c-2.4,0-4.6-0.8-6.4-2c-1.8,1.3-4,2-6.4,2
					c-4.2,0-7.8-2.3-9.7-5.7c-0.1-0.1-0.1-0.2-0.2-0.4c0-0.1-0.1-0.2-0.1-0.3c-0.1-0.2-0.2-0.4-0.2-0.5c0-0.1-0.1-0.2-0.1-0.2
					c0-0.1-0.1-0.2-0.1-0.2c-0.2-0.4-0.3-0.9-0.4-1.3c0-0.1-0.1-0.3-0.1-0.5c0-0.2-0.1-0.3-0.1-0.5c0-0.2,0-0.3-0.1-0.5
					c0-0.1,0-0.3,0-0.4c0-0.2,0-0.4,0-0.6c0-6.1,5-11.1,11.1-11.1c2.4,0,4.6,0.8,6.4,2c1.8-1.3,4-2,6.4-2
					C501,432.6,506,437.6,506,443.7z"/>
			</g>
			<polygon class="st2" points="322.4,557.2 356.9,593.2 357.5,603.4 317.6,561.7 			"/>
			<polygon class="st2" points="422,546.1 372.9,541.8 364.7,547.4 421.5,552.6 			"/>
			<polygon class="st2" points="361,548.2 361,620.1 347.5,620.1 347.5,471.8 361,471.8 361,538.3 			"/>
			<path class="st3" d="M508.1,371.9c0,59.5-48.3,107.8-107.8,107.8c-13.2,0-25.7-2.4-37.4-6.6c-18.6,15.3-42.4,24.4-68.3,24.4
				c-59.5,0-107.8-48.3-107.8-107.8c0-34,15.7-64.3,40.3-84c4.8-43.5,41.6-77.3,86.3-77.3c29.4,0,55.4,14.6,71.1,36.9
				c5.1-0.8,10.5-1.2,15.8-1.2C459.9,264.1,508.1,312.3,508.1,371.9z"/>
			<path class="st4" d="M478.8,365.2c0,53.4-43.3,96.7-96.7,96.7c-11.8,0-23.1-2.1-33.6-6c-16.7,13.6-37.9,21.9-61.3,21.9
				c-53.4,0-96.7-43.3-96.7-96.7c0-30.5,14.1-57.7,36.2-75.4c4.3-39,37.3-69.3,77.5-69.3c26.4,0,49.7,13.1,63.8,33.1
				c4.6-0.7,9.4-1,14.2-1C435.6,268.4,478.8,311.8,478.8,365.2z"/>
			
				<ellipse transform="matrix(0.3162 -0.9487 0.9487 0.3162 -146.0853 524.6779)" class="st3" cx="290.9" cy="363.7" rx="14.2" ry="14.2"/>
			<circle class="st3" cx="268.6" cy="289.3" r="14.2"/>
			<circle class="st3" cx="311.3" cy="269.9" r="14.2"/>
			<circle class="st3" cx="247.6" cy="332.5" r="14.2"/>
			<circle class="st3" cx="341" cy="277" r="7.1"/>
			<circle class="st3" cx="258.4" cy="367.8" r="7.1"/>
			<circle class="st3" cx="334.7" cy="382" r="7.1"/>
			<circle class="st3" cx="276.8" cy="257" r="7.1"/>
			<circle class="st3" cx="287.2" cy="321.6" r="7.1"/>
			<circle class="st3" cx="297.1" cy="414.9" r="7.1"/>
			<circle class="st3" cx="268.6" cy="400.7" r="14.2"/>
			<circle class="st3" cx="331.7" cy="414.9" r="14.2"/>
			<circle class="st3" cx="283" cy="447.2" r="14.2"/>
			<rect x="351.5" y="558.8" class="st7" width="2" height="61.4"/>
			<rect x="355.3" y="520" class="st7" width="2" height="101"/>
			<circle class="st3" cx="298.1" cy="543.7" r="38.4"/>
			<circle class="st4" cx="293" cy="537.4" r="30.2"/>
			
				<ellipse transform="matrix(0.8879 -0.4601 0.4601 0.8879 -208.2829 250.4834)" class="st3" cx="409.8" cy="552.6" rx="20.8" ry="20.8"/>
			
				<ellipse transform="matrix(0.8879 -0.4601 0.4601 0.8879 -207.6194 248.4047)" class="st4" cx="405.8" cy="550.2" rx="16.2" ry="16.2"/>
			<path class="st4" d="M549.2,413.3c-0.1-0.1-0.1-0.2-0.2-0.4C549.1,413.1,549.2,413.2,549.2,413.3z"/>
			<path class="st6" d="M549,412.9c-0.1-0.2-0.2-0.5-0.3-0.7C548.8,412.5,548.9,412.7,549,412.9z"/>
			<path class="st6" d="M549.5,413.8c-0.1-0.2-0.2-0.3-0.3-0.5C549.3,413.5,549.4,413.6,549.5,413.8z"/>
			<g>
				<g>
					<path class="st5" d="M387.9,409.9c-0.1-0.2-0.1-0.3-0.2-0.5h0c0,0.1,0.1,0.2,0.1,0.2C387.8,409.7,387.8,409.8,387.9,409.9z"/>
					<path class="st5" d="M421.5,409.4c-0.1,0.2-0.2,0.4-0.3,0.6c-0.1,0.3-0.3,0.7-0.5,1c-3,5.9-9.1,9.9-16.2,9.9
						c-7,0-13.1-4-16.1-9.8c1.9,3.4,5.5,5.7,9.7,5.7c2.4,0,4.6-0.8,6.4-2c1.8,1.3,4,2,6.4,2c0.2,0,0.4,0,0.6,0c0.1,0,0.2,0,0.3,0
						c0.1,0,0.2,0,0.3,0c0.2,0,0.3,0,0.5-0.1c0.1,0,0.2,0,0.3-0.1c0.2,0,0.3-0.1,0.5-0.1c0.1,0,0.2,0,0.3-0.1c0.2,0,0.3-0.1,0.5-0.1
						c0.2-0.1,0.4-0.1,0.5-0.2c0.2-0.1,0.3-0.1,0.5-0.2c0,0,0,0,0.1,0c0.2-0.1,0.3-0.1,0.5-0.2c0.1-0.1,0.3-0.1,0.4-0.2
						c0.4-0.2,0.9-0.5,1.3-0.8c0.2-0.2,0.4-0.3,0.6-0.5c0.2-0.2,0.4-0.4,0.6-0.6c0.2-0.2,0.4-0.4,0.6-0.6c0.2-0.2,0.4-0.4,0.5-0.7
						C420.5,411.5,421.1,410.5,421.5,409.4L421.5,409.4z"/>
				</g>
				<path class="st6" d="M422.1,405.7c0,0.2,0,0.4,0,0.6v0.1c-0.1,1.1-0.3,2.1-0.6,3.1c-0.4,1.1-0.9,2.1-1.6,3
					c-0.2,0.2-0.3,0.4-0.5,0.7c-0.2,0.2-0.4,0.4-0.6,0.6c-0.2,0.2-0.4,0.4-0.6,0.6c-0.2,0.2-0.4,0.3-0.6,0.5
					c-0.4,0.3-0.8,0.6-1.3,0.8c-0.1,0.1-0.3,0.1-0.4,0.2c-0.2,0.1-0.3,0.2-0.5,0.2c0,0,0,0-0.1,0c-0.1,0.1-0.3,0.1-0.5,0.2
					c-0.2,0.1-0.3,0.1-0.5,0.2c-0.2,0-0.3,0.1-0.5,0.1c-0.1,0-0.2,0.1-0.3,0.1c-0.1,0-0.3,0.1-0.5,0.1c-0.1,0-0.2,0-0.3,0.1
					c-0.2,0-0.3,0-0.5,0.1c-0.1,0-0.2,0-0.3,0c-0.1,0-0.2,0-0.3,0c-0.2,0-0.4,0-0.6,0c-2.4,0-4.6-0.8-6.4-2c-1.8,1.3-4,2-6.4,2
					c-4.2,0-7.8-2.3-9.7-5.7c-0.1-0.1-0.1-0.2-0.2-0.4c0-0.1-0.1-0.2-0.1-0.3c-0.1-0.2-0.2-0.4-0.2-0.5c0-0.1-0.1-0.2-0.1-0.2
					c0-0.1-0.1-0.2-0.1-0.2c-0.2-0.4-0.3-0.9-0.4-1.3c0-0.1-0.1-0.3-0.1-0.5c0-0.2-0.1-0.3-0.1-0.5c0-0.2,0-0.3-0.1-0.5
					c0-0.1,0-0.3,0-0.4c0-0.2,0-0.4,0-0.6c0-6.1,5-11.1,11.1-11.1c2.4,0,4.6,0.8,6.4,2c1.8-1.3,4-2,6.4-2
					C417.1,394.6,422.1,399.5,422.1,405.7z"/>
			</g>
			<g>
				<g>
					<path class="st5" d="M344.3,358.8c-0.1-0.2-0.1-0.3-0.2-0.5h0c0,0.1,0.1,0.2,0.1,0.2C344.3,358.6,344.3,358.7,344.3,358.8z"/>
					<path class="st5" d="M377.9,358.3c-0.1,0.2-0.2,0.4-0.3,0.6c-0.1,0.3-0.3,0.7-0.5,1c-3,5.9-9.1,9.9-16.2,9.9
						c-7,0-13.1-4-16.1-9.8c1.9,3.4,5.5,5.7,9.7,5.7c2.4,0,4.6-0.8,6.4-2c1.8,1.3,4,2,6.4,2c0.2,0,0.4,0,0.6,0c0.1,0,0.2,0,0.3,0
						c0.1,0,0.2,0,0.3,0c0.2,0,0.3,0,0.5-0.1c0.1,0,0.2,0,0.3-0.1c0.2,0,0.3-0.1,0.5-0.1c0.1,0,0.2,0,0.3-0.1c0.2,0,0.3-0.1,0.5-0.1
						c0.2-0.1,0.4-0.1,0.5-0.2c0.2-0.1,0.3-0.1,0.5-0.2c0,0,0,0,0.1,0c0.2-0.1,0.3-0.1,0.5-0.2c0.1-0.1,0.3-0.1,0.4-0.2
						c0.4-0.2,0.9-0.5,1.3-0.8c0.2-0.2,0.4-0.3,0.6-0.5c0.2-0.2,0.4-0.4,0.6-0.6c0.2-0.2,0.4-0.4,0.6-0.6c0.2-0.2,0.4-0.4,0.5-0.7
						C377,360.4,377.5,359.4,377.9,358.3L377.9,358.3z"/>
				</g>
				<path class="st6" d="M378.5,354.6c0,0.2,0,0.4,0,0.6v0.1c-0.1,1.1-0.3,2.1-0.6,3.1c-0.4,1.1-0.9,2.1-1.6,3
					c-0.2,0.2-0.3,0.4-0.5,0.7c-0.2,0.2-0.4,0.4-0.6,0.6c-0.2,0.2-0.4,0.4-0.6,0.6c-0.2,0.2-0.4,0.3-0.6,0.5
					c-0.4,0.3-0.8,0.6-1.3,0.8c-0.1,0.1-0.3,0.1-0.4,0.2c-0.2,0.1-0.3,0.2-0.5,0.2c0,0,0,0-0.1,0c-0.1,0.1-0.3,0.1-0.5,0.2
					c-0.2,0.1-0.3,0.1-0.5,0.2c-0.2,0-0.3,0.1-0.5,0.1c-0.1,0-0.2,0.1-0.3,0.1c-0.1,0-0.3,0.1-0.5,0.1c-0.1,0-0.2,0-0.3,0.1
					c-0.2,0-0.3,0-0.5,0.1c-0.1,0-0.2,0-0.3,0c-0.1,0-0.2,0-0.3,0c-0.2,0-0.4,0-0.6,0c-2.4,0-4.6-0.8-6.4-2c-1.8,1.3-4,2-6.4,2
					c-4.2,0-7.8-2.3-9.7-5.7c-0.1-0.1-0.1-0.2-0.2-0.4c0-0.1-0.1-0.2-0.1-0.3c-0.1-0.2-0.2-0.4-0.2-0.5c0-0.1-0.1-0.2-0.1-0.2
					c0-0.1-0.1-0.2-0.1-0.2c-0.2-0.4-0.3-0.9-0.4-1.3c0-0.1-0.1-0.3-0.1-0.5c0-0.2-0.1-0.3-0.1-0.5c0-0.2,0-0.3-0.1-0.5
					c0-0.1,0-0.3,0-0.4c0-0.2,0-0.4,0-0.6c0-6.1,5-11.1,11.1-11.1c2.4,0,4.6,0.8,6.4,2c1.8-1.3,4-2,6.4-2
					C373.5,343.5,378.5,348.4,378.5,354.6z"/>
			</g>
			<g>
				<g>
					<path class="st5" d="M404.8,323.8c-0.1-0.2-0.1-0.3-0.2-0.5h0c0,0.1,0.1,0.2,0.1,0.2C404.7,323.6,404.8,323.7,404.8,323.8z"/>
					<path class="st5" d="M438.4,323.3c-0.1,0.2-0.2,0.4-0.3,0.6c-0.1,0.3-0.3,0.7-0.5,1c-3,5.9-9.1,9.9-16.2,9.9
						c-7,0-13.1-4-16.1-9.8c1.9,3.4,5.5,5.7,9.7,5.7c2.4,0,4.6-0.8,6.4-2c1.8,1.3,4,2,6.4,2c0.2,0,0.4,0,0.6,0c0.1,0,0.2,0,0.3,0
						c0.1,0,0.2,0,0.3,0c0.2,0,0.3,0,0.5-0.1c0.1,0,0.2,0,0.3-0.1c0.2,0,0.3-0.1,0.5-0.1c0.1,0,0.2,0,0.3-0.1c0.2,0,0.3-0.1,0.5-0.1
						c0.2-0.1,0.4-0.1,0.5-0.2c0.2-0.1,0.3-0.1,0.5-0.2c0,0,0,0,0.1,0c0.2-0.1,0.3-0.1,0.5-0.2c0.1-0.1,0.3-0.1,0.4-0.2
						c0.4-0.2,0.9-0.5,1.3-0.8c0.2-0.2,0.4-0.3,0.6-0.5c0.2-0.2,0.4-0.4,0.6-0.6c0.2-0.2,0.4-0.4,0.6-0.6c0.2-0.2,0.4-0.4,0.5-0.7
						C437.4,325.4,438,324.4,438.4,323.3L438.4,323.3z"/>
				</g>
				<path class="st6" d="M439,319.6c0,0.2,0,0.4,0,0.6v0.1c-0.1,1.1-0.3,2.1-0.6,3.1c-0.4,1.1-0.9,2.1-1.6,3
					c-0.2,0.2-0.3,0.4-0.5,0.7c-0.2,0.2-0.4,0.4-0.6,0.6c-0.2,0.2-0.4,0.4-0.6,0.6c-0.2,0.2-0.4,0.3-0.6,0.5
					c-0.4,0.3-0.8,0.6-1.3,0.8c-0.1,0.1-0.3,0.1-0.4,0.2c-0.2,0.1-0.3,0.2-0.5,0.2c0,0,0,0-0.1,0c-0.1,0.1-0.3,0.1-0.5,0.2
					c-0.2,0.1-0.3,0.1-0.5,0.2c-0.2,0-0.3,0.1-0.5,0.1c-0.1,0-0.2,0.1-0.3,0.1c-0.1,0-0.3,0.1-0.5,0.1c-0.1,0-0.2,0-0.3,0.1
					c-0.2,0-0.3,0-0.5,0.1c-0.1,0-0.2,0-0.3,0c-0.1,0-0.2,0-0.3,0c-0.2,0-0.4,0-0.6,0c-2.4,0-4.6-0.8-6.4-2c-1.8,1.3-4,2-6.4,2
					c-4.2,0-7.8-2.3-9.7-5.7c-0.1-0.1-0.1-0.2-0.2-0.4c0-0.1-0.1-0.2-0.1-0.3c-0.1-0.2-0.2-0.4-0.2-0.5c0-0.1-0.1-0.2-0.1-0.2
					c0-0.1-0.1-0.2-0.1-0.2c-0.2-0.4-0.3-0.9-0.4-1.3c0-0.1-0.1-0.3-0.1-0.5c0-0.2-0.1-0.3-0.1-0.5c0-0.2,0-0.3-0.1-0.5
					c0-0.1,0-0.3,0-0.4c0-0.2,0-0.4,0-0.6c0-6.1,5-11.1,11.1-11.1c2.4,0,4.6,0.8,6.4,2c1.8-1.3,4-2,6.4-2
					C434,308.5,439,313.5,439,319.6z"/>
			</g>
			<g>
				<g>
					<path class="st5" d="M291.8,299.4c-0.1-0.2-0.1-0.3-0.2-0.5h0c0,0.1,0.1,0.2,0.1,0.2C291.7,299.3,291.7,299.3,291.8,299.4z"/>
					<path class="st5" d="M325.4,298.9c-0.1,0.2-0.2,0.4-0.3,0.6c-0.1,0.3-0.3,0.7-0.5,1c-3,5.9-9.1,9.9-16.2,9.9
						c-7,0-13.1-4-16.1-9.8c1.9,3.4,5.5,5.7,9.7,5.7c2.4,0,4.6-0.8,6.4-2c1.8,1.3,4,2,6.4,2c0.2,0,0.4,0,0.6,0c0.1,0,0.2,0,0.3,0
						c0.1,0,0.2,0,0.3,0c0.2,0,0.3,0,0.5-0.1c0.1,0,0.2,0,0.3-0.1c0.2,0,0.3-0.1,0.5-0.1c0.1,0,0.2,0,0.3-0.1c0.2,0,0.3-0.1,0.5-0.1
						c0.2-0.1,0.4-0.1,0.5-0.2c0.2-0.1,0.3-0.1,0.5-0.2c0,0,0,0,0.1,0c0.2-0.1,0.3-0.1,0.5-0.2c0.1-0.1,0.3-0.1,0.4-0.2
						c0.4-0.2,0.9-0.5,1.3-0.8c0.2-0.2,0.4-0.3,0.6-0.5c0.2-0.2,0.4-0.4,0.6-0.6c0.2-0.2,0.4-0.4,0.6-0.6c0.2-0.2,0.4-0.4,0.5-0.7
						C324.4,301,324.9,300,325.4,298.9L325.4,298.9z"/>
				</g>
				<path class="st6" d="M326,295.3c0,0.2,0,0.4,0,0.6v0.1c-0.1,1.1-0.3,2.1-0.6,3.1c-0.4,1.1-0.9,2.1-1.6,3
					c-0.2,0.2-0.3,0.4-0.5,0.7c-0.2,0.2-0.4,0.4-0.6,0.6c-0.2,0.2-0.4,0.4-0.6,0.6c-0.2,0.2-0.4,0.3-0.6,0.5
					c-0.4,0.3-0.8,0.6-1.3,0.8c-0.1,0.1-0.3,0.1-0.4,0.2c-0.2,0.1-0.3,0.2-0.5,0.2c0,0,0,0-0.1,0c-0.1,0.1-0.3,0.1-0.5,0.2
					c-0.2,0.1-0.3,0.1-0.5,0.2c-0.2,0-0.3,0.1-0.5,0.1c-0.1,0-0.2,0.1-0.3,0.1c-0.1,0-0.3,0.1-0.5,0.1c-0.1,0-0.2,0-0.3,0.1
					c-0.2,0-0.3,0-0.5,0.1c-0.1,0-0.2,0-0.3,0c-0.1,0-0.2,0-0.3,0c-0.2,0-0.4,0-0.6,0c-2.4,0-4.6-0.8-6.4-2c-1.8,1.3-4,2-6.4,2
					c-4.2,0-7.8-2.3-9.7-5.7c-0.1-0.1-0.1-0.2-0.2-0.4c0-0.1-0.1-0.2-0.1-0.3c-0.1-0.2-0.2-0.4-0.2-0.5c0-0.1-0.1-0.2-0.1-0.2
					c0-0.1-0.1-0.2-0.1-0.2c-0.2-0.4-0.3-0.9-0.4-1.3c0-0.1-0.1-0.3-0.1-0.5c0-0.2-0.1-0.3-0.1-0.5c0-0.2,0-0.3-0.1-0.5
					c0-0.1,0-0.3,0-0.4c0-0.2,0-0.4,0-0.6c0-6.1,5-11.1,11.1-11.1c2.4,0,4.6,0.8,6.4,2c1.8-1.3,4-2,6.4-2
					C321,284.1,326,289.1,326,295.3z"/>
			</g>
			<g>
				<g>
					<path class="st5" d="M273.4,434.7c-0.1-0.2-0.1-0.3-0.2-0.5h0c0,0.1,0.1,0.2,0.1,0.2C273.3,434.6,273.3,434.6,273.4,434.7z"/>
					<path class="st5" d="M307,434.2c-0.1,0.2-0.2,0.4-0.3,0.6c-0.1,0.3-0.3,0.7-0.5,1c-3,5.9-9.1,9.9-16.2,9.9
						c-7,0-13.1-4-16.1-9.8c1.9,3.4,5.5,5.7,9.7,5.7c2.4,0,4.6-0.8,6.4-2c1.8,1.3,4,2,6.4,2c0.2,0,0.4,0,0.6,0c0.1,0,0.2,0,0.3,0
						c0.1,0,0.2,0,0.3,0c0.2,0,0.3,0,0.5-0.1c0.1,0,0.2,0,0.3-0.1c0.2,0,0.3-0.1,0.5-0.1c0.1,0,0.2,0,0.3-0.1c0.2,0,0.3-0.1,0.5-0.1
						c0.2-0.1,0.4-0.1,0.5-0.2c0.2-0.1,0.3-0.1,0.5-0.2c0,0,0,0,0.1,0c0.2-0.1,0.3-0.1,0.5-0.2c0.1-0.1,0.3-0.1,0.4-0.2
						c0.4-0.2,0.9-0.5,1.3-0.8c0.2-0.2,0.4-0.3,0.6-0.5c0.2-0.2,0.4-0.4,0.6-0.6c0.2-0.2,0.4-0.4,0.6-0.6c0.2-0.2,0.4-0.4,0.5-0.7
						C306,436.3,306.5,435.3,307,434.2L307,434.2z"/>
				</g>
				<path class="st6" d="M307.6,430.6c0,0.2,0,0.4,0,0.6v0.1c-0.1,1.1-0.3,2.1-0.6,3.1c-0.4,1.1-0.9,2.1-1.6,3
					c-0.2,0.2-0.3,0.4-0.5,0.7c-0.2,0.2-0.4,0.4-0.6,0.6c-0.2,0.2-0.4,0.4-0.6,0.6c-0.2,0.2-0.4,0.3-0.6,0.5
					c-0.4,0.3-0.8,0.6-1.3,0.8c-0.1,0.1-0.3,0.1-0.4,0.2c-0.2,0.1-0.3,0.2-0.5,0.2c0,0,0,0-0.1,0c-0.1,0.1-0.3,0.1-0.5,0.2
					c-0.2,0.1-0.3,0.1-0.5,0.2c-0.2,0-0.3,0.1-0.5,0.1c-0.1,0-0.2,0.1-0.3,0.1c-0.1,0-0.3,0.1-0.5,0.1c-0.1,0-0.2,0-0.3,0.1
					c-0.2,0-0.3,0-0.5,0.1c-0.1,0-0.2,0-0.3,0c-0.1,0-0.2,0-0.3,0c-0.2,0-0.4,0-0.6,0c-2.4,0-4.6-0.8-6.4-2c-1.8,1.3-4,2-6.4,2
					c-4.2,0-7.8-2.3-9.7-5.7c-0.1-0.1-0.1-0.2-0.2-0.4c0-0.1-0.1-0.2-0.1-0.3c-0.1-0.2-0.2-0.4-0.2-0.5c0-0.1-0.1-0.2-0.1-0.2
					c0-0.1-0.1-0.2-0.1-0.2c-0.2-0.4-0.3-0.9-0.4-1.3c0-0.1-0.1-0.3-0.1-0.5c0-0.2-0.1-0.3-0.1-0.5c0-0.2,0-0.3-0.1-0.5
					c0-0.1,0-0.3,0-0.4c0-0.2,0-0.4,0-0.6c0-6.1,5-11.1,11.1-11.1c2.4,0,4.6,0.8,6.4,2c1.8-1.3,4-2,6.4-2
					C302.6,419.4,307.6,424.4,307.6,430.6z"/>
			</g>
			<g>
				<g>
					<path class="st5" d="M437.4,491.1c-0.1-0.2-0.1-0.3-0.2-0.5h0c0,0.1,0.1,0.2,0.1,0.2C437.3,490.9,437.4,491,437.4,491.1z"/>
					<path class="st5" d="M471,490.6c-0.1,0.2-0.2,0.4-0.3,0.6c-0.1,0.3-0.3,0.7-0.5,1c-3,5.9-9.1,9.9-16.2,9.9
						c-7,0-13.1-4-16.1-9.8c1.9,3.4,5.5,5.7,9.7,5.7c2.4,0,4.6-0.8,6.4-2c1.8,1.3,4,2,6.4,2c0.2,0,0.4,0,0.6,0c0.1,0,0.2,0,0.3,0
						c0.1,0,0.2,0,0.3,0c0.2,0,0.3,0,0.5-0.1c0.1,0,0.2,0,0.3-0.1c0.2,0,0.3-0.1,0.5-0.1c0.1,0,0.2,0,0.3-0.1c0.2,0,0.3-0.1,0.5-0.1
						c0.2-0.1,0.4-0.1,0.5-0.2c0.2-0.1,0.3-0.1,0.5-0.2c0,0,0,0,0.1,0c0.2-0.1,0.3-0.1,0.5-0.2c0.1-0.1,0.3-0.1,0.4-0.2
						c0.4-0.2,0.9-0.5,1.3-0.8c0.2-0.2,0.4-0.3,0.6-0.5c0.2-0.2,0.4-0.4,0.6-0.6c0.2-0.2,0.4-0.4,0.6-0.6c0.2-0.2,0.4-0.4,0.5-0.7
						C470,492.7,470.6,491.7,471,490.6L471,490.6z"/>
				</g>
				<path class="st6" d="M471.6,486.9c0,0.2,0,0.4,0,0.6v0.1c-0.1,1.1-0.3,2.1-0.6,3.1c-0.4,1.1-0.9,2.1-1.6,3
					c-0.2,0.2-0.3,0.4-0.5,0.7c-0.2,0.2-0.4,0.4-0.6,0.6c-0.2,0.2-0.4,0.4-0.6,0.6c-0.2,0.2-0.4,0.3-0.6,0.5
					c-0.4,0.3-0.8,0.6-1.3,0.8c-0.1,0.1-0.3,0.1-0.4,0.2c-0.2,0.1-0.3,0.2-0.5,0.2c0,0,0,0-0.1,0c-0.1,0.1-0.3,0.1-0.5,0.2
					c-0.2,0.1-0.3,0.1-0.5,0.2c-0.2,0-0.3,0.1-0.5,0.1c-0.1,0-0.2,0.1-0.3,0.1c-0.1,0-0.3,0.1-0.5,0.1c-0.1,0-0.2,0-0.3,0.1
					c-0.2,0-0.3,0-0.5,0.1c-0.1,0-0.2,0-0.3,0c-0.1,0-0.2,0-0.3,0c-0.2,0-0.4,0-0.6,0c-2.4,0-4.6-0.8-6.4-2c-1.8,1.3-4,2-6.4,2
					c-4.2,0-7.8-2.3-9.7-5.7c-0.1-0.1-0.1-0.2-0.2-0.4c0-0.1-0.1-0.2-0.1-0.3c-0.1-0.2-0.2-0.4-0.2-0.5c0-0.1-0.1-0.2-0.1-0.2
					c0-0.1-0.1-0.2-0.1-0.2c-0.2-0.4-0.3-0.9-0.4-1.3c0-0.1-0.1-0.3-0.1-0.5c0-0.2-0.1-0.3-0.1-0.5c0-0.2,0-0.3-0.1-0.5
					c0-0.1,0-0.3,0-0.4c0-0.2,0-0.4,0-0.6c0-6.1,5-11.1,11.1-11.1c2.4,0,4.6,0.8,6.4,2c1.8-1.3,4-2,6.4-2
					C466.6,475.8,471.6,480.8,471.6,486.9z"/>
			</g>
		</g>
		<circle class="st3" cx="239.5" cy="425.5" r="7.1"/>
		<circle class="st3" cx="219" cy="349.5" r="7.1"/>
		<circle class="st3" cx="226.1" cy="382" r="14.2"/>
	</g>
	<g>
		<g>
			<path class="st5" d="M235.1,370.3c-0.1-0.2-0.1-0.3-0.2-0.5h0c0,0.1,0.1,0.2,0.1,0.2C235,370.2,235,370.2,235.1,370.3z"/>
			<path class="st5" d="M268.7,369.8c-0.1,0.2-0.2,0.4-0.3,0.6c-0.1,0.3-0.3,0.7-0.5,1c-3,5.9-9.1,9.9-16.2,9.9
				c-7,0-13.1-4-16.1-9.8c1.9,3.4,5.5,5.7,9.7,5.7c2.4,0,4.6-0.8,6.4-2c1.8,1.3,4,2,6.4,2c0.2,0,0.4,0,0.6,0c0.1,0,0.2,0,0.3,0
				c0.1,0,0.2,0,0.3,0c0.2,0,0.3,0,0.5-0.1c0.1,0,0.2,0,0.3-0.1c0.2,0,0.3-0.1,0.5-0.1c0.1,0,0.2,0,0.3-0.1c0.2,0,0.3-0.1,0.5-0.1
				c0.2-0.1,0.4-0.1,0.5-0.2c0.2-0.1,0.3-0.1,0.5-0.2c0,0,0,0,0.1,0c0.2-0.1,0.3-0.1,0.5-0.2c0.1-0.1,0.3-0.1,0.4-0.2
				c0.4-0.2,0.9-0.5,1.3-0.8c0.2-0.2,0.4-0.3,0.6-0.5c0.2-0.2,0.4-0.4,0.6-0.6c0.2-0.2,0.4-0.4,0.6-0.6c0.2-0.2,0.4-0.4,0.5-0.7
				C267.7,371.9,268.3,370.9,268.7,369.8L268.7,369.8z"/>
		</g>
		<path class="st6" d="M269.3,366.1c0,0.2,0,0.4,0,0.6v0.1c-0.1,1.1-0.3,2.1-0.6,3.1c-0.4,1.1-0.9,2.1-1.6,3
			c-0.2,0.2-0.3,0.4-0.5,0.7c-0.2,0.2-0.4,0.4-0.6,0.6c-0.2,0.2-0.4,0.4-0.6,0.6c-0.2,0.2-0.4,0.3-0.6,0.5c-0.4,0.3-0.8,0.6-1.3,0.8
			c-0.1,0.1-0.3,0.1-0.4,0.2c-0.2,0.1-0.3,0.2-0.5,0.2c0,0,0,0-0.1,0c-0.1,0.1-0.3,0.1-0.5,0.2c-0.2,0.1-0.3,0.1-0.5,0.2
			c-0.2,0-0.3,0.1-0.5,0.1c-0.1,0-0.2,0.1-0.3,0.1c-0.1,0-0.3,0.1-0.5,0.1c-0.1,0-0.2,0-0.3,0.1c-0.2,0-0.3,0-0.5,0.1
			c-0.1,0-0.2,0-0.3,0c-0.1,0-0.2,0-0.3,0c-0.2,0-0.4,0-0.6,0c-2.4,0-4.6-0.8-6.4-2c-1.8,1.3-4,2-6.4,2c-4.2,0-7.8-2.3-9.7-5.7
			c-0.1-0.1-0.1-0.2-0.2-0.4c0-0.1-0.1-0.2-0.1-0.3c-0.1-0.2-0.2-0.4-0.2-0.5c0-0.1-0.1-0.2-0.1-0.2c0-0.1-0.1-0.2-0.1-0.2
			c-0.2-0.4-0.3-0.9-0.4-1.3c0-0.1-0.1-0.3-0.1-0.5c0-0.2-0.1-0.3-0.1-0.5c0-0.2,0-0.3-0.1-0.5c0-0.1,0-0.3,0-0.4c0-0.2,0-0.4,0-0.6
			c0-6.1,5-11.1,11.1-11.1c2.4,0,4.6,0.8,6.4,2c1.8-1.3,4-2,6.4-2C264.3,355,269.3,360,269.3,366.1z"/>
	</g>
</g>
</svg>
