<?xml version="1.0" encoding="utf-8"?>
<!-- Generator: Adobe Illustrator 22.1.0, SVG Export Plug-In . SVG Version: 6.00 Build 0)  -->
<svg version="1.1"
	 id="svg3403" inkscape:export-filename="/home/musquito/Ãƒrea de Trabalho/Jogo/Plantas do jogo/png/mudinha" inkscape:export-xdpi="8.3452215" inkscape:export-ydpi="8.3452215" inkscape:version="0.91 r13725" sodipodi:docname="muda colorida.JPG.svg" xmlns:cc="http://creativecommons.org/ns#" xmlns:dc="http://purl.org/dc/elements/1.1/" xmlns:inkscape="http://www.inkscape.org/namespaces/inkscape" xmlns:rdf="http://www.w3.org/1999/02/22-rdf-syntax-ns#" xmlns:sodipodi="http://sodipodi.sourceforge.net/DTD/sodipodi-0.dtd" xmlns:svg="http://www.w3.org/2000/svg"
	 xmlns="http://www.w3.org/2000/svg" xmlns:xlink="http://www.w3.org/1999/xlink" x="0px" y="0px" viewBox="0 0 743.4 1051.2"
	 style="enable-background:new 0 0 743.4 1051.2;" xml:space="preserve">
<style type="text/css">
	.st0{fill:none;stroke:#222B00;}
	.st1{fill:#A4CC2D;}
	.st2{fill:#89C93D;}
</style>
<sodipodi:namedview  bordercolor="#666666" borderopacity="1" gridtolerance="10" guidetolerance="10" id="namedview3405" inkscape:current-layer="svg3403" inkscape:cx="125.5842" inkscape:cy="569.33766" inkscape:pageopacity="0" inkscape:pageshadow="2" inkscape:window-height="744" inkscape:window-maximized="1" inkscape:window-width="1301" inkscape:window-x="65" inkscape:window-y="24" inkscape:zoom="0.51374964" objecttolerance="10" pagecolor="#ffffff" showgrid="false">
	</sodipodi:namedview>
<g id="layer1" inkscape:groupmode="layer" inkscape:label="Layer 1">
</g>
<g id="layer2" inkscape:groupmode="layer" inkscape:label="Layer 2">
</g>
<rect id="rect3351" x="21.7" y="215" class="st0" width="700" height="700"/>
<polygon class="st1" points="366.9,730.5 366.9,563.9 367.9,559 370.3,547 359.2,547 359.2,730.5 "/>
<path class="st1" d="M358.9,439.2V525l3.7,4.5l4.4-87.3C364.1,441.7,361.4,440.6,358.9,439.2z"/>
<path class="st1" d="M336.2,482.4c-1.7,2-1.9,2.5-4.1,4l24.5,37.9l6.2,2.1L336.2,482.4z"/>
<polygon class="st1" points="405.4,478.5 407.5,490.2 378.1,540.2 377,535.6 "/>
<g>
	<polygon class="st2" points="421.4,479 378.9,564.4 376.5,569.1 376.5,730.6 358.4,730.6 358.4,547.7 358,546.9 319.7,466.4 
		332.1,463.6 358,518.5 358.4,519.3 358.9,520.1 358.9,423 373.8,423 373.8,542.2 376.5,536.6 412.5,464.4 	"/>
	<polygon class="st2" points="358.4,547.7 358.4,600.8 358,600.8 358,546.9 	"/>
</g>
<g>
	<path class="st2" d="M451.2,406.3c-42.7,17.8-53.3,50.2-53.3,50.2c-2,4.7-2.6,9.8-2.4,14.6c0,12.9,9.5,24.8,23.7,28.5
		c14.5,3.6,29-3,34.8-14.9l0,0c1.2-1.8,2.5-3.9,3.3-6.1C466.7,455.2,451.2,406.3,451.2,406.3z M444.1,418.4L444.1,418.4L444.1,418.4
		z"/>
	<path class="st1" d="M450,454.5c0-16.8-4.4-34.6-4.3-35.1c-36.9,10.5-47.1,35.2-47.1,35.2c-1.4,2.6-2.3,5.3-2.6,8.1
		c-1.2,8.9,2.6,18.2,10.8,23.5l0,0l1.2-1.6l-1-36.1l3.2,0.2l0.7,30.2l8.6-15l-0.9-24.5l3.2,0.2l0,18.5l11.5-20.5l2.8,1.3l-11.5,20.5
		l17.2-11.3l2.6,2.1l-22.2,15l-8.1,15.1l27.5-18.1l2.6,2.1l-33,21.7l-1.2,1.8l0,0c0.3,0.2,0.3,0.2,0.6,0.3c0.3,0.2,0.6,0.3,1.1,0.4
		c12.7,5.1,27.7,0.1,34.3-12.6C449,470.5,450,462.5,450,454.5z"/>
</g>
<g>
	<path class="st2" d="M391.3,316.9c-46.2,29.6-51.9,69.6-51.9,69.6c-1.3,5.9-1,12,0.2,17.5c2.7,15,16.2,27,33.6,28.4
		c17.6,1.3,33.3-9.5,37.6-24.7l0,0c1-2.3,2.1-5.1,2.5-7.8C419.7,370.8,391.3,316.9,391.3,316.9z M385.6,332.4L385.6,332.4
		L385.6,332.4z"/>
	<path class="st1" d="M399.9,373.4c-3.4-19.6-12.3-39.5-12.3-40.1c-41,19.9-47.8,50.9-47.8,50.9c-1.1,3.3-1.6,6.7-1.4,10
		c0.4,10.6,6.8,20.7,17.4,25.2l0,0l1.1-2.1l-8.6-42l3.8-0.4l7,35.1l6.9-19.3l-6.1-28.5l3.8-0.4l3.8,21.6l9.2-26.3l3.6,1l-9.2,26.3
		l17.8-16.8l3.5,2l-22.8,22.1l-6.3,19.3l28.5-26.8l3.5,2l-34.1,32.2l-1,2.3l0,0c0.4,0.1,0.4,0.1,0.7,0.2s0.7,0.2,1.4,0.2
		c15.9,3.4,32.4-5.6,37.5-21.8C402.2,392.4,401.6,382.8,399.9,373.4z"/>
</g>
<g>
	<path class="st2" d="M296.8,492.3c1.6,1.4,3.7,2.6,5.5,3.6l0,0c10.3,7.2,25.2,6.1,35.5-3.5c10.1-9.5,12.5-23.7,6.6-34.3
		c-2-4.1-4.8-7.9-8.6-11c0,0-23.4-21.9-66.8-17.3C269,429.8,278.4,477.3,296.8,492.3z M280.3,436.6L280.3,436.6L280.3,436.6z"/>
	<path class="st1" d="M304.9,485c11.2,7.5,25.9,4.8,34.1-5.2c0.4-0.3,0.6-0.6,0.7-0.8c0.2-0.3,0.2-0.3,0.3-0.5l0,0l-1.8-1l-37.1-2.9
		l1.2-2.9l31,2.4l-13.5-8.8l-25.1-2.3l1.2-2.9l19.4,1.5l-18.8-11.7l1.7-2.4l18.8,11.7l-8.4-15.3l2.6-1.7l10.4,20.6l13.9,8.5
		l-13.2-25.2l2.6-1.7l15.6,30.3l1.7,0.8l0,0c4.3-8.1,3.3-17.5-1.8-24.3c-1.6-2.1-3.5-4-5.9-5.5c0,0-19.7-15.8-54.9-7.7
		c0.3,0.4,4.7,17.1,12.4,31C295.5,475.7,300,482,304.9,485z"/>
</g>
</svg>
