<?xml version="1.0" encoding="utf-8"?>
<!-- Generator: Adobe Illustrator 22.1.0, SVG Export Plug-In . SVG Version: 6.00 Build 0)  -->
<svg version="1.1"
	 id="svg4747" inkscape:export-filename="/home/qui00214/Ãƒrea de Trabalho/JURUBAMANJI/Plantas do jogo/png/AnimaÃƒÂ§ÃƒÂ£o/mudinha5" inkscape:export-xdpi="8.3452215" inkscape:export-ydpi="8.3452215" inkscape:version="0.91 r13725" sodipodi:docname="mudinha5.svg" xmlns:cc="http://creativecommons.org/ns#" xmlns:dc="http://purl.org/dc/elements/1.1/" xmlns:inkscape="http://www.inkscape.org/namespaces/inkscape" xmlns:rdf="http://www.w3.org/1999/02/22-rdf-syntax-ns#" xmlns:sodipodi="http://sodipodi.sourceforge.net/DTD/sodipodi-0.dtd" xmlns:svg="http://www.w3.org/2000/svg"
	 xmlns="http://www.w3.org/2000/svg" xmlns:xlink="http://www.w3.org/1999/xlink" x="0px" y="0px" viewBox="0 0 595.3 841.9"
	 style="enable-background:new 0 0 595.3 841.9;" xml:space="preserve">
<style type="text/css">
	.st0{fill:none;stroke:#222B00;}
	.st1{fill:#6C812B;}
	.st2{fill:#808323;}
	.st3{fill:#779D3A;}
	.st4{fill:#8D9F2E;}
	.st5{fill:#502D16;}
	.st6{fill:#41200B;}
	.st7{fill:#89C93D;}
	.st8{fill:#A4CC2D;}
</style>
<defs>
	
	
		<inkscape:perspective  id="perspective5007" inkscape:persp3d-origin="372.04724 : 350.7874 : 1" inkscape:vp_x="0 : 526.1811 : 1" inkscape:vp_y="0 : 1000 : 0" inkscape:vp_z="744.09449 : 526.1811 : 1" sodipodi:type="inkscape:persp3d">
		</inkscape:perspective>
</defs>
<sodipodi:namedview  bordercolor="#666666" borderopacity="1.0" id="base" inkscape:current-layer="g4753" inkscape:cx="41.471873" inkscape:cy="520" inkscape:document-units="px" inkscape:pageopacity="0.0" inkscape:pageshadow="2" inkscape:window-height="744" inkscape:window-maximized="1" inkscape:window-width="1301" inkscape:window-x="65" inkscape:window-y="24" inkscape:zoom="0.62" pagecolor="#ffffff" showgrid="false">
	</sodipodi:namedview>
<g id="g5057">
</g>
<rect id="rect5046" x="19.5" y="143.4" class="st0" width="560" height="560"/>
<g>
	<g>
		<path class="st1" d="M240.4,393.3c7.1,14.4,24.5,20.3,38.9,13.2c3.1-1.5,5.7-3.5,7.9-5.7l-6.2-9.6l-25.6-17.7l1.2-1.7l21.4,14.9
			l-8.1-12.5l-17.4-12l1.2-1.7l13.2,9.2l-11.3-17.4l1.7-1.1l0,0l11.4,17.3l-3.1-15.8l2-0.4l4,20.8l8.2,12.5l-5-25.6l2-0.4l6,30.6
			l4.3,10.8c6.9-8.5,10.3-22.5,5.1-33c0,0-11.9-28.1-52.1-40C240.2,327.8,228.8,373.7,240.4,393.3z"/>
		<path class="st2" d="M247.9,337.4c32.1,6.8,43.1,28.1,43.1,28.1c6.4,10.8,2.8,24.8-8,31.1c-10.8,6.4-24.8,2.8-31.1-8
			C241.7,374,247.9,337.4,247.9,337.4z"/>
		<path class="st1" d="M280.3,397.4l-6.4-14L254.2,369l2.4-1.7l15,10.9l-8.9-19.5l2.9-1l9.2,19.4l2-17l3-0.2l-2.5,22.4l6.6,13.9
			l3.2-27.6l3-0.2l-3.8,33v0.1c-0.2,0.2-0.3,0.4-0.5,0.6h-0.1c-0.9,0.4-1.7,0.9-2.4,1.5l-0.5-1l-29.1-21.2l2.4-1.7L280.3,397.4z"/>
		<path class="st1" d="M287.7,393l-4.7,2.9l3.1,4.6l1.2,0.3l0.2-0.7L287.7,393z"/>
	</g>
	<g>
		<path class="st1" d="M376.3,345.2c-40.2,11.9-52.1,40-52.1,40c-5.2,10.5-1.8,24.5,5.1,33l4.3-10.8l6-30.6l2,0.4l-5,25.6l8.2-12.5
			l4-20.8l2,0.4l-3.1,15.8l11.4-17.3l0,0l1.7,1.1l-11.3,17.4l13.2-9.2l1.2,1.7l-17.4,12l-8.1,12.5l21.4-14.9l1.2,1.7l-25.6,17.7
			l-6.2,9.6c2.3,2.3,4.9,4.2,7.9,5.7c14.4,7.1,31.8,1.2,38.9-13.2C387.7,391.1,376.3,345.2,376.3,345.2z"/>
		<path class="st2" d="M364.6,406.1c-6.4,10.8-20.4,14.3-31.1,8c-10.8-6.4-14.3-20.4-8-31.1c0,0,11-21.3,43.1-28.1
			C368.7,354.8,374.8,391.4,364.6,406.1z"/>
		<path class="st1" d="M336.2,414.8l6.4-14l19.7-14.4l-2.4-1.7l-15,10.9l8.9-19.5l-2.9-1l-9.2,19.4l-2-17l-3-0.2l2.5,22.4l-6.6,13.9
			l-3.2-27.6l-3-0.2l3.8,33v0.1c0.2,0.2,0.3,0.4,0.5,0.6c0,0,0.1,0,0.1,0.1c0.9,0.4,1.7,0.9,2.4,1.5l0.5-1l29.1-21.2l-2.4-1.7
			L336.2,414.8z"/>
		<path class="st1" d="M328.8,410.4l4.7,2.9l-3.1,4.6l-1.2,0.3l-0.2-0.7L328.8,410.4z"/>
	</g>
	<g>
		<path class="st3" d="M278.4,328.9c6.3,17.5,25.6,26.6,43.2,20.3c3.7-1.3,7-3.3,9.9-5.6l-5.9-11.9l-27.3-23.8l1.6-1.9l22.8,19.9
			l-7.7-15.5l-18.5-16.1l1.6-1.9l14.1,12.3l-10.8-21.6l2.2-1.1l0,0l10.9,21.4l-1.5-18.6l2.4-0.2l2,24.5l7.8,15.4l-2.4-30.2l2.4-0.2
			l2.9,36.1l3.5,13.1c9.1-8.9,14.8-24.7,10.1-37.4c0,0-10.1-34-55-52.9C286.7,253.2,267.5,304.8,278.4,328.9z"/>
		<path class="st4" d="M294.3,265.4c36.1,12,46.1,38,46.1,38c6,13.3,0.1,29-13.2,34.9c-13.3,6-29,0.1-34.9-13.2
			C282.5,306.8,294.2,265.4,294.3,265.4z"/>
		<path class="st3" d="M323.9,338.8l-5.6-17l-20.9-19.1l2.9-1.7l15.9,14.5l-7.8-23.6l3.5-0.8l8.1,23.6l4.5-19.3l3.5,0.1l-5.8,25.5
			l5.8,16.9l7.2-31.4l3.5,0.1l-8.6,37.6v0.1c-0.2,0.2-0.4,0.4-0.6,0.6c-0.1,0-0.1,0-0.2,0c-1.1,0.4-2,0.9-3,1.4l-0.4-1.2L295,316.8
			l2.9-1.7L323.9,338.8z"/>
		<path class="st3" d="M333.1,334.7l-5.8,2.8l3,5.7l1.3,0.5l0.3-0.7L333.1,334.7z"/>
	</g>
	<g>
		<path class="st3" d="M237.5,411.2c12.5,10,30.8,8,40.8-4.5c2.1-2.7,3.7-5.6,4.8-8.6l-9.7-6.1l-30.7-5.2l0.3-2.1l25.7,4.4
			l-12.6-7.9l-20.9-3.5l0.3-2.1l15.9,2.7l-17.6-11l1.1-1.8l0,0l17.7,10.8l-9.5-13l1.7-1.2l12.5,17.1L270,387l-15.4-21.1l1.7-1.2
			l18.4,25.2l8.5,8c2.7-10.7-0.3-24.8-9.4-32.1c0,0-22.7-20.4-64.2-14.1C209.5,352,218.6,398.4,237.5,411.2z"/>
		<path class="st4" d="M220.6,357.5c31.9-7.4,50.9,7.2,50.9,7.2c10.3,7.1,13.1,21.2,6,31.6c-7.1,10.3-21.2,13.1-31.6,6
			C230.5,393.2,220.5,357.5,220.6,357.5z"/>
		<path class="st3" d="M275.4,398l-11.7-10l-23.9-4.6l1.4-2.5l18.2,3.5L243,370.6l2.2-2.2l16.6,13.7l-5.4-16.2l2.7-1.5l7.2,21.3
			l11.9,9.8l-8.8-26.3l2.7-1.5l10.6,31.5h0.1c-0.1,0.2-0.1,0.5-0.2,0.7l-0.1,0.1c-0.6,0.8-1.1,1.6-1.5,2.4l-0.8-0.7l-35.4-6.9
			l1.4-2.5L275.4,398z"/>
		<path class="st3" d="M280.2,390.9l-3,4.7l4.7,2.8l1.2-0.2l-0.1-0.7L280.2,390.9z"/>
	</g>
	<path class="st5" d="M292.3,404.3c-0.4,0.4-0.6,0.7-0.8,1c0,0,0,0,0,0c-0.2,1.2-0.5,2.3-0.8,3.4c-0.1,0.3-0.2,0.6-0.3,0.8
		c-0.5,2.5-1.3,4.9-2.4,7.2l-0.7-1.2L282,407l-0.9-1.5l-0.6-1l-0.3-0.5l-1.2-2l-0.4-0.6l-1.1-1.9l-0.3-0.5l-0.6-0.9v0l-0.2-0.3
		l-0.3-0.6l-0.9-1.5l-0.4-0.6c0.5-0.2,0.9-0.5,1.4-0.7c0.1-0.1,0.3-0.2,0.4-0.2c0,0,0.1-0.1,0.1-0.1c0.3-0.2,0.5-0.3,0.7-0.5
		c0,0,0.1-0.1,0.1-0.1c0.2-0.1,0.4-0.3,0.5-0.4c0.1,0,0.1-0.1,0.2-0.1c0.2-0.1,0.4-0.3,0.5-0.4c0.3-0.3,0.7-0.6,1-0.9
		c0.1-0.1,0.2-0.2,0.3-0.3c0,0,0,0,0,0c0,0,0,0,0,0c0.1-0.1,0.1-0.1,0.2-0.2c0.1-0.1,0.1-0.1,0.2-0.2c0.2-0.2,0.4-0.4,0.5-0.6
		c0,0,0,0,0,0c0.5-0.6,0.9-1.2,1.3-1.8c0,0,0.1-0.1,0.1-0.1c0,0,0-0.1,0.1-0.1l1.6,2.7l0.3,0.5l1.2,2l0.3,0.5l0,0l0.2,0.3l0.8,1.3
		l0.2,0.3l0.4,0.7l1.1,1.8l0.1,0.1l0.1,0.1l2.9,4.8L292.3,404.3z"/>
	<path class="st5" d="M351.5,401.9l-1.4,2.8l-0.1,0.2l-0.7,1.4l-0.5,1.1l-1.3,2.7l0,0.1l-2,3.9l-1.6,3.2l-0.6,1.2l0,0.1l-1.5,3v0
		l-1.7,3.4l-0.2,0.5l-0.5,1l0,0l-0.5,1.1l-1,2l-5.4,10.8l-0.5,1.1c-0.6-1.8-1.1-3.8-1.4-5.7c0,0,0,0,0-0.1c-0.5-1.6-0.8-3.3-1-5.1
		l-8.1,14l-0.7-3.2v-0.1l8.8-17.6l1.8-3.6l0,0l1.1-2.3l0.5-1.1l0-0.1l0,0l0.2-0.4l0.8-1.6l0.3-0.7l1.3-2.6l0.2-0.3l0.2-0.4l1.9-3.8
		l0.9-1.7l1-2l0.1-0.3l2.3-4.6l3.1-6.3l0.5,0.8l0.3,0.5l0.7,1.2l0.6,1l0.9,1.4l0.2,0.3l0.2,0.4l0.5,0.8l0.2,0.3l0,0l0.1,0.2l0.6,1
		l0.2,0.3L351.5,401.9L351.5,401.9z"/>
	<g>
		<path class="st3" d="M400.8,362.5c-41.9-1.6-62.2,21.1-62.2,21.1c-8.3,8.3-9.6,22.6-5.8,32.9l7.5-8.9l15.5-27l1.8,1l-12.9,22.7
			l11.8-9.2l10.5-18.4l1.8,1l-8,13.9l16.4-12.7l0,0l1.3,1.6l-16.3,12.9l15.5-4.4l0.6,2l-20.4,5.8l-11.7,9.2l25.1-7.2l0.6,2l-30,8.5
			l-8.9,7.1c1.4,2.9,3.3,5.6,5.7,8c11.4,11.4,29.7,11.4,41.1,0C396.9,409.7,400.8,362.5,400.8,362.5z"/>
		<path class="st4" d="M370.2,416.5c-9.5,8.2-23.9,7-32.1-2.5s-7-23.9,2.5-32.1c0,0,17.3-16.6,49.8-12.8
			C390.5,369.2,384.5,405.8,370.2,416.5z"/>
		<path class="st3" d="M340.5,415.6l10.6-11.2l23.3-7.3l-1.7-2.4l-17.7,5.5l14.7-15.6l-2.4-1.9l-15,15.4l3.6-16.7l-2.8-1.2l-4.8,22
			l-10.7,11.1l5.8-27.2l-2.8-1.2l-7,32.4l-0.1,0.1c0.1,0.2,0.2,0.5,0.3,0.7l0.1,0.1c0.7,0.7,1.3,1.4,1.8,2.2l0.8-0.8l34.4-10.7
			l-1.7-2.4L340.5,415.6z"/>
		<path class="st3" d="M334.8,409l3.5,4.3l-4.4,3.3l-1.2-0.1v-0.7L334.8,409z"/>
	</g>
	<path class="st5" d="M330.5,435.6C330.5,435.6,330.5,435.5,330.5,435.6c-0.4-1.7-0.8-3.4-1-5.2l-8.1,14l-0.7-3.2v-80.5
		c-2.3,0-4.5-0.3-6.7-0.8l-3.2,74.9l-0.4-0.6l0.4,0.7l-0.1,0l-2.5-0.9l-1.7-0.6l-15.9-24.6c-0.1,0.3-0.2,0.6-0.3,0.8
		c-0.5,2.5-1.3,4.9-2.4,7.2l19.8,32.9v127h12.6V464.5l1.7-3.3l9.9-19.9C331.3,439.5,330.8,437.6,330.5,435.6z M308.3,576.6
		l-0.5-126.9h5.1l0,6.9l0.8,120H308.3z"/>
	<polygon class="st5" points="310.4,434.2 310.8,434.9 310.7,434.9 309.9,433.5 	"/>
	<path class="st5" d="M320.7,346.6v14.1c-2.3,0-4.5-0.3-6.7-0.8c-2-0.4-4-1.1-5.8-2v-11.4H320.7z"/>
	<polygon class="st6" points="313.7,576.6 308.3,576.6 307.8,449.7 312.9,449.7 312.9,456.6 	"/>
	<path class="st6" d="M314.4,351.5l-0.2,5.4v0.1l-0.1,3c-2-0.4-4-1.1-5.8-2v-8.6c0.4,0.3,0.9,0.5,1.3,0.7c0,0,0,0,0,0c0,0,0,0,0.1,0
		c0.9,0.4,1.8,0.7,2.8,1c0,0,0,0,0,0C313.1,351.3,313.7,351.4,314.4,351.5z"/>
	<path class="st6" d="M310.4,434.2l-0.5-0.7l0.8,1.4l-2.5-0.9l-1.7-0.6l-15.9-24.6c0.4-1.1,0.6-2.3,0.8-3.4c0,0,0,0,0,0
		c0.2-0.3,0.5-0.6,0.8-1l15.4,25.5l0.5,0.8V358c1.8,0.9,3.8,1.5,5.8,2l-3.2,74.9L310.4,434.2z"/>
	<path class="st6" d="M291.4,405.3c-0.2,1.2-0.5,2.3-0.8,3.4l-0.1-0.2l-1-1.5c0.2-0.1,0.3-0.2,0.5-0.3
		C290.7,406.2,291,405.9,291.4,405.3z"/>
	<path class="st6" d="M292.3,404.3l15.9,26.3v0.1l-0.5-0.8L292.3,404.3C292.3,404.3,292.3,404.3,292.3,404.3z"/>
	<polygon class="st6" points="310.8,434.9 310.7,434.9 309.9,433.5 310.4,434.2 	"/>
	<polygon class="st6" points="337.8,416.2 336.9,417.8 336.6,418.3 336.4,418.7 335.5,420.1 335.3,420.4 334.8,421.4 334.3,422.1 
		332.8,424.9 332.7,425 329.5,430.4 321.4,444.4 320.7,441.2 329.5,423.6 331.3,419.9 331.3,419.9 332.3,417.9 333,416.5 333,416.5 
		333.1,416.3 333.3,415.9 334,414.4 334.4,413.8 335.4,411.7 336,412.7 336.4,413.6 336.6,413.9 336.8,414.3 336.8,414.4 337.7,416 
			"/>
	<g>
		<path class="st7" d="M389.9,426.9c0,0.4,0,0.8,0,1.2c0,0.9-0.1,1.9-0.2,2.8c-0.9,6.6-3.9,12.6-8.3,17.2
			c-5.5,5.7-13.2,9.2-21.8,9.2c-11.9,0-22.3-6.9-27.2-16.9c-0.8-1.5-1.4-3.1-1.9-4.8c-0.5-1.6-0.8-3.3-1-5.1
			c-0.2-1.2-0.2-2.3-0.2-3.5c0-1.1,0.1-2.2,0.2-3.3c0,0,0-0.1,0-0.1c0.2-1.5,0.4-3,0.8-4.4v0c0.2-0.7,0.4-1.3,0.6-1.9
			c0.3-1,0.7-2,1.2-2.9c0.1-0.3,0.3-0.5,0.4-0.8c0-0.1,0.1-0.1,0.1-0.2c0.1-0.1,0.1-0.3,0.2-0.4c0.3-0.7,0.7-1.3,1.1-2
			c0.2-0.3,0.4-0.7,0.6-1c0.1-0.2,0.3-0.4,0.4-0.6c0,0,0,0,0,0c0.2-0.2,0.3-0.5,0.5-0.7c0.1-0.2,0.2-0.3,0.4-0.5
			c0.9-1.1,1.8-2.2,2.9-3.1c0.3-0.3,0.5-0.5,0.8-0.7c0.8-0.7,1.6-1.3,2.4-1.9c0.7-0.5,1.5-1,2.3-1.5c1.1-0.7,2.3-1.3,3.5-1.8
			c0.5-0.2,0.9-0.4,1.4-0.6c0.1,0,0.2-0.1,0.2-0.1c0.1-0.1,0.3-0.1,0.4-0.2c0.2-0.1,0.4-0.1,0.6-0.2c0.7-0.2,1.3-0.4,2-0.6
			c0.2-0.1,0.4-0.1,0.6-0.1c0.3-0.1,0.5-0.1,0.8-0.2c0.3-0.1,0.7-0.1,1-0.2c1.1-0.2,2.3-0.3,3.5-0.3c0,0,0.1,0,0.1,0
			c0.4,0,0.7,0,1.1,0c1.8,0,3.7,0.2,5.4,0.5c1.1,0.2,2.2,0.5,3.3,0.8c0.6,0.2,1.2,0.4,1.8,0.6c0.3,0.1,0.7,0.3,1,0.4
			c0.1,0,0.2,0.1,0.3,0.1c2.6,1.1,5,2.5,7.2,4.3c0.1,0.1,0.3,0.2,0.4,0.4c0.2,0.2,0.4,0.4,0.7,0.6c0.1,0.1,0.2,0.2,0.3,0.3l0,0
			c0.3,0.3,0.7,0.6,1,0.9c0.4,0.3,0.7,0.7,1,1.1c1.9,2.1,3.5,4.4,4.8,7c0.2,0.4,0.4,0.8,0.5,1.2c0.2,0.4,0.3,0.8,0.5,1.2
			c0.1,0.2,0.2,0.5,0.3,0.7c0.4,1.1,0.8,2.3,1,3.5c0,0,0,0.1,0,0.2c0.2,0.8,0.4,1.7,0.5,2.6C389.8,424.2,389.9,425.5,389.9,426.9z"
			/>
		<g>
			<path class="st7" d="M438.3,423.8c0,0-41,41.6-69.2,42c-16.9,1.5-32.1-9-37.2-24.5c-0.6-1.8-1.1-3.8-1.4-5.7c0,0,0,0,0-0.1
				c1.5-2.4,2.3-5.1,2.4-8c0-0.2,0-0.5,0-0.7c0-0.6-0.1-1.2-0.2-1.8c-0.2-1.2-0.5-2.5-0.9-3.7l1.2,0h0.2l1.6,0l1.3,0l2.3,0l0.4,0
				l3,0.1h0l3.4,0.1l7.3,3.3l3,1.3l12.3,5.5l12.6,5.6l1.1-2.4l-10.2-4.5l-11.8-5.2l-1.9-0.8l-5.6-2.5l1.1,0h0l3.6,0.1l8.9,0.2
				l4.9,0.1l0.6,0.3l7.3,3.3l11.4,5l4.7,2.1l1.1-2.4l-5.5-2.4l-9.5-4.2l-3.2-1.4l4.5,0.1l8,0.2l13.3,0.4l0.1-2.6l-12.8-0.5l-1.1,0
				l-5.2-0.2l-6.5-0.2l7.5-2.8l1.4-0.5l1.5-0.5l8.2-3l-0.9-2.4l-6.9,2.5l-1.5,0.5l-12.1,4.5l-4.1,1.5l-1.4,0l-3.1-0.1l-7.8-0.3
				l-6-0.2l12.1-4.5l11.4-4.3l0.6-0.2l0.1,0l6-2.3l-0.4-1.1l-0.5-1.3l-0.6,0.2l-0.4,0.2l-2.1,0.8l-0.5,0.2l-6.9,2.5l-17.6,6.5
				l-0.9,0.3l-7.2,2.7l-2-0.1l-0.2,0l-0.7,0l-2.3-0.1l-1.6,0l-1.8,0l-0.2,0l-0.4,0l-2.2-0.1h0l-1.8,0c0-0.1,0.1-0.2,0.1-0.3
				c0-0.1,0.1-0.2,0.1-0.3c0.1-0.4,0.3-0.7,0.4-1.1c0-0.1,0-0.1,0.1-0.2c0.3-0.7,0.6-1.4,0.9-2c0.2-0.4,0.4-0.8,0.7-1.2
				c0.3-0.7,0.7-1.3,1.1-1.9c0.1-0.1,0.1-0.2,0.2-0.3c0.1-0.1,0.1-0.2,0.2-0.3c0.9-1.4,1.9-2.7,3-3.9c0.6-0.7,1.2-1.3,1.8-1.9
				c0-0.1,0.1-0.1,0.2-0.2c0,0,0,0,0,0c0.7-0.7,1.4-1.4,2.2-2c1.3-1.1,2.7-2.1,4.2-3c0.6-0.3,1.1-0.7,1.7-1c0.1,0,0.2-0.1,0.3-0.2
				c0.1-0.1,0.3-0.1,0.4-0.2c0.3-0.2,0.7-0.4,1.1-0.5c0.6-0.3,1.1-0.5,1.7-0.8c0.5-0.2,0.9-0.3,1.4-0.5c0.5-0.2,1-0.3,1.5-0.5
				c1.5-0.5,3-0.8,4.6-1.1c0.9-0.2,1.8-0.3,2.8-0.4c0,0,1.5-0.2,4.3-0.3c0.6,0,1.3,0,2.1,0c3,0,6.9,0.2,11.5,0.9
				c0.9,0.1,1.8,0.3,2.7,0.5c3.3,0.6,6.8,1.4,10.6,2.5C407,401.9,422.5,409.4,438.3,423.8z"/>
			<path class="st8" d="M366.7,450.6c-15.5,0.2-28.2-12.3-28.4-27.7c-0.2-15.5,12.3-28.2,27.7-28.4c0,0,29.5-2.1,57.3,27.3
				C423.4,421.8,388.8,451.8,366.7,450.6z"/>
			<path class="st7" d="M391.4,420l-0.8-3.7l-26.4,2.8l16.6-13l-1.7-3.3l-21.9,17.1l-19,2l27-21.1l-1.7-3.3L332.1,422
				c0.5,1.5,0.8,3.2,0.8,4.8c0,0.2,0,0.5,0,0.7l40.3,16.7l0.3-3.6l-34.3-14.2l18.9-2.2l27.8,11.5l0.3-3.6l-21.2-8.8L391.4,420z"/>
		</g>
	</g>
	<g>
		<path class="st7" d="M291.8,401c0,0.8,0,1.6-0.1,2.4c-0.1,0.7-0.2,1.3-0.3,1.9c0,0,0,0,0,0c-0.2,1.2-0.5,2.3-0.8,3.4
			c-0.1,0.3-0.2,0.6-0.3,0.8c-0.8,2.2-1.8,4.2-3.1,6c-4.6,6.6-12.2,10.9-20.9,10.9c-7.1,0-13.6-2.9-18.2-7.6c0,0,0,0,0,0
			c-0.9-1-1.8-2-2.6-3.1v0c-2.3-3.2-3.8-7-4.4-11c-0.1-0.8-0.2-1.5-0.2-2.3c0-0.5,0-0.9,0-1.4c0-0.9,0-1.8,0.1-2.7v0
			c0-0.1,0-0.3,0-0.4c0.1-0.7,0.2-1.4,0.4-2.1c0-0.1,0-0.1,0-0.2c0-0.1,0-0.2,0.1-0.4c0.2-0.9,0.4-1.7,0.7-2.6
			c0.1-0.3,0.2-0.5,0.3-0.7c0.3-0.7,0.5-1.3,0.8-2c0.5-1,1-1.9,1.6-2.8c0.4-0.7,0.9-1.3,1.4-1.9c0.1-0.2,0.3-0.4,0.4-0.5
			c0.2-0.2,0.4-0.4,0.5-0.6c0.3-0.3,0.6-0.6,0.9-0.9c0.3-0.3,0.5-0.5,0.8-0.8c0,0,0,0,0,0c0,0,0,0,0,0c0.4-0.3,0.7-0.7,1.1-1
			c0.4-0.3,0.8-0.7,1.2-1c0.6-0.4,1.2-0.9,1.9-1.2c1-0.6,2-1.1,3-1.5c0,0,0.1,0,0.1-0.1c1.1-0.5,2.2-0.9,3.3-1.2
			c0.1,0,0.2-0.1,0.3-0.1c0.7-0.2,1.3-0.3,2-0.4c0.1,0,0.3-0.1,0.5-0.1c0.2,0,0.4-0.1,0.6-0.1c0.1,0,0.3,0,0.4,0h0
			c0.3,0,0.6-0.1,0.9-0.1c0.7-0.1,1.4-0.1,2-0.1c0.6,0,1.1,0,1.7,0.1h0c0.7,0,1.3,0.1,2,0.2c0.2,0,0.4,0.1,0.6,0.1
			c0.2,0,0.3,0.1,0.5,0.1c0.2,0,0.4,0.1,0.7,0.1c0.8,0.2,1.5,0.4,2.2,0.6c0.1,0,0.1,0,0.2,0.1c0.2,0.1,0.4,0.1,0.6,0.2
			c0,0,0.1,0,0.1,0c0.1,0,0.3,0.1,0.5,0.2c0.8,0.3,1.7,0.7,2.5,1.1c0.2,0.1,0.4,0.2,0.7,0.3h0c0.8,0.4,1.6,0.9,2.4,1.5
			c0.1,0.1,0.3,0.2,0.4,0.3c0.7,0.5,1.4,1.1,2,1.7c0.7,0.6,1.4,1.3,2,2c1,1.1,1.8,2.2,2.6,3.4v0c0.7,1,1.2,2.1,1.7,3.3
			c0.6,1.3,1,2.7,1.4,4.1C291.5,396.8,291.8,398.8,291.8,401z"/>
		<g>
			<path class="st7" d="M290.6,407.9c0,0.2-0.1,0.5-0.1,0.7c0,0.3-0.1,0.7-0.2,1c-0.5,2.5-1.3,4.9-2.4,7.2
				c-5.2,10.8-16.6,17.8-29.4,16.9c-23.7,0.1-58.7-34.4-58.7-34.4c6.7-6.2,13.3-10.9,19.7-14.5c3.3-1.9,6.5-3.4,9.6-4.7
				c2.1-0.9,4.2-1.7,6.2-2.4c0.2,0,0.3-0.1,0.5-0.1c1.4-0.5,2.8-0.9,4.1-1.2c2.2-0.6,4.2-1.1,6.1-1.4c0.4-0.1,0.7-0.1,1.1-0.2
				c0.2,0,0.5-0.1,0.7-0.1c0.5-0.1,1.1-0.2,1.6-0.3c0.6-0.1,1.1-0.2,1.6-0.2c0.3,0,0.7-0.1,1-0.1c0.5-0.1,1-0.1,1.4-0.1
				c0.8-0.1,1.6-0.1,2.3-0.2c1.2-0.1,2.3-0.1,3.3-0.1h0.2c0.4,0,0.7,0,1,0h0.3c0.7,0,1.3,0.1,1.7,0.1c0.3,0,0.5,0,0.7,0.1
				c0.2,0,0.3,0,0.3,0c1,0.1,1.9,0.2,2.8,0.3c1.4,0.2,2.8,0.6,4.2,1c0.1,0,0.3,0.1,0.4,0.1c0.3,0.1,0.6,0.2,0.9,0.3
				c0.8,0.3,1.6,0.6,2.4,1c0.1,0,0.1,0.1,0.2,0.1c0.2,0.1,0.5,0.2,0.7,0.3c0,0,0,0,0,0c0.2,0.1,0.4,0.2,0.5,0.3
				c0.8,0.4,1.6,0.9,2.3,1.4c0.3,0.2,0.6,0.4,0.9,0.6c0.9,0.6,1.7,1.3,2.5,2c0.1,0.1,0.2,0.2,0.3,0.3c0.8,0.7,1.6,1.5,2.3,2.4
				c0.5,0.6,1,1.2,1.4,1.8c1,1.3,1.8,2.6,2.5,4c0.4,0.7,0.7,1.4,1,2.1c0.2,0.4,0.4,0.9,0.6,1.4l-1.5,0.1l-0.4,0h0l-0.2,0l-1.4,0.1
				l-0.4,0l-1.1,0l-0.1,0l-0.2,0h-0.2l-1.1,0l-0.1,0l-1.2,0l-0.5,0l-0.5,0l-1.4,0.1l-0.2,0l-0.2,0l-0.3,0l-0.3,0l-0.5-0.2l-0.2,0
				l-2.8-1l-0.8-0.3l-1.1-0.4l-0.2-0.1l-7.6-2.7l-1.4-0.5l-2.5-0.9l-1.8-0.6l-3.1-1.1l-7-2.5l-0.9-0.3l-0.4-0.1l-0.5-0.2l-0.4,1.1
				l-0.2,0.7l-0.1,0.2l2,0.7l1.6,0.6l1.8,0.6l8,2.8l1.7,0.6l7.8,2.8l0.2,0.1l2.5,0.9l-1.2,0l-0.3,0l-3.7,0.2l-8.6,0.4l-1.4,0.1
				l-0.2,0l-2.5-0.9l-0.5-0.2l-10.7-3.8l-5.3-1.9l-1.7-0.6l-0.7,2l3.5,1.2l3.4,1.2l2.9,1l0.4,0.2l5.6,2l-3.9,0.2l-5.7,0.3l-0.3,0
				l-1.2,0.1l-1.5,0.1l-8.8,0.5l0.1,2.2l10.7-0.5l0.4,0l2.2-0.1l8.2-0.3l-6.1,2.8l-1.4,0.6l-3.1,1.4l-4.6,2.1l0.9,2l4-1.8l5-2.3
				l0.9-0.4l9.9-4.6l0.2-0.1l0.5,0l3.3-0.2l8.2-0.4l3.4-0.1l-1.2,0.6l-3,1.4l-1.2,0.5l-0.3,0.1l-13.7,6.3l-0.7,0.3l-4.5,2.1l0.9,2
				l6.1-2.8l2-0.9l13.7-6.4l0.1-0.1l1.7-0.8l2.4-1.1l0.4-0.2l0.6-0.3l0.4-0.2l1.2-0.5l0.8-0.3l0.3,0l0.4,0l1,0l0.3,0l0.5,0l0.8,0
				l0.3,0l0.7,0l0.7,0l0.4,0l0.1,0l0.2,0h0.1l0.2,0h0l1,0l1.8-0.1h0.2l0.5,0l0.8,0l0.8,0c-0.1,0.2-0.1,0.4-0.2,0.5
				c-0.2,0.7-0.4,1.4-0.5,2.1c0,0.2-0.1,0.4-0.1,0.6c0,0.5-0.1,1-0.1,1.5c0,0.2,0,0.4,0,0.6c0,2,0.5,3.9,1.5,5.6
				C290.2,407.1,290.4,407.5,290.6,407.9z"/>
			<path class="st8" d="M212.7,397.5c23-25,47.8-23.7,47.8-23.7c13,0,23.6,10.5,23.6,23.5s-10.5,23.6-23.5,23.6
				C242.1,422.3,212.7,397.5,212.7,397.5z"/>
			<path class="st7" d="M239.5,395.6l0.6-3.1l22.2,2l-14.1-10.7l1.4-2.8l18.6,14.1l15.9,1.4l-23-17.4l1.4-2.8l26.7,20.1
				c-0.4,1.3-0.6,2.7-0.6,4.1c0,0.2,0,0.4,0,0.6L255,415.5l-0.3-3l28.6-12.4l-15.9-1.6l-23.2,10.1l-0.3-3l17.7-7.7L239.5,395.6z"/>
		</g>
	</g>
	<g>
		<path class="st7" d="M351,330.4c0,15.1-11,27.6-25.4,29.9c-1.6,0.3-3.2,0.4-4.9,0.4c-2.3,0-4.5-0.3-6.7-0.8c-2-0.4-4-1.1-5.8-2
			c-4.8-2.2-9-5.6-12-9.8c-2.3-3.2-4-6.8-4.9-10.7c0,0,0,0,0,0c-0.4-1.8-0.7-3.7-0.8-5.6v0c0-0.5,0-1,0-1.5c0-2.5,0.3-5,0.9-7.4
			c1.4-5.4,4.2-10.3,8.1-14.1c0.1-0.1,0.1-0.1,0.2-0.2c0.5-0.5,1-0.9,1.5-1.4l0,0c0,0,0.1-0.1,0.1-0.1c0.2-0.2,0.4-0.3,0.6-0.5
			c0.1-0.1,0.1-0.1,0.2-0.2c0.3-0.3,0.6-0.5,1-0.7h0c0.5-0.4,1-0.7,1.5-1h0c0.8-0.5,1.6-1,2.5-1.4c0.8-0.4,1.6-0.8,2.5-1.1
			c0.4-0.2,0.9-0.3,1.3-0.5c0,0,0,0,0,0c0.3-0.1,0.5-0.2,0.8-0.3c0.5-0.2,1.1-0.3,1.6-0.5c0,0,0,0,0.1,0c0.2-0.1,0.4-0.1,0.7-0.1
			c0.1,0,0.2-0.1,0.3-0.1c0.3-0.1,0.6-0.1,0.9-0.2c0.5-0.1,1-0.2,1.5-0.3c0.3-0.1,0.7-0.1,1-0.1c0,0,0.1,0,0.1,0
			c0.9-0.1,1.7-0.1,2.6-0.1c0.1,0,0.2,0,0.3,0c0.9,0,1.7,0,2.6,0.1c0,0,0.1,0,0.1,0c0.8,0,1.5,0.1,2.3,0.3c0,0,0.1,0,0.1,0
			c0.4,0.1,0.7,0.1,1.1,0.2c0.5,0.1,1,0.2,1.5,0.3c5.4,1.4,10.2,4.2,13.9,8c0.2,0.2,0.4,0.4,0.5,0.6l0,0c0.5,0.5,0.9,1,1.4,1.6
			C348.4,316.5,351,323.1,351,330.4z"/>
		<g>
			<path class="st7" d="M288.8,323.2c-0.5,14.4,7.6,27.2,19.8,33.3l2.1-13l-8.8-37.4l2.5-0.6l7.4,31.4l2.9-18.2l-6-25.5l2.5-0.6
				l4.6,19.3l4.1-25.3l2.5,0.4l-3.9,25.4l10.2-17l2.2,1.4L317.3,319l-2.8,18.2l16.6-27.6l2.2,1.4l-19.8,33l-2,13.3
				c1.8-0.4,3.7-0.5,5.6-0.4c3.2,0.3,6.1,1.5,8.5,3.4c18.8-0.6,34.1-15.6,34.7-34.6c3.1-28-33.1-73.9-33.1-73.9
				C288,285.5,288.8,323.2,288.8,323.2z"/>
			<path class="st8" d="M345,326.2c-1.7,15.4-15.6,26.5-31,24.8s-26.5-15.6-24.8-31c0,0,1.6-29.5,34.2-53.5
				C323.5,266.5,348.9,304.5,345,326.2z"/>
			<path class="st7" d="M317.8,298l-3.8,0.3l-0.5,26.5l-10.8-18.1l-3.5,1.3l14.2,23.9L313,351l-17.6-29.4l-3.5,1.3l20.4,34.2
				c1.6-0.3,3.2-0.4,4.9-0.2c0.2,0,0.5,0,0.7,0.1l21.5-37.9l-3.5-0.7l-18.3,32.3l0.1-19l14.9-26.2l-3.5-0.7l-11.3,19.9L317.8,298z"
				/>
		</g>
	</g>
</g>
</svg>
