<?xml version="1.0" encoding="utf-8"?>
<!-- Generator: Adobe Illustrator 22.1.0, SVG Export Plug-In . SVG Version: 6.00 Build 0)  -->
<svg version="1.1"
	 id="svg2" inkscape:version="0.91 r13725" sodipodi:docname="moldura folhas.svg" xmlns:cc="http://creativecommons.org/ns#" xmlns:dc="http://purl.org/dc/elements/1.1/" xmlns:inkscape="http://www.inkscape.org/namespaces/inkscape" xmlns:rdf="http://www.w3.org/1999/02/22-rdf-syntax-ns#" xmlns:sodipodi="http://sodipodi.sourceforge.net/DTD/sodipodi-0.dtd" xmlns:svg="http://www.w3.org/2000/svg"
	 xmlns="http://www.w3.org/2000/svg" xmlns:xlink="http://www.w3.org/1999/xlink" x="0px" y="0px" viewBox="0 0 1051.2 743.4"
	 style="enable-background:new 0 0 1051.2 743.4;" xml:space="preserve">
<style type="text/css">
	.st0{fill:#89C93D;}
	.st1{fill:#A4CC2D;}
	.st2{fill:#6C812B;}
	.st3{fill:#808323;}
	.st4{fill:none;}
	.st5{fill:#512B12;}
	.st6{fill:#779D3A;}
	.st7{fill:#8D9F2E;}
</style>
<sodipodi:namedview  bordercolor="#666666" borderopacity="1" gridtolerance="10" guidetolerance="10" id="namedview4" inkscape:current-layer="svg2" inkscape:cx="492.14582" inkscape:cy="412.19519" inkscape:pageopacity="0" inkscape:pageshadow="2" inkscape:window-height="744" inkscape:window-maximized="1" inkscape:window-width="1301" inkscape:window-x="65" inkscape:window-y="24" inkscape:zoom="0.71" objecttolerance="10" pagecolor="#ffffff" showgrid="false">
	</sodipodi:namedview>
<g id="layer1" inkscape:groupmode="layer" inkscape:label="Layer 1" sodipodi:insensitive="true">
</g>
<g id="layer2" inkscape:groupmode="layer" inkscape:label="Layer 2">
</g>
<path class="st0" d="M-1513.2-104.7L-1513.2-104.7C-1513.2-104.8-1513.2-104.8-1513.2-104.7z"/>
<path class="st1" d="M-1513.2-104.7L-1513.2-104.7C-1513.2-104.8-1513.2-104.8-1513.2-104.7z"/>
<path class="st0" d="M-1502.9,1963.6c-0.1,0-0.2-0.1-0.3-0.1l-0.2,0.5L-1502.9,1963.6z"/>
<g>
	<path class="st2" d="M181.8,529.9c-3.6,14.8,2.8,23.9,2.8,23.9c0.9,1.5,2.1,2.6,3.4,3.4c3.4,2.5,8.4,2.4,12.2-0.7
		c3.8-3.1,4.9-8.3,2.9-12.1l0,0c-0.3-0.7-0.6-1.4-1-2.1C197.9,535.4,181.8,529.9,181.8,529.9z M183.7,534.1L183.7,534.1L183.7,534.1
		z"/>
	<path class="st3" d="M194.4,539.6c-4.4-3.3-10-5.6-10.1-5.7c-4.4,11.8,0.1,19.4,0.1,19.4c0.4,0.9,1,1.6,1.6,2.3
		c2.1,2.1,5.3,2.8,8.3,1.7l0,0l-0.2-0.6l-9.7-6.8l0.7-0.8l8.1,5.7l-2.3-5.2l-6.7-4.5l0.7-0.8l4.9,3.6l-3.2-7l0.9-0.5l3.2,7l0.4-6.8
		l1.1-0.3l-0.4,8.8l2.4,5.1l0.6-10.8l1.1-0.3l-0.7,13l0.2,0.7l0,0c0.1,0,0.1-0.1,0.2-0.1c0.1-0.1,0.2-0.1,0.3-0.2
		c3.8-2.4,5.4-7.3,3.4-11.5C198.4,543,196.6,541.2,194.4,539.6z"/>
	<path class="st4" d="M190.3,637.6c4,4.9,8.8,8.9,13.9,12.1c-0.7-1.8-1.2-3.7-1.5-5.6c-7.4-9.8-11.5-21.3-12-33.4
		c-4.5-0.8-8.7-2.2-12.8-3.9C178.8,617.7,182.8,628.5,190.3,637.6z"/>
	<path class="st4" d="M225,502.4c7.7,3.6,14.6,8.9,20.2,16c6.9,8.8,10.6,19,11.5,29.3h-1.3c-3.5-1.4-7.1-2.5-10.8-3.3
		c-0.4-12.5-4.7-24.5-12.5-34.5C230,507.3,227.6,504.7,225,502.4z"/>
	<path class="st4" d="M240.5,548c0,0.6,0,1.2-0.1,1.8c-10.2,1.6-19.8,6-28.1,12.7c-11.9,9.8-19.4,23.5-21.2,38.8
		c-3.5,0.4-7,0.4-10.5,0.1l-2.8-0.4c0.4-15.4,7.3-30.5,20.1-41.1C210.3,549.8,225.8,546,240.5,548z"/>
	<path class="st4" d="M240,554.1c-1.9,13.7-8.9,26.7-20.6,35.9c-7.3,5.7-15.5,9.2-24,10.8c1.8-13.2,8.5-25.9,19.6-35
		C222.5,559.6,231.1,555.7,240,554.1z"/>
	<path class="st4" d="M256.9,553.6c-0.4,16-7.6,31.7-21.2,42.3c-12,9.4-26.8,13-40.8,11.2c0-0.7,0-1.4,0.1-2.1
		c9.7-1.6,18.9-5.6,26.9-11.8c12.5-9.7,20.4-23.8,22.3-39.5c0-0.1,0-0.2,0-0.2C248.5,553.1,252.7,553.1,256.9,553.6z"/>
	<path class="st5" d="M212.3,498.3c6.3,3.5,11.9,8.2,16.6,14.2c7.3,9.3,11.1,20.3,11.6,31.3c-0.6-0.1-1.2-0.1-1.8-0.2
		c-15.7-1.5-31.2,3.1-43.4,13.2c-12.2,10-19.8,24.3-21.3,40c-0.3,2.6-0.3,5.2-0.3,7.7c-0.1,0-0.2,0-0.2,0c0.1,0,0.2,0.1,0.2,0.1
		c0.4,13,5.1,25.4,13.4,35.6c6.3,7.7,14.3,13.6,23.3,17.2c-0.8-0.6-1.6-1.2-2.4-2c-1.7-1.6-3-3.6-3.9-5.8
		c-5.1-3.1-9.9-7.1-13.9-12.1c-7.5-9.1-11.6-20-12.4-30.9c4.1,1.8,8.4,3.1,12.8,3.9c0.4,12.1,4.6,23.7,12,33.4
		c-0.1-0.9-0.2-1.9-0.2-2.8c0-1.4,0.1-2.8,0.5-4.1c-4.9-8-7.6-16.9-8-25.9c15.6,1.8,30.9-2.5,43.3-12.2
		c12.5-9.7,20.4-23.8,22.3-39.5s-2.4-31.2-12.1-43.7c-8.8-11.2-21-18.8-34.8-21.6L212.3,498.3z M256.9,553.6
		c-0.4,16-7.6,31.7-21.2,42.3c-12,9.4-26.8,13-40.8,11.2c0-0.7,0-1.4,0.1-2.1c9.7-1.6,18.9-5.6,26.9-11.8
		c12.5-9.7,20.4-23.8,22.3-39.5c0-0.1,0-0.2,0-0.2C248.5,553.1,252.7,553.1,256.9,553.6z M195.4,600.7c1.8-13.2,8.5-25.9,19.6-35
		c7.5-6.2,16.1-10,25-11.6c-1.9,13.7-8.9,26.7-20.6,35.9C212.1,595.6,203.9,599.2,195.4,600.7z M240.5,548c0,0.6,0,1.2-0.1,1.8
		c-10.2,1.6-19.8,6-28.1,12.7c-11.9,9.8-19.4,23.5-21.2,38.8c-3.5,0.4-7,0.4-10.5,0.1l-2.8-0.4c0.4-15.4,7.3-30.5,20.1-41.1
		C210.3,549.8,225.8,546,240.5,548z M245.2,518.5c6.9,8.8,10.6,19,11.5,29.3h-1.3c-3.5-1.4-7.1-2.5-10.8-3.3
		c-0.4-12.5-4.7-24.5-12.5-34.5c-2.2-2.8-4.5-5.3-7.1-7.6C232.7,506,239.7,511.4,245.2,518.5z"/>
	<path class="st6" d="M297.5,545.6c-16.9-10.6-30.9-6.4-30.9-6.4c-2.2,0.5-4.1,1.5-5.7,2.8c-4.6,3.2-6.4,9.5-4.2,15.4
		c2.3,6,8.2,9.5,13.9,8.6l0,0c1,0,2-0.2,3-0.4C284.1,563.2,297.5,545.6,297.5,545.6z M291.5,546.2L291.5,546.2L291.5,546.2z"/>
	<path class="st7" d="M280.3,557.2c5.9-4.1,11.1-10.1,11.3-10.2c-12.8-10.4-24.1-7.9-24.1-7.9c-1.2,0.2-2.4,0.5-3.5,1.1
		c-3.5,1.8-5.7,5.4-5.6,9.5l0,0h0.8l12.5-9.3l0.7,1.2l-10.5,7.7l7.4-0.7l8.4-6.4l0.7,1.2l-6.5,4.6l10.1-1l0.2,1.3l-10.1,1l8.2,3.3
		v1.4l-10.8-4.1l-7.3,0.9l13.2,5.2v1.4l-15.8-6.3h-1l0,0c0,0.1,0,0.2,0,0.3c0,0.2,0.1,0.3,0.1,0.5c1.3,5.7,6.8,9.8,12.9,8.9
		C274.4,560.8,277.4,559.2,280.3,557.2z"/>
	<path class="st0" d="M253.6,549.2c-0.1-0.1-0.2-0.1-0.3-0.2l0.2-0.5L253.6,549.2z"/>
	<path class="st0" d="M268.7,513.5c-17.8,8.9-21.4,23.1-21.4,23.1c-0.7,2.1-0.9,4.3-0.6,6.3c0.3,5.5,4.8,10.4,11,11.5
		c6.4,1.1,12.4-2.1,14.5-7.4l0,0c0.5-0.8,0.9-1.8,1.2-2.7C276.9,534.1,268.7,513.5,268.7,513.5z M266.1,519L266.1,519L266.1,519z"/>
	<path class="st1" d="M269.7,534.2c-0.5-7.2-2.9-14.7-2.9-14.9c-15.5,5.6-19.2,16.5-19.2,16.5c-0.5,1.2-0.8,2.3-0.9,3.5
		c-0.3,3.9,1.7,7.7,5.3,9.7l0,0l0.5-0.7l-1.5-15.5h1.4l1.2,13l3.3-6.7l-1.1-10.5h1.4l0.6,8l4.3-9.2l1.3,0.5l-4.3,9.2l7.1-5.3
		l1.2,0.8l-9.1,7.1l-3,6.7l11.3-8.6l1.2,0.8L254,548.9l-0.5,0.8l0,0c0.1,0,0.2,0.1,0.3,0.1c0.1,0.1,0.3,0.1,0.4,0.2
		c5.6,1.8,11.9-0.8,14.3-6.4C269.7,541.1,270,537.7,269.7,534.2z"/>
	<path class="st2" d="M229.3,455.9c-0.4-0.7-0.9-1.3-1.3-1.8l0,0c-2.5-3.6-7.5-5-12.1-3.1c-4.4,1.9-6.9,6.2-6.3,10.4
		c0.1,1.6,0.6,3.1,1.5,4.6c0,0,5.1,10,19.8,13.7C230.9,479.6,233.6,462.9,229.3,455.9z M228.1,476L228.1,476L228.1,476z"/>
	<path class="st3" d="M228.2,464c0.8,5.4,0.3,11.5,0.3,11.6c-12.5-1.6-17.1-9.1-17.1-9.1c-0.6-0.8-1-1.6-1.2-2.5
		c-0.8-2.8,0-6,2.3-8.1l0,0l0.5,0.4l1.5,11.8l1-0.2l-1.3-9.9l3.5,4.4l0.9,8l1-0.2l-0.9-6l4.7,6.1l0.9-0.6l-4.7-6.1l6.2,2.8l0.8-0.8
		l-8-3.8l-3.4-4.5l9.9,4.5l0.8-0.8l-11.8-5.4l-0.5-0.5l0,0c0.1,0,0.1-0.1,0.2-0.1c0.1-0.1,0.2-0.1,0.3-0.2c3.9-2.3,9-1.4,11.7,2.4
		C227.1,458.9,227.8,461.4,228.2,464z"/>
	<path class="st4" d="M192.1,454c0.5,12.9,5.1,25.2,13.4,35.3c2.1,2.5,4.3,4.8,6.7,6.9l-0.3,0.2c-7.6-3.4-14.6-8.5-20.3-15.4
		c-7.5-9.1-11.6-20-12.4-30.9C183.4,451.8,187.7,453.2,192.1,454z"/>
	<path class="st4" d="M226.4,345.8c7.7,3.6,14.6,8.9,20.2,16c6.9,8.8,10.6,19,11.5,29.3h-1.3c-3.5-1.4-7.1-2.5-10.8-3.3
		c-0.4-12.5-4.7-24.5-12.5-34.5C231.3,350.6,228.9,348.1,226.4,345.8z"/>
	<path class="st4" d="M241.9,391.4c0,0.6,0,1.2-0.1,1.8c-10.2,1.6-19.8,6-28.1,12.7c-11.9,9.8-19.4,23.5-21.2,38.8
		c-3.5,0.4-7,0.4-10.5,0.1l-2.8-0.4c0.4-15.4,7.3-30.5,20.1-41.1C211.7,393.2,227.2,389.3,241.9,391.4z"/>
	<path class="st4" d="M241.4,397.5c-1.9,13.7-8.9,26.7-20.6,35.9c-7.3,5.7-15.5,9.2-24,10.8c1.8-13.2,8.5-25.9,19.6-35
		C223.8,402.9,232.5,399.1,241.4,397.5z"/>
	<path class="st4" d="M258.2,397c-0.4,16-7.6,31.7-21.2,42.3c-12,9.4-26.8,13-40.8,11.2c0-0.7,0-1.4,0.1-2.1
		c9.7-1.6,18.9-5.6,26.9-11.8c12.5-9.7,20.4-23.8,22.3-39.5c0-0.1,0-0.2,0-0.2C249.8,396.4,254,396.5,258.2,397z"/>
	<path class="st5" d="M215,337.8l-1.4,3.9c6.3,3.5,11.9,8.2,16.6,14.2c7.3,9.3,11.1,20.3,11.6,31.3c-0.6-0.1-1.2-0.1-1.8-0.2
		c-15.7-1.5-31.2,3.1-43.4,13.2c-12.2,10-19.8,24.3-21.3,40c-0.3,2.6-0.3,5.2-0.3,7.7c-0.1,0-0.2,0-0.2,0c0.1,0,0.2,0.1,0.2,0.1
		c0.4,13,5.1,25.4,13.4,35.6c9,10.9,21.2,18.1,34.9,20.6c0.2,0,0.3,0.1,0.4,0.1c1.5,0,1.9-3.8,1.9-3.8c-6.3-3.3-12.1-7.9-17-13.8
		c-7.8-9.4-11.8-20.7-12.4-32.1c15.6,1.8,30.9-2.5,43.3-12.2c12.5-9.7,20.4-23.8,22.3-39.5s-2.4-31.2-12.1-43.7
		C241,348.1,228.8,340.6,215,337.8z M205.6,489.3c2.1,2.5,4.3,4.8,6.7,6.9l-0.3,0.2c-7.6-3.4-14.6-8.5-20.3-15.4
		c-7.5-9.1-11.6-20-12.4-30.9c4.1,1.8,8.4,3.1,12.8,3.9C192.6,466.9,197.3,479.2,205.6,489.3z M237.1,439.3
		c-12,9.4-26.8,13-40.8,11.2c0-0.7,0-1.4,0.1-2.1c9.7-1.6,18.9-5.6,26.9-11.8c12.5-9.7,20.4-23.8,22.3-39.5c0-0.1,0-0.2,0-0.2
		c4.2-0.4,8.5-0.4,12.6,0.1C257.9,413,250.6,428.7,237.1,439.3z M196.8,444.1c1.8-13.2,8.5-25.9,19.6-35c7.5-6.2,16.1-10,25-11.6
		c-1.9,13.7-8.9,26.7-20.6,35.9C213.5,439,205.2,442.5,196.8,444.1z M241.8,393.2c-10.2,1.6-19.8,6-28.1,12.7
		c-11.9,9.8-19.4,23.5-21.2,38.8c-3.5,0.4-7,0.4-10.5,0.1l-2.8-0.4c0.4-15.4,7.3-30.5,20.1-41.1c12.4-10.2,27.9-14,42.6-12
		C241.9,392,241.8,392.6,241.8,393.2z M246.6,361.8c6.9,8.8,10.6,19,11.5,29.3h-1.3c-3.5-1.4-7.1-2.5-10.8-3.3
		c-0.4-12.5-4.7-24.5-12.5-34.5c-2.2-2.8-4.5-5.3-7.1-7.6C234.1,349.4,241,354.7,246.6,361.8z"/>
	<path class="st0" d="M262.1,395.5c0-0.1,0-0.2,0-0.3h0.4L262.1,395.5z"/>
	<path class="st0" d="M291.9,395c-11.8-9.7-22.9-7.9-22.9-7.9c-1.7,0.2-3.3,0.7-4.6,1.6c-3.8,2-5.8,6.6-4.7,11.3
		c1.2,4.8,5.3,8.1,9.7,7.9l0,0c0.7,0.1,1.5,0.1,2.3,0C279.9,407.1,291.9,395,291.9,395z M287.2,394.8L287.2,394.8L287.2,394.8z"/>
	<path class="st1" d="M277.6,402.1c4.9-2.6,9.4-6.6,9.6-6.7c-8.7-9.2-17.6-8.4-17.6-8.4c-1,0-1.9,0.2-2.8,0.5
		c-2.8,1-4.9,3.6-5.2,6.7l0,0l0.6,0.1l10.4-5.9l0.4,1l-8.7,4.9l5.7,0.2l7-4.1l0.4,1l-5.4,2.9l7.8,0.2v1l-7.8-0.2l6,3.3l-0.2,1.1
		l-7.8-4.2h-5.6l9.5,5.3l-0.2,1.1l-11.4-6.3l-0.7-0.1l0,0c0,0.1,0,0.1,0,0.2s0,0.2,0,0.4c0.5,4.5,4.3,8.1,8.9,8.1
		C272.8,404.3,275.3,403.4,277.6,402.1z"/>
	<path class="st6" d="M196.6,357.6c-12.7,15.3-10.3,29.8-10.3,29.8c0.2,2.2,0.9,4.2,2,6c2.5,4.9,8.6,7.6,14.7,6.1
		c6.3-1.5,10.5-6.9,10.3-12.6l0,0c0.1-1,0.1-2,0-3C212.3,373.2,196.6,357.6,196.6,357.6z M196.4,363.7L196.4,363.7L196.4,363.7z"/>
	<path class="st7" d="M205.8,376.2c-3.3-6.4-8.6-12.3-8.7-12.5c-12,11.3-11,22.8-11,22.8c0,1.3,0.2,2.5,0.6,3.6
		c1.3,3.7,4.6,6.3,8.7,6.8l0,0l0.1-0.8l-7.6-13.6l1.3-0.5l6.3,11.4l0.3-7.4l-5.3-9.2l1.3-0.5l3.7,7.1l0.3-10.1h1.4l-0.3,10.1
		l4.3-7.7l1.4,0.2l-5.5,10.2l-0.1,7.3l6.9-12.4l1.4,0.2l-8.3,14.9l-0.1,1l0,0c0.1,0,0.2,0,0.3,0c0.2,0,0.3,0,0.5,0
		c5.9-0.6,10.6-5.5,10.5-11.6C208.6,382.5,207.4,379.3,205.8,376.2z"/>
	<path class="st0" d="M194.5,401.6c-0.1,0.1-0.1,0.2-0.2,0.3l-0.5-0.3H194.5z"/>
	<path class="st0" d="M161,381.9c6.5,18.8,20.1,24.3,20.1,24.3c2,1,4.1,1.4,6.2,1.4c5.5,0.4,11-3.4,12.9-9.4
		c2-6.2-0.4-12.6-5.5-15.3l0,0c-0.8-0.6-1.6-1.1-2.5-1.5C182.5,376.6,161,381.9,161,381.9z M166.1,385.2L166.1,385.2L166.1,385.2z"
		/>
	<path class="st1" d="M181.7,383.7c-7.2-0.5-15,1-15.2,0.9c3.5,16.1,13.8,21.2,13.8,21.2c1.1,0.7,2.2,1.1,3.4,1.3
		c3.8,0.8,7.8-0.6,10.3-3.9l0,0l-0.6-0.5l-15.5-0.5l0.2-1.4l13,0.5l-6.2-4.1l-10.6-0.2l0.2-1.4l8,0.5l-8.5-5.5l0.7-1.2l8.5,5.5
		l-4.4-7.7l0.9-1.1l5.9,9.9l6.3,3.9l-7-12.3l0.9-1.1l8.4,14.8l0.8,0.6l0,0c0-0.1,0.1-0.2,0.1-0.2c0.1-0.1,0.1-0.3,0.2-0.4
		c2.5-5.3,0.8-11.9-4.5-15C188.5,384.6,185.2,383.9,181.7,383.7z"/>
	<path class="st2" d="M184.9,215.5c-3.6,14.8,2.8,23.9,2.8,23.9c0.9,1.5,2.1,2.6,3.4,3.4c3.4,2.5,8.4,2.4,12.2-0.7
		c3.8-3.1,4.9-8.3,2.9-12.1l0,0c-0.3-0.7-0.6-1.4-1-2.1C200.9,220.9,184.9,215.5,184.9,215.5z M186.8,219.7L186.8,219.7L186.8,219.7
		z"/>
	<path class="st3" d="M197.4,225.2c-4.4-3.3-10-5.6-10.1-5.7c-4.4,11.8,0.1,19.4,0.1,19.4c0.4,0.9,1,1.6,1.6,2.3
		c2.1,2.1,5.3,2.8,8.3,1.7l0,0l-0.2-0.6l-9.7-6.8l0.7-0.8l8.1,5.7l-2.3-5.2l-6.7-4.5l0.7-0.8l4.9,3.6l-3.2-7l0.9-0.5l3.2,7l0.4-6.8
		l1.1-0.3l-0.4,8.8l2.4,5.1l0.6-10.8l1.1-0.3l-0.7,13l0.2,0.7l0,0c0.1,0,0.1-0.1,0.2-0.1c0.1-0.1,0.2-0.1,0.3-0.2
		c3.8-2.4,5.4-7.3,3.4-11.5C201.5,228.6,199.6,226.7,197.4,225.2z"/>
	<path class="st4" d="M193.8,296.2c0.5,12.9,5.1,25.2,13.4,35.3c2.1,2.5,4.3,4.8,6.7,6.9l-0.3,0.2c-7.6-3.4-14.6-8.5-20.3-15.4
		c-7.5-9.1-11.6-20-12.4-30.9C185.1,294,189.4,295.4,193.8,296.2z"/>
	<path class="st4" d="M228.1,188c7.7,3.6,14.6,8.9,20.2,16c6.9,8.8,10.6,19,11.5,29.3h-1.3c-3.5-1.4-7.1-2.5-10.8-3.3
		c-0.4-12.5-4.7-24.5-12.5-34.5C233,192.8,230.6,190.3,228.1,188z"/>
	<path class="st4" d="M243.6,233.6c0,0.6,0,1.2-0.1,1.8c-10.2,1.6-19.8,6-28.1,12.7c-11.9,9.8-19.4,23.5-21.2,38.8
		c-3.5,0.4-7,0.4-10.5,0.1l-2.8-0.4c0.4-15.4,7.3-30.5,20.1-41.1C213.3,235.4,228.8,231.5,243.6,233.6z"/>
	<path class="st4" d="M243.1,239.7c-1.9,13.7-8.9,26.7-20.6,35.9c-7.3,5.7-15.5,9.2-24,10.8c1.8-13.2,8.5-25.9,19.6-35
		C225.5,245.1,234.1,241.3,243.1,239.7z"/>
	<path class="st4" d="M259.9,239.2c-0.4,16-7.6,31.7-21.2,42.3c-12,9.4-26.8,13-40.8,11.2c0-0.7,0-1.4,0.1-2.1
		c9.7-1.6,18.9-5.6,26.9-11.8c12.5-9.7,20.4-23.8,22.3-39.5c0-0.1,0-0.2,0-0.2C251.5,238.6,255.7,238.7,259.9,239.2z"/>
	<path class="st5" d="M251.4,201.4c-7-8.9-16.3-15.5-26.8-19.2c-0.7,2.1-1.9,4-3.4,5.5c3.9,2.9,7.5,6.3,10.7,10.4
		c7.3,9.3,11.1,20.3,11.6,31.3c-0.6-0.1-1.2-0.1-1.8-0.2c-15.7-1.5-31.2,3.1-43.4,13.2c-12.2,10-19.8,24.3-21.3,40
		c-0.3,2.6-0.3,5.2-0.3,7.7c-0.1,0-0.2,0-0.2,0c0.1,0,0.2,0.1,0.2,0.1c0.4,13,5.1,25.4,13.4,35.6c9,10.9,21.2,18.1,34.9,20.6
		c0.2,0,0.3,0.1,0.4,0.1c1.5,0,1.9-3.8,1.9-3.8c-6.3-3.3-12.1-7.9-17-13.8c-7.8-9.4-11.8-20.7-12.4-32.1
		c15.6,1.8,30.9-2.5,43.3-12.2c12.5-9.7,20.4-23.8,22.3-39.5C265.4,229.4,261.1,213.9,251.4,201.4z M235.2,195.5
		c-2.2-2.8-4.5-5.3-7.1-7.6c7.7,3.6,14.6,9,20.2,16.1c6.9,8.8,10.6,19,11.5,29.3h-1.3c-3.5-1.4-7.1-2.5-10.8-3.3
		C247.3,217.5,243,205.5,235.2,195.5z M207.3,331.5c2.1,2.5,4.3,4.8,6.7,6.9l-0.3,0.2c-7.6-3.4-14.6-8.5-20.3-15.4
		c-7.5-9.1-11.6-20-12.4-30.9c4.1,1.8,8.4,3.1,12.8,3.9C194.3,309.1,199,321.4,207.3,331.5z M194.2,286.9c-3.5,0.4-7,0.4-10.5,0.1
		l-2.8-0.4c0.4-15.4,7.3-30.5,20.1-41.1c12.4-10.2,27.9-14,42.6-12c-0.1,0.7-0.1,1.3-0.1,1.9c-10.2,1.6-19.8,6-28.1,12.7
		C203.5,257.9,196,271.6,194.2,286.9z M243,239.7c-1.9,13.7-8.9,26.7-20.6,35.9c-7.2,5.6-15.5,9.1-24,10.7
		c1.8-13.2,8.5-25.9,19.6-35C225.5,245.1,234.1,241.3,243,239.7z M238.8,281.4c-12,9.4-26.8,13-40.8,11.2c0-0.7,0-1.4,0.1-2.1
		c9.7-1.6,18.9-5.6,26.9-11.8c12.5-9.7,20.4-23.8,22.3-39.5c0-0.1,0-0.2,0-0.2c4.2-0.4,8.5-0.4,12.6,0.1
		C259.6,255.2,252.3,270.9,238.8,281.4z"/>
	<path class="st2" d="M268.9,230c-12.4,11.5-12,24-12,24c-0.1,1.9,0.3,3.7,1,5.3c1.6,4.4,6.4,7.4,11.7,6.8c5.5-0.6,9.6-4.7,10.1-9.5
		l0,0c0.2-0.8,0.3-1.6,0.3-2.5C280.5,244.9,268.9,230,268.9,230z M268.1,235.1L268.1,235.1L268.1,235.1z"/>
	<path class="st3" d="M274.7,246.7c-2.1-5.8-5.9-11.3-5.9-11.5c-11.3,8.2-11.8,18.1-11.8,18.1c-0.1,1.1-0.1,2.1,0.1,3.1
		c0.7,3.2,3.2,5.9,6.6,6.7l0,0l0.2-0.7l-4.9-12.3l1.1-0.3l4.1,10.3l1.1-6.2l-3.4-8.3l1.1-0.3l2.4,6.4l1.3-8.5l1.2,0.1l-1.3,8.5
		l4.5-6.1l1.2,0.4l-5.7,8l-0.9,6.2l7.2-9.7l1.2,0.4l-8.6,11.6l-0.2,0.8l0,0c0.1,0,0.2,0,0.2,0c0.1,0,0.3,0,0.4,0
		c5,0.1,9.5-3.5,10.2-8.6C276.3,252.3,275.7,249.5,274.7,246.7z"/>
	<path class="st6" d="M295.2,249c-18.3-7.8-31.5-1.4-31.5-1.4c-2.1,0.8-3.8,2.1-5.2,3.6c-4,3.8-4.8,10.4-1.7,15.8
		c3.2,5.6,9.6,8.1,15,6.3l0,0c1-0.2,1.9-0.5,2.9-0.9C284.7,268.5,295.2,249,295.2,249z M289.3,250.5L289.3,250.5L289.3,250.5z"/>
	<path class="st7" d="M280,263.1c5.2-5,9.3-11.7,9.5-11.9c-14.3-8.2-25-4-25-4c-1.2,0.4-2.3,0.9-3.3,1.6c-3.1,2.3-4.8,6.2-4,10.3
		l0,0l0.8-0.1l10.8-11.1l0.9,1l-9.1,9.3l7.2-1.8l7.3-7.7l0.9,1l-5.7,5.6l9.8-2.6l0.4,1.3l-9.8,2.6l8.7,2l0.2,1.4l-11.3-2.3l-7.1,2
		l13.8,3.1l0.2,1.4l-16.6-3.7l-0.9,0.2l0,0c0,0.1,0.1,0.2,0.1,0.3c0.1,0.1,0.1,0.3,0.2,0.4c2.2,5.5,8.3,8.6,14.1,6.8
		C274.7,267.6,277.5,265.6,280,263.1z"/>
	<path class="st0" d="M262,254.9c0.1-0.1,0.2-0.2,0.3-0.2l0.4,0.4L262,254.9z"/>
	<path class="st0" d="M290,281.7c-2-19.8-14-28.2-14-28.2c-1.7-1.4-3.7-2.3-5.7-2.8c-5.3-1.6-11.4,0.8-14.7,6.2
		c-3.3,5.5-2.4,12.3,1.8,16.2l0,0c0.6,0.7,1.3,1.5,2.1,2.1C267.9,282,290,281.7,290,281.7z M285.9,277.3L285.9,277.3L285.9,277.3z"
		/>
	<path class="st1" d="M270.3,275.2c6.9,2.1,14.8,2.5,15,2.6c0.3-16.5-8.6-23.8-8.6-23.8c-0.9-0.9-1.9-1.6-3-2.1
		c-3.5-1.6-7.8-1.2-11,1.5l0,0l0.5,0.7l15,4.1l-0.5,1.3l-12.5-3.5l5.1,5.4l10.2,2.7l-0.5,1.3l-7.6-2.3l7,7.3l-0.9,1l-7-7.3l2.5,8.5
		l-1.2,0.8l-3.4-11l-5.2-5.2l4,13.6l-1.2,0.8l-4.8-16.3l-0.6-0.7l0,0c-0.1,0.1-0.1,0.1-0.2,0.2c-0.1,0.1-0.2,0.2-0.3,0.4
		c-3.7,4.6-3.5,11.4,0.9,15.7C263.8,272.8,267,274.2,270.3,275.2z"/>
	<path class="st2" d="M332.7,647.8L332.7,647.8L332.7,647.8z"/>
	<path class="st4" d="M310.9,605.2L310.9,605.2c-0.2-0.5-0.5-0.9-0.7-1.2c0.3,1,0.6,2.1,0.8,3.2C311,606.5,311,605.8,310.9,605.2z"
		/>
	<path class="st4" d="M202.6,641.8c3.3,7.8,8.5,14.9,15.4,20.7c8.5,7.1,18.6,11.2,29,12.4v-1.3c-1.3-3.5-2.3-7.2-2.9-10.9
		c-12.5-0.8-24.3-5.5-34.1-13.7C207.3,646.9,204.8,644.4,202.6,641.8z"/>
	<path class="st4" d="M247.6,658.8c0.6,0,1.2,0,1.8,0c2-10.2,6.6-19.6,13.6-27.6c10.2-11.6,24.1-18.6,39.4-19.9
		c0.5-3.5,0.6-7,0.4-10.5l-0.3-2.9c-15.4-0.1-30.8,6.3-41.7,18.7C250.4,628.6,246.1,644,247.6,658.8z"/>
	<path class="st4" d="M253.7,658.5c13.8-1.5,27-8,36.5-19.5c5.9-7.1,9.7-15.2,11.5-23.6c-13.3,1.4-26.1,7.6-35.6,18.4
		C259.8,641.1,255.6,649.6,253.7,658.5z"/>
	<path class="st4" d="M252.7,675.3c16,0.2,31.9-6.6,42.9-19.8c9.8-11.7,13.9-26.3,12.6-40.4c-0.7,0-1.4,0-2.1,0
		c-1.9,9.7-6.2,18.7-12.7,26.5c-10.1,12.1-24.4,19.6-40.2,21c-0.1,0-0.2,0-0.2,0C252.4,666.9,252.3,671.1,252.7,675.3z"/>
	<path class="st5" d="M313.3,615.4c-1.2-2.5-1.9-5.3-2.3-8.3c-0.2-1.1-0.5-2.1-0.8-3.2c-0.1-0.3-0.3-0.5-0.3-0.6
		c-0.9-1.4-1.8-2.8-2.6-4.4c-0.9-1.7-1.5-3.4-1.9-5.2c-2.3-0.1-4.5-0.1-6.8,0c-15.8,1-30.2,8.1-40.7,20
		c-10.4,11.9-15.6,27.1-14.6,42.9c0,0.6,0.1,1.2,0.1,1.8c-11-0.9-21.8-5-30.9-12.6c-5.8-4.9-10.4-10.7-13.7-17.1l-4,1.3
		c2.4,13.9,9.5,26.3,20.4,35.5c12.1,10.1,27.5,14.9,43.3,13.5s30-8.9,40.2-21c10.1-12,14.9-27.3,13.6-42.9
		C312.7,615.3,313,615.4,313.3,615.4z M218,662.5c-6.9-5.8-12.1-12.9-15.4-20.7c2.2,2.6,4.7,5.1,7.4,7.3
		c9.8,8.2,21.6,12.9,34.1,13.7c0.6,3.7,1.6,7.4,2.9,10.9v1.3C236.6,673.8,226.5,669.7,218,662.5z M247.6,658.8
		c-1.6-14.8,2.8-30.2,13.4-42.2c10.9-12.5,26.3-18.8,41.7-18.7l0.3,2.9c0.2,3.5,0,7-0.4,10.5c-15.3,1.3-29.3,8.4-39.4,19.9
		c-7,8-11.6,17.5-13.6,27.6C248.8,658.8,248.2,658.8,247.6,658.8z M301.8,615.4c-1.8,8.4-5.6,16.5-11.5,23.6
		c-9.5,11.4-22.8,18-36.5,19.5c1.9-8.9,6-17.4,12.4-24.6C275.7,623,288.5,616.8,301.8,615.4z M295.6,655.5
		c-11,13.2-26.9,19.9-42.9,19.8c-0.4-4.2-0.3-8.4,0.3-12.6c0.1,0,0.2,0,0.2,0c15.8-1.4,30-8.9,40.2-21c6.5-7.8,10.8-16.9,12.7-26.5
		c0.7,0,1.4,0,2.1,0C309.5,629.2,305.4,643.8,295.6,655.5z"/>
	<path class="st0" d="M249.4,679.8c-0.1,0-0.2-0.1-0.3-0.1l-0.2,0.4L249.4,679.8z"/>
	<path class="st0" d="M255.8,694.2c0.4-0.7,0.8-1.3,1.1-2l0,0c2.2-3.8,1.3-9-2.4-12.3c-3.6-3.2-8.7-3.6-12.2-1.2
		c-1.4,0.8-2.6,1.9-3.5,3.3c0,0-6.8,8.9-3.8,23.9C235,706,251.3,701.1,255.8,694.2z M237.1,701.8L237.1,701.8L237.1,701.8z"/>
	<path class="st1" d="M248,696.7c-4.6,3.1-10.3,5.2-10.4,5.4c-4-12,0.8-19.4,0.8-19.4c0.5-0.9,1-1.6,1.7-2.2c2.2-2,5.4-2.6,8.4-1.4
		l0,0l-0.2,0.6l-10,6.4l0.6,0.8l8.4-5.4l-2.5,5.1l-6.9,4.3l0.6,0.8l5.1-3.4l-3.5,7l0.9,0.5l3.5-7l0.1,6.8l1,0.4v-8.9l2.6-5l0.2,10.9
		l1,0.4l-0.2-13.1l0.3-0.7l0,0c0.1,0,0.1,0.1,0.2,0.1c0.1,0.1,0.2,0.1,0.3,0.2c3.8,2.5,5.2,7.6,2.9,11.7
		C252.2,693.4,250.2,695.2,248,696.7z"/>
	<path class="st0" d="M255.2,617.5c0-0.1,0-0.2,0.1-0.3l-0.5-0.1L255.2,617.5z"/>
	<path class="st2" d="M760.5,673c14.8,3.6,23.9-2.8,23.9-2.8c1.5-0.9,2.6-2.1,3.4-3.4c2.5-3.4,2.4-8.4-0.7-12.2
		c-3.1-3.8-8.3-4.9-12.1-2.9l0,0c-0.7,0.3-1.4,0.6-2.1,1C766,657,760.5,673,760.5,673z M764.8,671.1L764.8,671.1L764.8,671.1z"/>
	<path class="st3" d="M770.2,660.4c-3.3,4.4-5.6,10-5.7,10.1c11.8,4.4,19.4-0.1,19.4-0.1c0.9-0.4,1.6-1,2.3-1.6
		c2.1-2.1,2.8-5.3,1.7-8.3l0,0l-0.6,0.2l-6.8,9.7l-0.8-0.7l5.7-8.1l-5.2,2.3l-4.5,6.7l-0.8-0.7l3.6-4.9l-7,3.2l-0.5-0.9l7-3.2
		l-6.8-0.4l-0.3-1.1l8.8,0.4l5.1-2.4L774,660l-0.3-1.1l13,0.7l0.7-0.2l0,0c0-0.1-0.1-0.1-0.1-0.2c-0.1-0.1-0.1-0.2-0.2-0.3
		c-2.4-3.8-7.3-5.4-11.5-3.4C773.6,656.4,771.8,658.3,770.2,660.4z"/>
	<path class="st4" d="M733.1,629.8c3.6-7.7,8.9-14.6,16-20.2c8.8-6.9,19-10.6,29.3-11.5v1.3c-1.4,3.5-2.5,7.1-3.3,10.8
		c-12.5,0.4-24.5,4.7-34.5,12.5C737.9,624.9,735.4,627.3,733.1,629.8z"/>
	<path class="st4" d="M778.6,614.3c0.6,0,1.2,0,1.8,0.1c1.6,10.2,6,19.8,12.7,28.1c9.8,11.9,23.5,19.4,38.8,21.2
		c0.4,3.5,0.4,7,0.1,10.5l-0.4,2.8c-15.4-0.4-30.5-7.3-41.1-20.1C780.5,644.5,776.6,629,778.6,614.3z"/>
	<path class="st4" d="M784.7,614.8c13.7,1.9,26.7,8.9,35.9,20.6c5.7,7.3,9.2,15.5,10.8,24c-13.2-1.8-25.9-8.5-35-19.6
		C790.2,632.4,786.3,623.7,784.7,614.8z"/>
	<path class="st4" d="M784.3,598c16,0.4,31.7,7.6,42.3,21.2c9.4,12,13,26.8,11.2,40.8c-0.7,0-1.4,0-2.1-0.1
		c-1.6-9.7-5.6-18.9-11.8-26.9c-9.7-12.5-23.8-20.4-39.5-22.3c-0.1,0-0.2,0-0.2,0C783.7,606.4,783.7,602.1,784.3,598z"/>
	<path class="st5" d="M909.8,596.2c-1.4-15.8-8.9-30-21-40.2c-12-10.1-27.2-14.9-42.9-13.6c0.1-1.4,0.3-2.7,0.5-4.1
		c-1.4-0.5-2.7-1.1-3.9-1.8c-0.4,2.1-0.6,4.2-0.8,6.3c-4.5,0.7-8.8,1.9-12.9,3.5c0.6-5.7,2.1-11.2,4.4-16.5c-1.1-1.1-2.1-2.5-2.7-4
		c-3.5,7-5.5,14.6-6.1,22.4c-0.1,0-0.2,0.1-0.2,0.1c0.1,0,0.2,0,0.2,0c-0.2,2.6-0.2,5.1,0,7.7c1,15.8,8.1,30.2,20,40.7
		c11.9,10.4,27.1,15.6,42.9,14.6c0.6,0,1.2-0.1,1.8-0.2c-0.9,11-5,21.8-12.6,30.9c-4.9,5.8-10.7,10.4-17.1,13.7l0,0
		c-5.7,2.3-11.6,3.6-17.6,3.9c1.8-15.6-2.5-30.9-12.2-43.3c-9.7-12.5-23.8-20.4-39.5-22.3c-15.7-1.9-31.2,2.4-43.7,12.1
		c-11.2,8.8-18.8,21-21.6,34.8l3.9,1.4c3.5-6.3,8.2-11.9,14.2-16.6c9.3-7.3,20.3-11.1,31.3-11.6c-0.1,0.6-0.1,1.2-0.2,1.8
		c-1.5,15.7,3.1,31.1,13.2,43.4c10,12.2,24.3,19.8,40,21.3c2.6,0.3,5.2,0.3,7.7,0.3c0,0.1,0,0.2,0,0.2c0-0.1,0.1-0.2,0.1-0.2
		c13-0.4,25.4-5.1,35.6-13.4c6.2-5.1,11.2-11.3,14.8-18.2c3.9-2.8,7.4-6.2,10.6-9.9C906.4,627.4,911.2,612,909.8,596.2z
		 M847.2,593.9c-12.5-10.9-18.8-26.3-18.7-41.7l2.9-0.3c3.5-0.2,7,0,10.5,0.4c1.3,15.3,8.4,29.3,19.9,39.4c8,7,17.5,11.6,27.6,13.6
		c0,0.6,0,1.2,0,1.8C874.6,608.8,859.3,604.4,847.2,593.9z M846,553.1c8.4,1.8,16.5,5.6,23.6,11.5c11.4,9.5,18,22.8,19.5,36.5
		c-8.9-1.9-17.4-6-24.6-12.4C853.6,579.2,847.4,566.4,846,553.1z M740.7,622.7c-2.8,2.2-5.3,4.5-7.6,7.1c3.6-7.7,8.9-14.6,16-20.2
		c8.8-6.9,19-10.6,29.3-11.5v1.3c-1.4,3.5-2.5,7.1-3.2,10.8C762.7,610.6,750.7,614.9,740.7,622.7z M832,674.2l-0.3,2.8
		c-15.4-0.4-30.5-7.3-41.1-20.1c-10.2-12.4-14-27.9-12-42.6c0.6,0,1.2,0,1.8,0.1c1.7,10.2,6,19.9,12.7,28.1
		c9.8,11.9,23.5,19.4,38.8,21.2C832.3,667.2,832.3,670.7,832,674.2z M784.7,614.8c13.7,1.9,26.7,8.9,35.9,20.6
		c5.7,7.3,9.2,15.5,10.8,24c-13.2-1.8-25.9-8.5-35-19.6C790.2,632.4,786.3,623.7,784.7,614.8z M823.8,633
		c-9.7-12.5-23.8-20.4-39.5-22.3c-0.1,0-0.2,0-0.2,0c-0.4-4.2-0.4-8.5,0.1-12.6c16,0.4,31.7,7.6,42.3,21.2c9.4,12,13,26.8,11.2,40.8
		c-0.7,0-1.4,0-2.1-0.1C834,650.2,830,640.9,823.8,633z M868.3,664.5c-9.1,7.5-20,11.6-30.9,12.4c1.8-4.1,3.1-8.4,3.9-12.8
		c6.8-0.3,13.4-1.7,19.6-4.1c6-1,11.7-2.9,17-5.7C875.2,658,872,661.4,868.3,664.5z M893.1,636.9c-5.8,6.9-12.9,12.1-20.7,15.4
		c2.6-2.2,5.1-4.7,7.3-7.4c8.2-9.8,12.9-21.6,13.7-34.1c3.7-0.6,7.4-1.6,10.9-2.9h1.3C904.4,618.3,900.3,628.3,893.1,636.9z
		 M893.3,601.9c0-0.1,0-0.2,0-0.2c-1.4-15.8-8.9-30-21-40.2c-7.8-6.5-16.9-10.8-26.5-12.7c0-0.7,0-1.4,0-2.1
		c14.1-1.3,28.7,2.8,40.5,12.6c13.2,11,19.9,26.9,19.8,42.9C901.7,602.5,897.5,602.4,893.3,601.9z"/>
	<path class="st0" d="M779.9,601.2c-0.1,0.1-0.1,0.2-0.2,0.3l-0.5-0.2L779.9,601.2z"/>
	<g>
		<path class="st6" d="M776.2,557.4c-10.6,16.9-6.4,30.9-6.4,30.9c0.5,2.2,1.5,4.1,2.8,5.7c3.2,4.6,9.5,6.4,15.4,4.2
			c6-2.3,9.5-8.2,8.6-13.9l0,0c0-1-0.2-2-0.4-3C793.9,570.8,776.2,557.4,776.2,557.4z M776.8,563.4L776.8,563.4L776.8,563.4z"/>
		<path class="st7" d="M787.8,574.6c-4.1-5.9-10.1-11.1-10.2-11.3c-10.4,12.8-7.9,24.1-7.9,24.1c0.2,1.2,0.5,2.4,1.1,3.5
			c1.8,3.5,5.4,5.7,9.5,5.6l0,0v-0.8l-9.3-12.5l1.2-0.7l7.7,10.5l-0.7-7.4l-6.4-8.4l1.2-0.7l4.6,6.5l-1-10.1l1.3-0.2l1,10.1l3.3-8.2
			h1.4l-4.1,10.8l0.9,7.3l5.2-13.2h1.4l-6.3,15.8v1l0,0c0.1,0,0.2,0,0.3,0c0.2,0,0.3-0.1,0.5-0.1c5.7-1.3,9.8-6.8,8.9-12.9
			C791.4,580.5,789.8,577.4,787.8,574.6z"/>
		<path class="st0" d="M744.1,586.1c8.9,17.8,23.1,21.4,23.1,21.4c2.1,0.7,4.3,0.9,6.3,0.6c5.5-0.3,10.4-4.8,11.5-11
			c1.1-6.4-2.1-12.4-7.4-14.5l0,0c-0.8-0.5-1.8-0.9-2.7-1.2C764.7,578,744.1,586.1,744.1,586.1z M749.6,588.7L749.6,588.7
			L749.6,588.7z"/>
		<path class="st1" d="M764.8,585.1c-7.2,0.5-14.7,2.9-14.9,2.9c5.6,15.5,16.5,19.2,16.5,19.2c1.2,0.5,2.3,0.8,3.5,0.9
			c3.9,0.3,7.7-1.7,9.7-5.3l0,0l-0.7-0.5l-15.5,1.5v-1.4l13-1.2l-6.7-3.3l-10.5,1.1v-1.4l8-0.6l-9.2-4.3l0.5-1.3l9.2,4.3l-5.3-7.1
			l0.8-1.2l7.1,9.1l6.7,3l-8.6-11.3l0.8-1.2l10.3,13.6l0.8,0.5l0,0c0-0.1,0.1-0.2,0.1-0.3c0.1-0.1,0.1-0.3,0.2-0.4
			c1.8-5.6-0.8-11.9-6.4-14.3C771.8,585.1,768.3,584.9,764.8,585.1z"/>
	</g>
	<path class="st2" d="M686.5,625.5c-0.7,0.4-1.3,0.9-1.8,1.3l0,0c-3.6,2.5-5,7.5-3.1,12.1c1.9,4.4,6.2,6.9,10.4,6.3
		c1.6-0.1,3.1-0.6,4.6-1.5c0,0,10-5.1,13.7-19.8C710.3,623.9,693.5,621.2,686.5,625.5z M706.6,626.8L706.6,626.8L706.6,626.8z"/>
	<path class="st3" d="M694.6,626.6c5.4-0.8,11.5-0.3,11.6-0.3c-1.6,12.5-9.1,17.1-9.1,17.1c-0.8,0.6-1.6,1-2.5,1.2
		c-2.8,0.8-6,0-8.1-2.3l0,0l0.4-0.5l11.8-1.5l-0.2-1l-9.9,1.3l4.4-3.5l8-0.9l-0.2-1l-6,0.9l6.1-4.7l-0.6-0.9l-6.1,4.7l2.8-6.2
		l-0.8-0.8l-3.8,8l-4.5,3.4l4.5-9.9l-0.8-0.8l-5.4,11.8l-0.5,0.5l0,0c0-0.1-0.1-0.1-0.1-0.2c-0.1-0.1-0.1-0.2-0.2-0.3
		c-2.3-3.9-1.4-9,2.4-11.7C689.5,627.7,692,627,694.6,626.6z"/>
	<path class="st4" d="M684.6,662.7c12.9-0.5,25.2-5.1,35.3-13.4c2.5-2.1,4.8-4.3,6.9-6.7l0.2,0.3c-3.4,7.6-8.5,14.6-15.4,20.3
		c-9.1,7.5-20,11.6-30.9,12.4C682.5,671.4,683.8,667.2,684.6,662.7z"/>
	<path class="st4" d="M576.4,628.5c3.6-7.7,8.9-14.6,16-20.2c8.8-6.9,19-10.6,29.3-11.5v1.3c-1.4,3.5-2.5,7.1-3.3,10.8
		c-12.5,0.4-24.5,4.7-34.5,12.5C581.2,623.5,578.7,625.9,576.4,628.5z"/>
	<path class="st4" d="M622,613c0.6,0,1.2,0,1.8,0.1c1.6,10.2,6,19.8,12.7,28.1c9.8,11.9,23.5,19.4,38.8,21.2c0.4,3.5,0.4,7,0.1,10.5
		l-0.4,2.8c-15.4-0.4-30.5-7.3-41.1-20.1C623.8,643.2,620,627.7,622,613z"/>
	<path class="st4" d="M628.1,613.5c13.7,1.9,26.7,8.9,35.9,20.6c5.7,7.3,9.2,15.5,10.8,24c-13.2-1.8-25.9-8.5-35-19.6
		C633.5,631,629.7,622.4,628.1,613.5z"/>
	<path class="st4" d="M627.6,596.6c16,0.4,31.7,7.6,42.3,21.2c9.4,12,13,26.8,11.2,40.8c-0.7,0-1.4,0-2.1-0.1
		c-1.6-9.7-5.6-18.9-11.8-26.9c-9.7-12.5-23.8-20.4-39.5-22.3c-0.1,0-0.2,0-0.2,0C627,605,627.1,600.8,627.6,596.6z"/>
	<path class="st5" d="M568.4,639.8l3.9,1.4c3.5-6.3,8.2-11.9,14.2-16.6c9.3-7.3,20.3-11.1,31.3-11.6c-0.1,0.6-0.1,1.2-0.2,1.8
		c-1.5,15.7,3.1,31.2,13.2,43.4c10,12.2,24.3,19.8,40,21.3c2.6,0.3,5.2,0.3,7.7,0.3c0,0.1,0,0.2,0,0.2c0-0.1,0.1-0.2,0.1-0.2
		c13-0.4,25.4-5.1,35.6-13.4c10.9-9,18.1-21.2,20.6-34.9c0-0.2,0.1-0.3,0.1-0.4c0-1.5-3.8-1.9-3.8-1.9c-3.3,6.3-7.9,12.1-13.8,17
		c-9.4,7.8-20.7,11.8-32.1,12.4c1.8-15.6-2.5-30.9-12.2-43.3c-9.7-12.5-23.8-20.4-39.5-22.3s-31.2,2.4-43.7,12.1
		C578.7,613.8,571.2,626,568.4,639.8z M719.9,649.3c2.5-2.1,4.8-4.3,6.9-6.7l0.2,0.3c-3.4,7.6-8.5,14.6-15.4,20.3
		c-9.1,7.5-20,11.6-30.9,12.4c1.8-4.1,3.1-8.4,3.9-12.8C697.5,662.2,709.8,657.6,719.9,649.3z M669.9,617.8
		c9.4,12,13,26.8,11.2,40.8c-0.7,0-1.4,0-2.1-0.1c-1.6-9.7-5.6-18.9-11.8-26.9c-9.7-12.5-23.8-20.4-39.5-22.3c-0.1,0-0.2,0-0.2,0
		c-0.4-4.2-0.4-8.5,0.1-12.6C643.6,597,659.3,604.2,669.9,617.8z M674.7,658.1c-13.2-1.8-25.9-8.5-35-19.6c-6.2-7.5-10-16.1-11.6-25
		c13.7,1.9,26.7,8.9,35.9,20.6C669.6,641.4,673.2,649.6,674.7,658.1z M623.8,613.1c1.6,10.2,6,19.8,12.7,28.1
		c9.8,11.9,23.5,19.4,38.8,21.2c0.4,3.5,0.4,7,0.1,10.5l-0.4,2.8c-15.4-0.4-30.5-7.3-41.1-20.1c-10.2-12.4-14-27.9-12-42.6
		C622.6,613,623.2,613,623.8,613.1z M592.5,608.3c8.8-6.9,19-10.6,29.3-11.5v1.3c-1.4,3.5-2.5,7.1-3.3,10.8
		c-12.5,0.4-24.5,4.7-34.5,12.5c-2.8,2.2-5.3,4.5-7.6,7.1C580,620.8,585.3,613.8,592.5,608.3z"/>
	<path class="st0" d="M626.1,592.8c-0.1,0-0.2,0-0.3,0v-0.4L626.1,592.8z"/>
	<path class="st0" d="M625.6,563c-9.7,11.8-7.9,22.9-7.9,22.9c0.2,1.7,0.7,3.3,1.6,4.6c2,3.8,6.6,5.8,11.3,4.7
		c4.8-1.2,8.1-5.3,7.9-9.7l0,0c0.1-0.7,0.1-1.5,0-2.3C637.7,574.9,625.6,563,625.6,563z M625.5,567.6L625.5,567.6L625.5,567.6z"/>
	<path class="st1" d="M632.7,577.2c-2.6-4.9-6.6-9.4-6.7-9.6c-9.2,8.7-8.4,17.6-8.4,17.6c0,1,0.2,1.9,0.5,2.8c1,2.8,3.6,4.9,6.7,5.2
		l0,0l0.1-0.6l-5.9-10.4l1-0.4l4.9,8.7l0.2-5.7l-4.1-7l1-0.4l2.9,5.4l0.2-7.8h1l-0.2,7.8l3.3-6l1.1,0.2l-4.2,7.8v5.6l5.3-9.5
		l1.1,0.2l-6.3,11.4l-0.1,0.7l0,0c0.1,0,0.1,0,0.2,0c0.1,0,0.2,0,0.4,0c4.5-0.5,8.1-4.3,8.1-8.9C634.9,582.1,634,579.6,632.7,577.2z
		"/>
	<path class="st6" d="M588.3,658.3c15.3,12.7,29.8,10.3,29.8,10.3c2.2-0.2,4.2-0.9,6-2c4.9-2.5,7.6-8.6,6.1-14.7
		c-1.5-6.3-6.9-10.5-12.6-10.3l0,0c-1-0.1-2-0.1-3,0C603.9,642.5,588.3,658.3,588.3,658.3z M594.3,658.5L594.3,658.5L594.3,658.5z"
		/>
	<path class="st7" d="M606.8,649c-6.4,3.3-12.3,8.6-12.5,8.7c11.3,12,22.8,11,22.8,11c1.3,0,2.5-0.2,3.6-0.6
		c3.7-1.3,6.3-4.6,6.8-8.7l0,0l-0.8-0.1l-13.6,7.6l-0.5-1.3l11.4-6.3l-7.4-0.3l-9.2,5.3l-0.5-1.3l7.1-3.7l-10.1-0.3v-1.4l10.1,0.3
		l-7.7-4.3l0.2-1.4l10.2,5.5l7.3,0.1l-12.4-6.9l0.2-1.4l14.9,8.3l1,0.1l0,0c0-0.1,0-0.2,0-0.3c0-0.2,0-0.3,0-0.5
		c-0.6-5.9-5.5-10.6-11.6-10.5C613.2,646.3,609.9,647.4,606.8,649z"/>
	<path class="st0" d="M632.2,660.4c0.1,0.1,0.2,0.1,0.3,0.2l-0.3,0.5V660.4z"/>
	<path class="st0" d="M612.6,693.8c18.8-6.5,24.3-20.1,24.3-20.1c1-2,1.4-4.1,1.4-6.2c0.4-5.5-3.4-11-9.4-12.9
		c-6.2-2-12.6,0.4-15.3,5.5l0,0c-0.6,0.8-1.1,1.6-1.5,2.5C607.2,672.3,612.6,693.8,612.6,693.8z M615.9,688.8L615.9,688.8
		C615.8,688.8,615.9,688.8,615.9,688.8z"/>
	<path class="st1" d="M614.3,673.2c-0.5,7.2,1,15,0.9,15.2c16.1-3.5,21.2-13.8,21.2-13.8c0.7-1.1,1.1-2.2,1.3-3.4
		c0.8-3.8-0.6-7.8-3.9-10.3l0,0l-0.5,0.6l-0.5,15.5l-1.4-0.2l0.5-13l-4.1,6.2l-0.2,10.6l-1.4-0.2l0.5-8l-5.5,8.5l-1.2-0.7l5.5-8.5
		l-7.7,4.4l-1.1-0.9l9.9-5.9l3.9-6.3l-12.3,7l-1.1-0.9l14.8-8.4l0.6-0.8l0,0c-0.1,0-0.2-0.1-0.2-0.1c-0.1-0.1-0.3-0.1-0.4-0.2
		c-5.3-2.5-11.9-0.8-15,4.5C615.2,666.3,614.5,669.7,614.3,673.2z"/>
	<path class="st2" d="M446.1,670c14.8,3.6,23.9-2.8,23.9-2.8c1.5-0.9,2.6-2.1,3.4-3.4c2.5-3.4,2.4-8.4-0.7-12.2s-8.3-4.9-12.1-2.9
		l0,0c-0.7,0.3-1.4,0.6-2.1,1C451.5,653.9,446.1,670,446.1,670z M450.3,668.1L450.3,668.1L450.3,668.1z"/>
	<path class="st3" d="M455.8,657.4c-3.3,4.4-5.6,10-5.7,10.1c11.8,4.4,19.4-0.1,19.4-0.1c0.9-0.4,1.6-1,2.3-1.6
		c2.1-2.1,2.8-5.3,1.7-8.3l0,0l-0.6,0.2l-6.8,9.7l-0.8-0.7l5.7-8.1l-5.2,2.3l-4.5,6.7l-0.8-0.7l3.6-4.9l-7,3.2l-0.5-0.9l7-3.2
		l-6.8-0.4l-0.3-1.1l8.8,0.4l5.1-2.4l-10.8-0.6l-0.3-1.1l13,0.7l0.7-0.2l0,0c0-0.1-0.1-0.1-0.1-0.2c-0.1-0.1-0.1-0.2-0.2-0.3
		c-2.4-3.8-7.3-5.4-11.5-3.4C459.2,653.4,457.4,655.3,455.8,657.4z"/>
	<path class="st4" d="M526.8,661c12.9-0.5,25.2-5.1,35.3-13.4c2.5-2.1,4.8-4.3,6.9-6.7l0.2,0.3c-3.4,7.6-8.5,14.6-15.4,20.3
		c-9.1,7.5-20,11.6-30.9,12.4C524.7,669.8,526,665.5,526.8,661z"/>
	<path class="st4" d="M418.6,626.8c3.6-7.7,8.9-14.6,16-20.2c8.8-6.9,19-10.6,29.3-11.5v1.3c-1.4,3.5-2.5,7.1-3.3,10.8
		c-12.5,0.4-24.5,4.7-34.5,12.5C423.4,621.9,420.9,624.2,418.6,626.8z"/>
	<path class="st4" d="M464.2,611.3c0.6,0,1.2,0,1.8,0.1c1.6,10.2,6,19.8,12.7,28.1c9.8,11.9,23.5,19.4,38.8,21.2
		c0.4,3.5,0.4,7,0.1,10.5l-0.4,2.8c-15.4-0.4-30.5-7.3-41.1-20.1C466,641.5,462.1,626,464.2,611.3z"/>
	<path class="st4" d="M470.3,611.8c13.7,1.9,26.7,8.9,35.9,20.6c5.7,7.3,9.2,15.5,10.8,24c-13.2-1.8-25.9-8.5-35-19.6
		C475.7,629.3,471.9,620.7,470.3,611.8z"/>
	<path class="st4" d="M469.8,594.9c16,0.4,31.7,7.6,42.3,21.2c9.4,12,13,26.8,11.2,40.8c-0.7,0-1.4,0-2.1-0.1
		c-1.6-9.7-5.6-18.9-11.8-26.9c-9.7-12.5-23.8-20.4-39.5-22.3c-0.1,0-0.2,0-0.2,0C469.2,603.4,469.3,599.1,469.8,594.9z"/>
	<path class="st5" d="M410.6,638.1l3.9,1.4c3.5-6.3,8.2-11.9,14.2-16.6c9.3-7.3,20.3-11.1,31.3-11.6c-0.1,0.6-0.1,1.2-0.2,1.8
		c-1.5,15.7,3.1,31.2,13.2,43.4c10,12.2,24.3,19.8,40,21.3c2.6,0.3,5.2,0.3,7.7,0.3c0,0.1,0,0.2,0,0.2c0-0.1,0.1-0.2,0.1-0.2
		c13-0.4,25.4-5.1,35.6-13.4c10.9-9,18.1-21.2,20.6-34.9c0-0.2,0.1-0.3,0.1-0.4c0-1.5-3.8-1.9-3.8-1.9c-3.3,6.3-7.9,12.1-13.8,17
		c-9.4,7.8-20.7,11.8-32.1,12.4c1.8-15.6-2.5-30.9-12.2-43.3c-9.7-12.5-23.8-20.4-39.5-22.3c-15.7-1.9-31.2,2.4-43.7,12.1
		C420.9,612.1,413.4,624.3,410.6,638.1z M562.1,647.6c2.5-2.1,4.8-4.3,6.9-6.7l0.2,0.3c-3.4,7.6-8.5,14.6-15.4,20.3
		c-9.1,7.5-20,11.6-30.9,12.4c1.8-4.1,3.1-8.4,3.9-12.8C539.7,660.5,552,655.9,562.1,647.6z M512.1,616.1c9.4,12,13,26.8,11.2,40.8
		c-0.7,0-1.4,0-2.1-0.1c-1.6-9.7-5.6-18.9-11.8-26.9c-9.7-12.5-23.8-20.4-39.5-22.3c-0.1,0-0.2,0-0.2,0c-0.4-4.2-0.4-8.5,0.1-12.6
		C485.8,595.3,501.5,602.5,512.1,616.1z M516.9,656.4c-13.2-1.8-25.9-8.5-35-19.6c-6.2-7.5-10-16.1-11.6-25
		c13.7,1.9,26.7,8.9,35.9,20.6C511.8,639.7,515.3,647.9,516.9,656.4z M466,611.4c1.6,10.2,6,19.8,12.7,28.1
		c9.8,11.9,23.5,19.4,38.8,21.2c0.4,3.5,0.4,7,0.1,10.5l-0.4,2.8c-15.4-0.4-30.5-7.3-41.1-20.1c-10.2-12.4-14-27.9-12-42.6
		C464.8,611.3,465.4,611.3,466,611.4z M434.7,606.6c8.8-6.9,19-10.6,29.3-11.5v1.3c-1.4,3.5-2.5,7.1-3.3,10.8
		c-12.5,0.4-24.5,4.7-34.5,12.5c-2.8,2.2-5.3,4.5-7.6,7.1C422.2,619.1,427.5,612.1,434.7,606.6z"/>
	<path class="st2" d="M460.6,585.9c11.5,12.4,24,12,24,12c1.9,0.1,3.7-0.3,5.3-1c4.4-1.6,7.4-6.4,6.8-11.7
		c-0.6-5.5-4.7-9.6-9.5-10.1l0,0c-0.8-0.2-1.6-0.3-2.5-0.3C475.5,574.3,460.6,585.9,460.6,585.9z M465.7,586.8L465.7,586.8
		C465.7,586.7,465.7,586.7,465.7,586.8z"/>
	<path class="st3" d="M477.3,580.2c-5.8,2.1-11.3,5.9-11.5,5.9c8.2,11.3,18.1,11.8,18.1,11.8c1.1,0.1,2.1,0.1,3.1-0.1
		c3.2-0.7,5.9-3.2,6.7-6.6l0,0L493,591l-12.3,4.9l-0.3-1.1l10.3-4.1l-6.2-1.1l-8.3,3.4l-0.3-1.1l6.4-2.4l-8.5-1.3l0.1-1.2l8.5,1.3
		l-6.1-4.5l0.4-1.2l8,5.7l6.2,0.9l-9.7-7.2l0.4-1.2l11.6,8.6l0.8,0.2l0,0c0-0.1,0-0.2,0-0.2c0-0.1,0-0.3,0-0.4
		c0.1-5-3.5-9.5-8.6-10.2C483,578.5,480.1,579.1,477.3,580.2z"/>
	<path class="st6" d="M479.6,559.7c-7.8,18.3-1.4,31.5-1.4,31.5c0.8,2.1,2.1,3.8,3.6,5.2c3.8,4,10.4,4.8,15.8,1.7
		c5.6-3.2,8.1-9.6,6.3-15l0,0c-0.2-1-0.5-1.9-0.9-2.9C499.1,570.2,479.6,559.7,479.6,559.7z M481.1,565.6
		C481.1,565.5,481.1,565.5,481.1,565.6C481.1,565.5,481.1,565.5,481.1,565.6z"/>
	<path class="st7" d="M493.7,574.9c-5-5.2-11.7-9.3-11.9-9.5c-8.2,14.3-4,25-4,25c0.4,1.2,0.9,2.3,1.6,3.3c2.3,3.1,6.2,4.8,10.3,4
		l0,0l-0.1-0.8l-11.1-10.8l1-0.9l9.3,9.1l-1.8-7.2l-7.7-7.3l1-0.9l5.6,5.7l-2.6-9.8l1.3-0.4l2.6,9.8l2-8.7l1.4-0.2l-2.3,11.3l2,7.1
		l3.1-13.8l1.4-0.2l-3.7,16.6l0.2,0.9l0,0c0.1,0,0.2-0.1,0.3-0.1c0.1-0.1,0.3-0.1,0.4-0.2c5.5-2.2,8.6-8.3,6.8-14.1
		C498.2,580.1,496.2,577.4,493.7,574.9z"/>
	<path class="st0" d="M485.5,592.9c-0.1-0.1-0.2-0.2-0.2-0.3l0.4-0.4L485.5,592.9z"/>
	<path class="st0" d="M512.3,564.8c-19.8,2-28.2,14-28.2,14c-1.4,1.7-2.3,3.7-2.8,5.7c-1.6,5.3,0.8,11.4,6.2,14.7
		c5.5,3.3,12.3,2.4,16.2-1.8l0,0c0.7-0.6,1.5-1.3,2.1-2.1C512.6,587,512.3,564.8,512.3,564.8z M507.9,569L507.9,569L507.9,569z"/>
	<path class="st1" d="M505.9,584.5c2.1-6.9,2.5-14.8,2.6-15c-16.5-0.3-23.8,8.6-23.8,8.6c-0.9,0.9-1.6,1.9-2.1,3
		c-1.6,3.5-1.2,7.8,1.5,11l0,0l0.7-0.5l4.1-15l1.3,0.5l-3.5,12.5l5.4-5.1l2.7-10.2l1.3,0.5l-2.3,7.6l7.3-7l1,0.9l-7.3,7l8.5-2.5
		l0.8,1.2l-11,3.4l-5.2,5.2l13.6-4l0.8,1.2l-16.3,4.8l-0.7,0.6l0,0c0.1,0.1,0.1,0.1,0.2,0.2c0.1,0.1,0.2,0.2,0.4,0.3
		c4.6,3.7,11.4,3.5,15.7-0.9C503.4,591,504.8,587.9,505.9,584.5z"/>
	<path class="st2" d="M371.4,625.2c-0.7,0.4-1.3,0.9-1.8,1.3l0,0c-3.6,2.5-5,7.5-3.1,12.1c1.9,4.4,6.2,6.9,10.4,6.3
		c1.6-0.1,3.1-0.6,4.6-1.5c0,0,10-5.1,13.7-19.8C395.1,623.6,378.4,620.9,371.4,625.2z M391.5,626.4L391.5,626.4L391.5,626.4z"/>
	<path class="st3" d="M379.5,626.3c5.4-0.8,11.5-0.3,11.6-0.3c-1.6,12.5-9.1,17.1-9.1,17.1c-0.8,0.6-1.6,1-2.5,1.2
		c-2.8,0.8-6,0-8.1-2.3l0,0l0.4-0.5l11.8-1.5l-0.2-1l-9.9,1.3l4.4-3.5l8-0.9l-0.2-1l-6,0.9l6.1-4.7l-0.6-0.9l-6.1,4.7l2.8-6.2
		l-0.8-0.8l-3.8,8l-4.5,3.4l4.5-9.9l-0.8-0.8l-5.4,11.8l-0.5,0.5l0,0c0-0.1-0.1-0.1-0.1-0.2c-0.1-0.1-0.1-0.2-0.2-0.3
		c-2.3-3.9-1.4-9,2.4-11.7C374.4,627.4,376.9,626.7,379.5,626.3z"/>
	<path class="st4" d="M369.5,662.4c12.9-0.5,25.2-5.1,35.3-13.4c2.5-2.1,4.8-4.3,6.9-6.7l0.2,0.3c-3.4,7.6-8.5,14.6-15.4,20.3
		c-9.1,7.5-20,11.6-30.9,12.4C367.3,671.1,368.7,666.8,369.5,662.4z"/>
	<path class="st4" d="M305.2,596.6c0,1.5-0.2,2.9-0.6,4.3c-0.2,0.9-0.4,1.9-0.6,2.8c0.1-0.7,0.2-1.2,0.3-1.7
		c-0.8,1.9-0.7,4.3-0.9,6.4c0,0,0,0,0.1,0c0.7-3.7,1.8-7.3,3.3-10.8v-1.3C306.2,596.5,305.7,596.6,305.2,596.6z"/>
	<path class="st4" d="M306.9,612.7c0.6,0,1.2,0,1.8,0.1c1.6,10.2,6,19.8,12.7,28.1c9.8,11.9,23.5,19.4,38.8,21.2
		c0.4,3.5,0.4,7,0.1,10.5l-0.4,2.8c-15.4-0.4-30.5-7.3-41.1-20.1C308.7,642.9,304.8,627.4,306.9,612.7z"/>
	<path class="st4" d="M313,613.2c13.7,1.9,26.7,8.9,35.9,20.6c5.7,7.3,9.2,15.5,10.8,24c-13.2-1.8-25.9-8.5-35-19.6
		C318.4,630.7,314.6,622.1,313,613.2z"/>
	<path class="st4" d="M312.5,596.3c16,0.4,31.7,7.6,42.3,21.2c9.4,12,13,26.8,11.2,40.8c-0.7,0-1.4,0-2.1-0.1
		c-1.6-9.7-5.6-18.9-11.8-26.9c-9.7-12.5-23.8-20.4-39.5-22.3c-0.1,0-0.2,0-0.2,0C311.9,604.7,312,600.5,312.5,596.3z"/>
	<path class="st5" d="M416,628.8c-3.3,6.3-7.9,12.1-13.8,17c-9.4,7.8-20.7,11.8-32.1,12.4c1.8-15.6-2.5-30.9-12.2-43.3
		c-9.7-12.5-23.8-20.4-39.5-22.3c-4.6-0.6-9.1-0.6-13.6-0.1c0.2,1.4,0.3,2.7,0.2,4.1c0.5-0.1,1-0.1,1.5-0.2v1.3
		c-1.4,3.5-2.5,7.1-3.3,10.8c0,0,0,0-0.1,0c0,0.3-0.1,0.5-0.1,0.8c-0.2,1.1-0.5,2.3-0.9,3.4c0.1,0,0.3,0,0.4,0
		c-0.1,0.6-0.1,1.2-0.2,1.8c-1.5,15.7,3.1,31.2,13.2,43.4c10,12.2,24.3,19.8,40,21.3c2.6,0.3,5.2,0.3,7.7,0.3c0,0.1,0,0.2,0,0.2
		c0-0.1,0.1-0.2,0.1-0.2c13-0.4,25.4-5.1,35.6-13.4c10.9-9,18.1-21.2,20.6-34.9c0-0.2,0.1-0.3,0.1-0.4
		C419.8,629.2,416,628.8,416,628.8z M360.3,672.5l-0.4,2.8c-15.4-0.4-30.5-7.3-41.1-20.1c-10.2-12.4-14-27.9-12-42.6
		c0.6,0,1.2,0,1.8,0.1c1.6,10.2,6,19.8,12.7,28.1c9.8,11.9,23.5,19.4,38.8,21.2C360.5,665.5,360.6,669,360.3,672.5z M313,613.2
		c13.7,1.9,26.7,8.9,35.9,20.6c5.7,7.3,9.2,15.5,10.8,24c-13.2-1.8-25.9-8.5-35-19.6C318.4,630.7,314.6,622.1,313,613.2z
		 M363.8,658.2c-1.6-9.7-5.6-18.9-11.8-26.9c-9.7-12.5-23.8-20.4-39.5-22.3c-0.1,0-0.2,0-0.2,0c-0.4-4.2-0.4-8.5,0.1-12.6
		c16,0.4,31.7,7.6,42.3,21.2c9.4,12,13,26.8,11.2,40.8C365.3,658.3,364.5,658.2,363.8,658.2z M396.5,662.8
		c-9.1,7.5-20,11.6-30.9,12.4c1.8-4.1,3.1-8.4,3.9-12.8c12.9-0.5,25.2-5.1,35.3-13.4c2.5-2.1,4.8-4.3,6.9-6.7l0.2,0.3
		C408.5,650.2,403.4,657.2,396.5,662.8z"/>
	<path class="st0" d="M309.4,591.7c-0.1,0-0.2,0.1-0.3,0.1l-0.2-0.4L309.4,591.7z"/>
	<path class="st0" d="M369.6,639.1c-0.1,0-0.2,0-0.3,0v-0.4L369.6,639.1z"/>
	<path class="st0" d="M369.1,609.3c-9.7,11.8-7.9,22.9-7.9,22.9c0.2,1.7,0.7,3.3,1.6,4.6c2,3.8,6.6,5.8,11.3,4.7
		c4.8-1.2,8.1-5.3,7.9-9.7l0,0c0.1-0.7,0.1-1.5,0-2.3C381.3,621.3,369.1,609.3,369.1,609.3z M369,614C369,613.9,369,613.9,369,614
		L369,614z"/>
	<path class="st1" d="M376.3,623.6c-2.6-4.9-6.6-9.4-6.7-9.6c-9.2,8.7-8.4,17.6-8.4,17.6c0,1,0.2,1.9,0.5,2.8c1,2.8,3.6,4.9,6.7,5.2
		l0,0l0.1-0.6l-5.9-10.4l1-0.4l4.9,8.7l0.2-5.7l-4.1-7l1-0.4l2.9,5.4l0.2-7.8h1l-0.2,7.8l3.3-6l1.1,0.2l-4.2,7.8v5.6l5.3-9.5
		l1.1,0.2l-6.3,11.4l-0.1,0.7l0,0c0.1,0,0.1,0,0.2,0s0.2,0,0.4,0c4.5-0.5,8.1-4.3,8.1-8.9C378.4,628.4,377.5,625.9,376.3,623.6z"/>
	<path class="st0" d="M313.1,654.1c0,0.1,0,0.2,0,0.3l-0.5,0.1L313.1,654.1z"/>
	<g>
		<path class="st2" d="M285.1,632.9c19,2.4,29.4-7,29.4-7c1.7-1.3,3-2.9,3.8-4.7c2.7-4.6,1.7-10.9-2.6-15.1c-4.5-4.3-11-5-15.5-1.8
			l0,0c-0.8,0.4-1.6,0.9-2.4,1.5C289.6,612.1,285.1,632.9,285.1,632.9z M290.1,629.9L290.1,629.9L290.1,629.9z"/>
		<path class="st3" d="M295.4,615.8c-3.5,6-5.5,13.3-5.7,13.5c15.3,3.8,24.1-2.9,24.1-2.9c1-0.6,1.9-1.4,2.6-2.3
			c2.3-2.9,2.8-7,1-10.6l0,0l-0.7,0.3l-7.1,13.1l-1.1-0.7l6-11l-6.2,3.6l-4.7,9l-1.1-0.7l3.8-6.7l-8.3,5l-0.7-1.1l8.3-5l-8.5,0.5
			l-0.5-1.3l11-0.8l6-3.7l-13.6,0.8l-0.5-1.3l16.3-1l0.8-0.4l0,0c0-0.1-0.1-0.1-0.2-0.2c-0.1-0.1-0.2-0.2-0.3-0.4
			c-3.5-4.4-9.9-5.7-14.8-2.5C299.1,610.3,297.1,612.9,295.4,615.8z"/>
		<path class="st6" d="M278.2,599c11,19.6,27.1,23,27.1,23c2.4,0.7,4.8,0.8,7.1,0.3c6.2-0.7,11.5-5.9,12.4-13c1-7.2-3-13.9-9.1-16
			l0,0c-1-0.5-2-0.9-3.1-1.2C301,588.8,278.2,599,278.2,599z M284.4,601.7L284.4,601.7L284.4,601.7z"/>
		<path class="st7" d="M301.5,596.8c-8.1,0.9-16.4,4-16.7,4c7.1,17.2,19.6,20.8,19.6,20.8c1.3,0.5,2.7,0.8,4,0.8
			c4.4,0.1,8.5-2.3,10.7-6.4l0,0l-0.8-0.5L301,618l-0.1-1.5l14.5-2l-7.7-3.3l-11.8,1.8l-0.1-1.5l8.9-1l-10.5-4.4l0.5-1.4l10.5,4.4
			l-6.4-7.7l0.8-1.4l8.5,9.9l7.7,3l-10.2-12.3l0.8-1.4l12.3,14.8l1,0.5l0,0c0-0.1,0.1-0.2,0.1-0.3c0.1-0.2,0.1-0.3,0.2-0.5
			c1.8-6.4-1.5-13.4-7.9-15.8C309.2,596.5,305.4,596.4,301.5,596.8z"/>
		<path class="st0" d="M292.3,578.4c-3,22.3,7.9,34.7,7.9,34.7c1.5,2,3.4,3.5,5.5,4.5c5.4,3.2,12.8,2.2,17.7-2.9
			c5.1-5.2,5.9-12.9,2.3-18.2l0,0c-0.5-1-1.1-1.9-1.8-2.9C316.7,583.9,292.3,578.4,292.3,578.4z M295.7,584.3L295.7,584.3
			L295.7,584.3z"/>
		<path class="st1" d="M312.2,590.6c-7-4.1-15.5-6.7-15.8-6.8c-4.7,18,3.1,28.4,3.1,28.4c0.7,1.2,1.7,2.2,2.7,3.1
			c3.4,2.7,8.2,3.3,12.4,1.3l0,0l-0.4-0.9l-15.4-8.4l0.9-1.3l12.8,7.1l-4.1-7.3l-10.5-5.6l0.9-1.3l7.8,4.5l-5.8-9.8l1.3-0.8l5.8,9.8
			l-0.5-10l1.5-0.6l0.8,13l4.3,7.1l-0.8-16l1.5-0.6l1,19.2l0.5,1l0,0c0.1-0.1,0.2-0.1,0.3-0.2c0.1-0.1,0.3-0.2,0.4-0.3
			c5.3-4.1,6.8-11.6,3.2-17.4C318.7,595,315.6,592.6,312.2,590.6z"/>
	</g>
	<path class="st4" d="M838.6,533.8c-1.8-1.7-3.2-4-4.1-6.4c-3.1,6.1-5,12.6-5.7,19.2c4.1-1.6,8.5-2.8,12.9-3.5
		c0.1-2.1,0.4-4.2,0.8-6.3C841.1,535.8,839.8,534.9,838.6,533.8z"/>
	<path class="st4" d="M889.4,607.2c0-0.6,0-1.2,0-1.8c-10.2-2-19.6-6.6-27.6-13.6c-11.6-10.2-18.6-24.1-19.9-39.4
		c-3.5-0.5-7-0.6-10.5-0.4l-2.9,0.3c-0.1,15.4,6.3,30.8,18.7,41.7C859.2,604.4,874.6,608.8,889.4,607.2z"/>
	<path class="st4" d="M889.1,601.1c-1.5-13.8-8-27-19.5-36.5c-7.1-5.9-15.2-9.7-23.6-11.5c1.4,13.3,7.6,26.1,18.4,35.6
		C871.7,595.1,880.2,599.2,889.1,601.1z"/>
	<path class="st4" d="M905.9,602.1c0.2-16-6.6-31.9-19.8-42.9c-11.7-9.8-26.3-13.9-40.4-12.6c0,0.7,0,1.4,0,2.1
		c9.7,1.9,18.7,6.2,26.5,12.7c12.1,10.1,19.6,24.4,21,40.2c0,0.1,0,0.2,0,0.2C897.5,602.4,901.7,602.5,905.9,602.1z"/>
	<path class="st0" d="M865,543.6c0,0.1,0,0.2,0,0.3h0.4L865,543.6z"/>
	<path class="st0" d="M890.1,545.1L890.1,545.1L890.1,545.1z"/>
	<path class="st0" d="M848.2,599.6c-0.1,0-0.2,0-0.3-0.1l-0.1,0.5L848.2,599.6z"/>
	<path class="st4" d="M894.9,95.1c-4-4.9-8.8-8.9-13.9-12.1c0.7,1.8,1.2,3.7,1.5,5.6c7.4,9.8,11.5,21.3,12,33.4
		c4.5,0.8,8.7,2.2,12.8,3.9C906.5,115,902.4,104.2,894.9,95.1z"/>
	<path class="st4" d="M860.2,230.3c-7.7-3.6-14.6-8.9-20.2-16c-6.9-8.8-10.6-19-11.5-29.3h1.3c3.5,1.4,7.1,2.5,10.8,3.3
		c0.4,12.5,4.7,24.5,12.5,34.5C855.3,225.4,857.7,228,860.2,230.3z"/>
	<path class="st4" d="M844.7,184.7c0-0.6,0-1.2,0.1-1.8c10.2-1.6,19.8-6,28.1-12.7c11.9-9.8,19.4-23.5,21.2-38.8
		c3.5-0.4,7-0.4,10.5-0.1l2.8,0.4c-0.4,15.4-7.3,30.5-20.1,41.1C875,182.9,859.5,186.7,844.7,184.7z"/>
	<path class="st4" d="M845.3,178.6c1.9-13.7,8.9-26.7,20.6-35.9c7.3-5.7,15.5-9.2,24-10.8c-1.8,13.2-8.5,25.9-19.6,35
		C862.8,173.1,854.2,177,845.3,178.6z"/>
	<path class="st4" d="M828.4,179.1c0.4-16,7.6-31.7,21.2-42.3c12-9.4,26.8-13,40.8-11.2c0,0.7,0,1.4-0.1,2.1
		c-9.7,1.6-18.9,5.6-26.9,11.8c-12.5,9.7-20.4,23.8-22.3,39.5c0,0.1,0,0.2,0,0.2C836.8,179.6,832.6,179.6,828.4,179.1z"/>
	<path class="st5" d="M873,234.4c-6.3-3.5-11.9-8.2-16.6-14.2c-7.3-9.3-11.1-20.3-11.6-31.3c0.6,0.1,1.2,0.1,1.8,0.2
		c15.7,1.5,31.2-3.1,43.4-13.2c12.2-10,19.8-24.3,21.3-40c0.3-2.6,0.3-5.2,0.3-7.7c0.1,0,0.2,0,0.2,0c-0.1,0-0.2-0.1-0.2-0.1
		c-0.4-13-5.1-25.4-13.4-35.6c-6.3-7.7-14.3-13.6-23.3-17.2c0.8,0.6,1.6,1.2,2.4,2c1.7,1.6,3,3.6,3.9,5.8c5.1,3.1,9.9,7.1,13.9,12.1
		c7.5,9.1,11.6,20,12.4,30.9c-4.1-1.8-8.4-3.1-12.8-3.9c-0.4-12.1-4.6-23.7-12-33.4c0.1,0.9,0.2,1.9,0.2,2.8c0,1.4-0.1,2.8-0.5,4.1
		c4.9,8,7.6,16.9,8,25.9c-15.6-1.8-30.9,2.5-43.3,12.2c-12.5,9.7-20.4,23.8-22.3,39.5c-1.9,15.7,2.4,31.2,12.1,43.7
		c8.8,11.2,21,18.8,34.8,21.6L873,234.4z M828.4,179.1c0.4-16,7.6-31.7,21.2-42.3c12-9.4,26.8-13,40.8-11.2c0,0.7,0,1.4-0.1,2.1
		c-9.7,1.6-18.9,5.6-26.9,11.8c-12.5,9.7-20.4,23.8-22.3,39.5c0,0.1,0,0.2,0,0.2C836.8,179.6,832.6,179.6,828.4,179.1z M889.9,132
		c-1.8,13.2-8.5,25.9-19.6,35c-7.5,6.2-16.1,10-25,11.6c1.9-13.7,8.9-26.7,20.6-35.9C873.2,137.1,881.4,133.5,889.9,132z
		 M844.7,184.7c0-0.6,0-1.2,0.1-1.8c10.2-1.7,19.8-6,28.1-12.7c11.9-9.8,19.4-23.5,21.2-38.8c3.5-0.4,7-0.4,10.5-0.1l2.8,0.4
		c-0.4,15.4-7.3,30.5-20.1,41.1C875,182.9,859.5,186.7,844.7,184.7z M840,214.2c-6.9-8.8-10.6-19-11.5-29.3h1.3
		c3.5,1.4,7.1,2.5,10.8,3.3c0.4,12.5,4.7,24.5,12.5,34.5c2.2,2.8,4.5,5.3,7.1,7.6C852.6,226.7,845.6,221.3,840,214.2z"/>
	<path class="st6" d="M787.8,187.1c16.9,10.6,30.9,6.4,30.9,6.4c2.2-0.5,4.1-1.5,5.7-2.8c4.6-3.2,6.4-9.5,4.2-15.4
		c-2.3-6-8.2-9.5-13.9-8.6l0,0c-1,0-2,0.2-3,0.4C801.2,169.5,787.8,187.1,787.8,187.1z M793.8,186.5L793.8,186.5L793.8,186.5z"/>
	<path class="st7" d="M805,175.5c-5.9,4.1-11.1,10.1-11.3,10.2c12.8,10.4,24.1,7.9,24.1,7.9c1.2-0.2,2.4-0.5,3.5-1.1
		c3.5-1.8,5.7-5.4,5.6-9.5l0,0h-0.8l-12.5,9.3l-0.7-1.2l10.5-7.7l-7.4,0.7l-8.4,6.4l-0.7-1.2l6.5-4.6l-10.1,1l-0.2-1.3l10.1-1
		l-8.2-3.3v-1.4l10.8,4.1l7.3-0.9l-13.2-5.2v-1.4l15.8,6.3h1l0,0c0-0.1,0-0.2,0-0.3c0-0.2-0.1-0.3-0.1-0.5
		c-1.3-5.7-6.8-9.8-12.9-8.9C810.9,171.9,807.9,173.5,805,175.5z"/>
	<path class="st0" d="M831.6,183.5c0.1,0.1,0.2,0.1,0.3,0.2l-0.2,0.5L831.6,183.5z"/>
	<path class="st0" d="M816.5,219.2c17.8-8.9,21.4-23.1,21.4-23.1c0.7-2.1,0.9-4.3,0.6-6.3c-0.3-5.5-4.8-10.4-11-11.5
		c-6.4-1.1-12.4,2.1-14.5,7.4l0,0c-0.5,0.8-0.9,1.8-1.2,2.7C808.4,198.6,816.5,219.2,816.5,219.2z M819.1,213.7L819.1,213.7
		L819.1,213.7z"/>
	<path class="st1" d="M815.5,198.5c0.5,7.2,2.9,14.7,2.9,14.9c15.5-5.6,19.2-16.5,19.2-16.5c0.5-1.2,0.8-2.3,0.9-3.5
		c0.3-3.9-1.7-7.7-5.3-9.7l0,0l-0.5,0.7l1.5,15.5h-1.4l-1.2-13l-3.3,6.7l1.1,10.5H828l-0.6-8l-4.3,9.2l-1.3-0.5l4.3-9.2l-7.1,5.3
		l-1.2-0.8l9.1-7.1l3-6.7l-11.3,8.6l-1.2-0.8l13.6-10.3l0.5-0.8l0,0c-0.1,0-0.2-0.1-0.3-0.1c-0.1-0.1-0.3-0.1-0.4-0.2
		c-5.6-1.8-11.9,0.8-14.3,6.4C815.5,191.6,815.3,195,815.5,198.5z"/>
	<g>
		<path class="st2" d="M855.9,276.8c0.4,0.7,0.9,1.3,1.3,1.8l0,0c2.5,3.6,7.5,5,12.1,3.1c4.4-1.9,6.9-6.2,6.3-10.4
			c-0.1-1.6-0.6-3.1-1.5-4.6c0,0-5.1-10-19.8-13.7C854.3,253.1,851.7,269.8,855.9,276.8z M857.2,256.7L857.2,256.7L857.2,256.7z"/>
		<path class="st3" d="M857,268.7c-0.8-5.4-0.3-11.5-0.3-11.6c12.5,1.6,17.1,9.1,17.1,9.1c0.6,0.8,1,1.6,1.2,2.5
			c0.8,2.8,0,6-2.3,8.1l0,0l-0.5-0.4l-1.5-11.8l-1,0.2l1.3,9.9l-3.5-4.4l-0.9-8l-1,0.2l0.9,6l-4.7-6.1l-0.9,0.6l4.7,6.1l-6.2-2.8
			l-0.8,0.8l8,3.8l3.4,4.5l-9.9-4.5l-0.8,0.8l11.8,5.4l0.5,0.5l0,0c-0.1,0-0.1,0.1-0.2,0.1c-0.1,0.1-0.2,0.1-0.3,0.2
			c-3.9,2.3-9,1.4-11.7-2.4C858.2,273.8,857.4,271.3,857,268.7z"/>
	</g>
	<g>
		<path class="st4" d="M893.1,278.7c-0.5-12.9-5.1-25.2-13.4-35.3c-2.1-2.5-4.3-4.8-6.7-6.9l0.3-0.2c7.6,3.4,14.6,8.5,20.3,15.4
			c7.5,9.1,11.6,20,12.4,30.9C901.9,280.9,897.6,279.5,893.1,278.7z"/>
		<path class="st4" d="M858.9,386.9c-7.7-3.6-14.6-8.9-20.2-16c-6.9-8.8-10.6-19-11.5-29.3h1.3c3.5,1.4,7.1,2.5,10.8,3.3
			c0.4,12.5,4.7,24.5,12.5,34.5C854,382.1,856.3,384.6,858.9,386.9z"/>
		<path class="st4" d="M843.4,341.3c0-0.6,0-1.2,0.1-1.8c10.2-1.6,19.8-6,28.1-12.7c11.9-9.8,19.4-23.5,21.2-38.8
			c3.5-0.4,7-0.4,10.5-0.1l2.8,0.4c-0.4,15.4-7.3,30.5-20.1,41.1C873.6,339.5,858.1,343.4,843.4,341.3z"/>
		<path class="st4" d="M843.9,335.2c1.9-13.7,8.9-26.7,20.6-35.9c7.3-5.7,15.5-9.2,24-10.8c-1.8,13.2-8.5,25.9-19.6,35
			C861.5,329.8,852.8,333.6,843.9,335.2z"/>
		<path class="st4" d="M827,335.7c0.4-16,7.6-31.7,21.2-42.3c12-9.4,26.8-13,40.8-11.2c0,0.7,0,1.4-0.1,2.1
			c-9.7,1.6-18.9,5.6-26.9,11.8c-12.5,9.7-20.4,23.8-22.3,39.5c0,0.1,0,0.2,0,0.2C835.5,336.3,831.2,336.2,827,335.7z"/>
		<path class="st5" d="M870.2,394.9l1.4-3.9c-6.3-3.5-11.9-8.2-16.6-14.2c-7.3-9.3-11.1-20.3-11.6-31.3c0.6,0.1,1.2,0.1,1.8,0.2
			c15.7,1.5,31.2-3.1,43.4-13.2c12.2-10,19.8-24.3,21.3-40c0.3-2.6,0.3-5.2,0.3-7.7c0.1,0,0.2,0,0.2,0c-0.1,0-0.2-0.1-0.2-0.1
			c-0.4-13-5.1-25.4-13.4-35.6c-9-10.9-21.2-18.1-34.9-20.6c-0.2,0-0.3-0.1-0.4-0.1c-1.5,0-1.9,3.8-1.9,3.8
			c6.3,3.3,12.1,7.9,17,13.8c7.8,9.4,11.8,20.7,12.4,32.1c-15.6-1.8-30.9,2.5-43.3,12.2c-12.5,9.7-20.4,23.8-22.3,39.5
			c-1.9,15.7,2.4,31.2,12.1,43.7C844.2,384.6,856.4,392.1,870.2,394.9z M879.7,243.4c-2.1-2.5-4.3-4.8-6.7-6.9l0.3-0.2
			c7.6,3.4,14.6,8.5,20.3,15.4c7.5,9.1,11.6,20,12.4,30.9c-4.1-1.8-8.4-3.1-12.8-3.9C892.7,265.8,888,253.5,879.7,243.4z
			 M848.2,293.4c12-9.4,26.8-13,40.8-11.2c0,0.7,0,1.4-0.1,2.1c-9.7,1.6-18.9,5.6-26.9,11.8c-12.5,9.7-20.4,23.8-22.3,39.5
			c0,0.1,0,0.2,0,0.2c-4.2,0.4-8.5,0.4-12.6-0.1C827.4,319.7,834.7,304,848.2,293.4z M888.5,288.6c-1.8,13.2-8.5,25.9-19.6,35
			c-7.5,6.2-16.1,10-25,11.6c1.9-13.7,8.9-26.7,20.6-35.9C871.8,293.7,880,290.2,888.5,288.6z M843.5,339.5
			c10.2-1.6,19.8-6,28.1-12.7c11.9-9.8,19.4-23.5,21.2-38.8c3.5-0.4,7-0.4,10.5-0.1l2.8,0.4c-0.4,15.4-7.3,30.5-20.1,41.1
			c-12.4,10.2-27.9,14-42.6,12C843.4,340.7,843.4,340.1,843.5,339.5z M838.7,370.9c-6.9-8.8-10.6-19-11.5-29.3h1.3
			c3.5,1.4,7.1,2.5,10.8,3.3c0.4,12.5,4.7,24.5,12.5,34.5c2.2,2.8,4.5,5.3,7.1,7.6C851.2,383.3,844.2,378,838.7,370.9z"/>
	</g>
	<path class="st0" d="M823.2,337.2c0,0.1,0,0.2,0,0.3h-0.4L823.2,337.2z"/>
	<path class="st0" d="M793.4,337.7c11.8,9.7,22.9,7.9,22.9,7.9c1.7-0.2,3.3-0.7,4.6-1.6c3.8-2,5.8-6.6,4.7-11.3
		c-1.2-4.8-5.3-8.1-9.7-7.9l0,0c-0.7-0.1-1.5-0.1-2.3,0C805.3,325.6,793.4,337.7,793.4,337.7z M798,337.9L798,337.9L798,337.9z"/>
	<path class="st1" d="M807.6,330.6c-4.9,2.6-9.4,6.6-9.6,6.7c8.7,9.2,17.6,8.4,17.6,8.4c1,0,1.9-0.2,2.8-0.5c2.8-1,4.9-3.6,5.2-6.7
		l0,0l-0.6-0.1l-10.4,5.9l-0.4-1l8.7-4.9l-5.7-0.2l-7,4.1l-0.4-1l5.4-2.9l-7.8-0.2v-1l7.8,0.2l-6-3.3l0.2-1.1l7.8,4.2h5.6l-9.5-5.3
		l0.2-1.1l11.4,6.3l0.7,0.1l0,0c0-0.1,0-0.1,0-0.2s0-0.2,0-0.4c-0.5-4.5-4.3-8.1-8.9-8.1C812.5,328.4,810,329.3,807.6,330.6z"/>
	<path class="st6" d="M888.7,375.1c12.7-15.3,10.3-29.8,10.3-29.8c-0.2-2.2-0.9-4.2-2-6c-2.5-4.9-8.6-7.6-14.7-6.1
		c-6.3,1.5-10.5,6.9-10.3,12.6l0,0c-0.1,1-0.1,2,0,3C873,359.5,888.7,375.1,888.7,375.1z M888.9,369L888.9,369L888.9,369z"/>
	<path class="st7" d="M879.5,356.5c3.3,6.4,8.6,12.3,8.7,12.5c12-11.3,11-22.8,11-22.8c0-1.3-0.2-2.5-0.6-3.6
		c-1.3-3.7-4.6-6.3-8.7-6.8l0,0l-0.1,0.8l7.6,13.6l-1.3,0.5l-6.3-11.4l-0.3,7.4l5.3,9.2l-1.3,0.5l-3.7-7.1l-0.3,10.1h-1.4l0.3-10.1
		l-4.3,7.7l-1.4-0.2l5.5-10.2l0.1-7.3l-6.9,12.4l-1.4-0.2l8.3-14.9l0.1-1l0,0c-0.1,0-0.2,0-0.3,0c-0.2,0-0.3,0-0.5,0
		c-5.9,0.6-10.6,5.5-10.5,11.6C876.7,350.2,877.8,353.4,879.5,356.5z"/>
	<path class="st0" d="M890.8,331.1c0.1-0.1,0.1-0.2,0.2-0.3l0.5,0.3H890.8z"/>
	<path class="st0" d="M924.3,350.8c-6.5-18.8-20.1-24.3-20.1-24.3c-2-1-4.1-1.4-6.2-1.4c-5.5-0.4-11,3.4-12.9,9.4
		c-2,6.2,0.4,12.6,5.5,15.3l0,0c0.8,0.6,1.6,1.1,2.5,1.5C902.8,356.1,924.3,350.8,924.3,350.8z M919.2,347.5L919.2,347.5
		L919.2,347.5z"/>
	<path class="st1" d="M903.6,349c7.2,0.5,15-1,15.2-0.9c-3.5-16.1-13.8-21.2-13.8-21.2c-1.1-0.7-2.2-1.1-3.4-1.3
		c-3.8-0.8-7.8,0.6-10.3,3.9l0,0l0.6,0.5l15.5,0.5l-0.2,1.4l-13-0.5l6.2,4.1l10.6,0.2l-0.2,1.4l-8-0.5l8.5,5.5l-0.7,1.2l-8.5-5.5
		l4.4,7.7l-0.9,1.1l-5.9-9.9l-6.3-3.9l7,12.3l-0.9,1.1l-8.4-14.8l-0.8-0.6l0,0c0,0.1-0.1,0.2-0.1,0.2c-0.1,0.1-0.1,0.3-0.2,0.4
		c-2.5,5.3-0.8,11.9,4.5,15C896.8,348.1,900.1,348.8,903.6,349z"/>
	<path class="st2" d="M900.4,517.2c3.6-14.8-2.8-23.9-2.8-23.9c-0.9-1.5-2.1-2.6-3.4-3.4c-3.4-2.5-8.4-2.4-12.2,0.7
		s-4.9,8.3-2.9,12.1l0,0c0.3,0.7,0.6,1.4,1,2.1C884.4,511.8,900.4,517.2,900.4,517.2z M898.5,513L898.5,513L898.5,513z"/>
	<path class="st3" d="M887.8,507.5c4.4,3.3,10,5.6,10.1,5.7c4.4-11.8-0.1-19.4-0.1-19.4c-0.4-0.9-1-1.6-1.6-2.3
		c-2.1-2.1-5.3-2.8-8.3-1.7l0,0l0.2,0.6l9.7,6.8l-0.7,0.8l-8.1-5.7l2.3,5.2l6.7,4.5l-0.7,0.8l-4.9-3.6l3.2,7l-0.9,0.5l-3.2-7
		l-0.4,6.8l-1.1,0.3l0.4-8.8l-2.4-5l-0.6,10.8l-1.1,0.3l0.7-13l-0.2-0.7l0,0c-0.1,0-0.1,0.1-0.2,0.1c-0.1,0.1-0.2,0.1-0.3,0.2
		c-3.8,2.4-5.4,7.3-3.4,11.5C883.8,504.1,885.7,506,887.8,507.5z"/>
	<g>
		<path class="st4" d="M891.4,436.5c-0.5-12.9-5.1-25.2-13.4-35.3c-2.1-2.5-4.3-4.8-6.7-6.9l0.3-0.2c7.6,3.4,14.6,8.5,20.3,15.4
			c7.5,9.1,11.6,20,12.4,30.9C900.2,438.7,895.9,437.3,891.4,436.5z"/>
		<path class="st4" d="M857.2,544.7c-7.7-3.6-14.6-8.9-20.2-16c-6.9-8.8-10.6-19-11.5-29.3h1.3c3.5,1.4,7.1,2.5,10.8,3.3
			c0.4,12.5,4.7,24.5,12.5,34.5C852.3,539.9,854.7,542.4,857.2,544.7z"/>
		<path class="st4" d="M841.7,499.1c0-0.6,0-1.2,0.1-1.8c10.2-1.6,19.8-6,28.1-12.7c11.9-9.8,19.4-23.5,21.2-38.8
			c3.5-0.4,7-0.4,10.5-0.1l2.8,0.4c-0.4,15.4-7.3,30.5-20.1,41.1C871.9,497.3,856.4,501.2,841.7,499.1z"/>
		<path class="st4" d="M842.2,493c1.9-13.7,8.9-26.7,20.6-35.9c7.3-5.7,15.5-9.2,24-10.8c-1.8,13.2-8.5,25.9-19.6,35
			C859.8,487.6,851.1,491.4,842.2,493z"/>
		<path class="st4" d="M825.4,493.5c0.4-16,7.6-31.7,21.2-42.3c12-9.4,26.8-13,40.8-11.2c0,0.7,0,1.4-0.1,2.1
			c-9.7,1.6-18.9,5.6-26.9,11.8c-12.5,9.7-20.4,23.8-22.3,39.5c0,0.1,0,0.2,0,0.2C833.8,494.1,829.5,494,825.4,493.5z"/>
		<path class="st5" d="M868.6,552.7l1.4-3.9c-6.3-3.5-11.9-8.2-16.6-14.2c-7.3-9.3-11.1-20.3-11.6-31.3c0.6,0.1,1.2,0.1,1.8,0.2
			c15.7,1.5,31.2-3.1,43.4-13.2c12.2-10,19.8-24.3,21.3-40c0.3-2.6,0.3-5.2,0.3-7.7c0.1,0,0.2,0,0.2,0c-0.1,0-0.2-0.1-0.2-0.1
			c-0.4-13-5.1-25.4-13.4-35.6c-9-10.9-21.2-18.1-34.9-20.6c-0.2,0-0.3-0.1-0.4-0.1c-1.5,0-1.9,3.8-1.9,3.8
			c6.3,3.3,12.1,7.9,17,13.8c7.8,9.4,11.8,20.7,12.4,32.1c-15.6-1.8-30.9,2.5-43.3,12.2c-12.5,9.7-20.4,23.8-22.3,39.5
			s2.4,31.2,12.1,43.7C842.5,542.4,854.8,549.9,868.6,552.7z M878,401.2c-2.1-2.5-4.3-4.8-6.7-6.9l0.3-0.2
			c7.6,3.4,14.6,8.5,20.3,15.4c7.5,9.1,11.6,20,12.4,30.9c-4.1-1.8-8.4-3.1-12.8-3.9C891,423.6,886.3,411.3,878,401.2z M846.5,451.3
			c12-9.4,26.8-13,40.8-11.2c0,0.7,0,1.4-0.1,2.1c-9.7,1.6-18.9,5.6-26.9,11.8c-12.5,9.7-20.4,23.8-22.3,39.5c0,0.1,0,0.2,0,0.2
			c-4.2,0.4-8.5,0.4-12.6-0.1C825.7,477.5,833,461.8,846.5,451.3z M886.8,446.4c-1.8,13.2-8.5,25.9-19.6,35
			c-7.5,6.2-16.1,10-25,11.6c1.9-13.7,8.9-26.7,20.6-35.9C870.1,451.5,878.4,448,886.8,446.4z M841.8,497.3
			c10.2-1.6,19.8-6,28.1-12.7c11.9-9.8,19.4-23.5,21.2-38.8c3.5-0.4,7-0.4,10.5-0.1l2.8,0.4c-0.4,15.4-7.3,30.5-20.1,41.1
			c-12.4,10.2-27.9,14-42.6,12C841.7,498.5,841.8,497.9,841.8,497.3z M837,528.7c-6.9-8.8-10.6-19-11.5-29.3h1.3
			c3.5,1.4,7.1,2.5,10.8,3.3c0.4,12.5,4.7,24.5,12.5,34.5c2.2,2.8,4.5,5.3,7.1,7.6C849.5,541.2,842.6,535.8,837,528.7z"/>
	</g>
	<g>
		<path class="st2" d="M816.4,502.7c12.4-11.5,12-24,12-24c0.1-1.9-0.3-3.7-1-5.3c-1.6-4.4-6.4-7.4-11.7-6.8
			c-5.5,0.6-9.6,4.7-10.1,9.5l0,0c-0.2,0.8-0.3,1.6-0.3,2.5C804.8,487.8,816.4,502.7,816.4,502.7z M817.2,497.6L817.2,497.6
			L817.2,497.6z"/>
		<path class="st3" d="M810.6,486c2.1,5.8,5.9,11.3,5.9,11.5c11.3-8.2,11.8-18.1,11.8-18.1c0.1-1.1,0.1-2.1-0.1-3.1
			c-0.7-3.2-3.2-5.9-6.6-6.7l0,0l-0.2,0.7l4.9,12.3l-1.1,0.3l-4.1-10.3l-1.1,6.2l3.4,8.3l-1.1,0.3l-2.4-6.4l-1.3,8.5l-1.2-0.1
			l1.3-8.5l-4.5,6.1l-1.2-0.4l5.7-8l0.9-6.2l-7.2,9.7l-1.2-0.4l8.6-11.6l0.2-0.8l0,0c-0.1,0-0.2,0-0.2,0c-0.1,0-0.3,0-0.4,0
			c-5-0.1-9.5,3.5-10.2,8.6C808.9,480.4,809.6,483.2,810.6,486z"/>
	</g>
	<g>
		<path class="st6" d="M790.1,483.7c18.3,7.8,31.5,1.4,31.5,1.4c2.1-0.8,3.8-2.1,5.2-3.6c4-3.8,4.8-10.4,1.7-15.8
			c-3.2-5.6-9.6-8.1-15-6.3l0,0c-1,0.2-1.9,0.5-2.9,0.9C800.6,464.2,790.1,483.7,790.1,483.7z M796,482.2L796,482.2L796,482.2z"/>
		<path class="st7" d="M805.3,469.6c-5.2,5-9.3,11.7-9.5,11.9c14.3,8.2,25,4,25,4c1.2-0.4,2.3-0.9,3.3-1.6c3.1-2.3,4.8-6.2,4-10.3
			l0,0l-0.8,0.1l-10.8,11.1l-0.9-1l9.1-9.3l-7.2,1.8l-7.3,7.7l-0.9-1l5.7-5.6l-9.8,2.6l-0.4-1.3l9.8-2.6l-8.7-2l-0.2-1.4L817,475
			l7.1-2l-13.8-3.1l-0.2-1.4l16.6,3.7l0.9-0.2l0,0c0-0.1-0.1-0.2-0.1-0.3c-0.1-0.1-0.1-0.3-0.2-0.4c-2.2-5.5-8.3-8.6-14.1-6.8
			C810.6,465.1,807.8,467.1,805.3,469.6z"/>
	</g>
	<g>
		<path class="st0" d="M823.3,477.8c-0.1,0.1-0.2,0.2-0.3,0.2l-0.4-0.4L823.3,477.8z"/>
		<path class="st0" d="M795.2,451c2,19.8,14,28.2,14,28.2c1.7,1.4,3.7,2.3,5.7,2.8c5.3,1.6,11.4-0.8,14.7-6.2
			c3.3-5.5,2.4-12.3-1.8-16.2l0,0c-0.6-0.7-1.3-1.5-2.1-2.1C817.4,450.7,795.2,451,795.2,451z M799.4,455.4L799.4,455.4L799.4,455.4
			z"/>
		<path class="st1" d="M815,457.5c-6.9-2.1-14.8-2.5-15-2.6c-0.3,16.5,8.6,23.8,8.6,23.8c0.9,0.9,1.9,1.6,3,2.1
			c3.5,1.6,7.8,1.2,11-1.5l0,0l-0.5-0.7l-15-4.1l0.5-1.3l12.5,3.5l-5.1-5.4l-10.2-2.7l0.5-1.3l7.6,2.3l-7-7.3l0.9-1l7,7.3l-2.5-8.5
			l1.2-0.8l3.4,11l5.2,5.2l-4-13.6l1.2-0.8l4.8,16.3l0.6,0.7l0,0c0.1-0.1,0.1-0.1,0.2-0.2c0.1-0.1,0.2-0.2,0.3-0.4
			c3.7-4.6,3.5-11.4-0.9-15.7C821.4,459.9,818.3,458.5,815,457.5z"/>
	</g>
	<path class="st4" d="M892.8,593.8c-0.5-12.9-5.1-25.2-13.4-35.3c-2.1-2.5-4.3-4.8-6.7-6.9l0.3-0.2c7.6,3.4,14.6,8.5,20.3,15.4
		c7.5,9.1,11.6,20,12.4,30.9C901.6,596,897.3,594.6,892.8,593.8z"/>
	<path class="st4" d="M900.6,604.7c1.7,0.8,3.4,1.5,4.9,2.4c0.1-1.2,0.2-2.5,0.2-3.7l-2.8-0.4c-3.5-0.3-7-0.3-10.5,0.1
		c0,0.3-0.1,0.7-0.1,1C895.2,603.7,898.3,603.7,900.6,604.7z"/>
	<path class="st4" d="M883.5,607.6c0.6-0.4,1.1-0.8,1.7-1.1c0.8-0.5,1.8-0.9,2.8-1.2c0.1-0.5,0.2-1,0.2-1.5
		c-5.1,0.9-10,2.6-14.8,4.9C876.8,608.2,880.2,607.9,883.5,607.6z"/>
	<path class="st4" d="M855.8,603.4c0.1,0.1,0.2,0.1,0.2,0.2c4.3,0.1,8.1,1.5,11.3,3.8c6.6-4,13.8-6.7,21.3-7.9
		c0-0.7,0.1-1.4,0.1-2.1C877.6,595.9,866.1,597.9,855.8,603.4z"/>
	<path class="st5" d="M876.2,561.1c7.7,9.4,11.8,20.5,12.4,31.8c0.2,0,0.3,0.1,0.5,0.1c1.2,0.4,2.3,1,3.5,1.5c0.3,0,0.6,0,0.7,0
		c0.7,0,1.4,0,2.1,0c0.2,0,0.5,0,0.7,0c-1.1-0.3-2.1-0.5-3.2-0.7c-0.5-12.9-5.1-25.2-13.4-35.3c-2.1-2.5-4.3-4.8-6.7-6.9l0.3-0.2
		c7.6,3.4,14.6,8.5,20.3,15.4c7.1,8.6,11.1,18.7,12.2,29.1c1.5,0.6,3,1.3,4.3,2.2c-0.7-12.4-5.3-24.2-13.4-33.9
		c-9-10.9-21.2-18.1-34.9-20.6c-0.2,0-0.3-0.1-0.4-0.1c-1.5,0-1.9,3.8-1.9,3.8C865.6,550.6,871.4,555.2,876.2,561.1z"/>
	<path class="st0" d="M869.5,593.7c0,0.1,0,0.2,0,0.3h-0.4L869.5,593.7z"/>
	<path class="st0" d="M844.4,594.3L844.4,594.3L844.4,594.3z"/>
	<path class="st2" d="M752.6,84.9L752.6,84.9L752.6,84.9z"/>
	<path class="st4" d="M774.3,127.5L774.3,127.5c0.2,0.5,0.5,0.9,0.7,1.2c-0.3-1-0.6-2.1-0.8-3.2
		C774.3,126.2,774.3,126.9,774.3,127.5z"/>
	<path class="st4" d="M882.7,90.9c-3.3-7.8-8.5-14.9-15.4-20.7c-8.5-7.1-18.6-11.2-29-12.4v1.3c1.3,3.5,2.3,7.2,2.9,10.9
		c12.5,0.8,24.3,5.5,34.1,13.7C878,85.8,880.5,88.3,882.7,90.9z"/>
	<path class="st4" d="M837.6,73.9c-0.6,0-1.2,0-1.8,0c-2,10.2-6.6,19.6-13.6,27.6c-10.2,11.6-24.1,18.6-39.4,19.9
		c-0.5,3.5-0.6,7-0.4,10.5l0.3,2.9c15.4,0.1,30.8-6.3,41.7-18.7C834.8,104.1,839.2,88.7,837.6,73.9z"/>
	<path class="st4" d="M831.6,74.2c-13.8,1.5-27,8-36.5,19.5c-5.9,7.1-9.7,15.2-11.5,23.6c13.3-1.4,26.1-7.6,35.6-18.4
		C825.5,91.6,829.6,83.1,831.6,74.2z"/>
	<path class="st4" d="M832.6,57.4c-16-0.2-31.9,6.6-42.9,19.8c-9.8,11.7-13.9,26.3-12.6,40.4c0.7,0,1.4,0,2.1,0
		c1.9-9.7,6.2-18.7,12.7-26.5c10.1-12.1,24.4-19.6,40.2-21c0.1,0,0.2,0,0.2,0C832.9,65.8,833,61.6,832.6,57.4z"/>
	<path class="st5" d="M771.9,117.3c1.2,2.5,1.9,5.3,2.3,8.3c0.2,1.1,0.5,2.1,0.8,3.2c0.1,0.3,0.3,0.5,0.3,0.6
		c0.9,1.4,1.8,2.8,2.6,4.4c0.9,1.7,1.5,3.4,1.9,5.2c2.3,0.1,4.5,0.1,6.8,0c15.8-1,30.2-8.1,40.7-20c10.4-11.9,15.6-27.1,14.6-42.9
		c0-0.6-0.1-1.2-0.1-1.8c11,0.9,21.8,5,30.9,12.6c5.8,4.9,10.4,10.7,13.7,17.1l4-1.3c-2.4-13.9-9.5-26.3-20.4-35.5
		c-12.1-10.1-27.5-14.9-43.3-13.5s-30,8.9-40.2,21c-10.1,12-14.9,27.3-13.6,42.9C772.6,117.4,772.3,117.3,771.9,117.3z M867.3,70.2
		c6.9,5.8,12.1,12.9,15.4,20.7c-2.2-2.6-4.7-5.1-7.4-7.3c-9.8-8.2-21.6-12.9-34.1-13.7c-0.6-3.7-1.6-7.4-2.9-10.9v-1.3
		C848.7,58.9,858.8,63,867.3,70.2z M837.6,73.9c1.6,14.8-2.8,30.2-13.4,42.2c-10.9,12.5-26.3,18.8-41.7,18.7l-0.3-2.9
		c-0.2-3.5,0-7,0.4-10.5c15.3-1.3,29.3-8.4,39.4-19.9c7-8,11.6-17.5,13.6-27.6C836.4,73.9,837,73.9,837.6,73.9z M783.5,117.3
		c1.8-8.4,5.6-16.5,11.5-23.6c9.5-11.4,22.8-18,36.5-19.5c-1.9,8.9-6,17.4-12.4,24.6C809.6,109.7,796.8,115.9,783.5,117.3z
		 M789.6,77.2c11-13.2,26.9-19.9,42.9-19.8c0.4,4.2,0.3,8.4-0.3,12.6c-0.1,0-0.2,0-0.2,0c-15.8,1.4-30,8.9-40.2,21
		c-6.5,7.8-10.8,16.9-12.7,26.5c-0.7,0-1.4,0-2.1,0C775.8,103.5,779.9,88.9,789.6,77.2z"/>
	<path class="st0" d="M835.9,52.9c0.1,0,0.2,0.1,0.3,0.1l0.2-0.4L835.9,52.9z"/>
	<path class="st0" d="M829.4,38.5c-0.4,0.7-0.8,1.3-1.1,2l0,0c-2.2,3.8-1.3,9,2.4,12.3c3.6,3.2,8.7,3.6,12.2,1.2
		c1.4-0.8,2.6-1.9,3.5-3.3c0,0,6.8-8.9,3.8-23.9C850.3,26.7,833.9,31.6,829.4,38.5z M848.2,30.9L848.2,30.9L848.2,30.9z"/>
	<path class="st1" d="M837.3,36c4.6-3.1,10.3-5.2,10.4-5.4c4,12-0.8,19.4-0.8,19.4c-0.5,0.9-1,1.6-1.7,2.2c-2.2,2-5.4,2.6-8.4,1.4
		l0,0L837,53l10-6.4l-0.6-0.8l-8.4,5.4l2.5-5.1l6.9-4.3l-0.6-0.8l-5.1,3.4l3.5-7l-0.9-0.5l-3.5,7l-0.1-6.8l-1-0.4v8.9l-2.6,5
		l-0.2-10.9l-1-0.4l0.2,13.1l-0.3,0.7l0,0c-0.1,0-0.1-0.1-0.2-0.1c-0.1-0.1-0.2-0.1-0.3-0.2c-3.8-2.5-5.2-7.6-2.9-11.7
		C833.1,39.3,835.1,37.5,837.3,36z"/>
	<path class="st0" d="M830.1,115.1c0,0.1,0,0.2-0.1,0.3l0.5,0.1L830.1,115.1z"/>
	<path class="st2" d="M324.7,59.7c-14.8-3.6-23.9,2.8-23.9,2.8c-1.5,0.9-2.6,2.1-3.4,3.4c-2.5,3.4-2.4,8.4,0.7,12.2
		c3.1,3.8,8.3,4.9,12.1,2.9l0,0c0.7-0.3,1.4-0.6,2.1-1C319.3,75.7,324.7,59.7,324.7,59.7z M320.5,61.6L320.5,61.6L320.5,61.6z"/>
	<path class="st3" d="M315.1,72.3c3.3-4.4,5.6-10,5.7-10.1c-11.8-4.4-19.4,0.1-19.4,0.1c-0.9,0.4-1.6,1-2.3,1.6
		c-2.1,2.1-2.8,5.3-1.7,8.3l0,0L298,72l6.8-9.7l0.8,0.7l-5.7,8.1l5.2-2.3l4.5-6.7l0.8,0.7l-3.6,4.9l7-3.2l0.5,0.9l-7,3.2L314,69
		l0.3,1.1l-8.8-0.4l-5.1,2.4l10.8,0.6l0.3,1.1l-13-0.7l-0.7,0.2l0,0c0,0.1,0.1,0.1,0.1,0.2c0.1,0.1,0.1,0.2,0.2,0.3
		c2.4,3.8,7.3,5.4,11.5,3.4C311.6,76.3,313.5,74.4,315.1,72.3z"/>
	<path class="st4" d="M217,68.2c-4.9,4-8.9,8.8-12.1,13.9c1.8-0.7,3.7-1.2,5.6-1.5c9.8-7.4,21.3-11.5,33.4-12
		c0.8-4.5,2.2-8.7,3.9-12.8C237,56.6,226.2,60.7,217,68.2z"/>
	<path class="st4" d="M352.2,102.9c-3.6,7.7-8.9,14.6-16,20.2c-8.8,6.9-19,10.6-29.3,11.5v-1.3c1.4-3.5,2.5-7.1,3.3-10.8
		c12.5-0.4,24.5-4.7,34.5-12.5C347.4,107.8,349.9,105.4,352.2,102.9z"/>
	<path class="st4" d="M306.6,118.4c-0.6,0-1.2,0-1.8-0.1c-1.6-10.2-6-19.8-12.7-28.1c-9.8-11.9-23.5-19.4-38.8-21.2
		c-0.4-3.5-0.4-7-0.1-10.5l0.4-2.8c15.4,0.4,30.5,7.3,41.1,20.1C304.8,88.2,308.7,103.7,306.6,118.4z"/>
	<path class="st4" d="M300.6,117.9c-13.7-1.9-26.7-8.9-35.9-20.6c-5.7-7.3-9.2-15.5-10.8-24c13.2,1.8,25.9,8.5,35,19.6
		C295.1,100.3,298.9,109,300.6,117.9z"/>
	<path class="st4" d="M301,134.7c-16-0.4-31.7-7.6-42.3-21.2c-9.4-12-13-26.8-11.2-40.8c0.7,0,1.4,0,2.1,0.1
		c1.6,9.7,5.6,18.9,11.8,26.9c9.7,12.5,23.8,20.4,39.5,22.3c0.1,0,0.2,0,0.2,0C301.6,126.3,301.5,130.6,301,134.7z"/>
	<path class="st5" d="M356.3,90.1c-3.5,6.3-8.2,11.9-14.2,16.6c-9.3,7.3-20.3,11.1-31.3,11.6c0.1-0.6,0.1-1.2,0.2-1.8
		c1.5-15.7-3.1-31.2-13.2-43.4c-10-12.2-24.3-19.8-40-21.3c-2.6-0.3-5.2-0.3-7.7-0.3c0-0.1,0-0.2,0-0.2c0,0.1-0.1,0.2-0.1,0.2
		c-13,0.4-25.4,5.1-35.6,13.4c-7.7,6.3-13.6,14.3-17.2,23.3c0.6-0.8,1.2-1.6,2-2.4c1.6-1.7,3.6-3,5.8-3.9c3.1-5.1,7.1-9.9,12.1-13.9
		c9.1-7.5,20-11.6,30.9-12.4c-1.8,4.1-3.1,8.4-3.9,12.8c-12.1,0.4-23.7,4.6-33.4,12c0.9-0.1,1.9-0.2,2.8-0.2c1.4,0,2.8,0.1,4.1,0.5
		c8-4.9,16.9-7.6,25.9-8c-1.8,15.6,2.5,30.9,12.2,43.3c9.7,12.5,23.8,20.4,39.5,22.3s31.2-2.4,43.7-12.1c11.2-8.8,18.8-21,21.6-34.8
		L356.3,90.1z M301,134.7c-16-0.4-31.7-7.6-42.3-21.2c-9.4-12-13-26.8-11.2-40.8c0.7,0,1.4,0,2.1,0.1c1.6,9.7,5.6,18.9,11.8,26.9
		c9.7,12.5,23.8,20.4,39.5,22.3c0.1,0,0.2,0,0.2,0C301.6,126.3,301.5,130.6,301,134.7z M253.9,73.3c13.2,1.8,25.9,8.5,35,19.6
		c6.2,7.5,10,16.1,11.6,25c-13.7-1.9-26.7-8.9-35.9-20.6C259,90,255.5,81.7,253.9,73.3z M306.6,118.4c-0.6,0-1.2,0-1.8-0.1
		c-1.6-10.2-6-19.8-12.7-28.1c-9.8-11.9-23.5-19.4-38.8-21.2c-0.4-3.5-0.4-7-0.1-10.5l0.4-2.8c15.4,0.4,30.5,7.3,41.1,20.1
		C304.8,88.2,308.7,103.7,306.6,118.4z M336.2,123.1c-8.8,6.9-19,10.6-29.3,11.5v-1.3c1.4-3.5,2.5-7.1,3.3-10.8
		c12.5-0.4,24.5-4.7,34.5-12.5c2.8-2.2,5.3-4.5,7.6-7.1C348.7,110.6,343.3,117.5,336.2,123.1z"/>
	<path class="st6" d="M309.1,175.3c10.6-16.9,6.4-30.9,6.4-30.9c-0.5-2.2-1.5-4.1-2.8-5.7c-3.2-4.6-9.5-6.4-15.4-4.2
		c-6,2.3-9.5,8.2-8.6,13.9l0,0c0,1,0.2,2,0.4,3C291.4,161.9,309.1,175.3,309.1,175.3z M308.5,169.3L308.5,169.3L308.5,169.3z"/>
	<path class="st7" d="M297.5,158.1c4.1,5.9,10.1,11.1,10.2,11.3c10.4-12.8,7.9-24.1,7.9-24.1c-0.2-1.2-0.5-2.4-1.1-3.5
		c-1.8-3.5-5.4-5.7-9.5-5.6l0,0v0.8l9.3,12.5l-1.2,0.7l-7.7-10.5l0.7,7.4l6.4,8.4l-1.2,0.7l-4.6-6.5l1,10.1l-1.3,0.2l-1-10.1
		l-3.3,8.2h-1.4l4.1-10.8l-0.9-7.3l-5.2,13.2h-1.4l6.3-15.8v-1l0,0c-0.1,0-0.2,0-0.3,0c-0.2,0-0.3,0.1-0.5,0.1
		c-5.7,1.3-9.8,6.8-8.9,12.9C293.9,152.2,295.5,155.3,297.5,158.1z"/>
	<path class="st0" d="M305.4,131.5c0.1-0.1,0.1-0.2,0.2-0.3l0.5,0.2L305.4,131.5z"/>
	<path class="st0" d="M341.2,146.6c-8.9-17.8-23.1-21.4-23.1-21.4c-2.1-0.7-4.3-0.9-6.3-0.6c-5.5,0.3-10.4,4.8-11.5,11
		c-1.1,6.4,2.1,12.4,7.4,14.5l0,0c0.8,0.5,1.8,0.9,2.7,1.2C320.5,154.7,341.2,146.6,341.2,146.6z M335.7,144L335.7,144L335.7,144z"
		/>
	<path class="st1" d="M320.4,147.6c7.2-0.5,14.7-2.9,14.9-2.9c-5.6-15.5-16.5-19.2-16.5-19.2c-1.2-0.5-2.3-0.8-3.5-0.9
		c-3.9-0.3-7.7,1.7-9.7,5.3l0,0l0.7,0.5l15.5-1.5v1.4l-13,1.2l6.7,3.3l10.5-1.1v1.4l-8,0.6l9.2,4.3l-0.5,1.3l-9.2-4.3l5.3,7.1
		l-0.8,1.2l-7.1-9.1l-6.7-3l8.6,11.3l-0.8,1.2l-10.3-13.6l-0.8-0.5l0,0c0,0.1-0.1,0.2-0.1,0.3c-0.1,0.1-0.1,0.3-0.2,0.4
		c-1.8,5.6,0.8,11.9,6.4,14.3C313.5,147.6,316.9,147.8,320.4,147.6z"/>
	<g>
		<path class="st2" d="M398.8,107.2c0.7-0.4,1.3-0.9,1.8-1.3l0,0c3.6-2.5,5-7.5,3.1-12.1c-1.9-4.4-6.2-6.9-10.4-6.3
			c-1.6,0.1-3.1,0.6-4.6,1.5c0,0-10,5.1-13.7,19.8C375,108.8,391.8,111.4,398.8,107.2z M378.7,105.9L378.7,105.9L378.7,105.9z"/>
		<path class="st3" d="M390.6,106.1c-5.4,0.8-11.5,0.3-11.6,0.3c1.6-12.5,9.1-17.1,9.1-17.1c0.8-0.6,1.6-1,2.5-1.2
			c2.8-0.8,6,0,8.1,2.3l0,0l-0.4,0.5l-11.8,1.5l0.2,1l9.9-1.3l-4.4,3.5l-8,0.9l0.2,1l6-0.9l-6.1,4.7l0.6,0.9l6.1-4.7l-2.8,6.2
			l0.8,0.8l3.8-8l4.5-3.4l-4.5,9.9l0.8,0.8L399,92l0.5-0.5l0,0c0,0.1,0.1,0.1,0.1,0.2c0.1,0.1,0.1,0.2,0.2,0.3
			c2.3,3.9,1.4,9-2.4,11.7C395.8,105,393.3,105.7,390.6,106.1z"/>
	</g>
	<g>
		<path class="st4" d="M400.7,70c-12.9,0.5-25.2,5.1-35.3,13.4c-2.5,2.1-4.8,4.3-6.9,6.7l-0.2-0.3c3.4-7.6,8.5-14.6,15.4-20.3
			c9.1-7.5,20-11.6,30.9-12.4C402.8,61.2,401.5,65.5,400.7,70z"/>
		<path class="st4" d="M508.9,104.2c-3.6,7.7-8.9,14.6-16,20.2c-8.8,6.9-19,10.6-29.3,11.5v-1.3c1.4-3.5,2.5-7.1,3.3-10.8
			c12.5-0.4,24.5-4.7,34.5-12.5C504,109.1,506.6,106.8,508.9,104.2z"/>
		<path class="st4" d="M463.3,119.7c-0.6,0-1.2,0-1.8-0.1c-1.6-10.2-6-19.8-12.7-28.1C439,79.7,425.2,72.2,410,70.4
			c-0.4-3.5-0.4-7-0.1-10.5l0.4-2.8c15.4,0.4,30.5,7.3,41.1,20.1C461.5,89.5,465.3,105,463.3,119.7z"/>
		<path class="st4" d="M457.2,119.2c-13.7-1.9-26.7-8.9-35.9-20.6c-5.7-7.3-9.2-15.5-10.8-24c13.2,1.8,25.9,8.5,35,19.6
			C451.7,101.7,455.6,110.3,457.2,119.2z"/>
		<path class="st4" d="M457.7,136.1c-16-0.4-31.7-7.6-42.3-21.2c-9.4-12-13-26.8-11.2-40.8c0.7,0,1.4,0,2.1,0.1
			c1.6,9.7,5.6,18.9,11.8,26.9c9.7,12.5,23.8,20.4,39.5,22.3c0.1,0,0.2,0,0.2,0C458.2,127.7,458.2,131.9,457.7,136.1z"/>
		<path class="st5" d="M516.9,92.9l-3.9-1.4c-3.5,6.3-8.2,11.9-14.2,16.6c-9.3,7.3-20.3,11.1-31.3,11.6c0.1-0.6,0.1-1.2,0.2-1.8
			c1.5-15.7-3.1-31.2-13.2-43.4c-10-12.2-24.3-19.8-40-21.3c-2.6-0.3-5.2-0.3-7.7-0.3c0-0.1,0-0.2,0-0.2c0,0.1-0.1,0.2-0.1,0.2
			c-13,0.4-25.4,5.1-35.6,13.4c-10.9,9-18.1,21.2-20.6,34.9c0,0.2-0.1,0.3-0.1,0.4c0,1.5,3.8,1.9,3.8,1.9c3.3-6.3,7.9-12.1,13.8-17
			c9.4-7.8,20.7-11.8,32.1-12.4c-1.8,15.6,2.5,30.9,12.2,43.3c9.7,12.5,23.8,20.4,39.5,22.3c15.7,1.9,31.2-2.4,43.7-12.1
			C506.5,118.9,514.1,106.7,516.9,92.9z M365.4,83.4c-2.5,2.1-4.8,4.3-6.9,6.7l-0.2-0.3c3.4-7.6,8.5-14.6,15.4-20.3
			c9.1-7.5,20-11.6,30.9-12.4c-1.8,4.1-3.1,8.4-3.9,12.8C387.8,70.5,375.5,75.1,365.4,83.4z M415.4,114.9c-9.4-12-13-26.8-11.2-40.8
			c0.7,0,1.4,0,2.1,0.1c1.6,9.7,5.6,18.9,11.8,26.9c9.7,12.5,23.8,20.4,39.5,22.3c0.1,0,0.2,0,0.2,0c0.4,4.2,0.4,8.5-0.1,12.6
			C441.7,135.7,426,128.5,415.4,114.9z M410.6,74.6c13.2,1.8,25.9,8.5,35,19.6c6.2,7.5,10,16.1,11.6,25
			c-13.7-1.9-26.7-8.9-35.9-20.6C415.7,91.3,412.1,83.1,410.6,74.6z M461.5,119.6c-1.6-10.2-6-19.8-12.7-28.1
			C439,79.7,425.2,72.2,410,70.4c-0.4-3.5-0.4-7-0.1-10.5l0.4-2.8c15.4,0.4,30.5,7.3,41.1,20.1c10.2,12.4,14,27.9,12,42.6
			C462.7,119.7,462.1,119.7,461.5,119.6z M492.8,124.4c-8.8,6.9-19,10.6-29.3,11.5v-1.3c1.4-3.5,2.5-7.1,3.3-10.8
			c12.5-0.4,24.5-4.7,34.5-12.5c2.8-2.2,5.3-4.5,7.6-7.1C505.3,111.9,499.9,118.9,492.8,124.4z"/>
	</g>
	<path class="st0" d="M459.2,139.9c0.1,0,0.2,0,0.3,0v0.4L459.2,139.9z"/>
	<path class="st0" d="M459.7,169.7c9.7-11.8,7.9-22.9,7.9-22.9c-0.2-1.7-0.7-3.3-1.6-4.6c-2-3.8-6.6-5.8-11.3-4.7
		c-4.8,1.2-8.1,5.3-7.9,9.7l0,0c-0.1,0.7-0.1,1.5,0,2.3C447.5,157.8,459.7,169.7,459.7,169.7z M459.8,165.1L459.8,165.1L459.8,165.1
		z"/>
	<path class="st1" d="M452.5,155.5c2.6,4.9,6.6,9.4,6.7,9.6c9.2-8.7,8.4-17.6,8.4-17.6c0-1-0.2-1.9-0.5-2.8c-1-2.8-3.6-4.9-6.7-5.2
		l0,0l-0.1,0.6l5.9,10.4l-1,0.4l-4.9-8.7l-0.2,5.7l4.1,7l-1,0.4l-2.9-5.4l-0.2,7.8h-1l0.2-7.8l-3.3,6l-1.1-0.2l4.2-7.8v-5.6
		l-5.3,9.5l-1.1-0.2l6.3-11.4l0.1-0.7l0,0c-0.1,0-0.1,0-0.2,0s-0.2,0-0.4,0c-4.5,0.5-8.1,4.3-8.1,8.9
		C450.4,150.6,451.3,153.1,452.5,155.5z"/>
	<path class="st6" d="M497,74.4c-15.3-12.7-29.8-10.3-29.8-10.3c-2.2,0.2-4.2,0.9-6,2c-4.9,2.5-7.6,8.6-6.1,14.7
		c1.5,6.3,6.9,10.5,12.6,10.3l0,0c1,0.1,2,0.1,3,0C481.4,90.2,497,74.4,497,74.4z M491,74.2L491,74.2L491,74.2z"/>
	<path class="st7" d="M478.4,83.7c6.4-3.3,12.3-8.6,12.5-8.7c-11.3-12-22.8-11-22.8-11c-1.3,0-2.5,0.2-3.6,0.6
		c-3.7,1.3-6.3,4.6-6.8,8.7l0,0l0.8,0.1l13.6-7.6l0.5,1.3l-11.4,6.3l7.4,0.3l9.2-5.3l0.5,1.3l-7.1,3.7l10.1,0.3v1.4l-10.1-0.3
		l7.7,4.3l-0.2,1.4L468.5,75l-7.3-0.1l12.4,6.9l-0.2,1.4l-14.9-8.3l-1-0.1l0,0c0,0.1,0,0.2,0,0.3c0,0.2,0,0.3,0,0.5
		c0.6,5.9,5.5,10.6,11.6,10.5C472.1,86.4,475.3,85.3,478.4,83.7z"/>
	<path class="st0" d="M453.1,72.3c-0.1-0.1-0.2-0.1-0.3-0.2l0.3-0.5V72.3z"/>
	<path class="st0" d="M472.7,38.8C453.9,45.4,448.5,59,448.5,59c-1,2-1.4,4.1-1.4,6.2c-0.4,5.5,3.4,11,9.4,12.9
		c6.2,2,12.6-0.4,15.3-5.5l0,0c0.6-0.8,1.1-1.6,1.5-2.5C478.1,60.4,472.7,38.8,472.7,38.8z M469.4,43.9L469.4,43.9L469.4,43.9z"/>
	<path class="st1" d="M471,59.5c0.5-7.2-1-15-0.9-15.2c-16.1,3.5-21.2,13.8-21.2,13.8c-0.7,1.1-1.1,2.2-1.3,3.4
		c-0.8,3.8,0.6,7.8,3.9,10.3l0,0l0.5-0.6l0.5-15.5l1.4,0.2l-0.5,13l4.1-6.2l0.2-10.6l1.4,0.2l-0.5,8l5.5-8.5l1.2,0.7l-5.5,8.5
		l7.7-4.4l1.1,0.9l-9.9,5.9l-3.9,6.3l12.3-7l1.1,0.9L453.5,72l-0.6,0.8l0,0c0.1,0,0.2,0.1,0.2,0.1c0.1,0.1,0.3,0.1,0.4,0.2
		c5.3,2.5,11.9,0.8,15-4.5C470.1,66.4,470.8,63,471,59.5z"/>
	<path class="st2" d="M639.2,62.7c-14.8-3.6-23.9,2.8-23.9,2.8c-1.5,0.9-2.6,2.1-3.4,3.4c-2.5,3.4-2.4,8.4,0.7,12.2
		c3.1,3.8,8.3,4.9,12.1,2.9l0,0c0.7-0.3,1.4-0.6,2.1-1C633.7,78.8,639.2,62.7,639.2,62.7z M635,64.6L635,64.6L635,64.6z"/>
	<path class="st3" d="M629.5,75.3c3.3-4.4,5.6-10,5.7-10.1c-11.8-4.4-19.4,0.1-19.4,0.1c-0.9,0.4-1.6,1-2.3,1.6
		c-2.1,2.1-2.8,5.3-1.7,8.3l0,0l0.6-0.2l6.8-9.7L620,66l-5.7,8.1l5.2-2.3l4.5-6.7l0.8,0.7l-3.6,4.9l7-3.2l0.5,0.9l-7,3.2l6.8,0.4
		l0.3,1.1l-8.8-0.4l-5.1,2.4l10.8,0.6l0.3,1.1l-13-0.7l-0.7,0.2l0,0c0,0.1,0.1,0.1,0.1,0.2c0.1,0.1,0.1,0.2,0.2,0.3
		c2.4,3.8,7.3,5.4,11.5,3.4C626.1,79.3,627.9,77.4,629.5,75.3z"/>
	<g>
		<path class="st4" d="M558.5,71.7c-12.9,0.5-25.2,5.1-35.3,13.4c-2.5,2.1-4.8,4.3-6.9,6.7l-0.2-0.3c3.4-7.6,8.5-14.6,15.4-20.3
			c9.1-7.5,20-11.6,30.9-12.4C560.6,62.9,559.3,67.2,558.5,71.7z"/>
		<path class="st4" d="M666.7,105.9c-3.6,7.7-8.9,14.6-16,20.2c-8.8,6.9-19,10.6-29.3,11.5v-1.3c1.4-3.5,2.5-7.1,3.3-10.8
			c12.5-0.4,24.5-4.7,34.5-12.5C661.8,110.8,664.4,108.5,666.7,105.9z"/>
		<path class="st4" d="M621.1,121.4c-0.6,0-1.2,0-1.8-0.1c-1.6-10.2-6-19.8-12.7-28.1c-9.8-11.9-23.5-19.4-38.8-21.2
			c-0.4-3.5-0.4-7-0.1-10.5l0.4-2.8c15.4,0.4,30.5,7.3,41.1,20.1C619.3,91.2,623.1,106.7,621.1,121.4z"/>
		<path class="st4" d="M615,120.9c-13.7-1.9-26.7-8.9-35.9-20.6c-5.7-7.3-9.2-15.5-10.8-24c13.2,1.8,25.9,8.5,35,19.6
			C609.5,103.4,613.4,112,615,120.9z"/>
		<path class="st4" d="M615.5,137.8c-16-0.4-31.7-7.6-42.3-21.2c-9.4-12-13-26.8-11.2-40.8c0.7,0,1.4,0,2.1,0.1
			c1.6,9.7,5.6,18.9,11.8,26.9c9.7,12.5,23.8,20.4,39.5,22.3c0.1,0,0.2,0,0.2,0C616,129.3,616,133.6,615.5,137.8z"/>
		<path class="st5" d="M674.7,94.6l-3.9-1.4c-3.5,6.3-8.2,11.9-14.2,16.6c-9.3,7.3-20.3,11.1-31.3,11.6c0.1-0.6,0.1-1.2,0.2-1.8
			c1.5-15.7-3.1-31.2-13.2-43.4c-10-12.2-24.3-19.8-40-21.3c-2.6-0.3-5.2-0.3-7.7-0.3c0-0.1,0-0.2,0-0.2c0,0.1-0.1,0.2-0.1,0.2
			c-13,0.4-25.4,5.1-35.6,13.4c-10.9,9-18.1,21.2-20.6,34.9c0,0.2-0.1,0.3-0.1,0.4c0,1.5,3.8,1.9,3.8,1.9c3.3-6.3,7.9-12.1,13.8-17
			c9.4-7.8,20.7-11.8,32.1-12.4c-1.8,15.6,2.5,30.9,12.2,43.3c9.7,12.5,23.8,20.4,39.5,22.3c15.7,1.9,31.2-2.4,43.7-12.1
			C664.4,120.6,671.9,108.4,674.7,94.6z M523.2,85.1c-2.5,2.1-4.8,4.3-6.9,6.7l-0.2-0.3c3.4-7.6,8.5-14.6,15.4-20.3
			c9.1-7.5,20-11.6,30.9-12.4c-1.8,4.1-3.1,8.4-3.9,12.8C545.6,72.2,533.3,76.8,523.2,85.1z M573.2,116.6c-9.4-12-13-26.8-11.2-40.8
			c0.7,0,1.4,0,2.1,0.1c1.6,9.7,5.6,18.9,11.8,26.9c9.7,12.5,23.8,20.4,39.5,22.3c0.1,0,0.2,0,0.2,0c0.4,4.2,0.4,8.5-0.1,12.6
			C599.5,137.4,583.8,130.2,573.2,116.6z M568.4,76.3c13.2,1.8,25.9,8.5,35,19.6c6.2,7.5,10,16.1,11.6,25
			c-13.7-1.9-26.7-8.9-35.9-20.6C573.5,93,569.9,84.8,568.4,76.3z M619.3,121.3c-1.6-10.2-6-19.8-12.7-28.1
			c-9.8-11.9-23.5-19.4-38.8-21.2c-0.4-3.5-0.4-7-0.1-10.5l0.4-2.8c15.4,0.4,30.5,7.3,41.1,20.1c10.2,12.4,14,27.9,12,42.6
			C620.5,121.4,619.9,121.4,619.3,121.3z M650.6,126.1c-8.8,6.9-19,10.6-29.3,11.5v-1.3c1.4-3.5,2.5-7.1,3.3-10.8
			c12.5-0.4,24.5-4.7,34.5-12.5c2.8-2.2,5.3-4.5,7.6-7.1C663.1,113.6,657.7,120.6,650.6,126.1z"/>
	</g>
	<g>
		<path class="st2" d="M624.6,146.8c-11.5-12.4-24-12-24-12c-1.9-0.1-3.7,0.3-5.3,1c-4.4,1.6-7.4,6.4-6.8,11.7
			c0.6,5.5,4.7,9.6,9.5,10.1l0,0c0.8,0.2,1.6,0.3,2.5,0.3C609.8,158.3,624.6,146.8,624.6,146.8z M619.6,145.9L619.6,145.9
			C619.6,146,619.6,145.9,619.6,145.9z"/>
		<path class="st3" d="M608,152.5c5.8-2.1,11.3-5.9,11.5-5.9c-8.2-11.3-18.1-11.8-18.1-11.8c-1.1-0.1-2.1-0.1-3.1,0.1
			c-3.2,0.7-5.9,3.2-6.7,6.6l0,0l0.7,0.2l12.3-4.9l0.3,1.1l-10.3,4.1l6.2,1.1l8.3-3.4l0.3,1.1l-6.4,2.4l8.5,1.3l-0.1,1.2l-8.5-1.3
			l6.1,4.5l-0.4,1.2l-8-5.7l-6.2-0.9l9.7,7.2l-0.4,1.2l-11.6-8.6l-0.8-0.2l0,0c0,0.1,0,0.2,0,0.2c0,0.1,0,0.3,0,0.4
			c-0.1,5,3.5,9.5,8.6,10.2C602.3,154.2,605.2,153.6,608,152.5z"/>
	</g>
	<g>
		<path class="st6" d="M605.7,173c7.8-18.3,1.4-31.5,1.4-31.5c-0.8-2.1-2.1-3.8-3.6-5.2c-3.8-4-10.4-4.8-15.8-1.7
			c-5.6,3.2-8.1,9.6-6.3,15l0,0c0.2,1,0.5,1.9,0.9,2.9C586.1,162.5,605.7,173,605.7,173z M604.1,167.1
			C604.2,167.2,604.2,167.2,604.1,167.1C604.1,167.2,604.1,167.1,604.1,167.1z"/>
		<path class="st7" d="M591.5,157.8c5,5.2,11.7,9.3,11.9,9.5c8.2-14.3,4-25,4-25c-0.4-1.2-0.9-2.3-1.6-3.3c-2.3-3.1-6.2-4.8-10.3-4
			l0,0l0.1,0.8l11.1,10.8l-1,0.9l-9.3-9.1l1.8,7.2l7.7,7.3l-1,0.9l-5.6-5.7l2.6,9.8l-1.3,0.4l-2.6-9.8l-2,8.7l-1.4,0.2l2.3-11.3
			l-2-7.1l-3.1,13.8l-1.4,0.2l3.7-16.6l-0.2-0.9l0,0c-0.1,0-0.2,0.1-0.3,0.1c-0.1,0.1-0.3,0.1-0.4,0.2c-5.5,2.2-8.6,8.3-6.8,14.1
			C587.1,152.6,589.1,155.3,591.5,157.8z"/>
	</g>
	<g>
		<path class="st0" d="M599.8,139.8c0.1,0.1,0.2,0.2,0.2,0.3l-0.4,0.4L599.8,139.8z"/>
		<path class="st0" d="M573,167.9c19.8-2,28.2-14,28.2-14c1.4-1.7,2.3-3.7,2.8-5.7c1.6-5.3-0.8-11.4-6.2-14.7
			c-5.5-3.3-12.3-2.4-16.2,1.8l0,0c-0.7,0.6-1.5,1.3-2.1,2.1C572.7,145.7,573,167.9,573,167.9z M577.4,163.7L577.4,163.7
			L577.4,163.7z"/>
		<path class="st1" d="M579.4,148.2c-2.1,6.9-2.5,14.8-2.6,15c16.5,0.3,23.8-8.6,23.8-8.6c0.9-0.9,1.6-1.9,2.1-3
			c1.6-3.5,1.2-7.8-1.5-11l0,0l-0.7,0.5l-4.1,15l-1.3-0.5l3.5-12.5l-5.4,5.1l-2.7,10.2l-1.3-0.5l2.3-7.6l-7.3,7l-1-0.9l7.3-7
			l-8.5,2.5l-0.8-1.2l11-3.4l5.2-5.2l-13.6,4l-0.8-1.2l16.3-4.8l0.7-0.6l0,0c-0.1-0.1-0.1-0.1-0.2-0.2c-0.1-0.1-0.2-0.2-0.4-0.3
			c-4.6-3.7-11.4-3.5-15.7,0.9C581.9,141.7,580.4,144.8,579.4,148.2z"/>
	</g>
	<path class="st2" d="M713.9,107.5c0.7-0.4,1.3-0.9,1.8-1.3l0,0c3.6-2.5,5-7.5,3.1-12.1c-1.9-4.4-6.2-6.9-10.4-6.3
		c-1.6,0.1-3.1,0.6-4.6,1.5c0,0-10,5.1-13.7,19.8C690.1,109.1,706.9,111.8,713.9,107.5z M693.8,106.3L693.8,106.3L693.8,106.3z"/>
	<path class="st3" d="M705.8,106.4c-5.4,0.8-11.5,0.3-11.6,0.3c1.6-12.5,9.1-17.1,9.1-17.1c0.8-0.6,1.6-1,2.5-1.2
		c2.8-0.8,6,0,8.1,2.3l0,0l-0.4,0.5l-11.8,1.5l0.2,1l9.9-1.3l-4.4,3.5l-8,0.9l0.2,1l6-0.9l-6.1,4.7l0.6,0.9l6.1-4.7l-2.8,6.2
		l0.8,0.8l3.8-8l4.5-3.4l-4.5,9.9l0.8,0.8l5.4-11.8l0.5-0.5l0,0c0,0.1,0.1,0.1,0.1,0.2c0.1,0.1,0.1,0.2,0.2,0.3
		c2.3,3.9,1.4,9-2.4,11.7C710.9,105.3,708.4,106,705.8,106.4z"/>
	<path class="st4" d="M715.8,70.3c-12.9,0.5-25.2,5.1-35.3,13.4c-2.5,2.1-4.8,4.3-6.9,6.7l-0.2-0.3c3.4-7.6,8.5-14.6,15.4-20.3
		c9.1-7.5,20-11.6,30.9-12.4C717.9,61.6,716.6,65.9,715.8,70.3z"/>
	<path class="st4" d="M780.1,136.1c0-1.5,0.2-2.9,0.6-4.3c0.2-0.9,0.4-1.9,0.6-2.8c-0.1,0.7-0.2,1.2-0.3,1.7
		c0.8-1.9,0.7-4.3,0.9-6.4c0,0,0,0-0.1,0c-0.7,3.7-1.8,7.3-3.3,10.8v1.3C779.1,136.2,779.6,136.1,780.1,136.1z"/>
	<path class="st4" d="M778.4,120c-0.6,0-1.2,0-1.8-0.1c-1.6-10.2-6-19.8-12.7-28.1c-9.8-11.9-23.5-19.4-38.8-21.2
		c-0.4-3.5-0.4-7-0.1-10.5l0.4-2.8c15.4,0.4,30.5,7.3,41.1,20.1C776.6,89.8,780.4,105.3,778.4,120z"/>
	<path class="st4" d="M772.3,119.5c-13.7-1.9-26.7-8.9-35.9-20.6c-5.7-7.3-9.2-15.5-10.8-24c13.2,1.8,25.9,8.5,35,19.6
		C766.9,102,770.7,110.6,772.3,119.5z"/>
	<path class="st4" d="M772.8,136.4c-16-0.4-31.7-7.6-42.3-21.2c-9.4-12-13-26.8-11.2-40.8c0.7,0,1.4,0,2.1,0.1
		c1.6,9.7,5.6,18.9,11.8,26.9c9.7,12.5,23.8,20.4,39.5,22.3c0.1,0,0.2,0,0.2,0C773.4,128,773.3,132.2,772.8,136.4z"/>
	<path class="st5" d="M669.3,103.9c3.3-6.3,7.9-12.1,13.8-17c9.4-7.8,20.7-11.8,32.1-12.4c-1.8,15.6,2.5,30.9,12.2,43.3
		c9.7,12.5,23.8,20.4,39.5,22.3c4.6,0.6,9.1,0.6,13.6,0.1c-0.2-1.4-0.3-2.7-0.2-4.1c-0.5,0.1-1,0.1-1.5,0.2V135
		c1.4-3.5,2.5-7.1,3.3-10.8c0,0,0,0,0.1,0c0-0.3,0.1-0.5,0.1-0.8c0.2-1.1,0.5-2.3,0.9-3.4c-0.1,0-0.3,0-0.4,0
		c0.1-0.6,0.1-1.2,0.2-1.8c1.5-15.7-3.1-31.2-13.2-43.4c-10-12.2-24.3-19.8-40-21.3c-2.6-0.3-5.2-0.3-7.7-0.3c0-0.1,0-0.2,0-0.2
		c0,0.1-0.1,0.2-0.1,0.2c-13,0.4-25.4,5.1-35.6,13.4c-10.9,9-18.1,21.2-20.6,34.9c0,0.2-0.1,0.3-0.1,0.4
		C665.5,103.5,669.3,103.9,669.3,103.9z M725,60.2l0.4-2.8c15.4,0.4,30.5,7.3,41.1,20.1c10.2,12.4,14,27.9,12,42.6
		c-0.6,0-1.2,0-1.8-0.1c-1.6-10.2-6-19.8-12.7-28.1c-9.8-11.9-23.5-19.4-38.8-21.2C724.7,67.2,724.7,63.7,725,60.2z M772.3,119.5
		c-13.7-1.9-26.7-8.9-35.9-20.6c-5.7-7.3-9.2-15.5-10.8-24c13.2,1.8,25.9,8.5,35,19.6C766.9,102,770.7,110.6,772.3,119.5z
		 M721.4,74.5c1.6,9.7,5.6,18.9,11.8,26.9c9.7,12.5,23.8,20.4,39.5,22.3c0.1,0,0.2,0,0.2,0c0.4,4.2,0.4,8.5-0.1,12.6
		c-16-0.4-31.7-7.6-42.3-21.2c-9.4-12-13-26.8-11.2-40.8C720,74.4,720.7,74.5,721.4,74.5z M688.8,69.9c9.1-7.5,20-11.6,30.9-12.4
		c-1.8,4.1-3.1,8.4-3.9,12.8c-12.9,0.5-25.2,5.1-35.3,13.4c-2.5,2.1-4.8,4.3-6.9,6.7l-0.2-0.3C676.8,82.5,681.9,75.5,688.8,69.9z"/>
	<path class="st0" d="M775.9,141c0.1,0,0.2-0.1,0.3-0.1l0.2,0.4L775.9,141z"/>
	<path class="st0" d="M759.8,42.1c-11.3,1.3-16,8.3-16,8.3c-0.8,1-1.3,2.1-1.5,3.3c-0.9,3,0.6,6.5,3.7,8.3c3.2,1.8,7.1,1.3,9.2-1.2
		l0,0c0.4-0.4,0.8-0.8,1.2-1.2C760.2,54.8,759.8,42.1,759.8,42.1z M757.3,44.5L757.3,44.5L757.3,44.5z"/>
	<path class="st1" d="M756.3,53.4c1.1-4,1.3-8.5,1.3-8.6c-9.4,0-13.5,5.1-13.5,5.1c-0.5,0.5-0.9,1.1-1.2,1.7c-0.9,2-0.6,4.4,0.9,6.2
		l0,0l0.4-0.3l2.2-8.6l0.7,0.3l-1.9,7.2l3-2.9l1.4-5.9l0.7,0.3l-1.2,4.4l4.1-4.1l0.6,0.5l-4.1,4.1l4.8-1.5L755,52l-6.3,2.1l-2.9,3
		l7.7-2.4l0.5,0.7l-9.3,2.9l-0.4,0.4l0,0l0.1,0.1c0.1,0.1,0.1,0.1,0.2,0.2c2.7,2.1,6.5,1.9,8.9-0.7C755,57.1,755.8,55.4,756.3,53.4z
		"/>
	<path class="st0" d="M715.7,93.6c0.1,0,0.2,0,0.3,0V94L715.7,93.6z"/>
	<path class="st0" d="M716.2,123.4c9.7-11.8,7.9-22.9,7.9-22.9c-0.2-1.7-0.7-3.3-1.6-4.6c-2-3.8-6.6-5.8-11.3-4.7
		c-4.8,1.2-8.1,5.3-7.9,9.7l0,0c-0.1,0.7-0.1,1.5,0,2.3C704,111.4,716.2,123.4,716.2,123.4z M716.3,118.7L716.3,118.7L716.3,118.7z"
		/>
	<path class="st1" d="M709,109.1c2.6,4.9,6.6,9.4,6.7,9.6c9.2-8.7,8.4-17.6,8.4-17.6c0-1-0.2-1.9-0.5-2.8c-1-2.8-3.6-4.9-6.7-5.2
		l0,0l-0.1,0.6l5.9,10.4l-1,0.4l-4.9-8.7l-0.2,5.7l4.1,7l-1,0.4l-2.9-5.4l-0.2,7.8h-1l0.2-7.8l-3.3,6l-1.1-0.2l4.2-7.8v-5.6
		l-5.3,9.5l-1.1-0.2l6.3-11.4l0.1-0.7l0,0c-0.1,0-0.1,0-0.2,0c-0.1,0-0.2,0-0.4,0c-4.5,0.5-8.1,4.3-8.1,8.9
		C706.9,104.3,707.8,106.8,709,109.1z"/>
	<path class="st0" d="M772.2,78.6c0-0.1,0-0.2,0-0.3l0.5-0.1L772.2,78.6z"/>
	<path class="st4" d="M246.4,199c2.2,0.6,4.2,1.9,5.7,3.6c2.3-5.3,3.8-10.8,4.4-16.4c-4.1,1.6-8.5,2.8-12.9,3.5
		c-0.1,1.7-0.3,3.5-0.6,5.2C244.4,196,245.6,197.4,246.4,199z"/>
	<path class="st4" d="M212.8,80.4c-7.8,3.3-14.9,8.5-20.7,15.4c-7.1,8.5-11.2,18.6-12.4,29h1.3c3.5-1.3,7.2-2.3,10.9-2.9
		c0.8-12.5,5.5-24.3,13.7-34.1C207.8,85.1,210.2,82.6,212.8,80.4z"/>
	<path class="st4" d="M195.9,125.5c0,0.6,0,1.2,0,1.8c10.2,2,19.6,6.6,27.6,13.6c11.6,10.2,18.6,24.1,19.9,39.4
		c3.5,0.5,7,0.6,10.5,0.4l2.9-0.3c0.1-15.4-6.3-30.8-18.7-41.7C226,128.3,210.7,123.9,195.9,125.5z"/>
	<path class="st4" d="M196.2,131.6c1.5,13.8,8,27,19.5,36.5c7.1,5.9,15.2,9.7,23.6,11.5c-1.4-13.3-7.6-26.1-18.4-35.6
		C213.6,137.6,205,133.5,196.2,131.6z"/>
	<path class="st4" d="M179.3,130.6c-0.2,16,6.6,31.9,19.8,42.9c11.7,9.8,26.3,13.9,40.4,12.6c0-0.7,0-1.4,0-2.1
		c-9.7-1.9-18.7-6.2-26.5-12.7c-12.1-10.1-19.6-24.4-21-40.2c0-0.1,0-0.2,0-0.2C187.8,130.3,183.5,130.2,179.3,130.6z"/>
	<path class="st5" d="M260.8,184.2c0.2-2.6,0.2-5.1,0-7.7c-1-15.8-8.1-30.2-20-40.7c-11.9-10.4-27.1-15.6-42.9-14.6
		c-0.6,0-1.2,0.1-1.8,0.1c0.9-11,5-21.8,12.6-30.9c4.9-5.8,10.7-10.4,17.1-13.7l-1.3-4c-13.9,2.4-26.3,9.5-35.5,20.4
		c-10.1,12.1-14.9,27.5-13.5,43.3s8.9,30,21,40.2c12,10.1,27.3,14.9,42.9,13.6c-0.1,0.9-0.2,1.9-0.3,2.8c1.4,0.4,2.7,1,3.9,1.9
		c0.3-1.7,0.5-3.4,0.6-5.2c4.5-0.7,8.8-1.9,12.9-3.5c-0.6,5.6-2,11.1-4.4,16.4c1.1,1.3,2,2.8,2.5,4.4
		C258.1,199.9,260.3,192.2,260.8,184.2c0.1,0,0.2,0,0.2,0C260.9,184.2,260.9,184.2,260.8,184.2z M192.1,95.8
		c5.8-6.9,12.9-12.1,20.7-15.4c-2.6,2.2-5.1,4.7-7.3,7.4c-8.2,9.8-12.9,21.6-13.7,34.1c-3.7,0.6-7.4,1.6-10.9,2.9h-1.3
		C180.9,114.4,185,104.4,192.1,95.8z M199.1,173.5c-13.2-11-19.9-26.9-19.8-42.9c4.2-0.4,8.4-0.3,12.6,0.3c0,0.1,0,0.2,0,0.2
		c1.4,15.8,8.9,30,21,40.2c7.8,6.5,16.9,10.8,26.5,12.7c0,0.7,0,1.4,0,2.1C225.4,187.4,210.8,183.3,199.1,173.5z M196.2,131.6
		c8.9,1.9,17.4,6,24.6,12.4c10.8,9.5,17,22.3,18.4,35.6c-8.4-1.8-16.5-5.6-23.6-11.5C204.2,158.5,197.6,145.3,196.2,131.6z
		 M253.9,180.8c-3.5,0.2-7,0-10.5-0.4c-1.3-15.3-8.4-29.3-19.9-39.4c-8-7-17.5-11.6-27.6-13.6c0-0.6,0-1.2,0-1.8
		c14.8-1.6,30.2,2.8,42.2,13.4c12.5,10.9,18.8,26.3,18.7,41.7L253.9,180.8z"/>
	<path class="st0" d="M174.8,127.3c0-0.1,0.1-0.2,0.1-0.3l-0.4-0.2L174.8,127.3z"/>
	<path class="st0" d="M160.5,133.7c0.7,0.4,1.3,0.8,2,1.1l0,0c3.8,2.2,9,1.3,12.3-2.4c3.2-3.6,3.6-8.7,1.2-12.2
		c-0.8-1.4-1.9-2.6-3.3-3.5c0,0-8.9-6.8-23.9-3.8C148.7,112.9,153.6,129.2,160.5,133.7z M152.9,114.9L152.9,114.9L152.9,114.9z"/>
	<path class="st1" d="M158,125.9c-3.1-4.6-5.2-10.3-5.4-10.4c12-4,19.4,0.8,19.4,0.8c0.9,0.5,1.6,1,2.2,1.7c2,2.2,2.6,5.4,1.4,8.4
		l0,0l-0.6-0.2l-6.4-10l-0.8,0.6l5.4,8.4l-5.1-2.5l-4.3-6.9l-0.8,0.6l3.4,5.1l-7-3.5l-0.4,1l7,3.5l-6.8,0.1l-0.4,1h8.9l5,2.6
		l-10.9,0.2l-0.4,1l13.1-0.2l0.7,0.3l0,0c0,0.1-0.1,0.1-0.1,0.2c-0.1,0.1-0.1,0.2-0.2,0.3c-2.5,3.8-7.6,5.2-11.7,2.9
		C161.2,130,159.5,128.1,158,125.9z"/>
	<path class="st0" d="M220.3,189.1c0-0.1,0-0.2,0-0.3h-0.4L220.3,189.1z"/>
	<path class="st0" d="M195.1,187.6L195.1,187.6L195.1,187.6z"/>
	<path class="st0" d="M237.1,133.1c0.1,0,0.2,0,0.3,0.1l0.1-0.5L237.1,133.1z"/>
	<path class="st0" d="M890,601.9c0,0.1-0.1,0.2-0.1,0.3l0.4,0.2L890,601.9z"/>
	<g>
		<path class="st0" d="M833.5,559.1c0.9,0.6,1.9,1.3,3,1.8l0,0c5.6,3.5,13.3,2.4,18.4-2.9c5-5.2,5.8-12.8,2.5-18.2
			c-1.2-2.1-2.7-3.9-4.7-5.5c0,0-12.9-10.7-35.6-7C817,527.2,823.3,551.9,833.5,559.1z M823.1,530.5L823.1,530.5L823.1,530.5z"/>
		<path class="st1" d="M830.1,547.1c-4.4-7-7.2-15.6-7.4-15.9c18.2-5.3,29,2.4,29,2.4c1.2,0.7,2.4,1.7,3.3,2.7
			c2.9,3.4,3.6,8.3,1.7,12.6l0,0l-0.9-0.4l-9-15.3l-1.3,0.9l7.7,12.9l-7.6-4l-6-10.5l-1.3,0.9l4.8,7.8l-10.2-5.6l-0.8,1.3l10.2,5.6
			l-10.2-0.2l-0.6,1.6l13.3,0.5l7.3,4.2l-16.3-0.2l-0.6,1.6l19.6,0.3l1,0.5l0,0c0,0.1-0.2,0.2-0.2,0.2c-0.1,0.1-0.2,0.4-0.3,0.5
			c-4,5.5-11.5,7.3-17.6,3.7C834.8,553.6,832.2,550.6,830.1,547.1z"/>
	</g>
	<g>
		<path class="st6" d="M922,596c-19.6-6.8-32.8,0.8-32.8,0.8c-2.1,1-3.8,2.5-5.1,4.2c-3.9,4.3-4.3,11.2-0.6,16.6
			c3.8,5.6,10.6,7.7,16.1,5.4l0,0c1-0.3,2-0.6,2.9-1.1C912.5,617.1,922,596,922,596z M916,598L916,598L916,598z"/>
		<path class="st7" d="M907.2,611.8c5-5.6,8.9-12.9,9-13c-15.4-7.5-26.3-2.3-26.3-2.3c-1.2,0.5-2.3,1.1-3.3,1.9
			c-3.1,2.6-4.5,6.8-3.4,11l0,0l0.9-0.2l10.4-12.4l1,1l-8.8,10.3l7.3-2.4l7-8.5l1,1l-5.5,6.2l10-3.4l0.5,1.3l-10,3.4l9.1,1.4
			l0.3,1.5l-11.9-1.6l-7.2,2.6l14.6,2.2l0.3,1.5l-17.5-2.6l-1,0.2l0,0c0,0.1,0.1,0.2,0.1,0.3c0.1,0.2,0.1,0.3,0.2,0.4
			c2.7,5.5,9.2,8.3,15.2,6C902.1,616.8,904.8,614.5,907.2,611.8z"/>
		<path class="st0" d="M885.2,570.2c-16,13.3-16.3,28.5-16.3,28.5c-0.2,2.3,0.1,4.5,0.9,6.5c1.7,5.5,7.3,9.4,13.9,9.1
			c6.7-0.3,12.1-5,13-10.9l0,0c0.3-1,0.5-2,0.6-3.1C898.4,589.2,885.2,570.2,885.2,570.2z M883.9,576.4L883.9,576.4L883.9,576.4z"/>
		<path class="st1" d="M891.1,591c-2.2-7.2-6.4-14.2-6.5-14.5c-14.4,9.3-15.6,21.3-15.6,21.3c-0.2,1.3-0.3,2.6-0.1,3.8
			c0.6,4,3.5,7.4,7.6,8.6l0,0l0.3-0.8l-5.2-15.3l1.4-0.3l4.3,12.9l1.7-7.5l-3.6-10.4l1.4-0.3l2.4,7.9l2.2-10.3l1.4,0.2l-2.2,10.3
			l5.9-7.1l1.4,0.5l-7.5,9.4l-1.5,7.5l9.4-11.4l1.4,0.5l-11.3,13.6l-0.3,1l0,0c0.1,0,0.2,0,0.3,0c0.2,0,0.3,0,0.5,0.1
			c6.1,0.5,11.9-3.6,13-9.9C892.8,598,892.2,594.5,891.1,591z"/>
	</g>
	<g>
		<path class="st2" d="M273.1,191.6c-10-15.8-23.6-18-23.6-18c-2-0.5-4.1-0.4-5.9,0c-5.1,0.8-9.3,5.4-9.8,11.3
			c-0.5,6.1,3.1,11.4,8.2,12.9l0,0c0.8,0.4,1.7,0.7,2.7,0.9C254.6,201.1,273.1,191.6,273.1,191.6z M267.8,189.7L267.8,189.7
			L267.8,189.7z"/>
		<path class="st3" d="M253.8,194.5c6.7-1.1,13.5-4,13.7-4.1c-6.6-14-17.2-16.5-17.2-16.5c-1.1-0.4-2.3-0.5-3.4-0.5
			c-3.6,0.1-7,2.2-8.6,5.8l0,0l0.7,0.4l14.3-2.8l0.1,1.3l-12,2.3l6.5,2.5l9.7-2l0.1,1.3l-7.4,1.2l9,3.2l-0.4,1.2l-9-3.2l5.6,6.2
			l-0.6,1.2l-7.5-7.9l-6.5-2.2l9,9.8l-0.6,1.2l-10.8-11.8l-0.8-0.4l0,0c0,0.1,0,0.2-0.1,0.3c0,0.1-0.1,0.3-0.1,0.4
			c-1.2,5.4,1.8,11.1,7.3,12.8C247.4,195.1,250.6,195,253.8,194.5z"/>
		<path class="st6" d="M247.2,216.2c12.2-18.3,8-33.9,8-33.9c-0.5-2.4-1.5-4.6-2.9-6.4c-3.3-5.1-10.3-7.4-16.8-5.1
			c-6.7,2.4-10.8,8.8-9.9,15l0,0c0,1.1,0.1,2.2,0.3,3.3C228.1,200.8,247.2,216.2,247.2,216.2z M246.7,209.5L246.7,209.5L246.7,209.5
			z"/>
		<path class="st7" d="M234.9,196.8c4.4,6.7,10.8,12.6,10.9,12.8c11.9-13.8,9.5-26.3,9.5-26.3c-0.1-1.4-0.5-2.7-1.1-3.9
			c-1.8-3.9-5.8-6.5-10.4-6.5l0,0l-0.1,0.9l9.9,14.1l-1.3,0.7l-8.2-11.8l0.5,8.2l6.8,9.5l-1.3,0.7l-4.9-7.4L246,199l-1.5,0.2
			l-0.8-11.2l-3.9,9l-1.6-0.1l4.9-11.8l-0.8-8.1l-6.2,14.4l-1.6-0.1l7.4-17.3v-1.1l0,0c-0.1,0-0.2,0-0.3,0c-0.2,0-0.3,0.1-0.5,0.1
			c-6.4,1.3-11,7.2-10.3,13.9C231.1,190.2,232.8,193.6,234.9,196.8z"/>
		<path class="st0" d="M212.7,203.9c21.9,1.9,33.5-9.4,33.5-9.4c1.9-1.6,3.3-3.5,4.2-5.6c2.9-5.4,1.5-12.6-3.7-17.2
			c-5.3-4.8-12.9-5.2-17.9-1.4l0,0c-0.9,0.5-1.8,1.1-2.7,1.9C217,179.8,212.7,203.9,212.7,203.9z M218.3,200.3L218.3,200.3
			L218.3,200.3z"/>
		<path class="st1" d="M223.8,183.8c-3.7,7-5.8,15.5-5.9,15.7c17.8,3.7,27.6-4.4,27.6-4.4c1.1-0.8,2.1-1.7,2.9-2.8
			c2.5-3.5,2.9-8.2,0.7-12.2l0,0l-0.8,0.4l-7.5,15.4l-1.3-0.8l6.4-12.9l-6.9,4.4l-5,10.6l-1.3-0.8l4.1-7.8l-9.4,6.1l-0.9-1.2
			l9.4-6.1l-9.8,0.9l-0.7-1.4l12.7-1.4l6.7-4.6l-15.6,1.5l-0.7-1.4l18.7-1.9l0.9-0.5l0,0c-0.1-0.1-0.1-0.2-0.2-0.2
			c-0.1-0.1-0.2-0.3-0.3-0.4c-4.2-5-11.7-6.1-17.2-2.3C227.7,177.3,225.6,180.4,223.8,183.8z"/>
	</g>
	<path class="st2" d="M179.5,76.3c12.4,8.8,23.3,6.1,23.3,6.1c1.7-0.3,3.2-1,4.4-1.9c3.6-2.2,5.3-7,3.8-11.6
		c-1.5-4.7-5.9-7.6-10.2-7.1l0,0c-0.7,0-1.5,0-2.3,0.2C190.5,63.3,179.5,76.3,179.5,76.3z"/>
	<path class="st2" d="M184.1,76.1L184.1,76.1C184.1,76,184.1,76.1,184.1,76.1z"/>
	<path class="st3" d="M193.1,68.1c-4.7,2.9-8.9,7.2-9,7.3c9.3,8.5,18,7,18,7c1-0.1,1.9-0.3,2.7-0.7c2.7-1.2,4.6-3.9,4.7-7l0,0
		l-0.6-0.1l-9.9,6.6l-0.5-0.9l8.3-5.5l-5.7,0.2l-6.7,4.5l-0.5-0.9l5.2-3.2l-7.7,0.4l-0.1-1l7.7-0.4l-6.2-2.9l0.1-1.1L201,74l5.6-0.4
		l-9.8-4.5l0.1-1.1l11.8,5.4h0.7l0,0c0-0.1,0-0.1,0-0.2s0-0.2-0.1-0.4c-0.8-4.4-4.8-7.7-9.5-7.4C197.8,65.6,195.4,66.7,193.1,68.1z"
		/>
	<path class="st0" d="M193.3,72.2c0.4,0.6,0.9,1.2,1.5,1.7l0,0c2.7,3.5,7.9,4.5,12.3,2.2c4.3-2.2,6.5-6.8,5.5-10.9
		c-0.2-1.6-0.8-3.1-1.8-4.5c0,0-5.8-9.6-20.9-12.3C190,48.5,188.5,65.4,193.3,72.2z"/>
	<path class="st1" d="M193.8,63.9c-1.2-5.4-1.1-11.5-1.2-11.6c12.6,0.7,17.8,7.9,17.8,7.9c0.6,0.7,1.1,1.5,1.4,2.4
		c1.1,2.8,0.5,6-1.7,8.3l0,0l-0.5-0.4l-2.3-11.7l-1,0.3l2,9.8l-3.9-4.2l-1.5-8l-1,0.3l1.3,6l-5.2-5.8l-0.8,0.7l5.2,5.8l-6.4-2.4
		l-0.7,0.8l8.3,3.2l3.7,4.3l-10.2-3.8l-0.7,0.8l12.2,4.6l0.5,0.5l0,0c-0.1,0-0.1,0.1-0.2,0.1c-0.1,0.1-0.2,0.1-0.3,0.2
		c-3.7,2.6-8.9,2-12-1.5C195.3,69,194.4,66.6,193.8,63.9z"/>
	<path class="st2" d="M913.5,145.6c3.6-14.8-2.8-23.9-2.8-23.9c-0.9-1.5-2.1-2.6-3.4-3.4c-3.4-2.5-8.4-2.4-12.2,0.7
		s-4.9,8.3-2.9,12.1l0,0c0.3,0.7,0.6,1.4,1,2.1C897.5,140.2,913.5,145.6,913.5,145.6z M911.7,141.4L911.7,141.4L911.7,141.4z"/>
	<path class="st3" d="M901,136c4.4,3.3,10,5.6,10.1,5.7c4.4-11.8-0.1-19.4-0.1-19.4c-0.4-0.9-1-1.6-1.6-2.3
		c-2.1-2.1-5.3-2.8-8.3-1.7l0,0l0.2,0.6l9.7,6.8l-0.7,0.8l-8.1-5.7l2.3,5.2l6.7,4.5l-0.7,0.8l-4.9-3.6l3.2,7l-0.9,0.5l-3.2-7
		l-0.4,6.8l-1.1,0.3l0.4-8.8l-2.4-5.1l-0.6,10.8l-1.1,0.3l0.7-13l-0.2-0.7l0,0c-0.1,0-0.1,0.1-0.2,0.1c-0.1,0.1-0.2,0.1-0.3,0.2
		c-3.8,2.4-5.4,7.3-3.4,11.5C897,132.5,898.8,134.4,901,136z"/>
	<g>
		<path class="st2" d="M784.7,92c-16,7.4-19.6,19.9-19.6,19.9c-0.7,1.9-0.9,3.7-0.7,5.6c0.1,4.9,4,9.4,9.4,10.5
			c5.6,1.2,11-1.5,13.1-6.2l0,0c0.4-0.7,0.8-1.5,1.1-2.4C791.4,110.5,784.7,92,784.7,92z M782.3,96.8L782.3,96.8L782.3,96.8z"/>
		<path class="st3" d="M785,110.4c-0.2-6.4-2.2-13.1-2.1-13.3c-13.9,4.5-17.5,14.1-17.5,14.1c-0.5,1-0.8,2.1-0.9,3.1
			c-0.3,3.4,1.3,6.8,4.4,8.8l0,0l0.4-0.6l-0.9-13.7h1.2l0.7,11.5l3.1-5.8l-0.7-9.3h1.2l0.3,7.1l4.1-8l1.1,0.5l-4.1,8l6.4-4.5l1,0.7
			l-8.2,6l-2.8,5.9l10.2-7.3l1,0.7l-12.3,8.7l-0.4,0.7l0,0c0.1,0,0.2,0.1,0.2,0.1c0.1,0.1,0.3,0.1,0.4,0.1
			c4.9,1.8,10.6-0.4,12.9-5.3C784.9,116.5,785.2,113.5,785,110.4z"/>
		<path class="st6" d="M806.8,115.1c-18.2-10-32.5-4.7-32.5-4.7c-2.2,0.7-4.2,1.8-5.7,3.2c-4.5,3.6-6.1,10.3-3.4,16.2
			c2.8,6.1,9.1,9.4,14.9,8.1l0,0c1-0.1,2-0.3,3-0.6C793.9,134.3,806.8,115.1,806.8,115.1z M800.5,116.1L800.5,116.1L800.5,116.1z"/>
		<path class="st7" d="M789.6,128.2c5.9-4.7,10.9-11.2,11.1-11.3c-13.9-10-25.5-6.7-25.5-6.7c-1.3,0.2-2.5,0.7-3.5,1.3
			c-3.5,2.1-5.6,5.9-5.2,10.3l0,0h0.9l12.4-10.4l0.8,1.2l-10.4,8.7l7.6-1.1l8.3-7.2l0.8,1.2l-6.5,5.2l10.4-1.7l0.3,1.4l-10.4,1.7
			l8.8,2.9v1.5l-11.5-3.6l-7.5,1.4l14,4.6v1.5l-16.8-5.6l-1,0.1l0,0c0,0.1,0,0.2,0.1,0.3c0,0.2,0.1,0.3,0.1,0.5
			c1.8,5.9,7.7,9.7,13.9,8.5C783.7,132.3,786.7,130.5,789.6,128.2z"/>
		<path class="st0" d="M805.8,138.2c-8.5-18.9-23.1-23.3-23.1-23.3c-2.2-0.8-4.4-1.1-6.5-0.8c-5.8,0.1-11,4.5-12.5,10.9
			c-1.5,6.6,1.6,13,7.1,15.4l0,0c0.9,0.5,1.8,1,2.8,1.4C784,145.8,805.8,138.2,805.8,138.2z M800.2,135.3L800.2,135.3L800.2,135.3z"
			/>
		<path class="st1" d="M784.2,138.4c7.5-0.2,15.4-2.4,15.7-2.4c-5.1-16.4-16.3-20.7-16.3-20.7c-1.2-0.6-2.4-0.9-3.6-1.1
			c-4-0.4-8,1.4-10.3,5.1l0,0l0.7,0.5l16.2-0.9l-0.1,1.4L773,121l6.8,3.7l11-0.7l-0.1,1.4l-8.3,0.2l9.3,4.9l-0.6,1.3l-9.3-4.9
			l5.3,7.6l-0.9,1.2l-7-9.8l-6.9-3.4l8.4,12.1l-0.9,1.2l-10.1-14.5l-0.8-0.5l0,0c0,0.1-0.1,0.2-0.1,0.3c-0.1,0.2-0.1,0.3-0.2,0.5
			c-2.1,5.8,0.3,12.4,6,15.2C777,138.1,780.6,138.5,784.2,138.4z"/>
	</g>
</g>
</svg>
