<?xml version="1.0" encoding="utf-8"?>
<!-- Generator: Adobe Illustrator 22.1.0, SVG Export Plug-In . SVG Version: 6.00 Build 0)  -->
<svg version="1.1"
	 id="svg5391" inkscape:version="0.91 r13725" sodipodi:docname="moldura madeira.svg" xmlns:cc="http://creativecommons.org/ns#" xmlns:dc="http://purl.org/dc/elements/1.1/" xmlns:inkscape="http://www.inkscape.org/namespaces/inkscape" xmlns:rdf="http://www.w3.org/1999/02/22-rdf-syntax-ns#" xmlns:sodipodi="http://sodipodi.sourceforge.net/DTD/sodipodi-0.dtd" xmlns:svg="http://www.w3.org/2000/svg"
	 xmlns="http://www.w3.org/2000/svg" xmlns:xlink="http://www.w3.org/1999/xlink" x="0px" y="0px" viewBox="0 0 1051.2 743.4"
	 style="enable-background:new 0 0 1051.2 743.4;" xml:space="preserve">
<style type="text/css">
	.st0{fill:none;}
	.st1{fill:#895F3F;}
	.st2{fill:#422009;}
	.st3{fill:#2B1204;}
	.st4{fill:#89C93D;}
	.st5{fill:#512B12;}
	.st6{fill:#331805;}
	.st7{fill:#1C0B02;}
	.st8{fill:#331A0D;}
</style>
<path class="st0" d="M-2210.6,903.7h-1.5c-0.3-2.8-0.6-5.5-1-8.3C-2212.2,898.2-2211.4,901-2210.6,903.7z"/>
<path class="st1" d="M-2201.3,850c-0.6-1.3-1.3-2.5-1.9-3.8c0.6,1,1.2,2.1,1.8,3.1C-2201.3,849.6-2201.3,849.8-2201.3,850z"/>
<path class="st1" d="M-2203.2,846.3c-1.8-3-3.6-5.9-5.4-8.8c-0.2-0.8-0.4-1.5-0.7-2.2C-2207.2,838.8-2205.1,842.5-2203.2,846.3z"/>
<path class="st0" d="M-2210.6,903.7h-1.5c-0.3-2.8-0.6-5.5-1-8.3C-2212.2,898.2-2211.4,901-2210.6,903.7z"/>
<path class="st2" d="M-2209.3,835.2L-2209.3,835.2L-2209.3,835.2L-2209.3,835.2z"/>
<path class="st3" d="M-2213.4,893.2c0.1,0.7,0.2,1.4,0.3,2.1l0,0l0,0l0,0C-2213.2,894.6-2213.3,893.9-2213.4,893.2z"/>
<sodipodi:namedview  bordercolor="#666666" borderopacity="1" gridtolerance="10" guidetolerance="10" id="namedview5393" inkscape:current-layer="g5813" inkscape:cx="310.02697" inkscape:cy="348.66102" inkscape:pageopacity="0" inkscape:pageshadow="2" inkscape:window-height="744" inkscape:window-maximized="1" inkscape:window-width="1301" inkscape:window-x="65" inkscape:window-y="24" inkscape:zoom="0.64379276" objecttolerance="10" pagecolor="#ffffff" showgrid="false" showguides="false">
	</sodipodi:namedview>
<g id="layer1" inkscape:groupmode="layer" inkscape:label="Layer 1" sodipodi:insensitive="true">
</g>
<g id="layer2" inkscape:groupmode="layer" inkscape:label="Layer 2">
</g>
<path class="st4" d="M1210,554.6l0.5,0.3c0.1-0.1,0.1-0.2,0.2-0.3H1210z"/>
<path class="st4" d="M1191.1,280l-0.4-0.2l0.3,0.5C1191,280.2,1191.1,280.1,1191.1,280z"/>
<g>
	<g>
		<g>
			<path class="st0" d="M823.1,213.9c1-10.7,5.4-21.2,13.1-30c5.9-6.6,12.9-11.5,20.6-14.6l0.3,0.2c-2.4,2-4.7,4.2-6.9,6.6
				c-8.5,9.7-13.4,21.7-14.1,34.3C831.6,211,827.3,212.4,823.1,213.9z"/>
			<path class="st0" d="M875.3,310c8-9.6,12.6-21.3,13.2-33.5c3.7-0.8,7.3-1.7,10.8-3l1.3,0c-1.1,10.1-5.1,20-12.1,28.5
				c-5.8,6.8-12.8,11.9-20.5,15.2C870.7,314.9,873,312.6,875.3,310z"/>
			<path class="st0" d="M842.2,260.3c-12.6-10.7-19.2-25.6-19.2-40.7l2.8-0.4c3.5-0.3,7-0.1,10.5,0.3c1.5,15,8.7,28.6,20.4,38.5
				c8.1,6.7,17.7,11.2,27.8,13c0.1,0.6,0.1,1.2,0.1,1.8C869.8,274.5,854.3,270.4,842.2,260.3z"/>
			<path class="st0" d="M859.3,254.8c-10.9-9.1-17.3-21.7-18.9-34.7c8.5,1.7,16.6,5.3,23.8,11.1c11.5,9.2,18.2,22.1,19.9,35.7
				C875.3,265.1,866.6,261.2,859.3,254.8z"/>
			<path class="st0" d="M888.3,267.4c0,0,0-0.1,0-0.2c-1.6-15.4-9.1-29.4-21.5-39.2c-7.8-6.2-17-10.3-26.7-12.1
				c-0.1-0.7-0.1-1.4-0.1-2.1c14-1.4,28.8,2.4,40.6,11.8c13.4,10.7,20.3,26.3,20.3,42C896.8,268,892.5,268.1,888.3,267.4z"/>
			<path class="st5" d="M891.7,304.5c10-12.1,14.5-27.1,13-42.5c-1.6-15.4-9.1-29.4-21.5-39.2c-12.2-9.8-27.4-14.3-43-12.8
				c0.8-11.2,5.1-22.1,13.1-31.2c5-5.6,10.9-10.1,17.3-13.2c0,0-0.4-3.7-1.9-3.7c-0.1,0-0.2,0.1-0.4,0.1c-13.7,2.1-26.1,9-35.3,19.5
				c-8.5,9.8-13.5,21.8-14.1,34.6c0,0-0.1,0.1-0.2,0.1c0,0,0.1,0,0.2,0c0,2.5-0.1,5,0.1,7.6c1.2,15.4,8.4,29.6,20.5,39.7
				c12,10.2,27.4,15,43.1,13.8c0.6-0.1,1.2-0.1,1.8-0.2c-0.7,10.8-4.8,21.4-12.3,30.4c-4.8,5.7-10.5,10.3-16.9,13.6l1.4,3.8
				C870.5,322.3,882.8,315.3,891.7,304.5z M836,210.4c-4.4,0.6-8.7,1.9-12.8,3.5c1-10.7,5.4-21.2,13.1-30
				c5.9-6.6,12.9-11.5,20.6-14.6l0.3,0.2c-2.4,2-4.7,4.2-6.9,6.6C841.7,185.8,836.7,197.7,836,210.4z M900.9,267.6
				c-4.1,0.4-8.4,0.3-12.6-0.2c0,0,0-0.1,0-0.2c-1.6-15.4-9.1-29.4-21.5-39.2c-7.8-6.2-17-10.3-26.7-12.1c-0.1-0.7-0.1-1.4-0.1-2.1
				c14-1.4,28.8,2.4,40.6,11.8C894,236.4,901,252,900.9,267.6z M864.2,231.1c11.5,9.2,18.2,22.1,19.9,35.7
				c-8.9-1.7-17.3-5.6-24.8-11.9c-10.9-9.1-17.3-21.7-18.9-34.7C848.9,221.9,857.1,225.5,864.2,231.1z M884.5,272.9
				c-14.7,1.6-30.2-2.4-42.3-12.6c-12.6-10.7-19.2-25.6-19.2-40.7l2.8-0.4c3.5-0.3,7-0.1,10.5,0.3c1.5,15,8.7,28.6,20.4,38.5
				c8.1,6.7,17.7,11.2,27.8,13C884.5,271.6,884.5,272.2,884.5,272.9z M868,317.3c2.6-2.2,5-4.6,7.3-7.3c8-9.6,12.6-21.3,13.2-33.5
				c3.7-0.8,7.3-1.7,10.8-3l1.3,0c-1.1,10.1-5.1,20-12.1,28.5C883,308.8,875.8,313.8,868,317.3z"/>
		</g>
		<g>
			<path class="st0" d="M877.2,155.3c8-9.6,12.6-21.3,13.2-33.5c3.7-0.8,7.3-1.7,10.8-3l1.3,0c-1.1,10.1-5.1,20-12.1,28.5
				c-5.8,6.8-12.8,11.9-20.5,15.2C872.6,160.3,874.9,157.9,877.2,155.3z"/>
			<path class="st5" d="M906.4,106.1c-1.1,1.9-2.4,3.6-3.7,5.3c0,0.5,0,1,0,1.5c-0.5,0.1-0.9,0.1-1.4,0.1c-0.6,0.7-1.2,1.3-1.8,1.9
				c-3.8,3.7-8.4,6.6-13.4,8.8c-1,10.3-5,20.5-12.2,29.1c-4.8,5.7-10.5,10.3-16.9,13.6l1.4,3.8c13.8-2.4,26.2-9.6,35.2-20.3
				c9.9-12.1,14.4-27.2,12.8-42.6C906.5,106.9,906.5,106.5,906.4,106.1z M890.5,147.3c-5.7,6.8-12.8,11.9-20.5,15.3
				c2.6-2.2,5-4.6,7.3-7.3c8-9.6,12.6-21.3,13.2-33.5c3.7-0.8,7.3-1.7,10.8-3l1.3,0C901.4,128.8,897.6,138.7,890.5,147.3z"/>
		</g>
		<g>
			<path class="st0" d="M821.6,368.7c1-10.7,5.4-21.2,13.1-30c5.9-6.6,12.9-11.5,20.6-14.6l0.3,0.2c-2.4,2-4.7,4.2-6.9,6.6
				c-8.5,9.7-13.4,21.7-14.1,34.3C830,365.8,825.7,367.1,821.6,368.7z"/>
			<path class="st0" d="M873.7,464.7c8-9.6,12.6-21.3,13.2-33.5c3.7-0.8,7.3-1.7,10.8-3l1.3,0c-1.1,10.1-5.1,20-12.1,28.5
				c-5.8,6.8-12.8,11.9-20.5,15.2C869,469.7,871.5,467.3,873.7,464.7z"/>
			<path class="st0" d="M840.6,415c-12.6-10.7-19.2-25.6-19.2-40.7l2.8-0.4c3.5-0.3,7-0.1,10.5,0.3c1.5,15,8.7,28.6,20.4,38.5
				c8.1,6.7,17.7,11.2,27.8,13c0.1,0.6,0.1,1.2,0.1,1.8C868.1,429.3,852.8,425.1,840.6,415z"/>
			<path class="st0" d="M857.8,409.6c-10.9-9.1-17.3-21.7-18.9-34.7c8.5,1.7,16.6,5.3,23.8,11.1c11.5,9.2,18.2,22.1,19.9,35.7
				C873.7,419.8,865.1,415.9,857.8,409.6z"/>
			<path class="st0" d="M886.6,422.2c0,0,0-0.1,0-0.2c-1.6-15.4-9.1-29.4-21.5-39.2c-7.8-6.2-17-10.3-26.7-12.1
				c-0.1-0.7-0.1-1.4-0.1-2.1c14-1.4,28.8,2.4,40.6,11.8c13.4,10.7,20.3,26.3,20.3,42C895.2,422.8,890.9,422.8,886.6,422.2z"/>
			<path class="st5" d="M890.1,459.3c10-12.1,14.5-27.1,13-42.5c-1.6-15.4-9.1-29.4-21.5-39.2c-12.2-9.8-27.4-14.3-43-12.8
				c0.8-11.2,5.1-22.1,13.1-31.2c5-5.6,10.9-10.1,17.3-13.2c0,0-0.4-3.7-1.9-3.7c-0.1,0-0.2,0.1-0.4,0.1c-13.7,2.1-26.1,9-35.3,19.5
				c-8.5,9.8-13.5,21.8-14.1,34.6c0,0-0.1,0.1-0.2,0.1c0,0,0.1,0,0.2,0c0,2.5-0.1,5,0.1,7.6c1.2,15.4,8.4,29.6,20.5,39.7
				c12,10.2,27.4,15,43.1,13.8c0.6-0.1,1.2-0.1,1.8-0.2c-0.7,10.8-4.8,21.4-12.3,30.4c-4.8,5.7-10.5,10.3-16.9,13.6l1.4,3.8
				C868.7,477.1,881.2,470,890.1,459.3z M834.4,365.1c-4.4,0.6-8.7,1.9-12.8,3.5c1-10.7,5.4-21.2,13.1-30
				c5.9-6.6,12.9-11.5,20.6-14.6l0.3,0.2c-2.4,2-4.7,4.2-6.9,6.6C840.2,340.5,835.2,352.5,834.4,365.1z M899.3,422.5
				c-4.1,0.4-8.4,0.3-12.6-0.2c0,0,0-0.1,0-0.2c-1.6-15.4-9.1-29.4-21.5-39.2c-7.8-6.2-17-10.3-26.7-12.1c-0.1-0.7-0.1-1.4-0.1-2.1
				c14-1.4,28.8,2.4,40.6,11.8C892.4,391.2,899.3,406.7,899.3,422.5z M862.7,385.9c11.5,9.2,18.2,22.1,19.9,35.7
				c-8.9-1.7-17.3-5.6-24.8-11.9c-10.9-9.1-17.3-21.7-18.9-34.7C847.3,376.6,855.6,380.2,862.7,385.9z M883,427.6
				c-14.7,1.6-30.2-2.4-42.3-12.6c-12.6-10.7-19.2-25.6-19.2-40.7l2.8-0.4c3.5-0.3,7-0.1,10.5,0.3c1.5,15,8.7,28.6,20.4,38.5
				c8.1,6.7,17.7,11.2,27.8,13C882.9,426.4,883,427,883,427.6z M866.5,472c2.6-2.2,5-4.6,7.3-7.3c8-9.6,12.6-21.3,13.2-33.5
				c3.7-0.8,7.3-1.7,10.8-3l1.3,0c-1.1,10.1-5.1,20-12.1,28.5C881.2,463.5,874.3,468.7,866.5,472z"/>
		</g>
		<g>
			<path class="st0" d="M820.5,524.1c1-10.7,5.4-21.2,13.1-30c5.9-6.6,12.9-11.5,20.6-14.6l0.3,0.2c-2.4,2-4.7,4.2-6.9,6.6
				c-8.5,9.7-13.4,21.7-14.1,34.3C828.9,521.2,824.6,522.6,820.5,524.1z"/>
			<path class="st0" d="M877.3,620.4c3.1-2.4,6-5.2,8.7-8.3c7-8.4,10.9-18.4,12.1-28.5l-1.3,0c-3.5,1.3-7.1,2.2-10.8,3
				c-0.6,11.6-4.7,22.7-12,32C875,619.2,876.2,619.8,877.3,620.4z"/>
			<path class="st0" d="M839.5,570.5c-12.6-10.7-19.2-25.6-19.2-40.7l2.8-0.4c3.5-0.3,7-0.1,10.5,0.3c1.5,15,8.7,28.6,20.4,38.5
				c8.1,6.7,17.7,11.2,27.8,13c0.1,0.6,0.1,1.2,0.1,1.8C867.1,584.7,851.7,580.6,839.5,570.5z"/>
			<path class="st0" d="M856.7,565c-10.9-9.1-17.3-21.7-18.9-34.7c8.5,1.7,16.6,5.3,23.8,11.1c11.5,9.2,18.2,22.1,19.9,35.7
				C872.6,575.3,864,571.4,856.7,565z"/>
			<path class="st0" d="M885.5,577.6c0,0,0-0.1,0-0.2c-1.6-15.4-9.1-29.4-21.5-39.2c-7.8-6.2-17-10.3-26.7-12.1
				c-0.1-0.7-0.1-1.4-0.1-2.1c14-1.4,28.8,2.4,40.6,11.8c13.4,10.7,20.3,26.3,20.3,42C894.1,578.2,889.8,578.3,885.5,577.6z"/>
			<path class="st5" d="M816.1,533.9c1.2,15.4,8.4,29.6,20.5,39.7c12,10.2,27.4,15,43.1,13.8c0.6-0.1,1.2-0.1,1.8-0.2
				c-0.7,10.6-4.6,21-11.8,29.9c1.4,0.5,2.8,1,4.1,1.6c7.3-9.3,11.4-20.5,12-32c3.7-0.8,7.3-1.7,10.8-3l1.3,0
				c-1.1,10.1-5.1,20-12.1,28.5c-2.6,3.1-5.6,5.9-8.7,8.3c1.2,0.7,2.4,1.5,3.6,2.3c2.9-2.4,5.7-5.1,8.1-8c10-12.1,14.5-27.1,13-42.5
				c-1.5-15.4-9.1-29.4-21.5-39.2c-12.2-9.8-27.4-14.3-43-12.8c0.8-11.2,5.1-22.1,13.1-31.2c5-5.6,10.9-10.1,17.3-13.2
				c0,0-0.4-3.7-1.9-3.7c-0.1,0-0.2,0.1-0.4,0.1c-13.7,2.1-26.1,9-35.3,19.5c-8.5,9.8-13.5,21.8-14.1,34.6c0,0-0.1,0.1-0.2,0.1
				c0,0,0.1,0,0.2,0C816,528.8,816,531.3,816.1,533.9z M877.9,535.9c13.4,10.7,20.4,26.2,20.3,42c-4.1,0.4-8.4,0.3-12.6-0.2
				c0,0,0-0.1,0-0.2c-1.6-15.4-9.1-29.4-21.5-39.2c-7.8-6.2-17-10.3-26.7-12.1c-0.1-0.7-0.1-1.4-0.1-2.1
				C851.4,522.7,866.1,526.5,877.9,535.9z M881.4,577c-8.9-1.7-17.3-5.6-24.8-11.9c-10.9-9.1-17.3-21.7-18.9-34.7
				c8.4,1.8,16.6,5.4,23.8,11C873,550.6,879.8,563.5,881.4,577z M833.5,494.1c5.9-6.6,12.9-11.5,20.6-14.6l0.3,0.2
				c-2.4,2-4.7,4.2-6.9,6.6c-8.5,9.7-13.5,21.6-14.2,34.3c-4.4,0.6-8.7,1.9-12.8,3.5C821.5,513.4,825.8,502.9,833.5,494.1z
				 M823.1,529.3c3.5-0.3,7-0.1,10.5,0.3c1.5,15,8.7,28.6,20.4,38.5c8.1,6.7,17.7,11.2,27.8,13c-0.1,0.6,0,1.2,0,1.9
				c-14.7,1.6-30.2-2.4-42.3-12.6c-12.6-10.7-19.2-25.6-19.2-40.7L823.1,529.3z"/>
		</g>
	</g>
	<g>
		<g>
			<path class="st0" d="M244.6,200.4c-0.4-12.6-5-24.8-13.3-34.7c-2.2-2.4-4.3-4.8-6.7-6.8l0.3-0.2c7.6,3.3,14.5,8.4,20.2,15.2
				c7.5,9,11.6,19.6,12.3,30.4C253.4,202.6,249.1,201.1,244.6,200.4z"/>
			<path class="st0" d="M209.9,306.3c-7.7-3.5-14.5-8.8-20.1-15.8c-6.8-8.6-10.5-18.6-11.3-28.7l1.3,0c3.5,1.3,7.1,2.4,10.8,3.2
				c0.3,12.2,4.6,24.1,12.4,33.9C205.1,301.6,207.4,304,209.9,306.3z"/>
			<path class="st0" d="M194.5,261.5c0-0.6,0-1.2,0.1-1.8c10.2-1.6,19.9-5.9,28.2-12.3c11.9-9.6,19.5-23,21.4-37.9
				c3.5-0.4,7-0.4,10.5-0.1l2.8,0.4c-0.4,15.1-7.4,29.9-20.2,40.3C224.8,259.9,209.3,263.6,194.5,261.5z"/>
			<path class="st0" d="M195.2,255.5c2-13.5,9-26.2,20.7-35.1c7.3-5.6,15.5-9,24-10.5c-1.9,13-8.6,25.4-19.7,34.3
				C212.8,250.4,204,254,195.2,255.5z"/>
			<path class="st0" d="M178.4,255.9c0.4-15.7,7.7-31.1,21.3-41.4c12-9.2,26.9-12.6,40.8-10.8c0,0.7,0,1.4-0.1,2.1
				c-9.7,1.6-19,5.5-26.9,11.5c-12.6,9.4-20.5,23.2-22.5,38.6c0,0.1,0,0.2,0,0.2C186.8,256.6,182.5,256.5,178.4,255.9z"/>
			<path class="st5" d="M221.3,314.3l1.4-3.8c-6.3-3.5-11.9-8.1-16.5-14c-7.3-9.2-11.1-19.9-11.5-30.7c0.6,0.1,1.2,0.1,1.8,0.2
				c15.7,1.6,31.2-2.9,43.5-12.8c12.3-9.7,19.9-23.8,21.5-39.1c0.2-2.6,0.3-5.1,0.3-7.6c0.1,0,0.2,0,0.2,0c-0.1,0-0.2-0.1-0.2-0.1
				c-0.3-12.8-5-25-13.3-35c-9-10.7-21.2-17.9-34.8-20.3c-0.2,0-0.3-0.1-0.4-0.1c-1.5,0-1.9,3.7-1.9,3.7c6.3,3.3,12.1,7.9,16.9,13.6
				c7.8,9.3,11.7,20.3,12.3,31.6c-15.6-1.9-30.9,2.3-43.4,11.8c-12.6,9.4-20.5,23.2-22.5,38.6c-1.9,15.4,2.3,30.5,12,42.9
				C195.3,304,207.4,311.4,221.3,314.3z M231.3,165.7c-2.2-2.4-4.3-4.8-6.7-6.8l0.3-0.2c7.6,3.3,14.5,8.4,20.2,15.2
				c7.5,9,11.6,19.6,12.3,30.4c-4.1-1.8-8.4-3.1-12.8-3.9C244.2,187.6,239.6,175.6,231.3,165.7z M199.7,214.5
				c12-9.2,26.9-12.6,40.8-10.8c0,0.7,0,1.4-0.1,2.1c-9.7,1.6-19,5.5-26.9,11.5c-12.6,9.4-20.5,23.2-22.5,38.6c0,0.1,0,0.2,0,0.2
				c-4.2,0.3-8.5,0.4-12.6-0.2C178.7,240.3,186.1,224.9,199.7,214.5z M240,210c-1.9,13-8.6,25.4-19.7,34.3
				c-7.6,6.1-16.1,9.8-25,11.3c2-13.5,9-26.2,20.7-35.1C223.2,215,231.4,211.6,240,210z M194.6,259.7c10.2-1.6,19.9-5.9,28.2-12.3
				c11.9-9.6,19.5-23,21.4-37.9c3.5-0.4,7-0.4,10.5-0.1l2.8,0.4c-0.4,15.1-7.4,29.9-20.2,40.3c-12.4,9.9-28,13.6-42.6,11.6
				C194.6,260.9,194.6,260.3,194.6,259.7z M189.7,290.6c-6.8-8.6-10.5-18.6-11.3-28.7l1.3,0c3.5,1.3,7.1,2.4,10.8,3.2
				c0.3,12.2,4.6,24.1,12.4,33.9c2.3,2.7,4.5,5.3,7.1,7.5C202.3,302.7,195.3,297.5,189.7,290.6z"/>
		</g>
		<g>
			<path class="st0" d="M211.9,151.6c-7.7-3.5-14.5-8.8-20.1-15.8c-6.8-8.6-10.5-18.6-11.3-28.7l1.3,0c3.5,1.3,7.1,2.4,10.8,3.2
				c0.3,12.2,4.6,24.1,12.4,33.9C207,146.9,209.3,149.4,211.9,151.6z"/>
			<path class="st5" d="M176.7,95.5c-2,15.4,2.2,30.6,11.8,43c8.7,10.9,20.9,18.4,34.6,21.1l1.4-3.8c-6.3-3.5-11.9-8.1-16.5-14
				c-7-8.8-10.7-19-11.4-29.4c-4.9-2.2-9.5-5.3-13.1-9.1c-0.6-0.6-1.2-1.3-1.7-1.9c-0.5,0-0.9-0.1-1.4-0.1c0-0.5,0.1-1,0.1-1.5
				c-1.3-1.7-2.5-3.5-3.5-5.4C176.8,94.8,176.7,95.1,176.7,95.5z M180.3,107.1l1.3,0c3.5,1.3,7.1,2.4,10.8,3.2
				c0.3,12.2,4.6,24.1,12.4,33.9c2.3,2.7,4.5,5.3,7.1,7.5c-7.7-3.6-14.6-8.9-20.1-15.9C184.9,127.2,181.3,117.2,180.3,107.1z"/>
		</g>
		<g>
			<path class="st0" d="M242.2,355.1c-0.4-12.6-5-24.8-13.3-34.7c-2.2-2.4-4.3-4.8-6.7-6.8l0.3-0.2c7.6,3.3,14.5,8.4,20.2,15.2
				c7.5,9,11.6,19.6,12.3,30.4C251,357.2,246.7,355.9,242.2,355.1z"/>
			<path class="st0" d="M207.6,461c-7.7-3.5-14.5-8.8-20.1-15.8c-6.8-8.6-10.5-18.6-11.3-28.7l1.3,0c3.5,1.3,7.1,2.4,10.8,3.2
				c0.3,12.2,4.6,24.1,12.4,33.9C202.8,456.3,205.1,458.8,207.6,461z"/>
			<path class="st0" d="M192.2,416.2c0-0.6,0-1.2,0.1-1.8c10.2-1.6,19.9-5.9,28.2-12.3c11.9-9.6,19.5-23,21.4-37.9
				c3.5-0.4,7-0.4,10.5-0.1l2.8,0.4c-0.4,15.1-7.4,29.9-20.2,40.3C222.5,414.6,207.1,418.4,192.2,416.2z"/>
			<path class="st0" d="M192.9,410.3c2-13.5,9-26.2,20.7-35.1c7.3-5.6,15.5-9,24-10.5c-1.9,13-8.6,25.4-19.7,34.3
				C210.4,405,201.8,408.7,192.9,410.3z"/>
			<path class="st0" d="M176.1,410.7c0.4-15.7,7.7-31.1,21.3-41.4c12-9.2,26.9-12.6,40.8-10.8c0,0.7,0,1.4-0.1,2.1
				c-9.7,1.6-19,5.5-26.9,11.5c-12.6,9.4-20.5,23.2-22.5,38.6c0,0.1,0,0.2,0,0.2C184.4,411.3,180.1,411.3,176.1,410.7z"/>
			<path class="st5" d="M219,469.1l1.4-3.8c-6.3-3.5-11.9-8.1-16.5-14c-7.3-9.2-11.1-19.9-11.5-30.7c0.6,0.1,1.2,0.1,1.8,0.2
				c15.7,1.6,31.2-2.9,43.5-12.8c12.3-9.7,19.9-23.8,21.5-39.1c0.2-2.6,0.3-5.1,0.3-7.6c0.1,0,0.2,0,0.2,0c-0.1,0-0.2-0.1-0.2-0.1
				c-0.3-12.8-5-25-13.3-35c-9-10.7-21.2-17.9-34.8-20.3c-0.2,0-0.3-0.1-0.4-0.1c-1.5,0-1.9,3.7-1.9,3.7c6.3,3.3,12.1,7.9,16.9,13.6
				c7.8,9.3,11.7,20.3,12.3,31.6c-15.6-1.9-30.9,2.3-43.4,11.8c-12.6,9.4-20.5,23.2-22.5,38.6c-1.9,15.4,2.3,30.5,12,42.9
				C192.9,458.7,205.3,466.2,219,469.1z M229,320.4c-2.2-2.4-4.3-4.8-6.7-6.8l0.3-0.2c7.6,3.3,14.5,8.4,20.2,15.2
				c7.5,9,11.6,19.6,12.3,30.4c-4.1-1.8-8.4-3.1-12.8-3.9C241.9,342.4,237.3,330.4,229,320.4z M197.4,369.4
				c12-9.2,26.9-12.6,40.8-10.8c0,0.7,0,1.4-0.1,2.1c-9.7,1.6-19,5.5-26.9,11.5c-12.6,9.4-20.5,23.2-22.5,38.6c0,0.1,0,0.2,0,0.2
				c-4.2,0.3-8.5,0.4-12.6-0.2C176.4,395,183.7,379.7,197.4,369.4z M237.6,364.8c-1.9,13-8.6,25.4-19.7,34.3
				c-7.6,6.1-16.1,9.8-25,11.3c2-13.5,9-26.2,20.7-35.1C220.9,369.7,229.2,366.3,237.6,364.8z M192.3,414.4
				c10.2-1.6,19.9-5.9,28.2-12.3c11.9-9.6,19.5-23,21.4-37.9c3.5-0.4,7-0.4,10.5-0.1l2.8,0.4c-0.4,15.1-7.4,29.9-20.2,40.3
				c-12.4,9.9-28,13.6-42.6,11.6C192.3,415.7,192.4,415.1,192.3,414.4z M187.4,445.3c-6.8-8.6-10.5-18.6-11.3-28.7l1.3,0
				c3.5,1.3,7.1,2.4,10.8,3.2c0.3,12.2,4.6,24.1,12.4,33.9c2.3,2.7,4.5,5.3,7.1,7.5C200,457.6,193.1,452.2,187.4,445.3z"/>
		</g>
		<g>
			<path class="st0" d="M239.5,510.5c-0.4-12.6-5-24.8-13.3-34.7c-2.2-2.4-4.3-4.8-6.7-6.8l0.3-0.2c7.6,3.3,14.5,8.4,20.2,15.2
				c7.5,9,11.6,19.6,12.3,30.4C248.3,512.7,244,511.3,239.5,510.5z"/>
			<path class="st0" d="M193.1,609.2c-3-2.5-5.9-5.3-8.5-8.5c-6.8-8.6-10.5-18.6-11.3-28.7l1.3,0c3.5,1.3,7.1,2.4,10.8,3.2
				c0.3,11.6,4.2,22.8,11.2,32.3C195.4,608.1,194.3,608.6,193.1,609.2z"/>
			<path class="st0" d="M189.4,571.7c0-0.6,0-1.2,0.1-1.8c10.2-1.6,19.9-5.9,28.2-12.3c11.9-9.6,19.5-23,21.4-37.9
				c3.5-0.4,7-0.4,10.5-0.1l2.8,0.4c-0.4,15.1-7.4,29.9-20.2,40.3C219.8,570.1,204.2,573.8,189.4,571.7z"/>
			<path class="st0" d="M190.1,565.7c2-13.5,9-26.2,20.7-35.1c7.3-5.6,15.5-9,24-10.5c-1.9,13-8.6,25.4-19.7,34.3
				C207.7,560.5,198.9,564.2,190.1,565.7z"/>
			<path class="st0" d="M173.4,566.1c0.4-15.7,7.7-31.1,21.3-41.4c12-9.2,26.9-12.6,40.8-10.8c0,0.7,0,1.4-0.1,2.1
				c-9.7,1.6-19,5.5-26.9,11.5c-12.6,9.4-20.5,23.2-22.5,38.6c0,0.1,0,0.2,0,0.2C181.7,566.8,177.4,566.6,173.4,566.1z"/>
			<path class="st5" d="M256.7,516.6c0.1,0,0.2,0,0.2,0C256.8,516.6,256.7,516.5,256.7,516.6c-0.3-12.9-5-25.1-13.3-35.1
				c-9-10.7-21.2-17.9-34.8-20.3c-0.2,0-0.3-0.1-0.4-0.1c-1.5,0-1.9,3.7-1.9,3.7c6.3,3.3,12.1,7.9,16.9,13.6
				c7.8,9.3,11.7,20.3,12.3,31.6c-15.6-1.9-30.9,2.3-43.4,11.8c-12.6,9.4-20.6,23.2-22.5,38.6c-1.9,15.4,2.3,30.5,12,42.9
				c2.4,3,5,5.8,7.9,8.2c1.2-0.8,2.4-1.5,3.6-2.2c-3.1-2.5-5.9-5.3-8.5-8.5c-6.8-8.6-10.5-18.6-11.3-28.7l1.3,0
				c3.5,1.3,7.1,2.4,10.8,3.2c0.3,11.6,4.2,22.8,11.2,32.3c1.3-0.6,2.7-1.1,4.1-1.5c-7-9.1-10.6-19.6-11.1-30.2
				c0.6,0.1,1.2,0.1,1.8,0.2c15.7,1.6,31.2-2.9,43.5-12.8c12.3-9.7,19.9-23.8,21.5-39.1C256.7,521.6,256.7,519.1,256.7,516.6z
				 M235.5,514c0,0.7,0,1.4-0.1,2.1c-9.7,1.6-19,5.5-26.9,11.5c-12.6,9.4-20.5,23.2-22.5,38.6c0,0.1,0,0.2,0,0.2
				c-4.2,0.3-8.5,0.4-12.6-0.2c0.3-15.8,7.7-31.1,21.3-41.4C206.6,515.6,221.5,512.2,235.5,514z M210.9,530.6
				c7.3-5.4,15.6-8.8,24-10.4c-1.9,13-8.6,25.4-19.7,34.3c-7.6,6.1-16.1,9.8-25,11.3C192.1,552.2,199.1,539.5,210.9,530.6z
				 M252.4,514.4c-4.1-1.8-8.4-3.1-12.8-3.9c-0.4-12.7-5.1-24.8-13.4-34.7c-2.2-2.4-4.3-4.8-6.7-6.8l0.3-0.2
				c7.6,3.3,14.5,8.4,20.2,15.2C247.5,493,251.6,503.7,252.4,514.4z M252.4,520c-0.4,15.1-7.4,29.9-20.2,40.3
				c-12.4,9.9-28,13.6-42.6,11.6c0-0.7,0.1-1.3,0-1.9c10.2-1.6,19.9-5.9,28.2-12.3c11.9-9.6,19.5-23,21.4-37.9
				c3.5-0.4,7-0.4,10.5-0.1L252.4,520z"/>
		</g>
	</g>
	<g>
		<g>
			<path class="st6" d="M256.2,95c2.8,2.9,7.3,5.6,13.1,7.9c11,4.4,26,7.2,42.1,7.9c16.1,0.6,31.6-0.9,43.6-4.5
				c6.8-2,12.1-4.5,15.6-7.3c-1.8,8.9-28.6,15.4-59.2,14.1C281.4,112,256.8,103.8,256.2,95z"/>
			<path class="st6" d="M262.5,91.2c2.3,1.4,5,2.8,8.2,4.1c10.8,4.4,25.5,7.1,41.3,7.7c15.8,0.6,31-0.9,42.8-4.4
				c4.3-1.3,7.9-2.7,10.9-4.3c-2.4,3.2-7.5,6-14.9,8.2c-10.5,3.1-24.3,4.5-38.7,3.9c-14.4-0.6-27.7-3-37.4-6.9
				C268.5,97,264.4,94.1,262.5,91.2z"/>
			<path class="st7" d="M263.9,111.1c12.3,4.5,28.9,7.4,46.8,8.1c17.9,0.7,35-0.8,48.3-4.3c14.2-3.8,22.5-9.3,23.3-15.7
				c0.3-2.7-0.7-5.3-2.9-7.8l-15.6-0.6c-9,6.3-29,10.2-51.5,9.3c-22.5-0.9-41.3-6.3-48.7-13.2c0,0,0.1,0,0.1,0l-14.2-0.6
				c-2.8,2.3-4.5,4.8-4.8,7.5C243.9,100.1,250.7,106.2,263.9,111.1z M270.6,95.3c10.8,4.4,25.5,7.1,41.3,7.7
				c15.8,0.6,31-0.9,42.8-4.4c4.3-1.3,7.9-2.7,10.9-4.3c-2.4,3.2-7.5,6-14.9,8.2c-10.5,3.1-24.3,4.5-38.7,3.9
				c-14.4-0.6-27.7-3-37.4-6.9c-6.1-2.5-10.3-5.3-12.2-8.3C264.7,92.6,267.5,94,270.6,95.3z M269.4,103c11,4.4,26,7.2,42.1,7.9
				c16.1,0.6,31.6-0.9,43.6-4.5c6.8-2,12.1-4.5,15.6-7.3c-1.8,8.9-28.6,15.4-59.2,14.1c-30-1.2-54.6-9.4-55.2-18.2
				C259.1,97.9,263.5,100.6,269.4,103z"/>
		</g>
		<g>
			<path class="st2" d="M319.6,115.4c2.9,2.9,7.3,5.5,13.2,7.9c11.1,4.4,26,7.2,42.1,7.8c16.1,0.6,31.5-1,43.5-4.6
				c6.8-2,12-4.5,15.5-7.4c-1.7,8.9-28.4,15.5-58.9,14.3C345,132.3,320.3,124.2,319.6,115.4z"/>
			<path class="st2" d="M325.7,111.5c2.3,1.4,5,2.8,8.2,4.1c10.8,4.3,25.5,7,41.3,7.6c15.8,0.6,31-1,42.6-4.5
				c4.2-1.3,7.9-2.7,10.8-4.4c-2.3,3.2-7.4,6-14.7,8.2c-10.5,3.1-24.2,4.6-38.6,4c-14.4-0.5-27.7-3-37.4-6.8
				C331.8,117.3,327.7,114.5,325.7,111.5z"/>
			<path class="st3" d="M446,114.6c-5-0.7-9.2-1.9-12.6-3.6c-9,6.3-35.3,10.1-57.7,9.3c-22.5-0.8-44.6-6.3-52.1-13.2
				c0,0-12.6-0.7-12.6-0.7c-3.4,2.8-2.6,5.4-2.8,7.8c-0.5,6.4,6.2,12.5,19.4,17.4c12.3,4.5,29,7.3,46.8,8
				c17.8,0.7,34.9-0.9,48.2-4.5c14.1-3.8,22.3-9.4,23-15.8C445.6,117.4,446.1,116.3,446,114.6z M333.9,115.6
				c10.8,4.3,25.5,7,41.3,7.6c15.8,0.6,31-1,42.6-4.5c4.2-1.3,7.9-2.7,10.8-4.4c-2.3,3.2-7.4,6-14.7,8.2c-10.5,3.1-24.2,4.6-38.6,4
				c-14.4-0.5-27.7-3-37.4-6.8c-6.1-2.5-10.3-5.3-12.3-8.2C328,113,330.8,114.3,333.9,115.6z M374.9,133.4
				c-29.9-1.1-54.6-9.2-55.3-18c2.9,2.9,7.3,5.5,13.2,7.9c11.1,4.4,26,7.2,42.1,7.8c16.1,0.6,31.5-1,43.5-4.6c6.8-2,12-4.5,15.5-7.4
				C432.2,128,405.5,134.5,374.9,133.4z"/>
		</g>
		<g>
			<path class="st6" d="M483.8,90.9c-2.8-2.9-7.3-5.6-13.1-7.9c-11-4.4-26-7.2-42.1-7.9C412.5,74.4,397,76,385,79.5
				c-6.8,2-12.1,4.5-15.6,7.3c1.8-8.9,28.6-15.4,59.2-14.1C458.6,73.9,483.2,82.1,483.8,90.9z"/>
			<path class="st6" d="M477.6,94.8c-2.3-1.4-5-2.8-8.2-4.1c-10.8-4.4-25.5-7.1-41.3-7.7c-15.8-0.6-31,0.9-42.8,4.4
				c-4.3,1.3-7.9,2.7-10.9,4.3c2.4-3.2,7.5-6,14.9-8.2c10.5-3.1,24.3-4.5,38.7-3.9c14.4,0.6,27.7,3,37.4,6.9
				C471.6,89,475.7,91.8,477.6,94.8z"/>
			<path class="st7" d="M476.1,74.8c-12.3-4.5-28.9-7.4-46.8-8.1c-17.9-0.7-35,0.8-48.3,4.3c-14.2,3.8-22.5,9.3-23.3,15.7
				c-0.3,2.7,0.7,5.3,2.9,7.8l15.6,0.6c9-6.3,29-10.2,51.5-9.3c22.5,0.9,41.3,6.3,48.7,13.2c0,0-0.1,0-0.1,0l14.2,0.6
				c2.8-2.3,4.5-4.8,4.8-7.5C496.1,85.9,489.3,79.7,476.1,74.8z M469.4,90.7c-10.8-4.4-25.5-7.1-41.3-7.7c-15.8-0.6-31,0.9-42.8,4.4
				c-4.3,1.3-7.9,2.7-10.9,4.3c2.4-3.2,7.5-6,14.9-8.2c10.5-3.1,24.3-4.5,38.7-3.9c14.4,0.6,27.7,3,37.4,6.9
				c6.1,2.5,10.3,5.3,12.2,8.3C475.3,93.3,472.6,91.9,469.4,90.7z M470.7,82.9c-11-4.4-26-7.2-42.1-7.9C412.5,74.4,397,76,385,79.5
				c-6.8,2-12.1,4.5-15.6,7.3c1.8-8.9,28.6-15.4,59.2-14.1c30,1.2,54.6,9.4,55.2,18.2C481,88,476.6,85.3,470.7,82.9z"/>
		</g>
		<g>
			<path class="st6" d="M482.9,106.2c2.8,2.9,7.3,5.6,13.1,7.9c11,4.4,26,7.2,42.1,7.9c16.1,0.6,31.6-0.9,43.6-4.5
				c6.8-2,12.1-4.5,15.6-7.3c-1.8,8.9-28.6,15.4-59.2,14.1C508.1,123.2,483.5,115,482.9,106.2z"/>
			<path class="st6" d="M489.1,102.3c2.3,1.4,5,2.8,8.2,4.1c10.8,4.4,25.5,7.1,41.3,7.7c15.8,0.6,31-0.9,42.8-4.4
				c4.3-1.3,7.9-2.7,10.9-4.3c-2.4,3.2-7.5,6-14.9,8.2c-10.5,3.1-24.3,4.5-38.7,3.9c-14.4-0.6-27.7-3-37.4-6.9
				C495.2,108.1,491,105.3,489.1,102.3z"/>
			<path class="st7" d="M490.6,122.3c12.3,4.5,28.9,7.4,46.8,8.1c17.9,0.7,35-0.8,48.3-4.3c14.2-3.8,22.5-9.3,23.3-15.7
				c0.3-2.7-0.7-5.3-2.9-7.8l-15.6-0.6c-9,6.3-29,10.2-51.5,9.3c-22.5-0.9-41.3-6.3-48.7-13.2c0,0,0.1,0,0.1,0l-14.2-0.6
				c-2.8,2.3-4.5,4.8-4.8,7.5C470.6,111.2,477.4,117.4,490.6,122.3z M497.3,106.4c10.8,4.4,25.5,7.1,41.3,7.7
				c15.8,0.6,31-0.9,42.8-4.4c4.3-1.3,7.9-2.7,10.9-4.3c-2.4,3.2-7.5,6-14.9,8.2c-10.5,3.1-24.3,4.5-38.7,3.9
				c-14.4-0.6-27.7-3-37.4-6.9c-6.1-2.5-10.3-5.3-12.2-8.3C491.4,103.8,494.1,105.1,497.3,106.4z M496,114.1c11,4.4,26,7.2,42.1,7.9
				c16.1,0.6,31.6-0.9,43.6-4.5c6.8-2,12.1-4.5,15.6-7.3c-1.8,8.9-28.6,15.4-59.2,14.1c-30-1.2-54.6-9.4-55.2-18.2
				C485.7,109.1,490.1,111.8,496,114.1z"/>
		</g>
		<g>
			<path class="st5" d="M189.2,101.4c3.6,2.8,8.9,5.3,15.8,7.4c12.8,4,29.7,6.2,47.4,6.3c17.7,0,34.3-2.1,46.8-6.1
				c7.1-2.3,12.4-5,15.7-7.9c-0.4,9-28.5,16.4-62.1,16.4C219.8,117.4,191.4,110.2,189.2,101.4z"/>
			<path class="st5" d="M195.3,97.3c2.7,1.4,6,2.6,9.7,3.8c12.6,3.9,29.1,6.1,46.5,6.2c17.4,0,33.7-2.1,45.9-6
				c4.4-1.4,8.2-3,11.1-4.7c-2,3.3-7.1,6.3-14.8,8.7c-10.9,3.5-25.7,5.4-41.6,5.4c-15.9,0-30.8-2-42.1-5.5
				C202.9,102.9,197.9,100.2,195.3,97.3z"/>
			<path class="st8" d="M200.5,117.2c14.3,4.1,32.9,6.3,52.6,6.3c19.6,0,38.1-2.2,52-6.2c14.9-4.3,22.9-10.2,22.6-16.6
				c-0.1-2.7-1.7-5.3-4.6-7.7l-17.1,0c-8.7,6.6-29.8,11.2-54.6,11.2c-24.7,0-46.2-4.7-55.6-11.3c0,0,0.1,0,0.1-0.1l-15.6,0
				c-2.7,2.4-4,5-3.9,7.7C176.6,106.9,185.2,112.8,200.5,117.2z M204.9,101.1c12.6,3.9,29.1,6.1,46.5,6.2c17.4,0,33.7-2.1,45.9-6
				c4.4-1.4,8.2-3,11.1-4.7c-2,3.3-7.1,6.3-14.8,8.7c-10.9,3.5-25.7,5.4-41.6,5.4c-15.9,0-30.8-2-42.1-5.5
				c-7.1-2.2-12.2-4.9-14.8-7.8C198,98.7,201.2,99.9,204.9,101.1z M205,108.9c12.8,4,29.7,6.2,47.4,6.3c17.7,0,34.3-2.1,46.8-6.1
				c7.1-2.3,12.4-5,15.7-7.9c-0.4,9-28.5,16.4-62.1,16.4c-33-0.1-61.3-7.3-63.6-16.1C192.8,104.2,198.1,106.7,205,108.9z"/>
		</g>
		<g>
			<path class="st5" d="M409.8,110.9c3.6,2.8,8.9,5.3,15.8,7.4c12.8,4,29.7,6.2,47.4,6.3c17.7,0,34.3-2.1,46.8-6.1
				c7.1-2.3,12.4-5,15.7-7.9c-0.4,9-28.5,16.4-62.1,16.4C440.4,126.9,412,119.7,409.8,110.9z"/>
			<path class="st5" d="M415.9,106.8c2.7,1.4,6,2.6,9.7,3.8c12.6,3.9,29.1,6.1,46.5,6.2c17.4,0,33.7-2.1,45.9-6
				c4.4-1.4,8.2-3,11.1-4.7c-2,3.3-7.1,6.3-14.8,8.7c-10.9,3.5-25.7,5.4-41.6,5.4c-15.9,0-30.8-2-42.1-5.5
				C423.5,112.4,418.5,109.7,415.9,106.8z"/>
			<path class="st8" d="M421.1,126.7c14.3,4.1,32.9,6.3,52.6,6.3c19.6,0,38.1-2.2,52-6.2c14.9-4.3,22.9-10.2,22.6-16.6
				c-0.1-2.7-1.7-5.3-4.6-7.7l-17.1,0c-8.7,6.6-29.8,11.2-54.6,11.2c-24.7,0-46.2-4.7-55.6-11.3c0,0,0.1,0,0.1-0.1l-15.6,0
				c-2.7,2.4-4,5-3.9,7.7C397.2,116.4,405.8,122.3,421.1,126.7z M425.5,110.6c12.6,3.9,29.1,6.1,46.5,6.2c17.4,0,33.7-2.1,45.9-6
				c4.4-1.4,8.2-3,11.1-4.7c-2,3.3-7.1,6.3-14.8,8.7c-10.9,3.5-25.7,5.4-41.6,5.4c-15.9,0-30.8-2-42.1-5.5
				c-7.1-2.2-12.2-4.9-14.8-7.8C418.6,108.2,421.8,109.4,425.5,110.6z M425.5,118.4c12.8,4,29.7,6.2,47.4,6.3
				c17.7,0,34.3-2.1,46.8-6.1c7.1-2.3,12.4-5,15.7-7.9c-0.4,9-28.5,16.4-62.1,16.4c-33-0.1-61.3-7.3-63.6-16.1
				C413.4,113.7,418.7,116.2,425.5,118.4z"/>
		</g>
		<g>
			<path class="st2" d="M314.7,98.6c-3.2-2.9-8.1-5.6-14.6-8c-12.2-4.5-28.7-7.3-46.4-7.9c-17.7-0.7-34.7,0.9-47.7,4.5
				c-7.4,2-13.1,4.5-16.9,7.3c1.7-8.9,31-15.4,64.6-14.1C286.7,81.6,313.9,89.8,314.7,98.6z"/>
			<path class="st2" d="M308,102.4c-2.5-1.4-5.6-2.8-9.1-4.1c-12-4.4-28.1-7.1-45.5-7.8c-17.4-0.6-34,0.9-46.8,4.4
				c-4.7,1.3-8.6,2.7-11.8,4.3c2.5-3.2,8-6,16.1-8.2c11.5-3.1,26.5-4.5,42.4-3.9c15.9,0.6,30.5,3.1,41.2,7
				C301.2,96.6,305.8,99.5,308,102.4z"/>
			<path class="st3" d="M305.9,82.5c-13.6-4.5-31.9-7.4-51.5-8.2c-19.6-0.7-38.4,0.8-52.9,4.3c-15.5,3.8-24.4,9.3-25.1,15.7
				c-0.3,2.7-1.3,3.7,0.3,8l13,0.3c9.7-6.3,38.7-10,63.4-9.1c24.7,0.9,49.1,6.5,57.4,13.4c0,0,13.9,0.8,13.9,0.8
				c3.7-2.7,2.8-5.4,3-7.8C327.9,93.5,320.5,87.4,305.9,82.5z M299,98.3c-12-4.4-28.1-7.1-45.5-7.8c-17.4-0.6-34,0.9-46.8,4.4
				c-4.7,1.3-8.6,2.7-11.8,4.3c2.5-3.2,8-6,16.1-8.2c11.5-3.1,26.5-4.5,42.4-3.9c15.9,0.6,30.5,3.1,41.2,7
				c6.8,2.5,11.4,5.3,13.6,8.3C305.5,101,302.5,99.6,299,98.3z M300.1,90.6c-12.2-4.5-28.7-7.3-46.4-7.9
				c-17.7-0.7-34.7,0.9-47.7,4.5c-7.4,2-13.1,4.5-16.9,7.3c1.7-8.9,31-15.4,64.6-14.1c32.9,1.2,60.1,9.4,61,18.2
				C311.6,95.7,306.6,93,300.1,90.6z"/>
		</g>
		<g>
			<path class="st2" d="M533.4,98.9c-3-2.9-7.7-5.6-13.9-7.9c-11.6-4.4-27.4-7.2-44.3-7.8c-16.9-0.6-33.1,1-45.7,4.5
				c-7.1,2-12.6,4.5-16.2,7.4c1.7-8.9,29.7-15.4,61.9-14.2C506.6,82,532.6,90.2,533.4,98.9z"/>
			<path class="st2" d="M526.9,102.8c-2.4-1.4-5.3-2.8-8.6-4.1c-11.4-4.3-26.9-7.1-43.5-7.7c-16.6-0.6-32.5,1-44.8,4.4
				c-4.5,1.3-8.3,2.7-11.3,4.3c2.4-3.2,7.7-6,15.5-8.2c11-3.1,25.4-4.5,40.5-4c15.2,0.6,29.1,3,39.4,6.9
				C520.5,97,524.9,99.9,526.9,102.8z"/>
			<path class="st3" d="M525,82.9c-13-4.5-30.5-7.4-49.2-8.1c-18.8-0.7-36.7,0.9-50.6,4.4c-14.9,3.8-23.4,9.4-24.1,15.8
				c-0.3,2.7-1.2,3.7,0.3,8l12.4,0.2c9.3-6.3,37-10.1,60.7-9.2c23.6,0.9,46.9,6.4,54.8,13.3c0,0,13.3,0.8,13.3,0.8
				c3.5-2.7,2.7-5.4,2.9-7.8C546.1,93.9,538.9,87.7,525,82.9z M518.3,98.7c-11.4-4.3-26.9-7.1-43.5-7.7c-16.6-0.6-32.5,1-44.8,4.4
				c-4.5,1.3-8.3,2.7-11.3,4.3c2.4-3.2,7.7-6,15.5-8.2c11-3.1,25.4-4.5,40.5-4c15.2,0.6,29.1,3,39.4,6.9c6.5,2.5,10.9,5.3,12.9,8.3
				C524.5,101.4,521.6,100,518.3,98.7z M519.5,91c-11.6-4.4-27.4-7.2-44.3-7.8c-16.9-0.6-33.1,1-45.7,4.5c-7.1,2-12.6,4.5-16.2,7.4
				c1.7-8.9,29.7-15.4,61.9-14.2c31.5,1.2,57.5,9.3,58.3,18.1C530.4,96.1,525.7,93.4,519.5,91z"/>
		</g>
		<g>
			<path class="st5" d="M406.6,100.3c-3-2.9-7.8-5.7-14.1-8.1c-11.9-4.6-28.2-7.6-45.9-8.5c-17.7-0.9-34.7,0.4-48,3.8
				c-7.5,1.9-13.4,4.3-17.4,7.1c2.3-8.9,32-14.9,65.5-13.2C379.6,82.9,406.3,91.5,406.6,100.3z"/>
			<path class="st5" d="M399.7,104.1c-2.4-1.5-5.4-2.9-8.8-4.2c-11.7-4.5-27.7-7.5-45.1-8.4c-17.4-0.9-34.1,0.4-47.1,3.7
				c-4.7,1.2-8.8,2.6-12.1,4.2c2.7-3.1,8.4-5.9,16.6-7.9c11.7-2.9,26.8-4.1,42.6-3.3c15.8,0.8,30.3,3.5,40.8,7.5
				C393.2,98.2,397.7,101.1,399.7,104.1z"/>
			<path class="st8" d="M398.8,84.1c-13.3-4.7-31.5-7.9-51-8.9c-19.6-1-38.5,0.3-53.2,3.6c-15.7,3.5-25,9-26.1,15.4
				c-0.5,2.7,0.6,5.3,2.9,7.8l17.1,0.9c10.1-6.1,32.1-9.7,56.8-8.4c24.6,1.2,45,6.9,53,14c0,0-0.1,0-0.1,0l15.6,0.8
				c3.2-2.3,5.1-4.8,5.5-7.4C420.3,95.5,413,89.2,398.8,84.1z M390.8,99.9c-11.7-4.5-27.7-7.5-45.1-8.4c-17.4-0.9-34.1,0.4-47.1,3.7
				c-4.7,1.2-8.8,2.6-12.1,4.2c2.7-3.1,8.4-5.9,16.6-7.9c11.7-2.9,26.8-4.1,42.6-3.3c15.8,0.8,30.3,3.5,40.8,7.5
				c6.6,2.6,11.1,5.5,13.1,8.5C397.2,102.6,394.3,101.2,390.8,99.9z M392.5,92.2c-11.9-4.6-28.2-7.6-45.9-8.5
				c-17.7-0.9-34.7,0.4-48,3.8c-7.5,1.9-13.4,4.3-17.4,7.1c2.3-8.9,32-14.9,65.5-13.2c32.9,1.7,59.6,10.3,59.9,19
				C403.6,97.4,398.9,94.6,392.5,92.2z"/>
		</g>
		<g>
			<g>
				<path class="st6" d="M825.9,111.1c-2.8-2.9-7.3-5.6-13.1-7.9c-11-4.4-26-7.2-42.1-7.9c-16.1-0.6-31.6,0.9-43.6,4.5
					c-6.8,2-12.1,4.5-15.6,7.3c1.8-8.9,28.6-15.4,59.2-14.1C800.7,94.1,825.3,102.3,825.9,111.1z"/>
				<path class="st6" d="M819.7,115c-2.3-1.4-5-2.8-8.2-4.1c-10.8-4.4-25.5-7.1-41.3-7.7c-15.8-0.6-31,0.9-42.8,4.4
					c-4.3,1.3-7.9,2.7-10.9,4.3c2.4-3.2,7.5-6,14.9-8.2c10.5-3.1,24.3-4.5,38.7-3.9c14.4,0.6,27.7,3,37.4,6.9
					C813.6,109.2,817.8,112,819.7,115z"/>
				<path class="st7" d="M818.2,95c-12.3-4.5-28.9-7.4-46.8-8.1c-17.9-0.7-35,0.8-48.3,4.3c-14.2,3.8-22.5,9.3-23.3,15.7
					c-0.3,2.7,0.7,5.3,2.9,7.8l15.6,0.6c9-6.3,29-10.2,51.5-9.3c22.5,0.9,41.3,6.3,48.7,13.2c0,0-0.1,0-0.1,0l14.2,0.6
					c2.8-2.3,4.5-4.8,4.8-7.5C838.2,106.1,831.4,99.9,818.2,95z M811.5,110.9c-10.8-4.4-25.5-7.1-41.3-7.7
					c-15.8-0.6-31,0.9-42.8,4.4c-4.3,1.3-7.9,2.7-10.9,4.3c2.4-3.2,7.5-6,14.9-8.2c10.5-3.1,24.3-4.5,38.7-3.9
					c14.4,0.6,27.7,3,37.4,6.9c6.1,2.5,10.3,5.3,12.2,8.3C817.4,113.5,814.7,112.1,811.5,110.9z M812.8,103.1
					c-11-4.4-26-7.2-42.1-7.9c-16.1-0.6-31.6,0.9-43.6,4.5c-6.8,2-12.1,4.5-15.6,7.3c1.8-8.9,28.6-15.4,59.2-14.1
					c30,1.2,54.6,9.4,55.2,18.2C823.1,108.2,818.7,105.5,812.8,103.1z"/>
			</g>
			<g>
				<path class="st2" d="M762.6,90.7c-2.9-2.9-7.3-5.5-13.2-7.9c-11.1-4.4-26-7.2-42.1-7.8c-16.1-0.6-31.5,1-43.5,4.6
					c-6.8,2-12,4.5-15.5,7.4c1.7-8.9,28.4-15.5,58.9-14.3C737.2,73.8,761.9,81.9,762.6,90.7z"/>
				<path class="st2" d="M756.4,94.6c-2.3-1.4-5-2.8-8.2-4.1c-10.8-4.3-25.5-7-41.3-7.6c-15.8-0.6-31,1-42.6,4.5
					c-4.2,1.3-7.9,2.7-10.8,4.4c2.3-3.2,7.4-6,14.7-8.2c10.5-3.1,24.2-4.6,38.6-4c14.4,0.5,27.7,3,37.4,6.8
					C750.3,88.8,754.5,91.7,756.4,94.6z"/>
				<path class="st3" d="M636.2,91.6c5,0.7,9.3,1.9,12.6,3.6c9-6.3,35.3-10.1,57.7-9.3c22.5,0.8,44.6,6.3,52.1,13.2
					c0,0,12.6,0.7,12.6,0.7c3.4-2.8,2.6-5.4,2.8-7.8c0.5-6.4-6.2-12.5-19.4-17.4c-12.3-4.5-29-7.3-46.8-8
					c-17.8-0.7-34.9,0.9-48.2,4.5c-14.1,3.8-22.3,9.4-23,15.8C636.5,88.8,636.1,89.8,636.2,91.6z M748.2,90.5
					c-10.8-4.3-25.5-7-41.3-7.6c-15.8-0.6-31,1-42.6,4.5c-4.2,1.3-7.9,2.7-10.8,4.4c2.3-3.2,7.4-6,14.7-8.2
					c10.5-3.1,24.2-4.6,38.6-4c14.4,0.5,27.7,3,37.4,6.8c6.1,2.5,10.3,5.3,12.3,8.2C754.1,93.2,751.4,91.8,748.2,90.5z M707.2,72.7
					c29.9,1.1,54.6,9.2,55.3,18c-2.9-2.9-7.3-5.5-13.2-7.9c-11.1-4.4-26-7.2-42.1-7.8c-16.1-0.6-31.5,1-43.5,4.6
					c-6.8,2-12,4.5-15.5,7.4C650,78.1,676.7,71.6,707.2,72.7z"/>
			</g>
			<g>
				<path class="st6" d="M598.3,115.2c2.8,2.9,7.3,5.6,13.1,7.9c11,4.4,26,7.2,42.1,7.9c16.1,0.6,31.6-0.9,43.6-4.5
					c6.8-2,12.1-4.5,15.6-7.3c-1.8,8.9-28.6,15.4-59.2,14.1C623.5,132.2,598.9,124,598.3,115.2z"/>
				<path class="st6" d="M604.6,111.4c2.3,1.4,5,2.8,8.2,4.1c10.8,4.4,25.5,7.1,41.3,7.7c15.8,0.6,31-0.9,42.8-4.4
					c4.3-1.3,7.9-2.7,10.9-4.3c-2.4,3.2-7.5,6-14.9,8.2c-10.5,3.1-24.3,4.5-38.7,3.9c-14.4-0.6-27.7-3-37.4-6.9
					C610.6,117.2,606.5,114.3,604.6,111.4z"/>
				<path class="st7" d="M606,131.3c12.3,4.5,28.9,7.4,46.8,8.1c17.9,0.7,35-0.8,48.3-4.3c14.2-3.8,22.5-9.3,23.3-15.7
					c0.3-2.7-0.7-5.3-2.9-7.8l-15.6-0.6c-9,6.3-29,10.2-51.5,9.3c-22.5-0.9-41.3-6.3-48.7-13.2c0,0,0.1,0,0.1,0l-14.2-0.6
					c-2.8,2.3-4.5,4.8-4.8,7.5C586,120.3,592.8,126.4,606,131.3z M612.7,115.5c10.8,4.4,25.5,7.1,41.3,7.7c15.8,0.6,31-0.9,42.8-4.4
					c4.3-1.3,7.9-2.7,10.9-4.3c-2.4,3.2-7.5,6-14.9,8.2c-10.5,3.1-24.3,4.5-38.7,3.9c-14.4-0.6-27.7-3-37.4-6.9
					c-6.1-2.5-10.3-5.3-12.2-8.3C606.8,112.8,609.6,114.2,612.7,115.5z M611.5,123.2c11,4.4,26,7.2,42.1,7.9
					c16.1,0.6,31.6-0.9,43.6-4.5c6.8-2,12.1-4.5,15.6-7.3c-1.8,8.9-28.6,15.4-59.2,14.1c-30-1.2-54.6-9.4-55.2-18.2
					C601.2,118.1,605.6,120.8,611.5,123.2z"/>
			</g>
			<g>
				<path class="st6" d="M599.3,99.9c-2.8-2.9-7.3-5.6-13.1-7.9c-11-4.4-26-7.2-42.1-7.9c-16.1-0.6-31.6,0.9-43.6,4.5
					c-6.8,2-12.1,4.5-15.6,7.3c1.8-8.9,28.6-15.4,59.2-14.1C574.1,82.9,598.7,91.1,599.3,99.9z"/>
				<path class="st6" d="M593,103.8c-2.3-1.4-5-2.8-8.2-4.1c-10.8-4.4-25.5-7.1-41.3-7.7c-15.8-0.6-31,0.9-42.8,4.4
					c-4.3,1.3-7.9,2.7-10.9,4.3c2.4-3.2,7.5-6,14.9-8.2c10.5-3.1,24.3-4.5,38.7-3.9c14.4,0.6,27.7,3,37.4,6.9
					C587,98,591.1,100.8,593,103.8z"/>
				<path class="st7" d="M591.6,83.9c-12.3-4.5-28.9-7.4-46.8-8.1c-17.9-0.7-35,0.8-48.3,4.3c-14.2,3.8-22.5,9.3-23.3,15.7
					c-0.3,2.7,0.7,5.3,2.9,7.8l15.6,0.6c9-6.3,29-10.2,51.5-9.3c22.5,0.9,41.3,6.3,48.7,13.2c0,0-0.1,0-0.1,0l14.2,0.6
					c2.8-2.3,4.5-4.8,4.8-7.5C611.6,94.9,604.8,88.7,591.6,83.9z M584.9,99.7c-10.8-4.4-25.5-7.1-41.3-7.7
					c-15.8-0.6-31,0.9-42.8,4.4c-4.3,1.3-7.9,2.7-10.9,4.3c2.4-3.2,7.5-6,14.9-8.2c10.5-3.1,24.3-4.5,38.7-3.9
					c14.4,0.6,27.7,3,37.4,6.9c6.1,2.5,10.3,5.3,12.2,8.3C590.8,102.4,588,101,584.9,99.7z M586.1,92c-11-4.4-26-7.2-42.1-7.9
					c-16.1-0.6-31.6,0.9-43.6,4.5c-6.8,2-12.1,4.5-15.6,7.3c1.8-8.9,28.6-15.4,59.2-14.1c30,1.2,54.6,9.4,55.2,18.2
					C596.4,97,592,94.3,586.1,92z"/>
			</g>
			<g>
				<path class="st5" d="M893,104.7c-3.6-2.8-8.9-5.3-15.8-7.4c-12.8-4-29.7-6.2-47.4-6.3c-17.7,0-34.3,2.1-46.8,6.1
					c-7.1,2.3-12.4,5-15.7,7.9c0.4-9,28.5-16.4,62.1-16.4C862.4,88.7,890.7,96,893,104.7z"/>
				<path class="st5" d="M886.9,108.8c-2.7-1.4-6-2.6-9.7-3.8c-12.6-3.9-29.1-6.1-46.5-6.2c-17.4,0-33.7,2.1-45.9,6
					c-4.4,1.4-8.2,3-11.1,4.7c2-3.3,7.1-6.3,14.8-8.7c10.9-3.5,25.7-5.4,41.6-5.4c15.9,0,30.8,2,42.1,5.5
					C879.2,103.3,884.3,105.9,886.9,108.8z"/>
				<path class="st8" d="M881.7,89c-14.3-4.1-32.9-6.3-52.6-6.3c-19.6,0-38.1,2.2-52,6.2c-14.9,4.3-22.9,10.2-22.6,16.6
					c0.1,2.7,1.7,5.3,4.6,7.7l17.1,0c8.7-6.6,29.8-11.2,54.6-11.2c24.7,0,46.2,4.7,55.6,11.3c0,0-0.1,0-0.1,0.1l15.6,0
					c2.7-2.4,4-5,3.9-7.7C905.5,99.2,896.9,93.3,881.7,89z M877.2,105c-12.6-3.9-29.1-6.1-46.5-6.2c-17.4,0-33.7,2.1-45.9,6
					c-4.4,1.4-8.2,3-11.1,4.7c2-3.3,7.1-6.3,14.8-8.7c10.9-3.5,25.7-5.4,41.6-5.4c15.9,0,30.8,2,42.1,5.5c7.1,2.2,12.2,4.9,14.8,7.8
					C884.1,107.5,880.9,106.2,877.2,105z M877.2,97.3c-12.8-4-29.7-6.2-47.4-6.3c-17.7,0-34.3,2.1-46.8,6.1
					c-7.1,2.3-12.4,5-15.7,7.9c0.4-9,28.5-16.4,62.1-16.4c33,0.1,61.3,7.3,63.6,16.1C889.4,101.9,884.1,99.4,877.2,97.3z"/>
			</g>
			<g>
				<path class="st5" d="M672.4,95.2c-3.6-2.8-8.9-5.3-15.8-7.4c-12.8-4-29.7-6.2-47.4-6.3c-17.7,0-34.3,2.1-46.8,6.1
					c-7.1,2.3-12.4,5-15.7,7.9c0.4-9,28.5-16.4,62.1-16.4C641.8,79.2,670.1,86.5,672.4,95.2z"/>
				<path class="st5" d="M666.3,99.3c-2.7-1.4-6-2.6-9.7-3.8c-12.6-3.9-29.1-6.1-46.5-6.2c-17.4,0-33.7,2.1-45.9,6
					c-4.4,1.4-8.2,3-11.1,4.7c2-3.3,7.1-6.3,14.8-8.7c10.9-3.5,25.7-5.4,41.6-5.4c15.9,0,30.8,2,42.1,5.5
					C658.6,93.7,663.7,96.4,666.3,99.3z"/>
				<path class="st8" d="M661.1,79.5c-14.3-4.1-32.9-6.3-52.6-6.3c-19.6,0-38.1,2.2-52,6.2c-14.9,4.3-22.9,10.2-22.6,16.6
					c0.1,2.7,1.7,5.3,4.6,7.7l17.1,0c8.7-6.6,29.8-11.2,54.6-11.2c24.7,0,46.2,4.7,55.6,11.3c0,0-0.1,0-0.1,0.1l15.6,0
					c2.7-2.4,4-5,3.9-7.7C684.9,89.7,676.4,83.8,661.1,79.5z M656.6,95.5c-12.6-3.9-29.1-6.1-46.5-6.2c-17.4,0-33.7,2.1-45.9,6
					c-4.4,1.4-8.2,3-11.1,4.7c2-3.3,7.1-6.3,14.8-8.7c10.9-3.5,25.7-5.4,41.6-5.4c15.9,0,30.8,2,42.1,5.5c7.1,2.2,12.2,4.9,14.8,7.8
					C663.6,97.9,660.3,96.7,656.6,95.5z M656.6,87.8c-12.8-4-29.7-6.2-47.4-6.3c-17.7,0-34.3,2.1-46.8,6.1c-7.1,2.3-12.4,5-15.7,7.9
					c0.4-9,28.5-16.4,62.1-16.4c33,0.1,61.3,7.3,63.6,16.1C668.8,92.4,663.5,89.9,656.6,87.8z"/>
			</g>
			<g>
				<path class="st2" d="M767.4,107.6c3.2,2.9,8.1,5.6,14.6,8c12.2,4.5,28.7,7.3,46.4,7.9c17.7,0.7,34.7-0.9,47.7-4.5
					c7.4-2,13.1-4.5,16.9-7.3c-1.7,8.9-31,15.4-64.6,14.1C795.5,124.6,768.3,116.4,767.4,107.6z"/>
				<path class="st2" d="M774.1,103.7c2.5,1.4,5.6,2.8,9.1,4.1c12,4.4,28.1,7.1,45.5,7.8c17.4,0.6,34-0.9,46.8-4.4
					c4.7-1.3,8.6-2.7,11.8-4.3c-2.5,3.2-8,6-16.1,8.2c-11.5,3.1-26.5,4.5-42.4,3.9c-15.9-0.6-30.5-3.1-41.2-7
					C780.9,109.5,776.3,106.7,774.1,103.7z"/>
				<path class="st3" d="M776.2,123.6c13.6,4.5,31.9,7.4,51.5,8.2c19.6,0.7,38.4-0.8,52.9-4.3c15.5-3.8,24.4-9.3,25.1-15.7
					c0.3-2.7,1.3-3.7-0.3-8l-13-0.3c-9.7,6.3-38.7,10-63.4,9.1c-24.7-0.9-49.1-6.5-57.4-13.4c0,0-13.9-0.8-13.9-0.8
					c-3.7,2.7-2.8,5.4-3,7.8C754.2,112.6,761.7,118.8,776.2,123.6z M783.2,107.8c12,4.4,28.1,7.1,45.5,7.8c17.4,0.6,34-0.9,46.8-4.4
					c4.7-1.3,8.6-2.7,11.8-4.3c-2.5,3.2-8,6-16.1,8.2c-11.5,3.1-26.5,4.5-42.4,3.9c-15.9-0.6-30.5-3.1-41.2-7
					c-6.8-2.5-11.4-5.3-13.6-8.3C776.7,105.1,779.7,106.5,783.2,107.8z M782,115.5c12.2,4.5,28.7,7.3,46.4,7.9
					c17.7,0.7,34.7-0.9,47.7-4.5c7.4-2,13.1-4.5,16.9-7.3c-1.7,8.9-31,15.4-64.6,14.1c-32.9-1.2-60.1-9.4-61-18.2
					C770.6,110.5,775.5,113.2,782,115.5z"/>
			</g>
			<g>
				<path class="st2" d="M548.8,107.2c3,2.9,7.7,5.6,13.9,7.9c11.6,4.4,27.4,7.2,44.3,7.8c16.9,0.6,33.1-1,45.7-4.5
					c7.1-2,12.6-4.5,16.2-7.4c-1.7,8.9-29.7,15.4-61.9,14.2C575.5,124.2,549.6,116,548.8,107.2z"/>
				<path class="st2" d="M555.2,103.3c2.4,1.4,5.3,2.8,8.6,4.1c11.4,4.3,26.9,7.1,43.5,7.7c16.6,0.6,32.5-1,44.8-4.4
					c4.5-1.3,8.3-2.7,11.3-4.3c-2.4,3.2-7.7,6-15.5,8.2c-11,3.1-25.4,4.5-40.5,4c-15.2-0.6-29.1-3-39.4-6.9
					C561.7,109.1,557.3,106.3,555.2,103.3z"/>
				<path class="st3" d="M557.1,123.2c13,4.5,30.5,7.4,49.2,8.1c18.8,0.7,36.7-0.9,50.6-4.4c14.9-3.8,23.4-9.4,24.1-15.8
					c0.3-2.7,1.2-3.7-0.3-8l-12.4-0.2c-9.3,6.3-37,10.1-60.7,9.2c-23.6-0.9-46.9-6.4-54.8-13.3c0,0-13.3-0.8-13.3-0.8
					c-3.5,2.7-2.7,5.4-2.9,7.8C536.1,112.2,543.2,118.4,557.1,123.2z M563.9,107.4c11.4,4.3,26.9,7.1,43.5,7.7
					c16.6,0.6,32.5-1,44.8-4.4c4.5-1.3,8.3-2.7,11.3-4.3c-2.4,3.2-7.7,6-15.5,8.2c-11,3.1-25.4,4.5-40.5,4
					c-15.2-0.6-29.1-3-39.4-6.9c-6.5-2.5-10.9-5.3-12.9-8.3C557.6,104.8,560.5,106.1,563.9,107.4z M562.7,115.1
					c11.6,4.4,27.4,7.2,44.3,7.8c16.9,0.6,33.1-1,45.7-4.5c7.1-2,12.6-4.5,16.2-7.4c-1.7,8.9-29.7,15.4-61.9,14.2
					c-31.5-1.2-57.5-9.3-58.3-18.1C551.8,110.1,556.5,112.8,562.7,115.1z"/>
			</g>
			<g>
				<path class="st5" d="M675.5,105.8c3,2.9,7.8,5.7,14.1,8.1c11.9,4.6,28.2,7.6,45.9,8.5c17.7,0.9,34.7-0.5,48-3.8
					c7.5-1.9,13.4-4.3,17.4-7.1c-2.3,8.9-32,14.9-65.5,13.2C702.6,123.2,675.9,114.6,675.5,105.8z"/>
				<path class="st5" d="M682.5,102c2.4,1.5,5.4,2.9,8.8,4.2c11.7,4.5,27.7,7.5,45.1,8.4c17.4,0.9,34.1-0.4,47.1-3.7
					c4.7-1.2,8.8-2.6,12.1-4.2c-2.7,3.1-8.4,5.9-16.6,7.9c-11.7,2.9-26.8,4.1-42.6,3.3c-15.8-0.8-30.3-3.5-40.8-7.5
					C688.9,107.9,684.5,105,682.5,102z"/>
				<path class="st8" d="M683.4,122c13.3,4.7,31.5,7.9,51,8.9c19.6,1,38.5-0.3,53.2-3.6c15.7-3.5,25-9,26.1-15.4
					c0.5-2.7-0.6-5.3-2.9-7.8l-17.1-0.9c-10.1,6.1-32.1,9.7-56.8,8.4c-24.6-1.2-45-6.9-53-14c0,0,0.1,0,0.1,0l-15.6-0.8
					c-3.2,2.3-5.1,4.8-5.5,7.4C661.8,110.6,669.1,116.9,683.4,122z M691.3,106.3c11.7,4.5,27.7,7.5,45.1,8.4
					c17.4,0.9,34.1-0.4,47.1-3.7c4.7-1.2,8.8-2.6,12.1-4.2c-2.7,3.1-8.4,5.9-16.6,7.9c-11.7,2.9-26.8,4.1-42.6,3.3
					c-15.8-0.8-30.3-3.5-40.8-7.5c-6.6-2.6-11.1-5.5-13.1-8.5C684.9,103.5,687.9,104.9,691.3,106.3z M689.7,114
					c11.9,4.6,28.2,7.6,45.9,8.5c17.7,0.9,34.7-0.5,48-3.8c7.5-1.9,13.4-4.3,17.4-7.1c-2.3,8.9-32,14.9-65.5,13.2
					c-32.9-1.7-59.6-10.3-59.9-19C678.5,108.7,683.3,111.5,689.7,114z"/>
			</g>
		</g>
	</g>
	<g>
		<g>
			<path class="st6" d="M249.6,622.6c2.8,2.9,7.3,5.6,13.1,7.9c11,4.4,26,7.2,42.1,7.9c16.1,0.6,31.6-0.9,43.6-4.5
				c6.8-2,12.1-4.5,15.6-7.3c-1.8,8.9-28.6,15.4-59.2,14.1C274.9,639.6,250.2,631.4,249.6,622.6z"/>
			<path class="st6" d="M255.9,618.8c2.3,1.4,5,2.8,8.2,4.1c10.8,4.4,25.5,7.1,41.3,7.7c15.8,0.6,31-0.9,42.8-4.4
				c4.3-1.3,7.9-2.7,10.9-4.3c-2.4,3.2-7.5,6-14.9,8.2c-10.5,3.1-24.3,4.5-38.7,3.9c-14.4-0.6-27.7-3-37.4-6.9
				C261.9,624.6,257.8,621.7,255.9,618.8z"/>
			<path class="st7" d="M257.3,638.7c12.3,4.5,28.9,7.4,46.8,8.1c17.9,0.7,35-0.8,48.3-4.3c14.2-3.8,22.5-9.3,23.3-15.7
				c0.3-2.7-0.7-5.3-2.9-7.8l-15.6-0.6c-9,6.3-29,10.2-51.5,9.3c-22.5-0.9-41.3-6.3-48.7-13.2c0,0,0.1,0,0.1,0l-14.2-0.6
				c-2.8,2.3-4.5,4.8-4.8,7.5C237.3,627.6,244.2,633.8,257.3,638.7z M264,622.8c10.8,4.4,25.5,7.1,41.3,7.7
				c15.8,0.6,31-0.9,42.8-4.4c4.3-1.3,7.9-2.7,10.9-4.3c-2.4,3.2-7.5,6-14.9,8.2c-10.5,3.1-24.3,4.5-38.7,3.9
				c-14.4-0.6-27.7-3-37.4-6.9c-6.1-2.5-10.3-5.3-12.2-8.3C258.1,620.2,260.9,621.6,264,622.8z M262.8,630.6c11,4.4,26,7.2,42.1,7.9
				c16.1,0.6,31.6-0.9,43.6-4.5c6.8-2,12.1-4.5,15.6-7.3c-1.8,8.9-28.6,15.4-59.2,14.1c-30-1.2-54.6-9.4-55.2-18.2
				C252.5,625.5,256.9,628.2,262.8,630.6z"/>
		</g>
		<g>
			<path class="st2" d="M313,643c2.9,2.9,7.3,5.5,13.2,7.9c11.1,4.4,26,7.2,42.1,7.8c16.1,0.6,31.5-1,43.5-4.6
				c6.8-2,12-4.5,15.5-7.4c-1.7,8.9-28.4,15.5-58.9,14.3C338.4,659.9,313.7,651.8,313,643z"/>
			<path class="st2" d="M319.1,639.1c2.3,1.4,5,2.8,8.2,4.1c10.8,4.3,25.5,7,41.3,7.6c15.8,0.6,31-1,42.6-4.5
				c4.2-1.3,7.9-2.7,10.8-4.4c-2.3,3.2-7.4,6-14.7,8.2c-10.5,3.1-24.2,4.6-38.6,4c-14.4-0.5-27.7-3-37.4-6.8
				C325.3,644.9,321.1,642.1,319.1,639.1z"/>
			<path class="st3" d="M439.4,642.2c-5-0.7-9.2-1.9-12.6-3.6c-9,6.3-35.3,10.1-57.7,9.3c-22.5-0.8-44.6-6.3-52.1-13.2
				c0,0-12.6-0.7-12.6-0.7c-3.4,2.8-2.6,5.4-2.8,7.8c-0.5,6.4,6.2,12.5,19.4,17.4c12.3,4.5,29,7.3,46.8,8
				c17.8,0.7,34.9-0.9,48.2-4.5c14.1-3.8,22.3-9.4,23-15.8C439,645,439.5,643.9,439.4,642.2z M327.4,643.2c10.8,4.3,25.5,7,41.3,7.6
				c15.8,0.6,31-1,42.6-4.5c4.2-1.3,7.9-2.7,10.8-4.4c-2.3,3.2-7.4,6-14.7,8.2c-10.5,3.1-24.2,4.6-38.6,4c-14.4-0.5-27.7-3-37.4-6.8
				c-6.1-2.5-10.3-5.3-12.3-8.2C321.4,640.5,324.2,641.9,327.4,643.2z M368.3,661c-29.9-1.1-54.6-9.2-55.3-18
				c2.9,2.9,7.3,5.5,13.2,7.9c11.1,4.4,26,7.2,42.1,7.8c16.1,0.6,31.5-1,43.5-4.6c6.8-2,12-4.5,15.5-7.4
				C425.6,655.6,398.9,662.1,368.3,661z"/>
		</g>
		<g>
			<path class="st6" d="M477.2,618.5c-2.8-2.9-7.3-5.6-13.1-7.9c-11-4.4-26-7.2-42.1-7.9c-16.1-0.6-31.6,0.9-43.6,4.5
				c-6.8,2-12.1,4.5-15.6,7.3c1.8-8.9,28.6-15.4,59.2-14.1C452,601.5,476.6,609.7,477.2,618.5z"/>
			<path class="st6" d="M471,622.3c-2.3-1.4-5-2.8-8.2-4.1c-10.8-4.4-25.5-7.1-41.3-7.7c-15.8-0.6-31,0.9-42.8,4.4
				c-4.3,1.3-7.9,2.7-10.9,4.3c2.4-3.2,7.5-6,14.9-8.2c10.5-3.1,24.3-4.5,38.7-3.9c14.4,0.6,27.7,3,37.4,6.9
				C465,616.5,469.1,619.4,471,622.3z"/>
			<path class="st7" d="M469.6,602.4c-12.3-4.5-28.9-7.4-46.8-8.1c-17.9-0.7-35,0.8-48.3,4.3c-14.2,3.8-22.5,9.3-23.3,15.7
				c-0.3,2.7,0.7,5.3,2.9,7.8l15.6,0.6c9-6.3,29-10.2,51.5-9.3c22.5,0.9,41.3,6.3,48.7,13.2c0,0-0.1,0-0.1,0l14.2,0.6
				c2.8-2.3,4.5-4.8,4.8-7.5C489.5,613.5,482.7,607.3,469.6,602.4z M462.8,618.3c-10.8-4.4-25.5-7.1-41.3-7.7
				c-15.8-0.6-31,0.9-42.8,4.4c-4.3,1.3-7.9,2.7-10.9,4.3c2.4-3.2,7.5-6,14.9-8.2c10.5-3.1,24.3-4.5,38.7-3.9
				c14.4,0.6,27.7,3,37.4,6.9c6.1,2.5,10.3,5.3,12.2,8.3C468.7,620.9,466,619.5,462.8,618.3z M464.1,610.5c-11-4.4-26-7.2-42.1-7.9
				c-16.1-0.6-31.6,0.9-43.6,4.5c-6.8,2-12.1,4.5-15.6,7.3c1.8-8.9,28.6-15.4,59.2-14.1c30,1.2,54.6,9.4,55.2,18.2
				C474.4,615.6,470,612.9,464.1,610.5z"/>
		</g>
		<g>
			<path class="st6" d="M476.3,633.8c2.8,2.9,7.3,5.6,13.1,7.9c11,4.4,26,7.2,42.1,7.9c16.1,0.6,31.6-0.9,43.6-4.5
				c6.8-2,12.1-4.5,15.6-7.3c-1.8,8.9-28.6,15.4-59.2,14.1C501.5,650.8,476.9,642.6,476.3,633.8z"/>
			<path class="st6" d="M482.5,629.9c2.3,1.4,5,2.8,8.2,4.1c10.8,4.4,25.5,7.1,41.3,7.7c15.8,0.6,31-0.9,42.8-4.4
				c4.3-1.3,7.9-2.7,10.9-4.3c-2.4,3.2-7.5,6-14.9,8.2c-10.5,3.1-24.3,4.5-38.7,3.9c-14.4-0.6-27.7-3-37.4-6.9
				C488.6,635.7,484.4,632.9,482.5,629.9z"/>
			<path class="st7" d="M484,649.8c12.3,4.5,28.9,7.4,46.8,8.1c17.9,0.7,35-0.8,48.3-4.3c14.2-3.8,22.5-9.3,23.3-15.7
				c0.3-2.7-0.7-5.3-2.9-7.8l-15.6-0.6c-9,6.3-29,10.2-51.5,9.3c-22.5-0.9-41.3-6.3-48.7-13.2c0,0,0.1,0,0.1,0l-14.2-0.6
				c-2.8,2.3-4.5,4.8-4.8,7.5C464,638.8,470.8,645,484,649.8z M490.7,634c10.8,4.4,25.5,7.1,41.3,7.7c15.8,0.6,31-0.9,42.8-4.4
				c4.3-1.3,7.9-2.7,10.9-4.3c-2.4,3.2-7.5,6-14.9,8.2c-10.5,3.1-24.3,4.5-38.7,3.9c-14.4-0.6-27.7-3-37.4-6.9
				c-6.1-2.5-10.3-5.3-12.2-8.3C484.8,631.4,487.5,632.7,490.7,634z M489.4,641.7c11,4.4,26,7.2,42.1,7.9
				c16.1,0.6,31.6-0.9,43.6-4.5c6.8-2,12.1-4.5,15.6-7.3c-1.8,8.9-28.6,15.4-59.2,14.1c-30-1.2-54.6-9.4-55.2-18.2
				C479.1,636.7,483.5,639.4,489.4,641.7z"/>
		</g>
		<g>
			<path class="st5" d="M182.6,629c3.6,2.8,8.9,5.3,15.8,7.4c12.8,4,29.7,6.2,47.4,6.3c17.7,0,34.3-2.1,46.8-6.1
				c7.1-2.3,12.4-5,15.7-7.9c-0.4,9-28.5,16.4-62.1,16.4C213.2,645,184.8,637.8,182.6,629z"/>
			<path class="st5" d="M188.7,624.9c2.7,1.4,6,2.6,9.7,3.8c12.6,3.9,29.1,6.1,46.5,6.2c17.4,0,33.7-2.1,45.9-6
				c4.4-1.4,8.2-3,11.1-4.7c-2,3.3-7.1,6.3-14.8,8.7c-10.9,3.5-25.7,5.4-41.6,5.4c-15.9,0-30.8-2-42.1-5.5
				C196.3,630.5,191.3,627.8,188.7,624.9z"/>
			<path class="st8" d="M193.9,644.8c14.3,4.1,32.9,6.3,52.6,6.3c19.6,0,38.1-2.2,52-6.2c14.9-4.3,22.9-10.2,22.6-16.6
				c-0.1-2.7-1.7-5.3-4.6-7.7l-17.1,0c-8.7,6.6-29.8,11.2-54.6,11.2c-24.7,0-46.2-4.7-55.6-11.3c0,0,0.1,0,0.1-0.1l-15.6,0
				c-2.7,2.4-4,5-3.9,7.7C170.1,634.5,178.6,640.4,193.9,644.8z M198.3,628.7c12.6,3.9,29.1,6.1,46.5,6.2c17.4,0,33.7-2.1,45.9-6
				c4.4-1.4,8.2-3,11.1-4.7c-2,3.3-7.1,6.3-14.8,8.7c-10.9,3.5-25.7,5.4-41.6,5.4c-15.9,0-30.8-2-42.1-5.5
				c-7.1-2.2-12.2-4.9-14.8-7.8C191.4,626.3,194.6,627.5,198.3,628.7z M198.4,636.4c12.8,4,29.7,6.2,47.4,6.3
				c17.7,0,34.3-2.1,46.8-6.1c7.1-2.3,12.4-5,15.7-7.9c-0.4,9-28.5,16.4-62.1,16.4c-33-0.1-61.3-7.3-63.6-16.1
				C186.2,631.8,191.5,634.3,198.4,636.4z"/>
		</g>
		<g>
			<path class="st5" d="M403.2,638.5c3.6,2.8,8.9,5.3,15.8,7.4c12.8,4,29.7,6.2,47.4,6.3c17.7,0,34.3-2.1,46.8-6.1
				c7.1-2.3,12.4-5,15.7-7.9c-0.4,9-28.5,16.4-62.1,16.4C433.8,654.5,405.4,647.3,403.2,638.5z"/>
			<path class="st5" d="M409.3,634.4c2.7,1.4,6,2.6,9.7,3.8c12.6,3.9,29.1,6.1,46.5,6.2c17.4,0,33.7-2.1,45.9-6
				c4.4-1.4,8.2-3,11.1-4.7c-2,3.3-7.1,6.3-14.8,8.7c-10.9,3.5-25.7,5.4-41.6,5.4c-15.9,0-30.8-2-42.1-5.5
				C416.9,640,411.9,637.3,409.3,634.4z"/>
			<path class="st8" d="M414.5,654.3c14.3,4.1,32.9,6.3,52.6,6.3c19.6,0,38.1-2.2,52-6.2c14.9-4.3,22.9-10.2,22.6-16.6
				c-0.1-2.7-1.7-5.3-4.6-7.7l-17.1,0c-8.7,6.6-29.8,11.2-54.6,11.2c-24.7,0-46.2-4.7-55.6-11.3c0,0,0.1,0,0.1-0.1l-15.6,0
				c-2.7,2.4-4,5-3.9,7.7C390.6,644,399.2,649.9,414.5,654.3z M418.9,638.2c12.6,3.9,29.1,6.1,46.5,6.2c17.4,0,33.7-2.1,45.9-6
				c4.4-1.4,8.2-3,11.1-4.7c-2,3.3-7.1,6.3-14.8,8.7c-10.9,3.5-25.7,5.4-41.6,5.4c-15.9,0-30.8-2-42.1-5.5
				c-7.1-2.2-12.2-4.9-14.8-7.8C412,635.8,415.2,637,418.9,638.2z M419,646c12.8,4,29.7,6.2,47.4,6.3c17.7,0,34.3-2.1,46.8-6.1
				c7.1-2.3,12.4-5,15.7-7.9c-0.4,9-28.5,16.4-62.1,16.4c-33-0.1-61.3-7.3-63.6-16.1C406.8,641.3,412.1,643.8,419,646z"/>
		</g>
		<g>
			<path class="st2" d="M308.2,626.1c-3.2-2.9-8.1-5.6-14.6-8c-12.2-4.5-28.7-7.3-46.4-7.9c-17.7-0.7-34.7,0.9-47.7,4.5
				c-7.4,2-13.1,4.5-16.9,7.3c1.7-8.9,31-15.4,64.6-14.1C280.1,609.1,307.3,617.4,308.2,626.1z"/>
			<path class="st2" d="M301.4,630c-2.5-1.4-5.6-2.8-9.1-4.1c-12-4.4-28.1-7.1-45.5-7.8c-17.4-0.6-34,0.9-46.8,4.4
				c-4.7,1.3-8.6,2.7-11.8,4.3c2.5-3.2,8-6,16.1-8.2c11.5-3.1,26.5-4.5,42.4-3.9c15.9,0.6,30.5,3.1,41.2,7
				C294.6,624.2,299.3,627.1,301.4,630z"/>
			<path class="st3" d="M299.3,610.1c-13.6-4.5-31.9-7.4-51.5-8.2c-19.6-0.7-38.4,0.8-52.9,4.3c-15.5,3.8-24.4,9.3-25.1,15.7
				c-0.3,2.7-1.3,3.7,0.3,8l13,0.3c9.7-6.3,38.7-10,63.4-9.1c24.7,0.9,49.1,6.5,57.4,13.4c0,0,13.9,0.8,13.9,0.8
				c3.7-2.7,2.8-5.4,3-7.8C321.4,621.1,313.9,614.9,299.3,610.1z M292.4,625.9c-12-4.4-28.1-7.1-45.5-7.8c-17.4-0.6-34,0.9-46.8,4.4
				c-4.7,1.3-8.6,2.7-11.8,4.3c2.5-3.2,8-6,16.1-8.2c11.5-3.1,26.5-4.5,42.4-3.9c15.9,0.6,30.5,3.1,41.2,7
				c6.8,2.5,11.4,5.3,13.6,8.3C298.9,628.6,295.9,627.2,292.4,625.9z M293.5,618.2c-12.2-4.5-28.7-7.3-46.4-7.9
				c-17.7-0.7-34.7,0.9-47.7,4.5c-7.4,2-13.1,4.5-16.9,7.3c1.7-8.9,31-15.4,64.6-14.1c32.9,1.2,60.1,9.4,61,18.2
				C305,623.3,300.1,620.6,293.5,618.2z"/>
		</g>
		<g>
			<path class="st2" d="M526.8,626.5c-3-2.9-7.7-5.6-13.9-7.9c-11.6-4.4-27.4-7.2-44.3-7.8c-16.9-0.6-33.1,1-45.7,4.5
				c-7.1,2-12.6,4.5-16.2,7.4c1.7-8.9,29.7-15.4,61.9-14.2C500,609.6,526,617.7,526.8,626.5z"/>
			<path class="st2" d="M520.4,630.4c-2.4-1.4-5.3-2.8-8.6-4.1c-11.4-4.3-26.9-7.1-43.5-7.7c-16.6-0.6-32.5,1-44.8,4.4
				c-4.5,1.3-8.3,2.7-11.3,4.3c2.4-3.2,7.7-6,15.5-8.2c11-3.1,25.4-4.5,40.5-4c15.2,0.6,29.1,3,39.4,6.9
				C513.9,624.6,518.3,627.4,520.4,630.4z"/>
			<path class="st3" d="M518.4,610.5c-13-4.5-30.5-7.4-49.2-8.1c-18.8-0.7-36.7,0.9-50.6,4.4c-14.9,3.8-23.4,9.4-24.1,15.8
				c-0.3,2.7-1.2,3.7,0.3,8l12.4,0.2c9.3-6.3,37-10.1,60.7-9.2c23.6,0.9,46.9,6.4,54.8,13.3c0,0,13.3,0.8,13.3,0.8
				c3.5-2.7,2.7-5.4,2.9-7.8C539.5,621.5,532.3,615.3,518.4,610.5z M511.7,626.3c-11.4-4.3-26.9-7.1-43.5-7.7
				c-16.6-0.6-32.5,1-44.8,4.4c-4.5,1.3-8.3,2.7-11.3,4.3c2.4-3.2,7.7-6,15.5-8.2c11-3.1,25.4-4.5,40.5-4c15.2,0.6,29.1,3,39.4,6.9
				c6.5,2.5,10.9,5.3,12.9,8.3C517.9,629,515.1,627.6,511.7,626.3z M512.9,618.6c-11.6-4.4-27.4-7.2-44.3-7.8
				c-16.9-0.6-33.1,1-45.7,4.5c-7.1,2-12.6,4.5-16.2,7.4c1.7-8.9,29.7-15.4,61.9-14.2c31.5,1.2,57.5,9.3,58.3,18.1
				C523.8,623.6,519.1,621,512.9,618.6z"/>
		</g>
		<g>
			<path class="st5" d="M400,627.9c-3-2.9-7.8-5.7-14.1-8.1c-11.9-4.6-28.2-7.6-45.9-8.5c-17.7-0.9-34.7,0.5-48,3.8
				c-7.5,1.9-13.4,4.3-17.4,7.1c2.3-8.9,32-14.9,65.5-13.2C373,610.5,399.7,619.1,400,627.9z"/>
			<path class="st5" d="M393.1,631.7c-2.4-1.5-5.4-2.9-8.8-4.2c-11.7-4.5-27.7-7.5-45.1-8.4c-17.4-0.9-34.1,0.4-47.1,3.7
				c-4.7,1.2-8.8,2.6-12.1,4.2c2.7-3.1,8.4-5.9,16.6-7.9c11.7-2.9,26.8-4.1,42.6-3.3c15.8,0.8,30.3,3.5,40.8,7.5
				C386.6,625.8,391.1,628.7,393.1,631.7z"/>
			<path class="st8" d="M392.2,611.7c-13.3-4.7-31.5-7.9-51-8.9c-19.6-1-38.5,0.3-53.2,3.6c-15.7,3.5-25,9-26.1,15.4
				c-0.5,2.7,0.6,5.3,2.9,7.8l17.1,0.9c10.1-6.1,32.1-9.7,56.8-8.4c24.6,1.2,45,6.9,53,14c0,0-0.1,0-0.1,0l15.6,0.8
				c3.2-2.3,5.1-4.8,5.5-7.4C413.7,623.1,406.5,616.8,392.2,611.7z M384.3,627.5c-11.7-4.5-27.7-7.5-45.1-8.4
				c-17.4-0.9-34.1,0.4-47.1,3.7c-4.7,1.2-8.8,2.6-12.1,4.2c2.7-3.1,8.4-5.9,16.6-7.9c11.7-2.9,26.8-4.1,42.6-3.3
				c15.8,0.8,30.3,3.5,40.8,7.5c6.6,2.6,11.1,5.5,13.1,8.5C390.6,630.2,387.7,628.8,384.3,627.5z M385.9,619.8
				c-11.9-4.6-28.2-7.6-45.9-8.5c-17.7-0.9-34.7,0.5-48,3.8c-7.5,1.9-13.4,4.3-17.4,7.1c2.3-8.9,32-14.9,65.5-13.2
				c32.9,1.7,59.6,10.3,59.9,19C397,625,392.3,622.2,385.9,619.8z"/>
		</g>
		<g>
			<g>
				<path class="st6" d="M819.3,638.7c-2.8-2.9-7.3-5.6-13.1-7.9c-11-4.4-26-7.2-42.1-7.9c-16.1-0.6-31.6,0.9-43.6,4.5
					c-6.8,2-12.1,4.5-15.6,7.3c1.8-8.9,28.6-15.4,59.2-14.1C794.1,621.7,818.7,629.9,819.3,638.7z"/>
				<path class="st6" d="M813.1,642.5c-2.3-1.4-5-2.8-8.2-4.1c-10.8-4.4-25.5-7.1-41.3-7.7c-15.8-0.6-31,0.9-42.8,4.4
					c-4.3,1.3-7.9,2.7-10.9,4.3c2.4-3.2,7.5-6,14.9-8.2c10.5-3.1,24.3-4.5,38.7-3.9c14.4,0.6,27.7,3,37.4,6.9
					C807.1,636.8,811.2,639.6,813.1,642.5z"/>
				<path class="st7" d="M811.6,622.6c-12.3-4.5-28.9-7.4-46.8-8.1c-17.9-0.7-35,0.8-48.3,4.3c-14.2,3.8-22.5,9.3-23.3,15.7
					c-0.3,2.7,0.7,5.3,2.9,7.8l15.6,0.6c9-6.3,29-10.2,51.5-9.3c22.5,0.9,41.3,6.3,48.7,13.2c0,0-0.1,0-0.1,0l14.2,0.6
					c2.8-2.3,4.5-4.8,4.8-7.5C831.6,633.7,824.8,627.5,811.6,622.6z M804.9,638.5c-10.8-4.4-25.5-7.1-41.3-7.7
					c-15.8-0.6-31,0.9-42.8,4.4c-4.3,1.3-7.9,2.7-10.9,4.3c2.4-3.2,7.5-6,14.9-8.2c10.5-3.1,24.3-4.5,38.7-3.9
					c14.4,0.6,27.7,3,37.4,6.9c6.1,2.5,10.3,5.3,12.2,8.3C810.8,641.1,808.1,639.7,804.9,638.5z M806.2,630.7
					c-11-4.4-26-7.2-42.1-7.9c-16.1-0.6-31.6,0.9-43.6,4.5c-6.8,2-12.1,4.5-15.6,7.3c1.8-8.9,28.6-15.4,59.2-14.1
					c30,1.2,54.6,9.4,55.2,18.2C816.5,635.8,812.1,633.1,806.2,630.7z"/>
			</g>
			<g>
				<path class="st2" d="M756,618.3c-2.9-2.9-7.3-5.5-13.2-7.9c-11.1-4.4-26-7.2-42.1-7.8c-16.1-0.6-31.5,1-43.5,4.6
					c-6.8,2-12,4.5-15.5,7.4c1.7-8.9,28.4-15.5,58.9-14.3C730.6,601.4,755.3,609.5,756,618.3z"/>
				<path class="st2" d="M749.8,622.2c-2.3-1.4-5-2.8-8.2-4.1c-10.8-4.3-25.5-7-41.3-7.6c-15.8-0.6-31,1-42.6,4.5
					c-4.2,1.3-7.9,2.7-10.8,4.4c2.3-3.2,7.4-6,14.7-8.2c10.5-3.1,24.2-4.6,38.6-4c14.4,0.5,27.7,3,37.4,6.8
					C743.7,616.4,747.9,619.2,749.8,622.2z"/>
				<path class="st3" d="M629.6,619.1c5,0.7,9.3,1.9,12.6,3.6c9-6.3,35.3-10.1,57.7-9.3c22.5,0.8,44.6,6.3,52.1,13.2
					c0,0,12.6,0.7,12.6,0.7c3.4-2.8,2.6-5.4,2.8-7.8c0.5-6.4-6.2-12.5-19.4-17.4c-12.3-4.5-29-7.3-46.8-8
					c-17.8-0.7-34.9,0.9-48.2,4.5c-14.1,3.8-22.3,9.4-23,15.8C629.9,616.3,629.5,617.4,629.6,619.1z M741.6,618.1
					c-10.8-4.3-25.5-7-41.3-7.6c-15.8-0.6-31,1-42.6,4.5c-4.2,1.3-7.9,2.7-10.8,4.4c2.3-3.2,7.4-6,14.7-8.2
					c10.5-3.1,24.2-4.6,38.6-4c14.4,0.5,27.7,3,37.4,6.8c6.1,2.5,10.3,5.3,12.3,8.2C747.5,620.8,744.8,619.4,741.6,618.1z
					 M700.7,600.3c29.9,1.1,54.6,9.2,55.3,18c-2.9-2.9-7.3-5.5-13.2-7.9c-11.1-4.4-26-7.2-42.1-7.8c-16.1-0.6-31.5,1-43.5,4.6
					c-6.8,2-12,4.5-15.5,7.4C643.4,605.7,670.1,599.2,700.7,600.3z"/>
			</g>
			<g>
				<path class="st6" d="M591.7,642.8c2.8,2.9,7.3,5.6,13.1,7.9c11,4.4,26,7.2,42.1,7.9c16.1,0.6,31.6-0.9,43.6-4.5
					c6.8-2,12.1-4.5,15.6-7.3c-1.8,8.9-28.6,15.4-59.2,14.1C617,659.8,592.3,651.6,591.7,642.8z"/>
				<path class="st6" d="M598,639c2.3,1.4,5,2.8,8.2,4.1c10.8,4.4,25.5,7.1,41.3,7.7c15.8,0.6,31-0.9,42.8-4.4
					c4.3-1.3,7.9-2.7,10.9-4.3c-2.4,3.2-7.5,6-14.9,8.2c-10.5,3.1-24.3,4.5-38.7,3.9c-14.4-0.6-27.7-3-37.4-6.9
					C604,644.8,599.9,641.9,598,639z"/>
				<path class="st7" d="M599.4,658.9c12.3,4.5,28.9,7.4,46.8,8.1c17.9,0.7,35-0.8,48.3-4.3c14.2-3.8,22.5-9.3,23.3-15.7
					c0.3-2.7-0.7-5.3-2.9-7.8l-15.6-0.6c-9,6.3-29,10.2-51.5,9.3c-22.5-0.9-41.3-6.3-48.7-13.2c0,0,0.1,0,0.1,0L585,634
					c-2.8,2.3-4.5,4.8-4.8,7.5C579.4,647.8,586.3,654,599.4,658.9z M606.1,643.1c10.8,4.4,25.5,7.1,41.3,7.7
					c15.8,0.6,31-0.9,42.8-4.4c4.3-1.3,7.9-2.7,10.9-4.3c-2.4,3.2-7.5,6-14.9,8.2c-10.5,3.1-24.3,4.5-38.7,3.9
					c-14.4-0.6-27.7-3-37.4-6.9c-6.1-2.5-10.3-5.3-12.2-8.3C600.2,640.4,603,641.8,606.1,643.1z M604.9,650.8
					c11,4.4,26,7.2,42.1,7.9c16.1,0.6,31.6-0.9,43.6-4.5c6.8-2,12.1-4.5,15.6-7.3c-1.8,8.9-28.6,15.4-59.2,14.1
					c-30-1.2-54.6-9.4-55.2-18.2C594.6,645.7,599,648.4,604.9,650.8z"/>
			</g>
			<g>
				<path class="st6" d="M592.7,627.5c-2.8-2.9-7.3-5.6-13.1-7.9c-11-4.4-26-7.2-42.1-7.9c-16.1-0.6-31.6,0.9-43.6,4.5
					c-6.8,2-12.1,4.5-15.6,7.3c1.8-8.9,28.6-15.4,59.2-14.1C567.5,610.5,592.1,618.7,592.7,627.5z"/>
				<path class="st6" d="M586.5,631.4c-2.3-1.4-5-2.8-8.2-4.1c-10.8-4.4-25.5-7.1-41.3-7.7c-15.8-0.6-31,0.9-42.8,4.4
					c-4.3,1.3-7.9,2.7-10.9,4.3c2.4-3.2,7.5-6,14.9-8.2c10.5-3.1,24.3-4.5,38.7-3.9c14.4,0.6,27.7,3,37.4,6.9
					C580.4,625.6,584.5,628.4,586.5,631.4z"/>
				<path class="st7" d="M585,611.5c-12.3-4.5-28.9-7.4-46.8-8.1c-17.9-0.7-35,0.8-48.3,4.3c-14.2,3.8-22.5,9.3-23.3,15.7
					c-0.3,2.7,0.7,5.3,2.9,7.8l15.6,0.6c9-6.3,29-10.2,51.5-9.3c22.5,0.9,41.3,6.3,48.7,13.2c0,0-0.1,0-0.1,0l14.2,0.6
					c2.8-2.3,4.5-4.8,4.8-7.5C605,622.5,598.2,616.3,585,611.5z M578.3,627.3c-10.8-4.4-25.5-7.1-41.3-7.7
					c-15.8-0.6-31,0.9-42.8,4.4c-4.3,1.3-7.9,2.7-10.9,4.3c2.4-3.2,7.5-6,14.9-8.2c10.5-3.1,24.3-4.5,38.7-3.9
					c14.4,0.6,27.7,3,37.4,6.9c6.1,2.5,10.3,5.3,12.2,8.3C584.2,629.9,581.5,628.6,578.3,627.3z M579.5,619.6
					c-11-4.4-26-7.2-42.1-7.9c-16.1-0.6-31.6,0.9-43.6,4.5c-6.8,2-12.1,4.5-15.6,7.3c1.8-8.9,28.6-15.4,59.2-14.1
					c30,1.2,54.6,9.4,55.2,18.2C589.9,624.6,585.4,621.9,579.5,619.6z"/>
			</g>
			<g>
				<path class="st5" d="M886.4,632.3c-3.6-2.8-8.9-5.3-15.8-7.4c-12.8-4-29.7-6.2-47.4-6.3c-17.7,0-34.3,2.1-46.8,6.1
					c-7.1,2.3-12.4,5-15.7,7.9c0.4-9,28.5-16.4,62.1-16.4C855.8,616.3,884.1,623.6,886.4,632.3z"/>
				<path class="st5" d="M880.3,636.4c-2.7-1.4-6-2.6-9.7-3.8c-12.6-3.9-29.1-6.1-46.5-6.2c-17.4,0-33.7,2.1-45.9,6
					c-4.4,1.4-8.2,3-11.1,4.7c2-3.3,7.1-6.3,14.8-8.7c10.9-3.5,25.7-5.4,41.6-5.4c15.9,0,30.8,2,42.1,5.5
					C872.6,630.8,877.7,633.5,880.3,636.4z"/>
				<path class="st8" d="M875.1,616.6c-14.3-4.1-32.9-6.3-52.6-6.3c-19.6,0-38.1,2.2-52,6.2c-14.9,4.3-22.9,10.2-22.6,16.6
					c0.1,2.7,1.7,5.3,4.6,7.7l17.1,0c8.7-6.6,29.8-11.2,54.6-11.2c24.7,0,46.2,4.7,55.6,11.3c0,0-0.1,0-0.1,0.1l15.6,0
					c2.7-2.4,4-5,3.9-7.7C898.9,626.8,890.4,620.9,875.1,616.6z M870.6,632.6c-12.6-3.9-29.1-6.1-46.5-6.2c-17.4,0-33.7,2.1-45.9,6
					c-4.4,1.4-8.2,3-11.1,4.7c2-3.3,7.1-6.3,14.8-8.7c10.9-3.5,25.7-5.4,41.6-5.4c15.9,0,30.8,2,42.1,5.5c7.1,2.2,12.2,4.9,14.8,7.8
					C877.6,635,874.3,633.8,870.6,632.6z M870.6,624.9c-12.8-4-29.7-6.2-47.4-6.3c-17.7,0-34.3,2.1-46.8,6.1
					c-7.1,2.3-12.4,5-15.7,7.9c0.4-9,28.5-16.4,62.1-16.4c33,0.1,61.3,7.3,63.6,16.1C882.8,629.5,877.5,627,870.6,624.9z"/>
			</g>
			<g>
				<path class="st5" d="M665.8,622.8c-3.6-2.8-8.9-5.3-15.8-7.4c-12.8-4-29.7-6.2-47.4-6.3c-17.7,0-34.3,2.1-46.8,6.1
					c-7.1,2.3-12.4,5-15.7,7.9c0.4-9,28.5-16.4,62.1-16.4C635.2,606.8,663.6,614,665.8,622.8z"/>
				<path class="st5" d="M659.7,626.9c-2.7-1.4-6-2.6-9.7-3.8c-12.6-3.9-29.1-6.1-46.5-6.2c-17.4,0-33.7,2.1-45.9,6
					c-4.4,1.4-8.2,3-11.1,4.7c2-3.3,7.1-6.3,14.8-8.7c10.9-3.5,25.7-5.4,41.6-5.4c15.9,0,30.8,2,42.1,5.5
					C652.1,621.3,657.1,624,659.7,626.9z"/>
				<path class="st8" d="M654.5,607c-14.3-4.1-32.9-6.3-52.6-6.3c-19.6,0-38.1,2.2-52,6.2c-14.9,4.3-22.9,10.2-22.6,16.6
					c0.1,2.7,1.7,5.3,4.6,7.7l17.1,0c8.7-6.6,29.8-11.2,54.6-11.2c24.7,0,46.2,4.7,55.6,11.3c0,0-0.1,0-0.1,0.1l15.6,0
					c2.7-2.4,4-5,3.9-7.7C678.3,617.3,669.8,611.4,654.5,607z M650.1,623.1c-12.6-3.9-29.1-6.1-46.5-6.2c-17.4,0-33.7,2.1-45.9,6
					c-4.4,1.4-8.2,3-11.1,4.7c2-3.3,7.1-6.3,14.8-8.7c10.9-3.5,25.7-5.4,41.6-5.4c15.9,0,30.8,2,42.1,5.5c7.1,2.2,12.2,4.9,14.8,7.8
					C657,625.5,653.7,624.3,650.1,623.1z M650,615.3c-12.8-4-29.7-6.2-47.4-6.3c-17.7,0-34.3,2.1-46.8,6.1c-7.1,2.3-12.4,5-15.7,7.9
					c0.4-9,28.5-16.4,62.1-16.4c33,0.1,61.3,7.3,63.6,16.1C662.2,620,656.9,617.5,650,615.3z"/>
			</g>
			<g>
				<path class="st2" d="M760.8,635.2c3.2,2.9,8.1,5.6,14.6,8c12.2,4.5,28.7,7.3,46.4,7.9c17.7,0.7,34.7-0.9,47.7-4.5
					c7.4-2,13.1-4.5,16.9-7.3c-1.7,8.9-31,15.4-64.6,14.1C788.9,652.2,761.7,643.9,760.8,635.2z"/>
				<path class="st2" d="M767.5,631.3c2.5,1.4,5.6,2.8,9.1,4.1c12,4.4,28.1,7.1,45.5,7.8c17.4,0.6,34-0.9,46.8-4.4
					c4.7-1.3,8.6-2.7,11.8-4.3c-2.5,3.2-8,6-16.1,8.2c-11.5,3.1-26.5,4.5-42.4,3.9c-15.9-0.6-30.5-3.1-41.2-7
					C774.3,637.1,769.7,634.2,767.5,631.3z"/>
				<path class="st3" d="M769.7,651.2c13.6,4.5,31.9,7.4,51.5,8.2c19.6,0.7,38.4-0.8,52.9-4.3c15.5-3.8,24.4-9.3,25.1-15.7
					c0.3-2.7,1.3-3.7-0.3-8l-13-0.3c-9.7,6.3-38.7,10-63.4,9.1c-24.7-0.9-49.1-6.5-57.4-13.4c0,0-13.9-0.8-13.9-0.8
					c-3.7,2.7-2.8,5.4-3,7.8C747.6,640.2,755.1,646.4,769.7,651.2z M776.6,635.4c12,4.4,28.1,7.1,45.5,7.8c17.4,0.6,34-0.9,46.8-4.4
					c4.7-1.3,8.6-2.7,11.8-4.3c-2.5,3.2-8,6-16.1,8.2c-11.5,3.1-26.5,4.5-42.4,3.9c-15.9-0.6-30.5-3.1-41.2-7
					c-6.8-2.5-11.4-5.3-13.6-8.3C770.1,632.7,773.1,634.1,776.6,635.4z M775.4,643.1c12.2,4.5,28.7,7.3,46.4,7.9
					c17.7,0.7,34.7-0.9,47.7-4.5c7.4-2,13.1-4.5,16.9-7.3c-1.7,8.9-31,15.4-64.6,14.1c-32.9-1.2-60.1-9.4-61-18.2
					C764,638,768.9,640.7,775.4,643.1z"/>
			</g>
			<g>
				<path class="st2" d="M542.2,634.8c3,2.9,7.7,5.6,13.9,7.9c11.6,4.4,27.4,7.2,44.3,7.8c16.9,0.6,33.1-1,45.7-4.5
					c7.1-2,12.6-4.5,16.2-7.4c-1.7,8.9-29.7,15.4-61.9,14.2C568.9,651.7,543,643.6,542.2,634.8z"/>
				<path class="st2" d="M548.6,630.9c2.4,1.4,5.3,2.8,8.6,4.1c11.4,4.3,26.9,7.1,43.5,7.7c16.6,0.6,32.5-1,44.8-4.4
					c4.5-1.3,8.3-2.7,11.3-4.3c-2.4,3.2-7.7,6-15.5,8.2c-11,3.1-25.4,4.5-40.5,4c-15.2-0.6-29.1-3-39.4-6.9
					C555.1,636.7,550.7,633.9,548.6,630.9z"/>
				<path class="st3" d="M550.5,650.8c13,4.5,30.5,7.4,49.2,8.1c18.8,0.7,36.7-0.9,50.6-4.4c14.9-3.8,23.4-9.4,24.1-15.8
					c0.3-2.7,1.2-3.7-0.3-8l-12.4-0.2c-9.3,6.3-37,10.1-60.7,9.2c-23.6-0.9-46.9-6.4-54.8-13.3c0,0-13.3-0.8-13.3-0.8
					c-3.5,2.7-2.7,5.4-2.9,7.8C529.5,639.8,536.6,646,550.5,650.8z M557.3,635c11.4,4.3,26.9,7.1,43.5,7.7c16.6,0.6,32.5-1,44.8-4.4
					c4.5-1.3,8.3-2.7,11.3-4.3c-2.4,3.2-7.7,6-15.5,8.2c-11,3.1-25.4,4.5-40.5,4c-15.2-0.6-29.1-3-39.4-6.9
					c-6.5-2.5-10.9-5.3-12.9-8.3C551,632.3,553.9,633.7,557.3,635z M556.1,642.7c11.6,4.4,27.4,7.2,44.3,7.8
					c16.9,0.6,33.1-1,45.7-4.5c7.1-2,12.6-4.5,16.2-7.4c-1.7,8.9-29.7,15.4-61.9,14.2c-31.5-1.2-57.5-9.3-58.3-18.1
					C545.2,637.7,549.9,640.4,556.1,642.7z"/>
			</g>
			<g>
				<path class="st5" d="M668.9,633.4c3,2.9,7.8,5.7,14.1,8.1c11.9,4.6,28.2,7.6,45.9,8.5c17.7,0.9,34.7-0.5,48-3.8
					c7.5-1.9,13.4-4.3,17.4-7.1c-2.3,8.9-32,14.9-65.5,13.2C696,650.8,669.3,642.2,668.9,633.4z"/>
				<path class="st5" d="M675.9,629.6c2.4,1.5,5.4,2.9,8.8,4.2c11.7,4.5,27.7,7.5,45.1,8.4c17.4,0.9,34.1-0.4,47.1-3.7
					c4.7-1.2,8.8-2.6,12.1-4.2c-2.7,3.1-8.4,5.9-16.6,7.9c-11.7,2.9-26.8,4.1-42.6,3.3c-15.8-0.8-30.3-3.5-40.8-7.5
					C682.3,635.5,677.9,632.6,675.9,629.6z"/>
				<path class="st8" d="M676.8,649.6c13.3,4.7,31.5,7.9,51,8.9c19.6,1,38.5-0.3,53.2-3.6c15.7-3.5,25-9,26.1-15.4
					c0.5-2.7-0.6-5.3-2.9-7.8l-17.1-0.9c-10.1,6.1-32.1,9.7-56.8,8.4c-24.6-1.2-45-6.9-53-14c0,0,0.1,0,0.1,0l-15.6-0.8
					c-3.2,2.3-5.1,4.8-5.5,7.4C655.3,638.2,662.5,644.5,676.8,649.6z M684.7,633.8c11.7,4.5,27.7,7.5,45.1,8.4
					c17.4,0.9,34.1-0.4,47.1-3.7c4.7-1.2,8.8-2.6,12.1-4.2c-2.7,3.1-8.4,5.9-16.6,7.9c-11.7,2.9-26.8,4.1-42.6,3.3
					c-15.8-0.8-30.3-3.5-40.8-7.5c-6.6-2.6-11.1-5.5-13.1-8.5C678.3,631.1,681.3,632.5,684.7,633.8z M683.1,641.5
					c11.9,4.6,28.2,7.6,45.9,8.5c17.7,0.9,34.7-0.5,48-3.8c7.5-1.9,13.4-4.3,17.4-7.1c-2.3,8.9-32,14.9-65.5,13.2
					c-32.9-1.7-59.6-10.3-59.9-19C671.9,636.3,676.7,639.1,683.1,641.5z"/>
			</g>
		</g>
	</g>
</g>
</svg>
