<?xml version="1.0" encoding="UTF-8" standalone="no"?>
<!-- Created with Inkscape (http://www.inkscape.org/) -->

<svg
   xmlns:dc="http://purl.org/dc/elements/1.1/"
   xmlns:cc="http://creativecommons.org/ns#"
   xmlns:rdf="http://www.w3.org/1999/02/22-rdf-syntax-ns#"
   xmlns:svg="http://www.w3.org/2000/svg"
   xmlns="http://www.w3.org/2000/svg"
   xmlns:sodipodi="http://sodipodi.sourceforge.net/DTD/sodipodi-0.dtd"
   xmlns:inkscape="http://www.inkscape.org/namespaces/inkscape"
   id="svg5391"
   version="1.1"
   inkscape:version="0.91 r13725"
   width="1051.2"
   height="743.40002"
   viewBox="0 0 1051.2 743.40002"
   sodipodi:docname="moldura madeira.svg">
  <metadata
     id="metadata5397">
    <rdf:RDF>
      <cc:Work
         rdf:about="">
        <dc:format>image/svg+xml</dc:format>
        <dc:type
           rdf:resource="http://purl.org/dc/dcmitype/StillImage" />
        <dc:title></dc:title>
      </cc:Work>
    </rdf:RDF>
  </metadata>
  <defs
     id="defs5395" />
  <sodipodi:namedview
     pagecolor="#ffffff"
     bordercolor="#666666"
     borderopacity="1"
     objecttolerance="10"
     gridtolerance="10"
     guidetolerance="10"
     inkscape:pageopacity="0"
     inkscape:pageshadow="2"
     inkscape:window-width="1301"
     inkscape:window-height="744"
     id="namedview5393"
     showgrid="false"
     showguides="false"
     inkscape:zoom="0.64379276"
     inkscape:cx="310.02697"
     inkscape:cy="348.66102"
     inkscape:window-x="65"
     inkscape:window-y="24"
     inkscape:window-maximized="1"
     inkscape:current-layer="g5813" />
  <g
     inkscape:groupmode="layer"
     id="layer1"
     inkscape:label="Layer 1"
     sodipodi:insensitive="true" />
  <g
     inkscape:groupmode="layer"
     id="layer2"
     inkscape:label="Layer 2" />
  <g
     id="g5813"
     transform="matrix(1.33721,0,0,1.2082514,-58.244619,-124.93301)">
    <g
       id="g5906"
       transform="translate(13.939126,44.99504)">
      <path
         style="fill:none;fill-rule:evenodd;stroke:#502d16;stroke-width:0.78672248px;stroke-linecap:butt;stroke-linejoin:miter;stroke-opacity:1"
         d="m 212.39669,240.09424 c -9.7368,-35.83811 -23.32524,-65.25683 -39.66942,-90.08265 3.74374,43.94104 6.26285,87.80045 42.14876,133.8843"
         id="path5401"
         inkscape:connector-curvature="0"
         sodipodi:nodetypes="ccc" />
      <path
         style="fill:none;fill-rule:evenodd;stroke:#000000;stroke-width:0.78672248px;stroke-linecap:butt;stroke-linejoin:miter;stroke-opacity:1"
         d="m 190.08264,181.41655 c 3.88472,-4.10426 1.81391,-14.16406 1.6529,-22.31405 l 12.39669,-4.13223 c 9.20515,11.57025 17.17977,23.1405 19.83471,34.71075"
         id="path5403"
         inkscape:connector-curvature="0"
         sodipodi:nodetypes="cccc" />
      <path
         style="fill:none;fill-rule:evenodd;stroke:#502d16;stroke-width:0.78672248px;stroke-linecap:butt;stroke-linejoin:miter;stroke-opacity:1"
         d="m 215.70248,171.4992 c 2.24638,-7.67949 6.61032,-13.66492 -1.65289,-29.75207 6.7858,20.5633 31.74758,15.03946 21.4876,98.34711 11.46405,20.51303 20.02897,43.56281 14.04959,79.33884 38.06333,93.50718 31.3702,126.14558 14.87603,145.45455 5.98032,25.49903 -1.43044,45.41136 -3.30579,57.02479"
         id="path5407"
         inkscape:connector-curvature="0"
         sodipodi:nodetypes="cccccc" />
      <path
         style="fill:none;fill-rule:evenodd;stroke:#502d16;stroke-width:0.78672248px;stroke-linecap:butt;stroke-linejoin:miter;stroke-opacity:1"
         d="m 262.80992,509.51573 c 19.90739,-0.0651 86.36299,19.77887 129.55681,48.57034 42.04532,28.02592 105.95839,33.25182 140.69112,26.63627 41.26647,-0.53041 54.3044,-19.19266 57.02479,-19.00827"
         id="path5409"
         inkscape:connector-curvature="0"
         sodipodi:nodetypes="cscc" />
      <path
         style="fill:none;fill-rule:evenodd;stroke:#502d16;stroke-width:0.78672248px;stroke-linecap:butt;stroke-linejoin:miter;stroke-opacity:1"
         d="m 312.39669,520.25953 c 73.38897,-26.95447 108.20901,-3.16032 140.49587,23.96694 26.11807,24.66429 54.37408,32.22498 82.64463,39.66942"
         id="path5411"
         inkscape:connector-curvature="0"
         sodipodi:nodetypes="ccc" />
      <path
         style="fill:none;fill-rule:evenodd;stroke:#502d16;stroke-width:0.78672248px;stroke-linecap:butt;stroke-linejoin:miter;stroke-opacity:1"
         d="m 473.55372,584.72234 c -12.68553,9.92195 -51.35809,10.78889 -85.17306,-5.59922 -18.58951,-9.00923 -22.00307,-4.49712 -33.00876,-6.79748 l -60.33058,10.74381 c -42.80878,-0.20837 -59.7405,-16.34109 -74.38016,-33.8843 -12.51696,-26.87308 -10.97322,-42.49759 -13.22314,-61.15703 -4.2266,-32.52262 -20.74501,-54.81 -0.82645,-107.43801 23.85695,-33.54955 45.66592,-78.15097 37.19008,-80.99174 l 5.78513,19.00827"
         id="path5413"
         inkscape:connector-curvature="0"
         sodipodi:nodetypes="csccccccc" />
      <path
         style="fill:none;fill-rule:evenodd;stroke:#502d16;stroke-width:0.78672248px;stroke-linecap:butt;stroke-linejoin:miter;stroke-opacity:1"
         d="m 225.61983,430.17688 c -3.4428,-51.83887 32.50955,-57.93006 33.8843,-85.12396"
         id="path5415"
         inkscape:connector-curvature="0"
         sodipodi:nodetypes="cc" />
      <path
         style="fill:none;fill-rule:evenodd;stroke:#502d16;stroke-width:0.78672248px;stroke-linecap:butt;stroke-linejoin:miter;stroke-opacity:1"
         d="m 240.49587,538.44135 c -11.61216,-14.391 -23.55915,-27.10782 -33.05785,-52.06612"
         id="path5417"
         inkscape:connector-curvature="0"
         sodipodi:nodetypes="cc" />
      <path
         style="fill:none;fill-rule:evenodd;stroke:#502d16;stroke-width:0.78672248px;stroke-linecap:butt;stroke-linejoin:miter;stroke-opacity:1"
         d="m 264.46281,464.06118 c -3.58127,-23.38327 -7.16253,-30.33921 -10.7438,-41.32231"
         id="path5419"
         inkscape:connector-curvature="0"
         sodipodi:nodetypes="cc" />
      <path
         style="fill:none;fill-rule:evenodd;stroke:#502d16;stroke-width:0.78672248px;stroke-linecap:butt;stroke-linejoin:miter;stroke-opacity:1"
         d="M 228.09917,540.09424 216.52893,521.91242"
         id="path5421"
         inkscape:connector-curvature="0" />
      <path
         style="fill:none;fill-rule:evenodd;stroke:#502d16;stroke-width:0.78672248px;stroke-linecap:butt;stroke-linejoin:miter;stroke-opacity:1"
         d="m 308.26446,540.92069 c -10.94831,-4.61222 -18.80313,-6.13097 -23.14049,-4.13224"
         id="path5423"
         inkscape:connector-curvature="0"
         sodipodi:nodetypes="cc" />
      <path
         style="fill:none;fill-rule:evenodd;stroke:#502d16;stroke-width:0.78672248px;stroke-linecap:butt;stroke-linejoin:miter;stroke-opacity:1"
         d="M 242.97521,510.34217 224.79339,469.84631"
         id="path5425"
         inkscape:connector-curvature="0" />
      <path
         style="fill:none;fill-rule:evenodd;stroke:#502d16;stroke-width:0.78672248px;stroke-linecap:butt;stroke-linejoin:miter;stroke-opacity:1"
         d="M 197.52066,429.35044 C 182.72739,417.1875 171.65852,379.24292 188.42975,311.99507 175.00157,266.77511 180.7615,247.93882 184.29752,226.04465"
         id="path5429"
         inkscape:connector-curvature="0"
         sodipodi:nodetypes="ccc" />
      <path
         style="fill:none;fill-rule:evenodd;stroke:#502d16;stroke-width:0.78672248px;stroke-linecap:butt;stroke-linejoin:miter;stroke-opacity:1"
         d="M 210.7438,373.97854 187.60331,311.16862"
         id="path5431"
         inkscape:connector-curvature="0" />
      <path
         style="fill:none;fill-rule:evenodd;stroke:#502d16;stroke-width:0.78672248px;stroke-linecap:butt;stroke-linejoin:miter;stroke-opacity:1"
         d="m 416.52893,588.85457 c -65.99517,21.64255 -100.72429,7.06038 -132.23141,-5.78512"
         id="path5433"
         inkscape:connector-curvature="0"
         sodipodi:nodetypes="cc" />
      <path
         style="fill:none;fill-rule:evenodd;stroke:#502d16;stroke-width:0.78672248px;stroke-linecap:butt;stroke-linejoin:miter;stroke-opacity:1"
         d="m 414.04959,517.78019 c 37.38249,-19.76772 70.02529,-9.51743 100.82644,12.39669"
         id="path5435"
         inkscape:connector-curvature="0"
         sodipodi:nodetypes="cc" />
      <path
         style="fill:none;fill-rule:evenodd;stroke:#502d16;stroke-width:0.78672248px;stroke-linecap:butt;stroke-linejoin:miter;stroke-opacity:1"
         d="m 500.82645,521.08597 c 24.89473,-8.293 43.56569,2.08532 61.98347,13.22315"
         id="path5437"
         inkscape:connector-curvature="0"
         sodipodi:nodetypes="cc" />
      <path
         style="fill:none;fill-rule:evenodd;stroke:#502d16;stroke-width:0.78672248px;stroke-linecap:butt;stroke-linejoin:miter;stroke-opacity:1"
         d="m 544.6281,523.56531 c 13.29382,-13.08177 31.20099,-16.93685 48.76033,-21.4876 -14.8836,-50.52104 4.47062,-88.52756 11.57025,-97.52066 -15.86618,-20.66116 -22.28246,-41.32231 -27.27273,-61.98347 3.62169,-30.8319 9.1188,-57.44413 21.4876,-68.59504"
         id="path5439"
         inkscape:connector-curvature="0"
         sodipodi:nodetypes="ccccc" />
      <path
         style="fill:none;fill-rule:evenodd;stroke:#502d16;stroke-width:0.78672248px;stroke-linecap:butt;stroke-linejoin:miter;stroke-opacity:1"
         d="M 588.42975,452.49093 C 569.37653,427.2203 565.32016,387.2189 579.33885,346.70582"
         id="path5441"
         inkscape:connector-curvature="0"
         sodipodi:nodetypes="cc" />
      <path
         style="fill:none;fill-rule:evenodd;stroke:#502d16;stroke-width:0.78672248px;stroke-linecap:butt;stroke-linejoin:miter;stroke-opacity:1"
         d="m 543.80165,583.89589 c 27.2882,8.00757 54.66789,15.71781 99.17356,-32.2314 2.75598,-9.28474 30.75156,-38.96581 0.82644,-82.64463 23.40195,-22.85035 24.96131,-53.50162 -13.22314,-98.34711"
         id="path5443"
         inkscape:connector-curvature="0"
         sodipodi:nodetypes="cccc" />
      <path
         style="fill:none;fill-rule:evenodd;stroke:#502d16;stroke-width:0.78672248px;stroke-linecap:butt;stroke-linejoin:miter;stroke-opacity:1"
         d="m 656.19834,494.6397 c 4.20861,-13.70373 6.73409,-28.73584 10e-6,-44.62811"
         id="path5445"
         inkscape:connector-curvature="0"
         sodipodi:nodetypes="cc" />
      <path
         style="fill:none;fill-rule:evenodd;stroke:#502d16;stroke-width:0.78672248px;stroke-linecap:butt;stroke-linejoin:miter;stroke-opacity:1"
         d="M 628.92562,431.82978 C 617.80686,418.78265 611.69956,413.22631 604.95868,404.55705"
         id="path5447"
         inkscape:connector-curvature="0"
         sodipodi:nodetypes="cc" />
      <path
         style="fill:none;fill-rule:evenodd;stroke:#502d16;stroke-width:0.78672248px;stroke-linecap:butt;stroke-linejoin:miter;stroke-opacity:1"
         d="m 652.06612,401.25126 c 4.56028,-2.36009 8.2311,-43.00553 -3.30579,-71.07438 -6.91085,-18.81668 -17.89083,-36.27698 -31.40496,-52.89256"
         id="path5449"
         inkscape:connector-curvature="0"
         sodipodi:nodetypes="ccc" />
      <path
         style="fill:none;fill-rule:evenodd;stroke:#502d16;stroke-width:0.78672248px;stroke-linecap:butt;stroke-linejoin:miter;stroke-opacity:1"
         d="m 655.3719,361.58184 c 3.20003,-10.70097 6.10025,-20.79824 -3.20162,-45.47782 -1.9411,-5.1501 -4.09456,-8.4228 -2.5835,-18.98499 9.41205,-23.16847 10.17305,-37.84282 -6.61157,-54.54545"
         id="path5451"
         inkscape:connector-curvature="0"
         sodipodi:nodetypes="cscc" />
      <path
         style="fill:none;fill-rule:evenodd;stroke:#502d16;stroke-width:0.78672248px;stroke-linecap:butt;stroke-linejoin:miter;stroke-opacity:1"
         d="m 656.19835,327.69755 c 18.78128,-24.68722 4.18167,-54.07334 0.82644,-57.0248"
         id="path5453"
         inkscape:connector-curvature="0"
         sodipodi:nodetypes="cc" />
      <path
         style="fill:none;fill-rule:evenodd;stroke:#502d16;stroke-width:0.78672248px;stroke-linecap:butt;stroke-linejoin:miter;stroke-opacity:1"
         d="m 628.09917,292.16035 c 18.72637,-14.86203 31.86655,-72.22691 -23.96694,-117.35537"
         id="path5455"
         inkscape:connector-curvature="0"
         sodipodi:nodetypes="cc" />
      <path
         style="fill:none;fill-rule:evenodd;stroke:#502d16;stroke-width:0.78672248px;stroke-linecap:butt;stroke-linejoin:miter;stroke-opacity:1"
         d="m 595.86777,277.28433 c -34.05962,-41.51794 -25.75993,-73.26806 -17.35537,-89.25621 -31.00481,28.79556 -80.04154,2.65813 -86.77686,-3.30578 -2.69453,4.01747 -26.46364,10.085 -55.3719,1.65289 l -43.80166,-10.7438 c -31.06681,-3.77189 -33.02117,-10.77849 -46.28099,-16.52893 4.69091,1.64904 8.46944,3.75426 17.35537,3.30579 15.36313,-6.61157 25.10852,-13.22314 36.36364,-19.83471 21.91174,-8.4963 46.21465,-7.42789 70.24793,-7.43802 19.33855,1.07844 40.64391,1.31397 75.20662,-4.13223 7.43802,0.0459 14.87603,2.84965 22.31405,4.95868 32.19702,3.57955 62.37813,14.46947 57.85123,59.50413"
         id="path5457"
         inkscape:connector-curvature="0"
         sodipodi:nodetypes="cccccccccccc" />
      <path
         style="fill:none;fill-rule:evenodd;stroke:#502d16;stroke-width:0.78672248px;stroke-linecap:butt;stroke-linejoin:miter;stroke-opacity:1"
         d="m 451.23967,189.68102 c -20.43083,12.45541 -47.90509,12.58482 -85.95041,-5.78513 -22.68993,-15.12947 -51.16156,-15.39172 -89.2562,9.09091 2.78855,-4.53984 15.58399,-26.55699 47.93388,-46.28099 34.13651,-7.60616 52.80565,-4.90073 74.38017,-4.13223"
         id="path5459"
         inkscape:connector-curvature="0"
         sodipodi:nodetypes="ccccc" />
      <path
         style="fill:none;fill-rule:evenodd;stroke:#502d16;stroke-width:0.78672248px;stroke-linecap:butt;stroke-linejoin:miter;stroke-opacity:1"
         d="m 280.99174,183.89589 c -10.30162,4.79198 -21.38317,10.36388 -33.8843,17.35537 5.81458,-15.13679 17.37326,-27.40152 27.27273,-40.49586 -11.30975,0.39538 -22.88046,2.8784 -36.36364,20.66115 7.67909,-9.86571 9.17912,-18.70157 28.92562,-30.57851 l -42.97521,-8.26446 c 52.28375,-7.15702 81.02694,-3.44918 104.95868,2.47934"
         id="path5461"
         inkscape:connector-curvature="0"
         sodipodi:nodetypes="ccccccc" />
      <path
         style="fill:none;fill-rule:evenodd;stroke:#502d16;stroke-width:0.78672248px;stroke-linecap:butt;stroke-linejoin:miter;stroke-opacity:1"
         d="m 282.64463,138.44135 c 72.85824,-28.39227 133.29381,-11.73993 142.14876,-3.30579"
         id="path5463"
         inkscape:connector-curvature="0"
         sodipodi:nodetypes="cc" />
      <path
         style="fill:none;fill-rule:evenodd;stroke:#502d16;stroke-width:0.78672248px;stroke-linecap:butt;stroke-linejoin:miter;stroke-opacity:1"
         d="m 490.08264,184.72234 c -0.39403,5.85122 24.08239,-16.88333 58.67769,-43.80165 l 16.52893,-5.78513"
         id="path5465"
         inkscape:connector-curvature="0"
         sodipodi:nodetypes="ccc" />
      <path
         style="fill:none;fill-rule:evenodd;stroke:#502d16;stroke-width:0.78672248px;stroke-linecap:butt;stroke-linejoin:miter;stroke-opacity:1"
         d="m 436.36364,185.54878 c 20.24067,-6.88705 24.46143,-13.7741 32.2314,-20.66115 32.35643,-31.06339 49.54535,-24.22202 77.68595,-33.8843"
         id="path5467"
         inkscape:connector-curvature="0"
         sodipodi:nodetypes="ccc" />
      <path
         style="fill:none;fill-rule:evenodd;stroke:#502d16;stroke-width:0.78672248px;stroke-linecap:butt;stroke-linejoin:miter;stroke-opacity:1"
         d="m 392.56198,175.63143 c 28.35604,-10.41692 84.20122,-40.67934 79.33885,-40.49586"
         id="path5469"
         inkscape:connector-curvature="0"
         sodipodi:nodetypes="cc" />
      <path
         style="fill:none;fill-rule:evenodd;stroke:#502d16;stroke-width:0.78672248px;stroke-linecap:butt;stroke-linejoin:miter;stroke-opacity:1"
         d="M 223.96694,456.62316 212.39669,438.44135"
         id="path5471"
         inkscape:connector-curvature="0" />
      <path
         style="fill:none;fill-rule:evenodd;stroke:#502d16;stroke-width:0.78672248px;stroke-linecap:butt;stroke-linejoin:miter;stroke-opacity:1"
         d="m 218.14334,398.27156 6.68851,-20.48689"
         id="path5471-0"
         inkscape:connector-curvature="0"
         inkscape:transform-center-x="14.049587"
         inkscape:transform-center-y="4.9586779" />
      <path
         style="fill:none;fill-rule:evenodd;stroke:#502d16;stroke-width:0.78672248px;stroke-linecap:butt;stroke-linejoin:miter;stroke-opacity:1"
         d="m 237.39377,358.8548 9.50999,-19.33931"
         id="path5471-9"
         inkscape:connector-curvature="0" />
      <path
         style="fill:none;fill-rule:evenodd;stroke:#502d16;stroke-width:0.78672248px;stroke-linecap:butt;stroke-linejoin:miter;stroke-opacity:1"
         d="m 256.20006,405.3867 -3.07403,-16.94212"
         id="path5471-6"
         inkscape:connector-curvature="0"
         inkscape:transform-center-x="21.532518"
         inkscape:transform-center-y="0.83145696" />
      <path
         style="fill:none;fill-rule:evenodd;stroke:#502d16;stroke-width:0.78672248px;stroke-linecap:butt;stroke-linejoin:miter;stroke-opacity:1"
         d="m 357.00753,516.68557 c 8.86925,-4.19281 30.52763,12.13751 38.87751,18.71816"
         id="path5471-68"
         inkscape:connector-curvature="0"
         sodipodi:nodetypes="cc" />
      <path
         style="fill:none;fill-rule:evenodd;stroke:#502d16;stroke-width:0.78672248px;stroke-linecap:butt;stroke-linejoin:miter;stroke-opacity:1"
         d="m 480.05655,535.88068 c 0,0 -22.76275,-16.44064 -32.01393,-13.88692"
         id="path5471-5"
         inkscape:connector-curvature="0"
         sodipodi:nodetypes="cc" />
      <path
         style="fill:none;fill-rule:evenodd;stroke:#502d16;stroke-width:0.78672248px;stroke-linecap:butt;stroke-linejoin:miter;stroke-opacity:1"
         d="m 604.13223,566.54052 c 18.96616,-11.06947 17.60414,-19.02855 22.31405,-28.09917"
         id="path5471-09"
         inkscape:connector-curvature="0"
         sodipodi:nodetypes="cc" />
      <path
         style="fill:none;fill-rule:evenodd;stroke:#502d16;stroke-width:0.78672248px;stroke-linecap:butt;stroke-linejoin:miter;stroke-opacity:1"
         d="M 580.99174,551.66448 C 592.31008,544.50195 594.7628,537.33942 600,530.17689"
         id="path5471-65"
         inkscape:connector-curvature="0"
         sodipodi:nodetypes="cc" />
      <path
         style="fill:none;fill-rule:evenodd;stroke:#502d16;stroke-width:0.78672248px;stroke-linecap:butt;stroke-linejoin:miter;stroke-opacity:1"
         d="m 545.45455,568.19341 c -25.8169,-2.55801 -21.22591,-5.4046 -31.40497,-9.91734"
         id="path5471-7"
         inkscape:connector-curvature="0"
         sodipodi:nodetypes="cc" />
      <path
         style="fill:none;fill-rule:evenodd;stroke:#502d16;stroke-width:0.78672248px;stroke-linecap:butt;stroke-linejoin:miter;stroke-opacity:1"
         d="m 639.66942,410.34217 -9.09091,-22.31404"
         id="path5471-2"
         inkscape:connector-curvature="0"
         sodipodi:nodetypes="cc" />
      <path
         style="fill:none;fill-rule:evenodd;stroke:#502d16;stroke-width:0.78672248px;stroke-linecap:butt;stroke-linejoin:miter;stroke-opacity:1"
         d="M 646.281,369.01986 634.71075,333.48268"
         id="path5471-79"
         inkscape:connector-curvature="0"
         sodipodi:nodetypes="cc" />
      <path
         style="fill:none;fill-rule:evenodd;stroke:#502d16;stroke-width:0.78672248px;stroke-linecap:butt;stroke-linejoin:miter;stroke-opacity:1"
         d="m 598.34711,342.57358 0,-29.75206"
         id="path5471-50"
         inkscape:connector-curvature="0"
         sodipodi:nodetypes="cc" />
      <path
         style="fill:none;fill-rule:evenodd;stroke:#502d16;stroke-width:0.78672248px;stroke-linecap:butt;stroke-linejoin:miter;stroke-opacity:1"
         d="m 624.79339,308.68927 -10.7438,-18.18181"
         id="path5471-3"
         inkscape:connector-curvature="0"
         sodipodi:nodetypes="cc" />
      <path
         style="fill:none;fill-rule:evenodd;stroke:#502d16;stroke-width:0.78672248px;stroke-linecap:butt;stroke-linejoin:miter;stroke-opacity:1"
         d="m 626.44628,226.04465 c -1.77692,-16.66147 -7.01171,-16.29346 -10.7438,-25.61983"
         id="path5471-04"
         inkscape:connector-curvature="0"
         sodipodi:nodetypes="cc" />
      <path
         style="fill:none;fill-rule:evenodd;stroke:#502d16;stroke-width:0.78672248px;stroke-linecap:butt;stroke-linejoin:miter;stroke-opacity:1"
         d="m 596.69422,244.22647 c -2.47934,-5.02164 -4.95868,-4.32674 -7.43802,-21.4876"
         id="path5471-08"
         inkscape:connector-curvature="0"
         sodipodi:nodetypes="cc" />
      <path
         style="fill:none;fill-rule:evenodd;stroke:#502d16;stroke-width:0.78672248px;stroke-linecap:butt;stroke-linejoin:miter;stroke-opacity:1"
         d="m 580.16529,150.83803 c -7.275,-1.4308 -11.03256,-5.49968 -26.44629,-0.82644"
         id="path5471-4"
         inkscape:connector-curvature="0"
         sodipodi:nodetypes="cc" />
      <path
         style="fill:none;fill-rule:evenodd;stroke:#502d16;stroke-width:0.78672248px;stroke-linecap:butt;stroke-linejoin:miter;stroke-opacity:1"
         d="m 567.7686,174.80498 c -9.17923,-1.15349 -17.22159,-4.52768 -30.57852,2.47934"
         id="path5471-39"
         inkscape:connector-curvature="0"
         sodipodi:nodetypes="cc" />
      <path
         style="fill:none;fill-rule:evenodd;stroke:#502d16;stroke-width:0.78672248px;stroke-linecap:butt;stroke-linejoin:miter;stroke-opacity:1"
         d="m 490.49587,165.71407 -12.3967,9.91737"
         id="path5471-3-6"
         inkscape:connector-curvature="0"
         sodipodi:nodetypes="cc" />
      <path
         style="fill:none;fill-rule:evenodd;stroke:#502d16;stroke-width:0.78672248px;stroke-linecap:butt;stroke-linejoin:miter;stroke-opacity:1"
         d="m 511.98347,150.01159 -12.3967,8.26447"
         id="path5471-3-8"
         inkscape:connector-curvature="0"
         sodipodi:nodetypes="cc" />
      <path
         style="fill:none;fill-rule:evenodd;stroke:#502d16;stroke-width:0.78672248px;stroke-linecap:butt;stroke-linejoin:miter;stroke-opacity:1"
         d="m 453.30579,573.97854 c -9.6845,-1.48237 -18.94595,-4.65697 -26.44628,-14.87603"
         id="path5471-3-7"
         inkscape:connector-curvature="0"
         sodipodi:nodetypes="cc" />
      <path
         style="fill:none;fill-rule:evenodd;stroke:#502d16;stroke-width:0.78672248px;stroke-linecap:butt;stroke-linejoin:miter;stroke-opacity:1"
         d="m 358.26447,562.40828 -20.66116,-0.82644"
         id="path5471-3-1"
         inkscape:connector-curvature="0"
         sodipodi:nodetypes="cc" />
      <path
         style="fill:none;fill-rule:evenodd;stroke:#502d16;stroke-width:0.78672248px;stroke-linecap:butt;stroke-linejoin:miter;stroke-opacity:1"
         d="m 280.57851,572.32564 c -8.53995,-2.4367 -17.07989,-4.09428 -25.61983,-10.7438"
         id="path5471-3-5"
         inkscape:connector-curvature="0"
         sodipodi:nodetypes="cc" />
      <path
         style="fill:none;fill-rule:evenodd;stroke:#502d16;stroke-width:0.78672248px;stroke-linecap:butt;stroke-linejoin:miter;stroke-opacity:1"
         d="m 213.63636,321.91242 c -8.14993,-7.9508 -7.94181,-13.11558 -9.91735,-19.00826"
         id="path5471-3-17"
         inkscape:connector-curvature="0"
         sodipodi:nodetypes="cc" />
      <path
         style="fill:none;fill-rule:evenodd;stroke:#502d16;stroke-width:0.78672248px;stroke-linecap:butt;stroke-linejoin:miter;stroke-opacity:1"
         d="m 196.28099,290.50746 c -2.31875,-5.55534 -6.24648,-7.8927 -6.61157,-17.35536"
         id="path5471-3-52"
         inkscape:connector-curvature="0"
         sodipodi:nodetypes="cc" />
      <path
         style="fill:none;fill-rule:evenodd;stroke:#502d16;stroke-width:0.78672248px;stroke-linecap:butt;stroke-linejoin:miter;stroke-opacity:1"
         d="m 236.77686,273.97853 -4.13223,-19.00826"
         id="path5471-3-3"
         inkscape:connector-curvature="0"
         sodipodi:nodetypes="cc" />
      <path
         style="fill:none;fill-rule:evenodd;stroke:#502d16;stroke-width:0.78672248px;stroke-linecap:butt;stroke-linejoin:miter;stroke-opacity:1"
         d="m 233.47107,226.87109 -3.30578,-19.00826"
         id="path5471-3-4"
         inkscape:connector-curvature="0"
         sodipodi:nodetypes="cc" />
      <path
         style="fill:none;fill-rule:evenodd;stroke:#502d16;stroke-width:0.78672248px;stroke-linecap:butt;stroke-linejoin:miter;stroke-opacity:1"
         d="m 214.46281,202.07771 -5.78512,-17.35536"
         id="path5471-3-11"
         inkscape:connector-curvature="0"
         sodipodi:nodetypes="cc" />
      <path
         style="fill:none;fill-rule:evenodd;stroke:#502d16;stroke-width:0.78672248px;stroke-linecap:butt;stroke-linejoin:miter;stroke-opacity:1"
         d="m 200.41322,235.13556 -6.61157,-19.8347"
         id="path5471-3-42"
         inkscape:connector-curvature="0"
         sodipodi:nodetypes="cc" />
      <path
         style="fill:none;fill-rule:evenodd;stroke:#502d16;stroke-width:0.78672248px;stroke-linecap:butt;stroke-linejoin:miter;stroke-opacity:1"
         d="m 291.32231,148.35869 -16.52893,-3.30577"
         id="path5471-3-9"
         inkscape:connector-curvature="0"
         sodipodi:nodetypes="cc" />
      <path
         style="fill:none;fill-rule:evenodd;stroke:#502d16;stroke-width:0.78672248px;stroke-linecap:butt;stroke-linejoin:miter;stroke-opacity:1"
         d="m 344.21488,131.00333 c -10.94506,-3.50704 -16.24343,-1.36739 -20.66116,1.65289"
         id="path5471-3-2"
         inkscape:connector-curvature="0"
         sodipodi:nodetypes="cc" />
      <path
         style="fill:none;fill-rule:evenodd;stroke:#502d16;stroke-width:0.78672248px;stroke-linecap:butt;stroke-linejoin:miter;stroke-opacity:1"
         d="m 434.29752,168.19341 -13.22314,5.78514"
         id="path5471-3-93"
         inkscape:connector-curvature="0"
         sodipodi:nodetypes="cc" />
      <path
         style="fill:none;fill-rule:evenodd;stroke:#502d16;stroke-width:0.78672248px;stroke-linecap:butt;stroke-linejoin:miter;stroke-opacity:1"
         d="m 459.0909,154.14382 -12.39669,5.78513"
         id="path5471-3-118"
         inkscape:connector-curvature="0"
         sodipodi:nodetypes="cc" />
      <path
         style="fill:none;fill-rule:evenodd;stroke:#502d16;stroke-width:0.78672248px;stroke-linecap:butt;stroke-linejoin:miter;stroke-opacity:1"
         d="m 335.12396,152.49093 -16.52892,9.09092"
         id="path5471-3-24"
         inkscape:connector-curvature="0"
         sodipodi:nodetypes="cc" />
      <path
         style="fill:none;fill-rule:evenodd;stroke:#502d16;stroke-width:0.78672248px;stroke-linecap:butt;stroke-linejoin:miter;stroke-opacity:1"
         d="m 390.49587,186.37523 c -13.71006,-4.13223 -17.28045,-6.61157 -23.1405,-10.7438"
         id="path5471-3-86"
         inkscape:connector-curvature="0"
         sodipodi:nodetypes="cc" />
      <path
         style="fill:none;fill-rule:evenodd;stroke:#502d16;stroke-width:0.78672248px;stroke-linecap:butt;stroke-linejoin:miter;stroke-opacity:1"
         d="m 392.9752,132.65622 c -8.91857,-4.07961 -16.34971,-4.82387 -23.14049,-4.13223"
         id="path5471-3-48"
         inkscape:connector-curvature="0"
         sodipodi:nodetypes="cc" />
      <path
         style="fill:none;fill-rule:evenodd;stroke:#502d16;stroke-width:0.78672248px;stroke-linecap:butt;stroke-linejoin:miter;stroke-opacity:1"
         d="m 628.09917,485.54878 17.35538,-18.18181"
         id="path5704"
         inkscape:connector-curvature="0" />
      <path
         style="fill:none;fill-rule:evenodd;stroke:#502d16;stroke-width:0.78672248px;stroke-linecap:butt;stroke-linejoin:miter;stroke-opacity:1"
         d="m 192.56198,388.02812 c -2.55685,-13.16207 -2.65458,-19.25623 -1.65288,-27.27273"
         id="path5421-2"
         inkscape:connector-curvature="0"
         sodipodi:nodetypes="cc" />
      <path
         style="fill:none;fill-rule:evenodd;stroke:#502d16;stroke-width:0.78672248px;stroke-linecap:butt;stroke-linejoin:miter;stroke-opacity:1"
         d="m 417.35537,150.0116 c -11.75686,3.0303 -15.06169,6.0606 -20.66115,9.0909"
         id="path5421-7"
         inkscape:connector-curvature="0"
         sodipodi:nodetypes="cc" />
      <path
         style="fill:none;fill-rule:evenodd;stroke:#502d16;stroke-width:0.78672248px;stroke-linecap:butt;stroke-linejoin:miter;stroke-opacity:1"
         d="m 371.07438,590.50747 c -15.46237,4.50311 -20.09914,0.88703 -27.27272,-0.82645"
         id="path5421-78"
         inkscape:connector-curvature="0"
         sodipodi:nodetypes="cc" />
      <path
         style="fill:none;fill-rule:evenodd;stroke:#502d16;stroke-width:0.78672248px;stroke-linecap:butt;stroke-linejoin:miter;stroke-opacity:1"
         d="m 619.83471,478.11077 10.74381,-22.31405"
         id="path5421-8"
         inkscape:connector-curvature="0"
         sodipodi:nodetypes="cc" />
      <path
         style="fill:none;fill-rule:evenodd;stroke:#502d16;stroke-width:0.78672248px;stroke-linecap:butt;stroke-linejoin:miter;stroke-opacity:1"
         d="m 588.42974,416.1273 c -5.67372,-10.7985 -7.54596,-20.32983 -6.61156,-28.92562"
         id="path5421-5"
         inkscape:connector-curvature="0"
         sodipodi:nodetypes="cc" />
      <path
         style="fill:none;fill-rule:evenodd;stroke:#502d16;stroke-width:0.78672248px;stroke-linecap:butt;stroke-linejoin:miter;stroke-opacity:1"
         d="m 642.97521,294.6397 c 4.86554,-10.37518 5.19473,-16.21401 5.78513,-22.31405"
         id="path5421-1"
         inkscape:connector-curvature="0"
         sodipodi:nodetypes="cc" />
      <path
         style="opacity:1;fill:#784421;stroke:#784421;stroke-width:0.78672248;stroke-opacity:1"
         d="m 428.70489,590.09455 c -10.66322,-1.22164 -24.75357,-5.26399 -38.03171,-10.91084 -21.6133,-9.19158 -26.85022,-9.37152 -66.29226,-2.27785 -18.22175,3.2772 -30.22694,5.04038 -34.29752,5.03721 -14.6237,-0.0114 -32.05608,-4.37526 -43.86603,-10.9811 -4.4933,-2.5133 -8.81393,-6.08276 -15.70679,-12.97606 -9.33372,-9.33431 -9.56658,-9.65905 -12.6724,-17.67261 -3.84997,-9.9336 -6.75905,-22.67609 -7.933,-34.74856 -1.27047,-13.06498 -1.21208,-13.17088 2.83478,-5.14156 4.76698,9.4581 11.12679,18.97113 19.94731,29.83724 6.27061,7.72484 8.57143,9.92195 8.57143,8.18507 0,-0.28998 -2.95214,-4.13776 -6.56031,-8.55062 -12.81593,-15.67411 -24.02703,-34.58276 -26.47289,-44.64918 -3.22985,-13.29312 -8.37772,-36.92001 -9.17725,-42.12029 -1.26947,-8.25688 -0.51823,-30.7801 1.29625,-38.8634 3.40188,-15.15496 5.99871,-21.3398 14.40051,-34.29752 13.34054,-20.57452 23.71181,-40.02109 28.58332,-53.59497 l 2.6249,-7.31398 1.43442,5.24786 c 0.78894,2.88632 3.68878,11.14116 6.4441,18.34407 4.96987,12.99215 5.00191,13.13094 4.0315,17.46719 -1.21217,5.41651 -4.96324,11.72424 -12.75236,21.44413 -15.35388,19.1598 -19.37253,28.76987 -20.15547,48.19908 -0.31641,7.85197 -0.17692,10.95042 0.49299,10.95042 0.62193,0 0.93425,-2.36453 0.93425,-7.0731 0,-13.64503 2.98442,-25.51818 8.92044,-35.48889 1.62367,-2.72727 6.57179,-9.55455 10.99583,-15.17172 8.03199,-10.19817 13.08529,-18.82119 13.20489,-22.533 0.19058,-5.91462 12.32517,35.80033 15.29539,52.58076 2.02622,11.44726 2.06947,31.88667 0.0831,39.25619 -1.63065,6.04971 -5.50292,14.777 -7.91978,17.84954 -1.8123,2.30398 -1.99044,2.05513 -3.01611,-4.21317 -1.45138,-8.87005 -7.92501,-31.23305 -9.55361,-33.00275 -1.74661,-1.89794 -1.34184,0.69084 1.358,8.68524 3.8851,11.50407 4.90717,15.5945 7.53341,30.1494 3.22368,17.86599 3.10835,31.09443 -0.41691,47.81908 -1.42927,6.78076 -2.39287,12.53445 -2.14134,12.78598 0.77672,0.77672 1.84754,-1.66008 2.42672,-5.52232 0.83936,-5.59727 1.11336,-5.95595 4.54975,-5.95595 7.0655,0 28.67466,5.41766 47.97514,12.02791 28.96241,9.91938 54.32085,21.86131 75.93817,35.76122 13.92573,8.95422 29.75675,15.9424 46.8309,20.67225 9.87561,2.73572 24.99179,5.91878 28.10798,5.91878 3.24138,0 2.25011,1.43014 -1.94881,2.81159 -8.58606,2.82482 -22.2266,3.59583 -35.90091,2.02923 z M 280.92812,572.20913 c 0,-0.35635 -3.56127,-1.7178 -7.91393,-3.02545 -4.35266,-1.30765 -9.97623,-3.6194 -12.49682,-5.13721 -4.6483,-2.79907 -6.03553,-3.28354 -6.03553,-2.10785 0,1.34262 8.93723,5.97877 16.1157,8.35996 7.66311,2.54195 10.33058,3.03528 10.33058,1.91055 z m 77.68595,-10.09589 c 0,-0.48507 -2.85412,-0.82645 -6.90945,-0.82645 -3.80019,0 -8.6349,-0.23651 -10.7438,-0.52555 -2.4856,-0.3407 -3.83436,-0.21666 -3.83436,0.35262 0,1.33371 2.05578,1.62546 12.19009,1.72995 5.71129,0.0589 9.29752,-0.22291 9.29752,-0.73057 z m -49.58678,-21.33477 c 0,-1.83223 -17.18426,-6.30478 -21.28099,-5.53881 -4.35046,0.81341 -3.08436,1.76483 2.47934,1.86313 3.21194,0.0568 7.35304,0.87311 10.95041,2.15875 6.29174,2.24856 7.85124,2.54987 7.85124,1.51693 z M 228.61994,539.534 c -1.03055,-2.68558 -11.39369,-17.91663 -12.19039,-17.91663 -1.05127,0 -1.17632,-0.23459 5.61676,10.53719 2.9382,4.65909 5.71351,8.47107 6.16735,8.47107 0.45385,0 0.63668,-0.49123 0.40628,-1.09163 z m 15.11809,-29.15638 c 0,-0.89505 -17.47579,-39.56749 -18.23751,-40.35805 -2.36257,-2.45204 -0.68099,2.11991 7.14898,19.43697 4.81228,10.643 8.94374,19.81579 9.18104,20.38397 0.43522,1.0421 1.90749,1.45666 1.90749,0.53711 z m -19.25032,-54.3147 c -1.03055,-2.68558 -11.39369,-17.91663 -12.1904,-17.91663 -1.05126,0 -1.17631,-0.23458 5.61677,10.53719 2.9382,4.65909 5.7135,8.47108 6.16735,8.47108 0.45385,0 0.63668,-0.49123 0.40628,-1.09164 z m 32.47515,-50.76787 c 0.003,-0.95837 -2.55852,-15.35771 -2.94922,-16.5813 -0.19061,-0.597 -0.67871,-0.88017 -1.08465,-0.62929 -0.42294,0.26139 -0.29415,2.84201 0.30165,6.04411 0.57184,3.07338 1.2901,6.9826 1.59613,8.68714 0.30602,1.70455 0.91146,3.09918 1.34541,3.09918 0.43395,0 0.78975,-0.27893 0.79068,-0.61984 z m -34.5606,-17.20002 c 1.70005,-5.41552 2.81254,-10.12487 2.4722,-10.46521 -0.34034,-0.34034 -2.05132,3.74614 -3.80217,9.08107 -1.75085,5.33492 -3.37699,10.21549 -3.61364,10.84569 -0.26779,0.7131 7.9e-4,1.00213 0.71116,0.76535 0.6278,-0.20926 2.5324,-4.81137 4.23245,-10.2269 z m 20.50296,-38.36578 c 5.33628,-10.6452 5.37917,-10.75651 4.14497,-10.75651 -1.03601,0 -10.84627,19.46313 -10.15746,20.15194 0.28007,0.28007 0.63032,0.50922 0.77833,0.50922 0.14801,0 2.50338,-4.45709 5.23416,-9.90465 z"
         id="path5760"
         inkscape:connector-curvature="0" />
      <path
         style="opacity:1;fill:#784421;stroke:#784421;stroke-width:0.78672248;stroke-opacity:1"
         d="m 200.13929,342.51661 c -10.42143,-28.45549 -14.86027,-43.44467 -17.69187,-59.74222 -1.67078,-9.61639 -1.41351,-32.42939 0.49663,-44.03656 l 1.6027,-9.73904 2.65773,7.35126 c 3.38741,9.36961 8.08366,19.13128 13.9655,29.02885 7.1459,12.02466 14.46888,21.43593 14.46888,18.59497 0,-0.24938 -2.41838,-3.82139 -5.37418,-7.93782 -17.41072,-24.24719 -27.59835,-51.2323 -32.5568,-86.23686 -1.86004,-13.13115 -3.73552,-32.85173 -3.25997,-34.2784 0.77585,-2.32755 16.51375,27.70432 23.77418,45.36712 3.81744,9.28687 10.29649,28.18343 12.42054,36.22533 0.51024,1.93181 1.28527,3.51239 1.7223,3.51239 1.22306,0 1.05863,-0.76058 -2.98824,-13.82295 -3.97785,-12.83962 -11.34259,-32.07551 -15.35389,-40.10267 -2.20476,-4.41204 -2.30624,-5.02387 -1.41822,-8.55052 0.59586,-2.36638 0.76122,-6.54901 0.4386,-11.09412 l -0.51786,-7.29568 5.3875,-1.79285 c 3.89752,-1.29701 5.6811,-1.54919 6.44906,-0.91184 1.90933,1.58461 10.21767,13.61449 13.19665,19.10782 1.60223,2.95455 3.54212,7.32438 4.31087,9.71075 0.76875,2.38636 1.75638,4.33884 2.19472,4.33884 1.39209,0 -0.14958,-5.10672 -3.77658,-12.50974 -3.39453,-6.92854 -3.46373,-7.23145 -2.36015,-10.33058 0.62531,-1.75601 1.3913,-5.61009 1.7022,-8.56464 l 0.56529,-5.3719 3.95179,4.95868 c 7.26959,9.12181 10.44751,17.66093 12.22103,32.83811 1.04872,8.97468 0.63193,28.25263 -0.89347,41.32552 l -0.84263,7.22148 4.47869,9.30745 c 5.13903,10.67971 8.2436,20.03122 10.00681,30.14219 1.2487,7.16059 1.65455,26.08706 0.68522,31.95494 l -0.5291,3.20293 -1.51575,-4.85582 c -0.83367,-2.6707 -1.52123,-5.833 -1.52792,-7.02735 -0.0116,-2.06589 -2.06038,-4.73342 -2.95127,-3.84254 -0.2309,0.23091 0.0203,2.06542 0.55825,4.0767 0.86135,3.2205 0.75132,4.34323 -0.92209,9.40869 -2.83833,8.5917 -7.7487,19.44067 -13.82514,30.54522 -5.5939,10.22273 -15.41344,26.45697 -17.14024,28.33725 -0.76653,0.83467 -3.31669,-5.32222 -11.80977,-28.51239 z m 13.84668,-20.57371 c 0,-0.27549 -1.06475,-1.85607 -2.3661,-3.51239 -3.12218,-3.97379 -4.77525,-7.29972 -5.95314,-11.97756 -0.88202,-3.5028 -2.43728,-5.31249 -2.41562,-2.81079 0.0131,1.5165 2.20677,8.49445 3.36346,10.69917 2.41933,4.61138 7.3714,9.71809 7.3714,7.60157 z M 196.6306,290.22428 c 0,-0.44802 -1.30166,-3.26816 -2.89257,-6.26699 -1.67763,-3.16229 -2.89256,-6.63851 -2.89256,-8.27633 0,-1.55315 -0.42027,-2.82392 -0.93392,-2.82392 -0.61424,0 -0.79426,1.2392 -0.52589,3.62011 0.5905,5.23894 7.24494,17.86561 7.24494,13.74713 z m 38.82036,-26.5659 c -1.03679,-4.94074 -2.19965,-8.98316 -2.58413,-8.98316 -1.03697,0 -0.87329,1.70182 0.97454,10.13272 2.02603,9.24399 2.48144,10.57404 3.07288,8.9744 0.23198,-0.62744 -0.4265,-5.18323 -1.46329,-10.12396 z m -37.62488,-38.94103 c -3.29853,-9.97769 -3.41634,-10.24551 -4.17372,-9.48813 -0.43495,0.43495 4.91877,17.87862 6.13332,19.98381 0.25589,0.44354 0.59726,0.35391 0.78383,-0.2058 0.18179,-0.54535 -1.05276,-5.17579 -2.74343,-10.28988 z m 34.86549,-7.59582 c -0.90044,-5.25456 -1.9445,-9.55375 -2.32014,-9.55375 -0.96184,0 -0.85703,1.83934 0.58871,10.33058 1.47979,8.69127 1.79082,9.75203 2.6955,9.19291 0.3702,-0.2288 -0.0636,-4.71518 -0.96407,-9.96974 z m -20.40264,-24.22209 c -2.86956,-8.69216 -3.0097,-8.99957 -3.7604,-8.24887 -0.27433,0.27432 0.70543,4.14829 2.17722,8.60881 3.01932,9.1506 3.44484,10.09554 3.91326,8.69026 0.18174,-0.5452 -0.8668,-4.61779 -2.33008,-9.0502 z"
         id="path5762"
         inkscape:connector-curvature="0" />
      <path
         style="opacity:1;fill:#784421;stroke:#784421;stroke-width:0.78672248;stroke-opacity:1"
         d="m 193.03358,423.09044 c -1.18588,-1.55477 -3.25615,-5.25285 -4.60059,-8.21796 -8.90078,-19.63025 -9.78446,-50.53866 -2.49951,-87.42497 0.93772,-4.74796 1.96165,-9.08622 2.27541,-9.64057 0.31376,-0.55435 5.34143,11.96354 11.1726,27.81754 l 10.60214,28.82544 -2.11759,2.7763 c -4.23501,5.55239 -11.21736,31.72378 -11.2481,42.16037 -0.0183,6.2219 -0.9385,7.17275 -3.58436,3.70385 z m -0.0642,-37.40638 c -1.30245,-6.94265 -2.05377,-16.85196 -1.58204,-20.86571 0.32829,-2.79325 0.20374,-4.35801 -0.34689,-4.35801 -1.09162,0 -2.14803,8.8616 -1.54818,12.9867 1.67208,11.49846 2.43082,15.11248 3.17279,15.11248 0.51573,0 0.63404,-1.11789 0.30432,-2.87546 z"
         id="path5764"
         inkscape:connector-curvature="0" />
      <path
         style="opacity:1;fill:#784421;stroke:#784421;stroke-width:0.78672248;stroke-opacity:1"
         d="m 249.52316,197.91279 c 0,-2.3718 9.34656,-16.10046 20.94885,-30.77063 3.0251,-3.825 5.35065,-7.10408 5.16789,-7.28684 -0.18276,-0.18275 -3.23238,0.0711 -6.77693,0.56408 -6.79163,0.94463 -13.69595,3.65046 -18.32616,7.1821 -1.52631,1.16417 -2.94971,1.94207 -3.16312,1.72866 -0.78941,-0.78941 10.18514,-11.20289 15.64432,-14.84451 3.10399,-2.07055 5.3354,-3.93916 4.95868,-4.15245 -0.37671,-0.2133 -9.23866,-2.01987 -19.6932,-4.0146 l -19.00827,-3.6268 8.26447,-1.00553 c 4.54545,-0.55305 17.76006,-1.25701 29.36579,-1.56436 22.6624,-0.60015 32.95055,0.0443 49.37293,3.09296 l 9.31723,1.72963 -2.49535,1.35296 c -4.80845,2.60711 -17.05642,11.6669 -22.95667,16.98099 -6.33658,5.70708 -18.38906,18.6054 -18.38906,19.6796 0,0.35353 -0.59331,0.64279 -1.31848,0.64279 -0.72516,0 -7.67583,3.25413 -15.44593,7.2314 -16.49978,8.44573 -15.46699,7.97294 -15.46699,7.08055 z m 42.14876,-49.73604 c 0,-0.39235 -3.25413,-1.34356 -7.23141,-2.1138 -3.97727,-0.77025 -7.92623,-1.60397 -8.77546,-1.85272 -1.05062,-0.30773 -1.42592,-0.0978 -1.17438,0.65679 0.20971,0.62911 3.2026,1.70068 6.91596,2.47618 7.68053,1.604 10.26529,1.81388 10.26529,0.83355 z"
         id="path5766"
         inkscape:connector-curvature="0" />
      <path
         style="opacity:1;fill:#784421;stroke:#784421;stroke-width:0.78672248;stroke-opacity:1"
         d="m 325.55622,143.42127 c -7.20233,-1.79872 -22.8445,-4.24709 -31.40496,-4.91562 l -7.85124,-0.61314 7.02479,-2.39315 c 37.47395,-12.76633 79.90379,-15.49604 112.57849,-7.2427 6.51196,1.64487 18.39588,6.46347 17.68754,7.17181 -0.18345,0.18346 -3.81423,1.04577 -8.06838,1.91626 -4.25416,0.87048 -9.68835,2.24795 -12.07598,3.06105 -3.77041,1.28399 -5.72619,1.38768 -14.87603,0.78866 -17.97999,-1.17711 -45.99025,0.32051 -57.22911,3.05986 -0.68182,0.16618 -3.28512,-0.20868 -5.78512,-0.83303 z m 4.01304,-12.54495 c 3.01877,-1.04655 4.46874,-1.08787 8.98328,-0.25604 4.97549,0.91677 6.98283,0.78341 5.81321,-0.38622 -0.26082,-0.26082 -2.94547,-0.89753 -5.96589,-1.4149 -4.8561,-0.83182 -6.03016,-0.75302 -10.1444,0.68083 -2.559,0.89183 -4.82179,2.14565 -5.02842,2.78626 -0.27834,0.8629 0.0283,0.99284 1.18335,0.50141 0.85748,-0.36484 3.17897,-1.22494 5.15887,-1.91134 z m 63.75555,1.59713 c 0,-1.82444 -12.15996,-5.02076 -19.21487,-5.05076 -6.9929,-0.0297 -5.78442,1.32331 1.65289,1.85062 3.52273,0.24976 8.45041,1.18316 10.95041,2.07422 5.28609,1.8841 6.61157,2.10982 6.61157,1.12592 z"
         id="path5768"
         inkscape:connector-curvature="0" />
      <path
         style="opacity:1;fill:#784421;stroke:#784421;stroke-width:0.78672248;stroke-opacity:1"
         d="m 407.78762,196.84731 c -13.43459,-1.91456 -26.01366,-6.19617 -43.80165,-14.90902 -15.16866,-7.42986 -21.25301,-9.08979 -33.221,-9.06337 -13.76842,0.0304 -26.05905,3.51473 -42.28111,11.98648 -4.76288,2.48735 -8.74397,4.42995 -8.84686,4.31689 -0.10289,-0.11305 1.82959,-2.86992 4.2944,-6.12637 6.56505,-8.67359 21.95515,-23.07407 31.79802,-29.75334 9.13929,-6.20183 11.24904,-6.89755 28.42184,-9.37243 8.63575,-1.24455 31.72815,-1.82083 42.85708,-1.06951 l 9.79924,0.66155 -10.21246,5.91983 c -16.99768,9.85299 -21.50193,11.84877 -26.7414,11.84877 -2.5227,0 -6.62289,-0.71565 -9.11154,-1.59034 -7.33576,-2.57831 -5.41642,-0.17598 4.09246,5.12231 10.56826,5.88857 17.94674,8.46449 30.22571,10.55216 7.86201,1.3367 57.80705,13.09845 61.98347,14.59672 1.55208,0.5568 -5.44803,3.78706 -12.13555,5.60005 -5.79422,1.57081 -20.281,2.25433 -27.12065,1.27962 z m -16.9443,-10.56052 c -8.2e-4,-0.34091 -2.91548,-1.6487 -6.47622,-2.9062 -3.56074,-1.2575 -8.6255,-3.58188 -11.25501,-5.16529 -2.6295,-1.58341 -5.10777,-2.87892 -5.50724,-2.87892 -3.42691,0 5.28713,5.55219 14.23611,9.0706 6.16739,2.42479 9.00631,3.0176 9.00236,1.87981 z m -63.01438,-28.70803 c 7.04242,-3.7966 9.03179,-5.38288 6.75071,-5.38288 -1.3639,0 -16.45948,8.58212 -16.46053,9.35812 -0.001,1.06409 1.51011,0.44526 9.70982,-3.97524 z"
         id="path5770"
         inkscape:connector-curvature="0" />
      <path
         style="opacity:1;fill:#784421;stroke:#784421;stroke-width:0.78672248;stroke-opacity:1"
         d="m 380.14405,172.75391 c -7.98843,-1.67635 -17.51905,-5.21918 -21.94321,-8.15697 l -2.47933,-1.64637 4.60543,-0.005 c 5.46295,-0.006 13.04162,-3.4265 30.06537,-13.56764 16.99032,-10.12123 27.56421,-12.42967 61.19696,-13.36021 21.95961,-0.60757 21.51462,-1.32075 4.95868,7.94738 -24.57188,13.75551 -61.01059,30.59694 -65.96189,30.4866 -1.44823,-0.0323 -6.14714,-0.79608 -10.44201,-1.69734 z m 23.24127,-16.33632 c 3.33036,-1.76897 7.5428,-3.65672 9.36098,-4.195 1.81818,-0.53829 3.79423,-1.13378 4.39122,-1.32332 0.597,-0.18953 0.8691,-0.69466 0.60468,-1.1225 -1.06453,-1.72245 -21.1116,6.91046 -21.1116,9.09133 0,1.11498 0.13294,1.06675 6.75472,-2.45051 z"
         id="path5772"
         inkscape:connector-curvature="0" />
      <path
         style="opacity:1;fill:#784421;stroke:#784421;stroke-width:0.78672248;stroke-opacity:1"
         d="m 415.43225,180.43448 c -10.34091,-2.54739 -18.79284,-4.82956 -18.78207,-5.07148 0.0108,-0.24191 4.00871,-2.09456 8.8843,-4.11699 11.38317,-4.72183 47.70459,-23.03917 58.53586,-29.52037 l 8.34883,-4.99576 21.81646,-0.53804 c 11.99905,-0.29592 24.23381,-0.7152 27.18835,-0.93172 4.99677,-0.36618 4.73705,-0.25204 -3.719,1.63444 -20.84449,4.65026 -31.43295,10.57702 -50.82645,28.44948 -4.31818,3.97951 -9.8285,8.65225 -12.24515,10.38388 -3.95709,2.83542 -18.28831,9.66472 -19.79295,9.432 -0.33359,-0.0516 -9.06727,-2.17804 -19.40818,-4.72544 z m 12.8029,-8.59322 c 3.51886,-1.48678 6.40109,-3.154 6.40495,-3.70494 0.004,-0.62985 -2.47454,0.0604 -6.67778,1.8595 -3.67664,1.57367 -6.8378,2.86122 -7.02479,2.86122 -0.62567,0 -0.34876,1.65264 0.27984,1.67017 0.34091,0.01 3.49891,-1.19917 7.01778,-2.68595 z m 25.21273,-14.06346 c 5.41368,-2.43027 7.38714,-3.92903 5.17346,-3.92903 -1.51965,0 -12.40397,5.17347 -12.40397,5.89578 0,1.1286 0.85086,0.89716 7.23051,-1.96675 z"
         id="path5774"
         inkscape:connector-curvature="0" />
      <path
         style="opacity:1;fill:#784421;stroke:#784421;stroke-width:0.78672248;stroke-opacity:1"
         d="m 447.57745,188.11159 c -9.32413,-1.75147 -9.56419,-2.1104 -3.17674,-4.7499 7.2903,-3.01258 14.51808,-8.21348 25.92878,-18.65761 19.07062,-17.45518 28.14174,-21.96743 55.79797,-27.75556 7.81419,-1.63542 15.6241,-3.46345 17.35538,-4.06229 2.55895,-0.88513 4.22989,-0.89706 8.93288,-0.0638 10.5971,1.87759 10.8246,2.26934 2.85737,4.92007 -7.60611,2.53058 -5.07059,0.70096 -40.04745,28.89799 -18.95351,15.27961 -20.65864,16.51888 -23.76033,17.26879 -1.25,0.30222 -2.27273,0.89989 -2.27273,1.32817 0,3.31314 -28.71889,5.29659 -41.61513,2.87413 z m 37.06968,-16.56498 c 5.71111,-4.54806 7.74008,-6.89605 5.07551,-5.87356 -1.91132,0.73344 -12.10031,8.99526 -12.10031,9.81163 0,1.34221 1.33161,0.59572 7.0248,-3.93807 z m 21.63,-16.66478 c 5.67613,-3.69243 7.16448,-5.16529 5.21959,-5.16529 -1.22486,0 -12.38678,7.5565 -12.38678,8.38572 0,1.23974 1.00511,0.78812 7.16719,-3.22043 z"
         id="path5776"
         inkscape:connector-curvature="0" />
      <path
         style="opacity:1;fill:#784421;stroke:#784421;stroke-width:0.78672248;stroke-opacity:1"
         d="m 564.81241,588.22105 c -0.45454,-0.16534 -3.88091,-0.95834 -7.61415,-1.7622 -3.73324,-0.80387 -6.62004,-1.73286 -6.41512,-2.06443 0.20492,-0.33157 2.11145,-0.86361 4.23672,-1.18232 5.06894,-0.76014 17.08066,-4.98405 21.77603,-7.65753 6.06203,-3.45164 14.01632,-9.52076 13.52339,-10.31833 -0.25177,-0.40738 -1.12996,-0.25398 -1.95153,0.34088 -15.32057,11.09301 -25.45583,15.21374 -42.62097,17.32854 l -7.4954,0.92346 -13.9922,-3.92088 c -16.50007,-4.62362 -27.89261,-8.78026 -38.46923,-14.03576 -9.46765,-4.70444 -21.81467,-12.87265 -28.41555,-18.79839 -11.43759,-10.26774 -22.41847,-18.46849 -33.48883,-25.01016 l -7.6961,-4.54776 4.77547,-2.11194 c 14.67792,-6.49128 33.09289,-8.72684 47.56648,-5.77454 12.70315,2.59117 27.53785,9.03627 39.93333,17.34948 3.05817,2.05101 5.92342,3.72911 6.36721,3.72911 1.93435,0 0.36866,-1.51086 -5.56685,-5.3719 l -6.3524,-4.13224 4.09035,-0.95371 c 6.66182,-1.5533 17.49644,-1.31376 24.82592,0.54888 6.74222,1.7134 16.47155,6.00723 25.19064,11.11736 4.98073,2.91911 6.55776,3.47403 6.5479,2.304 -0.006,-0.67232 -2.07672,-1.94728 -11.50282,-7.08125 l -6.13614,-3.34208 3.45626,-3.06716 c 6.67184,-5.92075 20.93978,-12.00226 37.86047,-16.13751 3.11646,-0.76163 5.94305,-1.62891 6.2813,-1.92727 0.33825,-0.29837 -0.34945,-4.61698 -1.52822,-9.59692 -1.74567,-7.37494 -2.22317,-11.84253 -2.57431,-24.08568 -0.49255,-17.17354 0.65969,-26.57662 4.89263,-39.92742 2.41397,-7.61374 9.3284,-22.31405 10.49563,-22.31405 0.317,0 5.72888,5.76447 12.02642,12.80992 10.12734,11.3301 13.62979,14.64294 12.71196,12.02379 -0.15151,-0.43237 -5.28229,-6.3895 -11.40171,-13.23806 -6.11943,-6.84856 -13.31748,-15.5134 -15.99567,-19.25519 -8.50095,-11.87696 -16.66959,-30.35607 -21.58482,-48.82922 l -2.0482,-7.69783 1.57764,-11.08852 c 3.92079,-27.55763 8.64876,-42.7332 16.65052,-53.44389 2.17116,-2.90619 2.8394,-4.33885 2.0238,-4.33885 -0.66972,0 -1.44751,0.3719 -1.72844,0.82645 -0.96127,1.55537 -1.80586,0.81891 -6.43658,-5.61259 -18.60437,-25.83921 -23.41451,-53.22282 -13.34753,-75.98606 2.03958,-4.61184 2.05107,-6.23026 0.0336,-4.73576 -11.50291,8.52128 -18.68226,11.22102 -31.31827,11.77701 -14.96276,0.65838 -27.70355,-2.25576 -43.50853,-9.95151 l -8.62688,-4.2006 2.83466,-2.13285 c 1.55904,-1.17306 9.53205,-7.51604 17.71777,-14.09551 36.14897,-29.05557 34.07165,-27.56044 42.39679,-30.51469 7.66875,-2.72133 7.68851,-2.72362 14.87603,-1.72065 33.82726,4.72037 50.20854,17.81267 52.99744,42.35681 0.42984,3.78288 0.58005,8.38005 0.33381,10.21594 l -0.44772,3.33798 -9.29951,-9.36876 c -5.11473,-5.15282 -9.9191,-9.36876 -10.67635,-9.36876 -0.80801,0 2.66393,4.01191 8.40375,9.71074 14.27632,14.17437 23.28513,28.76361 27.43013,44.42149 4.0434,15.27406 3.42504,32.70357 -1.63727,46.1489 -1.82108,4.83675 -7.97827,14.64063 -9.51695,15.15352 -0.45077,0.15026 -3.04736,-2.69659 -5.77021,-6.32634 -2.72284,-3.62975 -5.43744,-6.60616 -6.03245,-6.61425 -1.31794,-0.0179 -0.96439,0.59657 4.03323,7.01007 2.12519,2.72727 6.15845,8.46375 8.96281,12.74774 14.26364,21.78935 21.90384,41.43558 24.12885,62.04565 1.53396,14.20894 -0.0693,40.53131 -2.4659,40.48606 -0.28562,-0.006 -1.72751,-2.20963 -3.20421,-4.89831 -1.4767,-2.68868 -5.56761,-8.69565 -9.09091,-13.34884 -8.38644,-11.07589 -8.22235,-10.88966 -9.28343,-10.53597 -0.50384,0.16795 1.17015,2.90308 3.71995,6.07807 15.69253,19.5401 24.1568,37.44987 24.99148,52.88015 0.41801,7.72763 -0.60253,14.84349 -2.71198,18.90944 -0.67166,1.29463 -1.2212,2.78021 -1.2212,3.30128 0,2.2694 -8.01639,12.49948 -17.68071,22.56317 -11.72491,12.20943 -13.1481,15.86008 -1.6987,4.3574 4.04881,-4.06766 7.58183,-7.39576 7.85116,-7.39576 0.26932,0 2.02293,2.69629 3.89691,5.99174 6.94934,12.22064 10.03157,26.24274 8.40189,38.22314 -1.16815,8.58753 -3.15331,14.39937 -8.89213,26.03306 -4.20811,8.53063 -5.46969,10.27692 -12.31657,17.04867 -13.508,13.35979 -27.67082,22.97911 -39.98734,27.15918 -6.01145,2.04021 -8.40854,2.3857 -18.0869,2.60683 -6.13637,0.14022 -11.52893,0.11964 -11.98348,-0.0457 z m -18.948,-20.22518 c -0.24777,-0.40092 -2.93333,-0.99482 -5.9679,-1.3198 -8.36276,-0.89558 -14.26353,-2.6671 -19.42354,-5.83131 -2.56851,-1.57507 -5.07884,-2.86376 -5.57851,-2.86376 -2.01974,0 -0.61136,1.39937 4.42709,4.39874 3.67507,2.18776 7.54572,3.63098 12.58886,4.69392 7.83327,1.651 14.68425,2.10377 13.954,0.92221 z m 64.54679,-4.51017 c 2.67935,-1.97242 6.23536,-5.17955 7.90226,-7.12694 4.19149,-4.89681 11.17112,-21.83081 7.31354,-17.74414 -0.40045,0.42424 -1.90635,3.62904 -3.34643,7.12177 -2.99992,7.27594 -7.04951,12.2695 -13.61989,16.7947 -4.2657,2.9379 -5.62708,4.54082 -3.85654,4.54082 0.40455,0 2.92772,-1.61379 5.60706,-3.58621 z m -22.82566,-16.01036 c 4.23973,-3.92524 13.17729,-15.55254 13.17729,-17.14296 0,-1.73308 -2.19578,0.42862 -5.67965,5.59148 -3.87536,5.74304 -12.53974,14.61913 -14.27043,14.61913 -0.44475,0 -0.57878,0.3719 -0.29786,0.82644 0.89972,1.45578 1.86835,0.92232 7.07065,-3.89409 z M 480.4002,535.91938 c 0.62985,-0.62984 -8.23651,-6.60504 -14.74276,-9.93542 -5.51956,-2.82531 -12.55804,-5.19304 -15.43722,-5.19304 -3.88152,0 -2.64922,1.40025 1.74534,1.98321 4.43335,0.58811 16.09159,6.09135 22.76421,10.74579 4.47316,3.12022 4.80799,3.2619 5.67043,2.39946 z m 145.60336,-68.53756 c 2.93578,-6.19318 5.33778,-11.39979 5.33778,-11.57025 0,-0.17044 -0.37771,-0.3099 -0.83936,-0.3099 -0.64949,0 -11.55733,21.56432 -11.55733,22.84833 0,0.16068 0.38725,0.29216 0.86056,0.29216 0.47331,0 3.26257,-5.06715 6.19835,-11.26034 z m 14.42869,-56.90795 c 0,-0.95192 -8.46417,-21.57516 -9.14107,-22.27248 -0.41181,-0.42425 -0.94337,-0.57672 -1.18124,-0.33884 -0.61024,0.61023 8.74632,23.01102 9.61144,23.01102 0.39098,0 0.71087,-0.17986 0.71087,-0.3997 z m 6.59265,-41.54245 c -0.0735,-2.41075 -11.51254,-35.31766 -12.37718,-35.60586 -0.70358,-0.23453 -0.91722,0.0879 -0.60221,0.90879 0.26852,0.69975 2.94947,8.93232 5.95768,18.29459 3.00822,9.36227 5.82299,17.02231 6.25505,17.02231 0.43207,0 0.77707,-0.27892 0.76666,-0.61983 z m -47.91496,-41.11571 c 0,-9.64187 -0.30527,-15.28925 -0.82645,-15.28925 -0.52118,0 -0.82645,5.64738 -0.82645,15.28925 0,9.64188 0.30527,15.28926 0.82645,15.28926 0.52118,0 0.82645,-5.64738 0.82645,-15.28926 z m 26.44628,-19.07236 c 0,-0.86881 -10.05006,-17.68897 -10.87311,-18.19764 -2.0976,-1.29638 -1.15094,0.98619 3.92902,9.47363 4.72416,7.89299 6.94409,10.68194 6.94409,8.72401 z m -28.09918,-64.41123 c 0,-0.23416 -1.10027,-2.37532 -2.44506,-4.75814 -1.34477,-2.38283 -2.84954,-6.37512 -3.34391,-8.87178 -0.49437,-2.49666 -1.07474,-5.37615 -1.2897,-6.39888 -0.21496,-1.02273 -0.7725,-1.85951 -1.23899,-1.85951 -1.76344,0 1.52515,13.42506 4.55509,18.59528 1.84545,3.149 3.76257,4.82689 3.76257,3.29303 z m 29.37171,-21.54399 c -0.86399,-5.76149 -2.54277,-9.8573 -6.78544,-16.55475 -3.47429,-5.48449 -5.2309,-7.31466 -5.2309,-5.44997 0,0.35951 1.8666,3.60965 4.14799,7.22254 4.10208,6.4962 5.29984,9.43966 6.29547,15.47092 0.28138,1.70455 0.8782,3.09918 1.32626,3.09918 0.49937,0 0.59482,-1.46598 0.24662,-3.78792 z m -84.74361,-46.73611 c 5.0778,-1.96932 12.86103,-2.41105 21.40437,-1.21477 3.56997,0.49988 5.11919,0.46634 4.76719,-0.10323 -0.82306,-1.33174 -13.40729,-2.9742 -18.34309,-2.3941 -5.08843,0.59805 -12.14528,3.13698 -12.61216,4.53763 -0.40406,1.21216 -0.52357,1.23278 4.78369,-0.82553 z m 38.38843,-25.434 c -1.52692,-1.46136 -9.82671,-3.38082 -14.61874,-3.38082 -5.55785,0 -12.19944,1.45566 -12.19944,2.6738 0,0.48017 0.94941,0.5981 2.27273,0.28228 5.40904,-1.29088 13.91188,-1.38689 17.56198,-0.19829 4.30837,1.40294 8.15715,1.74631 6.98347,0.62303 z"
         id="path5778"
         inkscape:connector-curvature="0" />
      <path
         style="opacity:1;fill:#784421;stroke:#784421;stroke-width:0.78672248;stroke-opacity:1"
         d="m 655.92825,353.02233 c -0.25553,-0.68182 -0.92962,-3.65703 -1.49799,-6.61157 -2.46205,-12.79842 -11.05065,-32.89094 -20.11781,-47.06449 l -4.46645,-6.98184 2.69626,-3.34874 c 6.7974,-8.44231 10.61278,-18.67889 12.11116,-32.49404 0.97745,-9.01215 1.05549,-9.25286 2.5586,-7.89256 0.85272,0.7717 2.93025,4.19775 4.61672,7.61344 2.97479,6.02497 3.06411,6.47046 2.99229,14.92482 -0.0665,7.82639 -0.39289,9.64094 -3.20294,17.80539 -4.07372,11.836 -4.17156,16.97684 -0.51119,26.8595 5.28047,14.25681 7.40216,26.36338 6.01066,34.29752 -0.3986,2.27273 -0.93378,3.57438 -1.18931,2.89257 z m -9.57469,-64.9245 c 2.50541,-7.46639 3.84251,-16.06724 2.49785,-16.06724 -0.47422,0 -1.12416,2.13843 -1.44433,4.75207 -0.5003,4.08415 -2.69261,11.65747 -4.93703,17.05491 -0.47772,1.14884 -0.34183,1.46227 0.51646,1.19121 0.64061,-0.20232 2.15578,-3.32124 3.36705,-6.93095 z"
         id="path5780"
         inkscape:connector-curvature="0" />
      <path
         style="opacity:1;fill:#784421;stroke:#784421;stroke-width:0.78672248;stroke-opacity:1"
         d="m 655.49117,323.23057 c -0.44739,-1.56908 -1.78727,-5.40748 -2.9775,-8.52978 -2.75994,-7.24003 -2.92944,-15.07707 -0.46244,-21.38034 0.9359,-2.39124 2.56885,-8.06672 3.62878,-12.61217 l 1.92715,-8.26447 2.14248,4.54546 c 6.71458,14.24559 6.1052,33.3913 -1.45865,45.82808 l -1.98639,3.26609 -0.81343,-2.85287 z"
         id="path5782"
         inkscape:connector-curvature="0" />
      <path
         style="opacity:1;fill:#784421;stroke:#784421;stroke-width:0.78672248;stroke-opacity:1"
         d="m 653.78137,485.79088 c -1.06708,-2.79543 -3.39146,-7.56498 -5.16529,-10.59899 -1.77383,-3.03402 -3.22515,-5.70768 -3.22515,-5.94147 0,-0.2338 1.4801,-2.13521 3.28912,-4.22537 1.80901,-2.09015 4.29465,-5.51609 5.52363,-7.61319 l 2.23451,-3.81291 1.13666,3.22409 c 1.96782,5.58166 2.25624,16.60168 0.66571,25.43532 -0.78734,4.37279 -1.67622,8.10006 -1.97529,8.28282 -0.29907,0.18276 -1.41683,-1.95487 -2.4839,-4.7503 z"
         id="path5784"
         inkscape:connector-curvature="0" />
      <path
         style="opacity:1;fill:#784421;stroke:#784421;stroke-width:0.78672248;stroke-opacity:1"
         d="m 585.47461,446.41076 c -14.1752,-22.359 -17.34838,-55.47325 -8.50696,-88.77582 l 1.73746,-6.54441 3.59963,11.08986 c 4.16885,12.84354 10.61722,26.43568 17.04741,35.93325 4.15911,6.14312 4.41393,6.78631 3.27424,8.26446 -4.70947,6.10805 -11.58329,24.89723 -13.73848,37.55332 l -1.05552,6.19834 -2.35778,-3.719 z m 3.71797,-30.06246 c 0,-0.17071 -0.94412,-2.44522 -2.09805,-5.05445 -2.76342,-6.24857 -4.48621,-13.76359 -4.5013,-19.63516 -0.008,-2.99583 -0.36002,-4.75207 -0.9533,-4.75207 -1.76454,0 -0.30065,13.80373 2.19111,20.66116 2.72485,7.49887 3.52414,9.09091 4.56417,9.09091 0.43855,0 0.79737,-0.13967 0.79737,-0.31039 z"
         id="path5786"
         inkscape:connector-curvature="0" />
      <path
         style="opacity:1;fill:#784421;stroke:#784421;stroke-width:0.78672248;stroke-opacity:1"
         d="m 481.34134,585.51291 c -9.07083,-0.79413 -26.96502,-3.89703 -36.89124,-6.39704 -20.32795,-5.11979 -35.10286,-11.46895 -53.67994,-23.06765 -20.1738,-12.59562 -40.02132,-22.2293 -64.33551,-31.22746 l -11.93148,-4.41559 9.84138,-3.13324 c 39.15598,-12.46625 71.61205,-10.10513 100.41128,7.30475 8.16468,4.93576 19.56756,13.50246 30.48868,22.90538 10.85828,9.34881 19.71214,15.12799 32.52863,21.23241 9.41953,4.48646 26.98769,10.66754 39.43597,13.87492 l 5.3719,1.3841 -7.02479,0.99105 c -6.35118,0.89601 -36.03833,1.2642 -44.21488,0.54837 z m -27.68595,-11.65882 c 0,-0.36071 -2.01626,-1.07875 -4.48057,-1.59565 -6.5664,-1.37731 -13.28007,-4.9687 -17.67995,-9.45763 -3.82555,-3.90298 -5.11221,-4.71646 -5.11221,-3.23216 0,1.39725 7.59103,8.37395 11.04932,10.15513 6.59716,3.39784 16.22341,5.84858 16.22341,4.13031 z M 394.15126,533.0919 c -1.59091,-1.37934 -6.53079,-4.94375 -10.97752,-7.92093 -11.3437,-7.59485 -20.14589,-11.0373 -25.06498,-9.80268 -3.10243,0.77865 -1.80104,1.5477 2.89887,1.71307 5.25782,0.185 15.16701,5.09753 25.70561,12.74369 7.97646,5.78723 12.7767,7.89554 7.43802,3.26685 z"
         id="path5788"
         inkscape:connector-curvature="0" />
      <path
         style="opacity:1;fill:#784421;stroke:#784421;stroke-width:0.78672248;stroke-opacity:1"
         d="m 341.51768,598.39899 c -13.50582,-1.20436 -35.734,-7.11095 -49.01931,-13.02567 l -3.71901,-1.65573 4.54545,-0.0936 c 2.5,-0.0515 17.44955,-2.40856 33.22122,-5.23795 27.75055,-4.97838 28.97191,-5.12556 37.85448,-4.56185 9.79086,0.62135 13.99658,1.72236 23.91601,6.26091 3.43637,1.57229 10.4217,4.26206 15.52293,5.97728 l 9.27496,3.11858 -7.72235,2.14231 c -12.01081,3.33199 -27.23108,6.17162 -38.10031,7.10832 -11.06492,0.95357 -14.76752,0.94889 -25.77407,-0.0326 z m 24.5344,-5.74949 c 5.15599,-1.14831 5.95676,-1.49076 5.44027,-2.32647 -0.24958,-0.40384 -2.57092,-0.22834 -5.21767,0.39447 -6.50686,1.53114 -10.4033,1.42851 -16.96076,-0.44676 -4.23345,-1.21065 -5.57589,-1.34105 -5.57589,-0.54162 0,1.33762 8.9802,3.63486 14.46281,3.69975 2.27273,0.0269 5.80579,-0.32381 7.85124,-0.77937 z"
         id="path5790"
         inkscape:connector-curvature="0" />
    </g>
  </g>
</svg>
