<?xml version="1.0" encoding="utf-8"?>
<!-- Generator: Adobe Illustrator 22.1.0, SVG Export Plug-In . SVG Version: 6.00 Build 0)  -->
<svg version="1.1"
	 id="svg3403" inkscape:version="0.91 r13725" sodipodi:docname="arvore seca pela metade.svg" xmlns:cc="http://creativecommons.org/ns#" xmlns:dc="http://purl.org/dc/elements/1.1/" xmlns:inkscape="http://www.inkscape.org/namespaces/inkscape" xmlns:rdf="http://www.w3.org/1999/02/22-rdf-syntax-ns#" xmlns:sodipodi="http://sodipodi.sourceforge.net/DTD/sodipodi-0.dtd" xmlns:svg="http://www.w3.org/2000/svg"
	 xmlns="http://www.w3.org/2000/svg" xmlns:xlink="http://www.w3.org/1999/xlink" x="0px" y="0px" viewBox="0 0 743.4 1051.2"
	 style="enable-background:new 0 0 743.4 1051.2;" xml:space="preserve">
<style type="text/css">
	.st0{fill:#4F220B;}
	.st1{fill:#331A0D;}
	.st2{fill:#696C2C;}
	.st3{fill:#7B6E24;}
	.st4{fill:none;}
	.st5{fill:#4A1C06;}
	.st6{fill:#645A22;}
	.st7{fill:#745C1C;}
	.st8{fill:#544A1C;}
	.st9{fill:#664E1E;}
	.st10{fill:#351305;}
	.st11{fill:#512B12;}
	.st12{fill:#878136;}
	.st13{fill:#9E9630;}
	.st14{fill:#41200B;}
</style>
<g>
	<polygon class="st0" points="458,566.5 481.3,594 481.3,601.4 454.5,569.5 	"/>
	<polygon class="st0" points="508.6,581 485.4,608.6 485.4,615.9 512.2,584 	"/>
	<polygon class="st0" points="517.3,536.3 490.4,568.2 490.4,620.7 480.6,620.7 480.6,512.2 490.4,512.2 490.4,560.8 513.7,533.3 	
		"/>
	<rect x="483.5" y="576.2" class="st1" width="1.4" height="44.9"/>
	<rect x="486.2" y="548" class="st1" width="1.4" height="73.9"/>
	<circle class="st2" cx="444.8" cy="555.7" r="22"/>
	<circle class="st3" cx="442.1" cy="551.9" r="17.2"/>
	<circle class="st2" cx="512.2" cy="586.1" r="15.2"/>
	<circle class="st3" cx="510.4" cy="583.4" r="11.9"/>
</g>
<sodipodi:namedview  bordercolor="#666666" borderopacity="1" gridtolerance="10" guidetolerance="10" id="namedview3405" inkscape:current-layer="svg3403" inkscape:cx="182.50299" inkscape:cy="560.49328" inkscape:guide-bbox="true" inkscape:pageopacity="0" inkscape:pageshadow="2" inkscape:window-height="744" inkscape:window-maximized="1" inkscape:window-width="1301" inkscape:window-x="65" inkscape:window-y="24" inkscape:zoom="0.91100744" objecttolerance="10" pagecolor="#ffffff" showgrid="false" showguides="false">
	<sodipodi:guide  id="guide5185" orientation="1,0" position="33.127543,470.60601"></sodipodi:guide>
</sodipodi:namedview>
<g id="layer1" inkscape:groupmode="layer" inkscape:label="Layer 1">
</g>
<g id="layer2" inkscape:groupmode="layer" inkscape:label="Layer 2">
</g>
<path id="path4459" inkscape:connector-curvature="0" class="st4" d="M0,0"/>
<path id="path4461" inkscape:connector-curvature="0" class="st4" d="M0,0"/>
<path id="path4465" inkscape:connector-curvature="0" class="st4" d="M0,0"/>
<path id="path4473" inkscape:connector-curvature="0" class="st4" d="M0,0"/>
<path id="path4479" inkscape:connector-curvature="0" class="st4" d="M0,0"/>
<path id="path5189" inkscape:connector-curvature="0" class="st4" d="M0,0"/>
<path id="path5191" inkscape:connector-curvature="0" class="st4" d="M0,0"/>
<path id="path6587" inkscape:connector-curvature="0" class="st4" d="M0,0"/>
<path id="path7355" inkscape:connector-curvature="0" class="st4" d="M0,0"/>
<path id="path7361" inkscape:connector-curvature="0" class="st4" d="M0,0"/>
<path id="path7363" inkscape:connector-curvature="0" class="st4" d="M0,0"/>
<path id="path7367" inkscape:connector-curvature="0" class="st4" d="M0,0"/>
<path id="path7383" inkscape:connector-curvature="0" class="st4" d="M0,0"/>
<path id="path7481" inkscape:connector-curvature="0" class="st4" d="M0,0"/>
<path id="path7483" inkscape:connector-curvature="0" class="st4" d="M0,0"/>
<path id="path7497" inkscape:connector-curvature="0" class="st4" d="M0,0"/>
<g>
	<polygon class="st5" points="282,481.3 305.7,506.1 306.2,513.1 278.6,484.4 	"/>
	<polygon class="st5" points="342.8,449.1 303.9,487.8 304.7,478.2 338.4,444.7 	"/>
	<polygon class="st5" points="350.7,473.6 316.8,470.6 311.1,474.5 350.3,478.1 	"/>
	<polygon class="st5" points="308.6,475.1 308.6,524.7 299.2,524.7 299.2,422.4 308.6,422.4 308.6,468.2 	"/>
	<circle class="st6" cx="372.5" cy="406.4" r="54.8"/>
	<circle class="st7" cx="372.8" cy="398.3" r="51"/>
	<path class="st8" d="M410.1,353.4c0,41-33.3,74.3-74.3,74.3c-9.1,0-17.7-1.7-25.8-4.6c-12.9,10.5-29.2,16.8-47.1,16.8
		c-41,0-74.3-33.3-74.3-74.3c0-23.5,10.8-44.4,27.8-58c3.3-30,28.7-53.3,59.5-53.3c20.3,0,38.2,10.1,49,25.5
		c3.5-0.5,7.2-0.8,10.9-0.8C376.7,279.1,410.1,312.4,410.1,353.4z"/>
	<path class="st9" d="M389.8,348.8c0,36.8-29.8,66.7-66.7,66.7c-8.1,0-15.9-1.4-23.2-4.1c-11.5,9.4-26.2,15.1-42.2,15.1
		c-36.8,0-66.7-29.8-66.7-66.7c0-21,9.7-39.8,25-52c2.9-26.9,25.7-47.8,53.4-47.8c18.2,0,34.3,9,44,22.9c3.2-0.5,6.5-0.7,9.8-0.7
		C360,282.1,389.8,312,389.8,348.8z"/>
	
		<ellipse transform="matrix(0.3162 -0.9487 0.9487 0.3162 -152.0056 484.6865)" class="st8" cx="260.2" cy="347.8" rx="9.8" ry="9.8"/>
	<circle class="st8" cx="244.8" cy="296.5" r="9.8"/>
	<circle class="st8" cx="274.3" cy="283.1" r="9.8"/>
	<circle class="st8" cx="230.3" cy="326.3" r="9.8"/>
	<circle class="st8" cx="294.7" cy="288" r="4.9"/>
	<circle class="st6" cx="237.8" cy="350.6" r="4.9"/>
	<circle class="st6" cx="290.4" cy="360.4" r="4.9"/>
	<circle class="st8" cx="250.5" cy="274.2" r="4.9"/>
	<circle class="st8" cx="257.7" cy="318.8" r="4.9"/>
	<circle class="st6" cx="264.5" cy="383.1" r="4.9"/>
	<circle class="st6" cx="224.7" cy="390.4" r="4.9"/>
	<circle class="st6" cx="210.6" cy="338" r="4.9"/>
	<circle class="st6" cx="244.8" cy="373.3" r="9.8"/>
	<circle class="st6" cx="215.5" cy="360.4" r="9.8"/>
	<circle class="st6" cx="288.3" cy="383.1" r="9.8"/>
	<circle class="st6" cx="254.7" cy="405.4" r="9.8"/>
	<rect x="302" y="482.4" class="st10" width="1.4" height="42.3"/>
	<rect x="304.7" y="455.6" class="st10" width="1.4" height="69.7"/>
	<circle class="st6" cx="265.2" cy="472" r="26.5"/>
	<circle class="st7" cx="261.7" cy="467.6" r="20.8"/>
	
		<ellipse transform="matrix(0.8879 -0.4601 0.4601 0.8879 -181.5853 211.0418)" class="st6" cx="342.2" cy="478.1" rx="14.4" ry="14.4"/>
	
		<ellipse transform="matrix(0.8879 -0.4601 0.4601 0.8879 -181.1277 209.6081)" class="st7" cx="339.5" cy="476.4" rx="11.2" ry="11.2"/>
</g>
<g>
	<polygon class="st0" points="179.9,536.5 203.2,564.1 203.2,571.4 176.4,539.5 	"/>
	<polygon class="st0" points="230.5,551 207.3,578.6 207.3,585.9 234.1,554 	"/>
	<polygon class="st0" points="239.1,512.6 212.2,544.5 212.2,597 202.3,597 202.3,488.5 212.2,488.5 212.2,537.1 235.5,509.6 	"/>
	<circle class="st2" cx="257.7" cy="463.2" r="58.1"/>
	<circle class="st3" cx="257.7" cy="454.6" r="54.1"/>
	<path class="st2" d="M319.8,415.5c0,43.5-35.3,78.8-78.8,78.8c-9.6,0-18.8-1.8-27.3-4.9c-13.6,11.2-31,17.8-50,17.8
		c-43.5,0-78.8-35.3-78.8-78.8c0-24.9,11.5-47,29.5-61.4c3.5-31.8,30.4-56.5,63.1-56.5c21.5,0,40.5,10.7,51.9,27
		c3.7-0.6,7.6-0.9,11.6-0.9C284.5,336.7,319.8,372,319.8,415.5z"/>
	<path class="st3" d="M298.4,410.6c0,39-31.6,70.7-70.7,70.7c-8.6,0-16.9-1.5-24.5-4.4c-12.2,10-27.8,16-44.8,16
		c-39,0-70.7-31.6-70.7-70.7c0-22.3,10.3-42.1,26.5-55.1c3.1-28.5,27.2-50.7,56.6-50.7c19.3,0,36.3,9.6,46.6,24.2
		c3.3-0.5,6.9-0.7,10.4-0.7C266.8,339.9,298.4,371.6,298.4,410.6z"/>
	
		<ellipse transform="matrix(0.1602 -0.9871 0.9871 0.1602 -269.0362 502.9518)" class="st2" cx="161.1" cy="409.6" rx="10.4" ry="10.4"/>
	<circle class="st2" cx="144.7" cy="355.2" r="10.4"/>
	<circle class="st2" cx="175.9" cy="341" r="10.4"/>
	<circle class="st2" cx="129.3" cy="386.8" r="10.4"/>
	<circle class="st2" cx="197.6" cy="346.2" r="5.2"/>
	<circle class="st2" cx="137.3" cy="412.5" r="5.2"/>
	<circle class="st2" cx="193.1" cy="422.9" r="5.2"/>
	<circle class="st2" cx="150.7" cy="331.6" r="5.2"/>
	<circle class="st2" cx="158.3" cy="378.8" r="5.2"/>
	<circle class="st2" cx="165.5" cy="446.9" r="5.2"/>
	<circle class="st2" cx="123.5" cy="454.7" r="5.2"/>
	<circle class="st2" cx="108.4" cy="399.2" r="5.2"/>
	<circle class="st2" cx="144.7" cy="436.6" r="10.4"/>
	<circle class="st2" cx="113.6" cy="422.9" r="10.4"/>
	<circle class="st2" cx="190.8" cy="446.9" r="10.4"/>
	<circle class="st2" cx="155.2" cy="470.6" r="10.4"/>
	<rect x="205.4" y="552.1" class="st1" width="1.4" height="44.9"/>
	<rect x="208.1" y="523.8" class="st1" width="1.4" height="73.9"/>
	<circle class="st2" cx="166.7" cy="525.7" r="22"/>
	<circle class="st3" cx="164" cy="521.9" r="17.2"/>
	<circle class="st2" cx="234.1" cy="556.2" r="15.2"/>
	<circle class="st2" cx="232.3" cy="553.5" r="11.9"/>
</g>
<g>
	<circle class="st2" cx="503.2" cy="465" r="58.1"/>
	<circle class="st3" cx="503.2" cy="456.4" r="54.1"/>
	<path class="st2" d="M565.4,417.2c0,43.5-35.3,78.8-78.8,78.8c-9.6,0-18.8-1.8-27.3-4.9c-13.6,11.2-31,17.8-50,17.8
		c-43.5,0-78.8-35.3-78.8-78.8c0-24.9,11.5-47,29.5-61.4c3.5-31.8,30.4-56.5,63.1-56.5c21.5,0,40.5,10.7,51.9,27
		c3.7-0.6,7.6-0.9,11.6-0.9C530.1,338.4,565.4,373.7,565.4,417.2z"/>
	<path class="st3" d="M543.9,412.4c0,39-31.6,70.7-70.7,70.7c-8.6,0-16.9-1.5-24.5-4.4c-12.2,10-27.8,16-44.8,16
		c-39,0-70.7-31.6-70.7-70.7c0-22.3,10.3-42.1,26.5-55.1c3.1-28.5,27.2-50.7,56.6-50.7c19.3,0,36.3,9.6,46.6,24.2
		c3.3-0.5,6.9-0.7,10.4-0.7C512.3,341.7,543.9,373.3,543.9,412.4z"/>
	
		<ellipse transform="matrix(0.1602 -0.9871 0.9871 0.1602 -64.5669 746.7823)" class="st2" cx="406.6" cy="411.3" rx="10.4" ry="10.4"/>
	<circle class="st2" cx="390.3" cy="356.9" r="10.4"/>
	<circle class="st2" cx="421.4" cy="342.7" r="10.4"/>
	<circle class="st2" cx="374.8" cy="388.5" r="10.4"/>
	<circle class="st2" cx="443.2" cy="347.9" r="5.2"/>
	<circle class="st2" cx="382.8" cy="414.3" r="5.2"/>
	<circle class="st2" cx="438.6" cy="424.6" r="5.2"/>
	<circle class="st2" cx="396.2" cy="333.3" r="5.2"/>
	<circle class="st2" cx="403.9" cy="380.6" r="5.2"/>
	<circle class="st2" cx="411" cy="448.7" r="5.2"/>
	<circle class="st2" cx="369" cy="456.4" r="5.2"/>
	<circle class="st2" cx="353.9" cy="401" r="5.2"/>
	<circle class="st2" cx="390.3" cy="438.3" r="10.4"/>
	<circle class="st2" cx="359.1" cy="424.6" r="10.4"/>
	<circle class="st2" cx="436.3" cy="448.7" r="10.4"/>
	<circle class="st2" cx="400.7" cy="472.4" r="10.4"/>
</g>
<g>
	<polygon class="st11" points="573.3,541.4 543.4,576.9 543.4,635.6 532.3,635.6 532.3,514.5 543.4,514.5 543.4,568.8 569.3,538 	
		"/>
	<path class="st12" d="M597.6,556.7c-24,2.2-46.3-8.1-60.5-25.4c-6,2.4-12.6,4-19.4,4.6c-38.4,3.5-72.4-24.7-75.9-63.2
		c-3.3-35.8,21.1-67.8,55.5-74.8c6-16.6,21.2-29,39.9-30.8c25.8-2.3,48.8,16.7,51.1,42.5c0.2,2.6,0.2,5.2,0.1,7.7
		c36.9-1.5,68.8,26.2,72.3,63.4C664.2,519.2,635.9,553.2,597.6,556.7z"/>
	<path class="st13" d="M585.9,538.4c-21.2,2-40.9-7.1-53.5-22.5c-5.4,2.1-11.1,3.5-17.1,4.1c-34,3.1-64-21.9-67.1-55.8
		c-2.9-31.7,18.6-60,49.1-66.1c5.3-14.6,18.7-25.7,35.3-27.2c22.9-2.1,43.1,14.7,45.2,37.7c0.2,2.3,0.2,4.5,0.1,6.8
		c32.6-1.3,60.8,23.2,63.9,56C644.8,505.3,619.9,535.3,585.9,538.4z"/>
	<circle class="st12" cx="498.8" cy="468.2" r="10.2"/>
	<circle class="st12" cx="468.2" cy="454.7" r="10.2"/>
	<circle class="st12" cx="488.6" cy="429.6" r="10.2"/>
	
		<ellipse transform="matrix(0.1602 -0.9871 0.9871 0.1602 -67.5294 923.739)" class="st12" cx="509.1" cy="501.6" rx="10.2" ry="10.2"/>
	<circle class="st12" cx="534.8" cy="475.7" r="10.2"/>
	<circle class="st12" cx="539.6" cy="391.4" r="10.2"/>
	<circle class="st12" cx="519.3" cy="419.4" r="10.2"/>
	<circle class="st12" cx="478.4" cy="485.9" r="10.2"/>
	<circle class="st12" cx="468.2" cy="432.1" r="5.1"/>
	<circle class="st12" cx="514.6" cy="394.9" r="5.1"/>
	
		<ellipse transform="matrix(0.1602 -0.9871 0.9871 0.1602 -6.7191 872.0014)" class="st12" cx="509.1" cy="439.9" rx="5.1" ry="5.1"/>
	<circle class="st12" cx="514.6" cy="483.5" r="5.1"/>
	<circle class="st12" cx="534.8" cy="501.6" r="5.1"/>
</g>
<g>
	<polygon class="st11" points="333.4,627 359.7,654.4 360.2,662.2 329.7,630.4 	"/>
	<polygon class="st11" points="400.8,591.3 357.7,634.2 358.6,623.6 395.8,586.5 	"/>
	<polygon class="st11" points="409.4,618.5 371.9,615.2 365.6,619.5 409,623.4 	"/>
	<polygon class="st11" points="362.8,620.1 362.8,675 352.5,675 352.5,561.7 362.8,561.7 362.8,612.5 	"/>
	<circle class="st12" cx="433.6" cy="544.1" r="60.7"/>
	<circle class="st13" cx="433.9" cy="535.1" r="56.5"/>
	<path class="st12" d="M475.1,485.5c0,45.4-36.9,82.3-82.3,82.3c-10.1,0-19.6-1.8-28.5-5.1c-14.2,11.6-32.4,18.6-52.2,18.6
		c-45.4,0-82.3-36.9-82.3-82.3c0-26,12-49.1,30.8-64.1c3.7-33.2,31.8-59,65.9-59c22.5,0,42.3,11.1,54.2,28.2c3.9-0.6,8-0.9,12.1-0.9
		C438.3,403.2,475.1,440,475.1,485.5z"/>
	<path class="st13" d="M452.8,480.4c0,40.8-33,73.8-73.8,73.8c-9,0-17.6-1.6-25.6-4.6c-12.7,10.4-29,16.7-46.8,16.7
		c-40.8,0-73.8-33-73.8-73.8c0-23.3,10.7-44,27.6-57.6c3.2-29.8,28.5-52.9,59.2-52.9c20.1,0,37.9,10,48.7,25.3
		c3.5-0.5,7.2-0.7,10.8-0.7C419.7,406.5,452.8,439.6,452.8,480.4z"/>
	
		<ellipse transform="matrix(0.3162 -0.9487 0.9487 0.3162 -243.1146 621.1197)" class="st12" cx="309.3" cy="479.2" rx="10.8" ry="10.8"/>
	<circle class="st12" cx="292.3" cy="422.5" r="10.8"/>
	<circle class="st12" cx="324.9" cy="407.7" r="10.8"/>
	<circle class="st12" cx="276.2" cy="455.4" r="10.8"/>
	<circle class="st12" cx="347.5" cy="413.1" r="5.4"/>
	<circle class="st12" cx="284.5" cy="482.4" r="5.4"/>
	<circle class="st12" cx="342.8" cy="493.2" r="5.4"/>
	<circle class="st12" cx="298.5" cy="397.8" r="5.4"/>
	<circle class="st12" cx="306.5" cy="447.1" r="5.4"/>
	<circle class="st12" cx="314.1" cy="518.3" r="5.4"/>
	<circle class="st12" cx="270.1" cy="526.4" r="5.4"/>
	<circle class="st12" cx="254.4" cy="468.4" r="5.4"/>
	<circle class="st12" cx="292.3" cy="507.5" r="10.8"/>
	<circle class="st12" cx="259.8" cy="493.2" r="10.8"/>
	<circle class="st12" cx="340.4" cy="518.3" r="10.8"/>
	<circle class="st12" cx="303.2" cy="542.9" r="10.8"/>
	<rect x="355.6" y="628.1" class="st14" width="1.5" height="46.8"/>
	<rect x="358.5" y="598.5" class="st14" width="1.5" height="77.1"/>
	<circle class="st12" cx="314.8" cy="616.7" r="29.3"/>
	<circle class="st13" cx="310.9" cy="611.8" r="23"/>
	
		<ellipse transform="matrix(0.8879 -0.4601 0.4601 0.8879 -241.9626 253.9481)" class="st12" cx="400" cy="623.4" rx="15.9" ry="15.9"/>
	
		<ellipse transform="matrix(0.8879 -0.4601 0.4601 0.8879 -241.456 252.3613)" class="st13" cx="397" cy="621.6" rx="12.4" ry="12.4"/>
</g>
</svg>
