<?xml version="1.0" encoding="utf-8"?>
<!-- Generator: Adobe Illustrator 22.1.0, SVG Export Plug-In . SVG Version: 6.00 Build 0)  -->
<svg version="1.1"
	 id="svg3403" inkscape:version="0.91 r13725" sodipodi:docname="bosque coloridoJPG.svg" xmlns:cc="http://creativecommons.org/ns#" xmlns:dc="http://purl.org/dc/elements/1.1/" xmlns:inkscape="http://www.inkscape.org/namespaces/inkscape" xmlns:rdf="http://www.w3.org/1999/02/22-rdf-syntax-ns#" xmlns:sodipodi="http://sodipodi.sourceforge.net/DTD/sodipodi-0.dtd" xmlns:svg="http://www.w3.org/2000/svg"
	 xmlns="http://www.w3.org/2000/svg" xmlns:xlink="http://www.w3.org/1999/xlink" x="0px" y="0px" viewBox="0 0 743.4 1051.2"
	 style="enable-background:new 0 0 743.4 1051.2;" xml:space="preserve">
<style type="text/css">
	.st0{fill:none;}
	.st1{fill:none;stroke:#222B00;}
	.st2{fill:#3C1A07;}
	.st3{fill:#6C812B;}
	.st4{fill:#808323;}
	.st5{fill:#2D1406;}
	.st6{fill:#512B12;}
	.st7{fill:#779D3A;}
	.st8{fill:#8D9F2E;}
	.st9{fill:#41200B;}
	.st10{fill:#502D16;}
	.st11{fill:#89C93D;}
	.st12{fill:#A4CC2D;}
	.st13{fill:#331A0D;}
	.st14{fill:#80B847;}
	.st15{fill:#9ABB39;}
</style>
<sodipodi:namedview  bordercolor="#666666" borderopacity="1" gridtolerance="10" guidetolerance="10" id="namedview3405" inkscape:current-layer="svg3403" inkscape:cx="267.57727" inkscape:cy="510.18713" inkscape:guide-bbox="true" inkscape:pageopacity="0" inkscape:pageshadow="2" inkscape:window-height="744" inkscape:window-maximized="1" inkscape:window-width="1301" inkscape:window-x="65" inkscape:window-y="24" inkscape:zoom="0.78" objecttolerance="10" pagecolor="#ffffff" showgrid="false" showguides="true">
	<sodipodi:guide  id="guide5185" orientation="1,0" position="33.127543,470.60601"></sodipodi:guide>
</sodipodi:namedview>
<g id="layer1" inkscape:groupmode="layer" inkscape:label="Layer 1" sodipodi:insensitive="true">
</g>
<g id="layer2" inkscape:groupmode="layer" inkscape:label="Layer 2">
</g>
<path id="path4459" inkscape:connector-curvature="0" class="st0" d="M0,0"/>
<path id="path4461" inkscape:connector-curvature="0" class="st0" d="M0,0"/>
<path id="path4465" inkscape:connector-curvature="0" class="st0" d="M0,0"/>
<path id="path4473" inkscape:connector-curvature="0" class="st0" d="M0,0"/>
<path id="path4479" inkscape:connector-curvature="0" class="st0" d="M0,0"/>
<path id="path5189" inkscape:connector-curvature="0" class="st0" d="M0,0"/>
<path id="path5191" inkscape:connector-curvature="0" class="st0" d="M0,0"/>
<rect id="rect3986" x="23.4" y="187.5" class="st1" width="700" height="700"/>
<g>
	<g>
		<polygon class="st2" points="324.2,638.6 346.7,665.2 346.7,672.3 320.8,641.5 		"/>
		<polygon class="st2" points="373.1,652.6 350.6,679.3 350.6,686.3 376.5,655.5 		"/>
		<polygon class="st2" points="381.3,615.5 355.4,646.3 355.4,697 345.8,697 345.8,592.3 355.4,592.3 355.4,639.2 377.8,612.6 		"/>
		<circle class="st3" cx="399.3" cy="567.8" r="56.1"/>
		<circle class="st4" cx="399.3" cy="559.5" r="52.2"/>
		<path class="st3" d="M459.3,521.7c0,42-34.1,76.1-76.1,76.1c-9.3,0-18.2-1.7-26.4-4.7c-13.2,10.8-29.9,17.2-48.2,17.2
			c-42,0-76.1-34.1-76.1-76.1c0-24,11.1-45.4,28.5-59.3c3.4-30.7,29.4-54.6,60.9-54.6c20.8,0,39.1,10.3,50.2,26.1
			c3.6-0.5,7.4-0.8,11.2-0.8C425.2,445.6,459.3,479.7,459.3,521.7z"/>
		<path class="st4" d="M438.6,517c0,37.7-30.5,68.2-68.2,68.2c-8.3,0-16.3-1.5-23.7-4.2c-11.8,9.7-26.9,15.5-43.2,15.5
			c-37.7,0-68.2-30.5-68.2-68.2c0-21.5,9.9-40.7,25.5-53.2c3-27.5,26.3-48.9,54.7-48.9c18.6,0,35.1,9.2,45,23.4
			c3.2-0.5,6.6-0.7,10-0.7C408.1,448.8,438.6,479.3,438.6,517z"/>
		<ellipse transform="matrix(0.1602 -0.9871 0.9871 0.1602 -252.4083 735.4185)" class="st3" cx="306" cy="516" rx="10" ry="10"/>
		<circle class="st3" cx="290.2" cy="463.5" r="10"/>
		<circle class="st3" cx="320.3" cy="449.8" r="10"/>
		<circle class="st3" cx="275.3" cy="494" r="10"/>
		<circle class="st3" cx="341.3" cy="454.8" r="5"/>
		<circle class="st3" cx="283.1" cy="518.9" r="5"/>
		<circle class="st3" cx="336.9" cy="528.9" r="5"/>
		<circle class="st3" cx="296" cy="440.7" r="5"/>
		<circle class="st3" cx="303.4" cy="486.3" r="5"/>
		<circle class="st3" cx="310.3" cy="552.1" r="5"/>
		<circle class="st3" cx="269.7" cy="559.6" r="5"/>
		<circle class="st3" cx="255.1" cy="506" r="5"/>
		<circle class="st3" cx="290.2" cy="542.1" r="10"/>
		<circle class="st3" cx="260.1" cy="528.9" r="10"/>
		<circle class="st3" cx="334.7" cy="552.1" r="10"/>
		<circle class="st3" cx="300.3" cy="575" r="10"/>
		<rect x="348.8" y="653.7" class="st5" width="1.4" height="43.3"/>
		<rect x="351.5" y="626.4" class="st5" width="1.4" height="70.6"/>
		<circle class="st3" cx="311.4" cy="628.2" r="21.2"/>
		<circle class="st4" cx="308.8" cy="624.5" r="16.6"/>
		<circle class="st3" cx="376.5" cy="657.6" r="14.7"/>
		<circle class="st4" cx="374.8" cy="655" r="11.5"/>
	</g>
	<g>
		<polygon class="st6" points="455.4,668.5 477,691.1 477.4,697.4 452.4,671.3 		"/>
		<polygon class="st6" points="510.8,639.2 475.4,674.4 476.1,665.7 506.8,635.2 		"/>
		<polygon class="st6" points="517.9,661.5 487.1,658.8 481.9,662.3 517.6,665.6 		"/>
		<polygon class="st6" points="479.6,662.8 479.6,708 471.1,708 471.1,614.9 479.6,614.9 479.6,656.6 		"/>
		<circle class="st7" cx="537.8" cy="600.4" r="49.9"/>
		<circle class="st8" cx="538" cy="593" r="46.4"/>
		<path class="st7" d="M571.9,552.2c0,37.3-30.3,67.6-67.6,67.6c-8.3,0-16.1-1.5-23.5-4.2c-11.7,9.6-26.6,15.3-42.9,15.3
			c-37.3,0-67.6-30.3-67.6-67.6c0-21.3,9.8-40.3,25.3-52.7c3-27.3,26.1-48.5,54.2-48.5c18.5,0,34.7,9.2,44.6,23.2
			c3.2-0.5,6.6-0.8,9.9-0.8C541.6,484.5,571.9,514.8,571.9,552.2z"/>
		<path class="st8" d="M553.5,548c0,33.5-27.2,60.7-60.7,60.7c-7.4,0-14.5-1.3-21.1-3.8c-10.5,8.5-23.8,13.7-38.4,13.7
			c-33.5,0-60.7-27.2-60.7-60.7c0-19.1,8.8-36.2,22.7-47.3c2.7-24.5,23.4-43.5,48.6-43.5c16.5,0,31.2,8.2,40,20.8
			c2.9-0.4,5.9-0.6,8.9-0.6C526.4,487.3,553.5,514.5,553.5,548z"/>
		
			<ellipse transform="matrix(0.3162 -0.9487 0.9487 0.3162 -221.0999 787.324)" class="st7" cx="435.6" cy="547" rx="8.9" ry="8.9"/>
		<circle class="st7" cx="421.6" cy="500.4" r="8.9"/>
		<circle class="st7" cx="448.4" cy="488.2" r="8.9"/>
		<circle class="st7" cx="408.4" cy="527.5" r="8.9"/>
		<circle class="st7" cx="467" cy="492.7" r="4.4"/>
		<circle class="st7" cx="415.3" cy="549.6" r="4.4"/>
		<circle class="st7" cx="463.1" cy="558.5" r="4.4"/>
		<circle class="st8" cx="426.7" cy="480.1" r="4.4"/>
		<circle class="st7" cx="433.3" cy="520.6" r="4.4"/>
		<circle class="st7" cx="439.5" cy="579.2" r="4.4"/>
		<circle class="st7" cx="403.4" cy="585.8" r="4.4"/>
		<circle class="st7" cx="390.5" cy="538.2" r="4.4"/>
		<circle class="st7" cx="421.6" cy="570.3" r="8.9"/>
		<circle class="st7" cx="394.9" cy="558.5" r="8.9"/>
		<circle class="st7" cx="461.2" cy="579.2" r="8.9"/>
		<circle class="st7" cx="430.6" cy="599.4" r="8.9"/>
		<rect x="473.7" y="669.5" class="st9" width="1.2" height="38.5"/>
		<rect x="476" y="645.1" class="st9" width="1.2" height="63.4"/>
		<circle class="st7" cx="440.1" cy="660" r="24.1"/>
		<circle class="st8" cx="436.9" cy="656.1" r="18.9"/>
		
			<ellipse transform="matrix(0.8879 -0.4601 0.4601 0.8879 -249.01 309.3597)" class="st7" cx="510.2" cy="665.6" rx="13.1" ry="13.1"/>
		
			<ellipse transform="matrix(0.8879 -0.4601 0.4601 0.8879 -248.5936 308.0555)" class="st8" cx="507.7" cy="664.1" rx="10.2" ry="10.2"/>
	</g>
	<g>
		<polygon class="st6" points="245.8,676.7 267.4,699.2 267.8,705.6 242.8,679.5 		"/>
		<polygon class="st6" points="301.2,647.3 265.8,682.6 266.5,673.9 297.2,643.4 		"/>
		<polygon class="st6" points="308.3,669.7 277.5,667 272.3,670.5 308,673.7 		"/>
		<polygon class="st6" points="270,671 270,716.1 261.5,716.1 261.5,623.1 270,623.1 270,664.8 		"/>
		<circle class="st7" cx="328.2" cy="608.6" r="49.9"/>
		<circle class="st8" cx="328.4" cy="601.2" r="46.4"/>
		<path class="st7" d="M362.3,560.3c0,37.3-30.3,67.6-67.6,67.6c-8.3,0-16.1-1.5-23.5-4.2c-11.7,9.6-26.6,15.3-42.9,15.3
			c-37.3,0-67.6-30.3-67.6-67.6c0-21.3,9.8-40.3,25.3-52.7c3-27.3,26.1-48.5,54.2-48.5c18.5,0,34.7,9.2,44.6,23.2
			c3.2-0.5,6.6-0.8,9.9-0.8C332,492.7,362.3,523,362.3,560.3z"/>
		<path class="st8" d="M343.9,556.2c0,33.5-27.2,60.7-60.7,60.7c-7.4,0-14.5-1.3-21.1-3.8c-10.5,8.5-23.8,13.7-38.4,13.7
			c-33.5,0-60.7-27.2-60.7-60.7c0-19.1,8.8-36.2,22.7-47.3c2.7-24.5,23.4-43.5,48.6-43.5c16.5,0,31.2,8.2,40,20.8
			c2.9-0.4,5.9-0.6,8.9-0.6C316.8,495.4,343.9,522.7,343.9,556.2z"/>
		
			<ellipse transform="matrix(0.3162 -0.9487 0.9487 0.3162 -372.1757 594.0717)" class="st7" cx="226" cy="555.2" rx="8.9" ry="8.9"/>
		<circle class="st7" cx="212" cy="508.6" r="8.9"/>
		<circle class="st7" cx="238.8" cy="496.4" r="8.9"/>
		<circle class="st7" cx="198.8" cy="535.7" r="8.9"/>
		<circle class="st7" cx="257.4" cy="500.9" r="4.4"/>
		<circle class="st7" cx="205.6" cy="557.8" r="4.4"/>
		<circle class="st7" cx="253.5" cy="566.7" r="4.4"/>
		<circle class="st8" cx="217.1" cy="488.3" r="4.4"/>
		<circle class="st7" cx="223.7" cy="528.8" r="4.4"/>
		<circle class="st7" cx="229.9" cy="587.4" r="4.4"/>
		<circle class="st7" cx="193.7" cy="594" r="4.4"/>
		<circle class="st7" cx="180.9" cy="546.3" r="4.4"/>
		<circle class="st7" cx="212" cy="578.5" r="8.9"/>
		<circle class="st7" cx="185.3" cy="566.7" r="8.9"/>
		<circle class="st7" cx="251.6" cy="587.4" r="8.9"/>
		<circle class="st7" cx="221" cy="607.6" r="8.9"/>
		<rect x="264.1" y="677.6" class="st9" width="1.2" height="38.5"/>
		<rect x="266.4" y="653.3" class="st9" width="1.2" height="63.4"/>
		<circle class="st7" cx="230.5" cy="668.2" r="24.1"/>
		<circle class="st8" cx="227.3" cy="664.2" r="18.9"/>
		
			<ellipse transform="matrix(0.8879 -0.4601 0.4601 0.8879 -276.2747 213.8418)" class="st7" cx="300.6" cy="673.7" rx="13.1" ry="13.1"/>
		
			<ellipse transform="matrix(0.8879 -0.4601 0.4601 0.8879 -275.8584 212.5375)" class="st8" cx="298.1" cy="672.2" rx="10.2" ry="10.2"/>
	</g>
	<g>
		<polygon class="st10" points="630.3,615.6 603.1,648 603.1,701.4 593.1,701.4 593.1,591.2 603.1,591.2 603.1,640.6 626.7,612.6 		
			"/>
		<path class="st11" d="M652.4,629.6c-21.9,2-42.2-7.3-55-23.1c-5.5,2.2-11.5,3.6-17.7,4.2c-35,3.2-65.9-22.5-69.1-57.5
			c-3-32.5,19.2-61.7,50.5-68c5.5-15.1,19.3-26.4,36.3-28c23.5-2.1,44.4,15.2,46.5,38.7c0.2,2.4,0.2,4.7,0.1,7
			c33.5-1.4,62.6,23.9,65.7,57.7C713.1,595.5,687.3,626.4,652.4,629.6z"/>
		<path class="st12" d="M641.8,612.9c-19.3,1.8-37.2-6.5-48.6-20.4c-4.9,1.9-10.1,3.2-15.6,3.7c-30.9,2.8-58.3-19.9-61-50.8
			c-2.6-28.8,16.9-54.5,44.7-60.2c4.8-13.3,17-23.4,32.1-24.8c20.8-1.9,39.2,13.4,41.2,34.3c0.2,2.1,0.2,4.1,0.1,6.2
			c29.7-1.2,55.3,21.1,58.1,51C695.4,582.8,672.7,610.1,641.8,612.9z"/>
		<circle class="st11" cx="562.6" cy="549" r="9.3"/>
		<circle class="st11" cx="534.8" cy="536.7" r="9.3"/>
		<circle class="st11" cx="553.3" cy="513.9" r="9.3"/>
		
			<ellipse transform="matrix(0.1602 -0.9871 0.9871 0.1602 -91.5635 1051.1409)" class="st11" cx="572" cy="579.4" rx="9.3" ry="9.3"/>
		<circle class="st11" cx="595.3" cy="555.9" r="9.3"/>
		<circle class="st11" cx="599.7" cy="479.2" r="9.3"/>
		<circle class="st11" cx="581.2" cy="504.7" r="9.3"/>
		<circle class="st11" cx="544" cy="565.1" r="9.3"/>
		<circle class="st11" cx="534.8" cy="516.2" r="4.6"/>
		<circle class="st11" cx="576.9" cy="482.4" r="4.6"/>
		
			<ellipse transform="matrix(0.1602 -0.9871 0.9871 0.1602 -36.2426 1004.0736)" class="st11" cx="572" cy="523.3" rx="4.6" ry="4.6"/>
		<circle class="st11" cx="576.9" cy="562.9" r="4.6"/>
		<circle class="st11" cx="595.3" cy="579.4" r="4.6"/>
	</g>
	<g>
		<polygon class="st10" points="123.5,634.8 147.4,663.7 147.4,612.8 157.6,612.8 157.6,726.4 147.4,726.4 147.4,671.3 119.8,638 		
			"/>
		<path class="st11" d="M39.4,581.1c3.2-34.9,32.6-60.9,66.6-59.5c-0.1-2.3-0.1-4.8,0.1-7.2c2.2-24.2,23.3-42.1,47.1-39.9
			c17.2,1.6,31.2,13.3,36.8,28.9c31.7,6.5,54.2,36.6,51.1,70.1c-3.2,36.1-34.6,62.6-70,59.3c-6.3-0.6-12.3-2.1-17.9-4.3
			c-13.1,16.3-33.6,25.9-55.8,23.9C62.1,649.1,36,617.2,39.4,581.1z"/>
		<path class="st12" d="M56.7,572.2c2.8-30.8,28.8-53.8,58.9-52.6c-0.1-2.1-0.1-4.3,0.1-6.4c1.9-21.5,20.6-37.3,41.7-35.3
			c15.3,1.5,27.6,11.8,32.5,25.6c28.1,5.8,47.9,32.3,45.2,62c-2.8,31.8-30.5,55.3-61.8,52.4c-5.6-0.5-10.8-1.8-15.8-3.8
			c-11.5,14.4-29.7,22.9-49.3,21.1C76.9,632.2,53.9,604.1,56.7,572.2z"/>
		<ellipse class="st11" cx="188.5" cy="569.3" rx="9.4" ry="9.5"/>
		<ellipse class="st11" cx="216.6" cy="556.6" rx="9.4" ry="9.5"/>
		<ellipse class="st11" cx="197.9" cy="533.1" rx="9.4" ry="9.5"/>
		<ellipse class="st11" cx="179" cy="600.6" rx="9.4" ry="9.5"/>
		<ellipse class="st11" cx="155.3" cy="576.4" rx="9.4" ry="9.5"/>
		<ellipse class="st11" cx="150.8" cy="497.3" rx="9.4" ry="9.5"/>
		<ellipse class="st11" cx="169.6" cy="523.6" rx="9.4" ry="9.5"/>
		<ellipse class="st11" cx="207.3" cy="585.9" rx="9.4" ry="9.5"/>
		<ellipse class="st11" cx="216.6" cy="535.5" rx="4.7" ry="4.8"/>
		<ellipse class="st11" cx="173.9" cy="500.6" rx="4.7" ry="4.8"/>
		<ellipse class="st11" cx="179" cy="542.8" rx="4.7" ry="4.8"/>
		<ellipse class="st11" cx="173.9" cy="583.6" rx="4.7" ry="4.8"/>
		<ellipse class="st11" cx="155.3" cy="600.6" rx="4.7" ry="4.8"/>
	</g>
	<g>
		<polygon class="st10" points="341,696.8 362.1,721.9 362.1,728.6 337.7,699.6 		"/>
		<polygon class="st10" points="387,710 365.8,735.2 365.8,741.8 390.3,712.8 		"/>
		<polygon class="st10" points="394.7,675.1 370.3,704.1 370.3,751.9 361.3,751.9 361.3,653.2 370.3,653.2 370.3,697.4 391.5,672.3 
					"/>
		<circle class="st11" cx="411.7" cy="630.2" r="52.8"/>
		<circle class="st12" cx="411.7" cy="622.3" r="49.2"/>
		<path class="st11" d="M468.2,586.7c0,39.6-32.1,71.7-71.7,71.7c-8.8,0-17.1-1.6-24.9-4.4c-12.4,10.1-28.2,16.2-45.4,16.2
			c-39.6,0-71.7-32.1-71.7-71.7c0-22.6,10.4-42.8,26.8-55.9c3.2-28.9,27.7-51.4,57.4-51.4c19.6,0,36.8,9.7,47.3,24.6
			c3.4-0.5,7-0.8,10.5-0.8C436.1,515.1,468.2,547.2,468.2,586.7z"/>
		<path class="st12" d="M448.7,582.3c0,35.5-28.8,64.3-64.3,64.3c-7.8,0-15.4-1.4-22.3-4c-11.1,9.1-25.3,14.6-40.7,14.6
			c-35.5,0-64.3-28.8-64.3-64.3c0-20.3,9.4-38.3,24.1-50.2c2.8-25.9,24.8-46.1,51.5-46.1c17.5,0,33.1,8.7,42.4,22
			c3-0.4,6.2-0.7,9.4-0.7C420,518,448.7,546.8,448.7,582.3z"/>
		
			<ellipse transform="matrix(0.1602 -0.9871 0.9871 0.1602 -301.9474 807.8626)" class="st11" cx="323.8" cy="581.4" rx="9.4" ry="9.4"/>
		<circle class="st11" cx="308.9" cy="531.9" r="9.4"/>
		<circle class="st11" cx="337.3" cy="519" r="9.4"/>
		<circle class="st11" cx="294.9" cy="560.7" r="9.4"/>
		<circle class="st11" cx="357.1" cy="523.7" r="4.7"/>
		<circle class="st11" cx="302.2" cy="584.1" r="4.7"/>
		<circle class="st11" cx="352.9" cy="593.5" r="4.7"/>
		<circle class="st11" cx="314.4" cy="510.4" r="4.7"/>
		<circle class="st11" cx="321.3" cy="553.4" r="4.7"/>
		<circle class="st11" cx="327.8" cy="615.4" r="4.7"/>
		<circle class="st11" cx="289.6" cy="622.4" r="4.7"/>
		<circle class="st11" cx="275.9" cy="572" r="4.7"/>
		<circle class="st11" cx="308.9" cy="606" r="9.4"/>
		<circle class="st11" cx="280.6" cy="593.5" r="9.4"/>
		<circle class="st11" cx="350.8" cy="615.4" r="9.4"/>
		<circle class="st11" cx="318.4" cy="636.9" r="9.4"/>
		<rect x="364.1" y="711" class="st13" width="1.3" height="40.8"/>
		<rect x="366.6" y="685.3" class="st13" width="1.3" height="67.2"/>
		<circle class="st11" cx="328.9" cy="687.1" r="20"/>
		<circle class="st12" cx="326.5" cy="683.6" r="15.7"/>
		<circle class="st11" cx="390.3" cy="714.7" r="13.8"/>
		<circle class="st12" cx="388.6" cy="712.3" r="10.8"/>
	</g>
	<g>
		<polygon class="st10" points="168.1,706.6 182.8,718.9 182.5,697 188.7,696.9 189.3,745.9 183.1,746 182.8,722.2 165.9,708 		"/>
		<circle class="st11" cx="164.4" cy="708.2" r="11"/>
		<circle class="st12" cx="165.3" cy="706" r="8.4"/>
		<path class="st11" d="M186.2,625.6c12.8-0.1,24.1,6.4,30.5,16.4c1.8-0.3,3.7-0.4,5.5-0.4c22.8-0.2,41.4,18,41.6,40.8
			c0.2,22.8-18,41.4-40.8,41.6c-17.8,0.2-33.1-11-39-26.7c-18.5-1.3-33.2-16.6-33.4-35.4C150.5,642.1,166.4,625.8,186.2,625.6z"/>
		<g>
			<g>
				<path class="st12" d="M190.2,627.7c11.1-0.1,20.9,5.6,26.6,14.3c1.6-0.2,3.2-0.4,4.8-0.4c19.8-0.2,36.1,15.7,36.3,35.5
					c0.2,19.8-15.7,36.1-35.5,36.3c-15.5,0.2-28.8-9.5-34-23.2c-16.1-1.1-28.9-14.4-29.1-30.8C159.1,642,172.9,627.9,190.2,627.7z"
					/>
			</g>
			<circle class="st11" cx="222.1" cy="685.7" r="5.7"/>
			<circle class="st11" cx="241.4" cy="675.9" r="5.7"/>
			<circle class="st11" cx="241.6" cy="692.3" r="5.7"/>
			<circle class="st11" cx="202" cy="696.4" r="5.7"/>
			<circle class="st11" cx="228" cy="701.9" r="5.7"/>
			<circle class="st11" cx="233.5" cy="685.6" r="2.9"/>
			<circle class="st11" cx="213.8" cy="702" r="2.9"/>
			<circle class="st11" cx="207.5" cy="685.9" r="2.9"/>
			<circle class="st11" cx="238.4" cy="663.5" r="2.9"/>
		</g>
	</g>
	<g>
		<polygon class="st10" points="556.4,681.2 539.7,700.9 539.7,733.6 533.6,733.6 533.6,666.2 539.7,666.2 539.7,696.4 554.1,679.2 
					"/>
		<polygon class="st10" points="518.7,697.2 535.4,717 535.4,712.5 520.9,695.4 		"/>
		<circle class="st14" cx="517.9" cy="696.3" r="10.9"/>
		<circle class="st15" cx="516.9" cy="694.1" r="8.4"/>
		<path class="st14" d="M569.9,689.7c-13.4,1.2-25.8-4.5-33.7-14.2c-3.4,1.3-7,2.2-10.8,2.6c-21.4,2-40.3-13.8-42.2-35.1
			c-1.8-19.9,11.7-37.7,30.9-41.6c3.4-9.2,11.8-16.2,22.2-17.1c14.4-1.3,27.1,9.3,28.4,23.6c0.1,1.4,0.1,2.9,0,4.3
			c20.5-0.8,38.3,14.6,40.2,35.3C606.9,668.8,591.2,687.7,569.9,689.7z"/>
		<path class="st15" d="M563.4,679.5c-11.8,1.1-22.8-4-29.7-12.5c-3,1.2-6.2,2-9.5,2.3c-18.9,1.7-35.6-12.2-37.3-31
			c-1.6-17.6,10.4-33.4,27.3-36.8c3-8.1,10.4-14.3,19.6-15.2c12.7-1.2,24,8.2,25.2,20.9c0.1,1.3,0.1,2.5,0,3.8
			c18.2-0.7,33.8,12.9,35.5,31.2C596.2,661,582.3,677.8,563.4,679.5z"/>
		<circle class="st14" cx="514.9" cy="640.4" r="5.7"/>
		<circle class="st14" cx="498" cy="632.9" r="5.7"/>
		<ellipse class="st14" cx="509.3" cy="619" rx="5.7" ry="5.7"/>
		<circle class="st14" cx="520.7" cy="659" r="5.7"/>
		<circle class="st14" cx="534.9" cy="644.6" r="5.7"/>
		<circle class="st14" cx="537.7" cy="597.7" r="5.7"/>
		<circle class="st14" cx="526.4" cy="613.3" r="5.7"/>
		<circle class="st14" cx="503.6" cy="650.3" r="5.7"/>
		<circle class="st14" cx="498" cy="620.3" r="2.8"/>
		<circle class="st14" cx="523.7" cy="599.7" r="2.8"/>
		<circle class="st14" cx="520.7" cy="624.7" r="2.8"/>
		<circle class="st14" cx="523.7" cy="648.9" r="2.8"/>
		<circle class="st14" cx="534.9" cy="659" r="2.8"/>
		<rect x="534.9" y="707.8" class="st13" width="1" height="24.5"/>
		<rect x="537.1" y="691.4" class="st13" width="1" height="40.9"/>
		<g>
			<polygon class="st13" points="528.2,705.2 527.6,705.7 533.6,712.8 533.6,711.5 			"/>
		</g>
	</g>
</g>
</svg>
