<?xml version="1.0" encoding="UTF-8" standalone="no"?>
<!-- Created with Inkscape (http://www.inkscape.org/) -->

<svg
   xmlns:dc="http://purl.org/dc/elements/1.1/"
   xmlns:cc="http://creativecommons.org/ns#"
   xmlns:rdf="http://www.w3.org/1999/02/22-rdf-syntax-ns#"
   xmlns:svg="http://www.w3.org/2000/svg"
   xmlns="http://www.w3.org/2000/svg"
   xmlns:sodipodi="http://sodipodi.sourceforge.net/DTD/sodipodi-0.dtd"
   xmlns:inkscape="http://www.inkscape.org/namespaces/inkscape"
   id="svg3403"
   version="1.1"
   inkscape:version="0.91 r13725"
   width="743.40002"
   height="1051.2"
   viewBox="0 0 743.40002 1051.2"
   sodipodi:docname="muda colorida.JPG.svg"
   inkscape:export-filename="/home/musquito/Ãrea de Trabalho/Jogo/Plantas do jogo/png/mudinha"
   inkscape:export-xdpi="8.3452215"
   inkscape:export-ydpi="8.3452215">
  <metadata
     id="metadata3409">
    <rdf:RDF>
      <cc:Work
         rdf:about="">
        <dc:format>image/svg+xml</dc:format>
        <dc:type
           rdf:resource="http://purl.org/dc/dcmitype/StillImage" />
        <dc:title />
      </cc:Work>
    </rdf:RDF>
  </metadata>
  <defs
     id="defs3407" />
  <sodipodi:namedview
     pagecolor="#ffffff"
     bordercolor="#666666"
     borderopacity="1"
     objecttolerance="10"
     gridtolerance="10"
     guidetolerance="10"
     inkscape:pageopacity="0"
     inkscape:pageshadow="2"
     inkscape:window-width="1301"
     inkscape:window-height="744"
     id="namedview3405"
     showgrid="false"
     inkscape:zoom="0.51374964"
     inkscape:cx="-199.47686"
     inkscape:cy="569.33766"
     inkscape:window-x="65"
     inkscape:window-y="24"
     inkscape:window-maximized="1"
     inkscape:current-layer="svg3403" />
  <g
     inkscape:groupmode="layer"
     id="layer1"
     inkscape:label="Layer 1" />
  <g
     inkscape:groupmode="layer"
     id="layer2"
     inkscape:label="Layer 2" />
  <rect
     style="fill:none;fill-opacity:1;stroke:#222b00"
     id="rect3351"
     width="700"
     height="700"
     x="15.489944"
     y="217.25684" />
  <path
     style="fill:none;fill-rule:evenodd;stroke:#445500;stroke-width:2.42952824px;stroke-linecap:butt;stroke-linejoin:miter;stroke-opacity:1"
     d="m 325.83908,512.93041 c 29.09491,19.88769 64.96125,103.85777 27.54298,200.23915 l 12.89245,-7.55619 -4.10214,10.25485 19.33868,-4.31784 c 7.13053,-14.86156 -36.38461,-105.36972 52.74184,-148.96499 l 0,0"
     id="path3669"
     inkscape:connector-curvature="0"
     sodipodi:nodetypes="ccccccc" />
  <path
     style="fill:#445500;fill-rule:evenodd;stroke:#668000;stroke-width:1.44547164px;stroke-linecap:butt;stroke-linejoin:miter;stroke-opacity:1"
     d="m 202.45816,753.93843 18.68395,2.25548 -11.67746,-18.04384 18.68394,18.04384 -11.67747,-16.9161 18.68394,19.17159 -16.34844,-29.32126 23.35492,29.32126 -11.67746,-32.70448 18.68395,31.57673 -9.34198,-29.32124 12.84522,28.1935 2.33549,-24.81029 3.50324,22.55481 11.67746,-20.29932 -1.16775,20.29932 23.35494,2.25548"
     id="path6267-6-3-5"
     inkscape:connector-curvature="0"
     sodipodi:nodetypes="ccccccccccccccccc" />
  <path
     style="fill:#445500;fill-rule:evenodd;stroke:#668000;stroke-width:1.44547164px;stroke-linecap:butt;stroke-linejoin:miter;stroke-opacity:1"
     d="m 330.28278,767.22711 18.68394,2.25547 -11.67746,-18.04384 18.68395,18.04384 -11.67748,-16.91609 18.68394,19.17159 -16.34844,-29.32126 23.35493,29.32126 -11.67746,-32.70448 18.68394,31.57673 -9.34197,-29.32124 12.84521,28.19349 2.33549,-24.81028 3.50324,22.55481 11.67746,-20.29932 -1.16775,20.29932 23.35494,2.25547"
     id="path6267-6-3-5-9"
     inkscape:connector-curvature="0"
     sodipodi:nodetypes="ccccccccccccccccc" />
  <path
     style="fill:#445500;fill-rule:evenodd;stroke:#668000;stroke-width:1.44547164px;stroke-linecap:butt;stroke-linejoin:miter;stroke-opacity:1"
     d="m 405.63028,757.48695 18.68394,2.25548 -11.67746,-18.04385 18.68394,18.04385 -11.67747,-16.9161 18.68394,19.17159 -16.34844,-29.32126 23.35493,29.32126 -11.67747,-32.70448 18.68395,31.57673 -9.34197,-29.32124 12.84521,28.1935 2.33549,-24.81029 3.50324,22.55481 11.67746,-20.29932 -1.16775,20.29932 23.35494,2.25548"
     id="path6267-6-3-5-9-0"
     inkscape:connector-curvature="0"
     sodipodi:nodetypes="ccccccccccccccccc" />
  <path
     style="fill:#445500;fill-rule:evenodd;stroke:#668000;stroke-width:1.44547164px;stroke-linecap:butt;stroke-linejoin:miter;stroke-opacity:1"
     d="m 291.29875,802.36026 18.68395,2.25547 -11.67746,-18.04384 18.68394,18.04384 -11.67748,-16.91609 18.68395,19.17159 -16.34844,-29.32126 23.35492,29.32126 -11.67746,-32.70448 18.68394,31.57673 -9.34197,-29.32124 12.84522,28.19349 2.33548,-24.81028 3.50325,22.55481 11.67746,-20.29932 -1.16775,20.29932 23.35493,2.25547"
     id="path6267-6-3-5-9-6"
     inkscape:connector-curvature="0"
     sodipodi:nodetypes="ccccccccccccccccc" />
  <path
     style="fill:#445500;fill-rule:evenodd;stroke:#668000;stroke-width:1.44547164px;stroke-linecap:butt;stroke-linejoin:miter;stroke-opacity:1"
     d="m 397.66776,785.83266 18.68394,2.25547 -11.67746,-18.04384 18.68394,18.04384 -11.67747,-16.91609 18.68394,19.17159 -16.34844,-29.32126 23.35493,29.32126 -11.67747,-32.70448 18.68395,31.57673 -9.34197,-29.32124 12.84521,28.19349 2.33549,-24.81028 3.50324,22.55481 11.67746,-20.29932 -1.16775,20.29932 23.35494,2.25547"
     id="path6267-6-3-5-9-1"
     inkscape:connector-curvature="0"
     sodipodi:nodetypes="ccccccccccccccccc" />
  <g
     id="g3357">
    <path
       sodipodi:nodetypes="ccc"
       inkscape:connector-curvature="0"
       id="path3671"
       d="m 331.11328,504.83448 c 29.69024,29.25751 38.38706,54.88971 43.36551,79.87977 25.80887,-74.41372 -10.47579,-12.92634 13.47848,-131.69368"
       style="fill:none;fill-rule:evenodd;stroke:#445500;stroke-width:2.42952824px;stroke-linecap:butt;stroke-linejoin:miter;stroke-opacity:1" />
    <path
       sodipodi:nodetypes="cscc"
       inkscape:connector-curvature="0"
       id="path3673"
       d="m 399.09164,451.40139 c -3.19859,24.26433 -10.92962,60.69393 -4.90388,75.56235 10.85417,26.78257 -2.18144,51.50627 -6.81652,59.36969 11.55464,-15.03282 25.77361,-26.13949 45.12358,-29.68506"
       style="fill:none;fill-rule:evenodd;stroke:#445500;stroke-width:2.42952824px;stroke-linecap:butt;stroke-linejoin:miter;stroke-opacity:1" />
    <path
       sodipodi:nodetypes="cccc"
       inkscape:connector-curvature="0"
       id="path3675"
       d="m 287.16172,463.81515 c 4.47826,14.35815 41.13995,11.44284 47.46767,30.76449 -3.96627,16.45775 -11.17172,17.99895 -18.16664,20.50969 -15.31015,-0.98247 -12.34358,-30.86545 -29.30103,-51.27418 z"
       style="fill:none;fill-rule:evenodd;stroke:#668000;stroke-width:2.42952824px;stroke-linecap:butt;stroke-linejoin:miter;stroke-opacity:1" />
    <path
       inkscape:transform-center-y="27.690428"
       inkscape:transform-center-x="0.098197879"
       sodipodi:nodetypes="cscscc"
       inkscape:connector-curvature="0"
       id="path3675-4-7"
       d="m 493.40036,539.8559 c -8.92484,0.14526 -14.8887,10.31617 -22.09792,19.538 -5.89084,7.53539 -14.37129,10.65898 -24.22016,10.93926 -6.05423,-2.90626 -8.05739,-1.89769 -10.43649,-4.5848 -3.99941,-4.51719 -4.09293,-8.80145 -4.60759,-13.11082 4.66263,-14.99873 27.44247,-6.09537 61.36216,-12.78164 z"
       style="fill:none;fill-rule:evenodd;stroke:#668000;stroke-width:2.42952824px;stroke-linecap:butt;stroke-linejoin:miter;stroke-opacity:1" />
    <path
       sodipodi:nodetypes="cccccccccccc"
       inkscape:connector-curvature="0"
       id="path3767-0"
       d="m 303.86533,482.18374 24.01627,25.83083 -8.68021,-8.79608 5.1277,-9.52487 -5.1277,9.52487 -10.66138,2.53267 11.11248,-2.87719 -8.00915,-7.20512 -6.83254,1.71209 8.03173,-1.22565 3.09206,-5.86692 0.0775,-0.75996"
       style="fill:none;fill-rule:evenodd;stroke:#88aa00;stroke-width:2.42952824px;stroke-linecap:butt;stroke-linejoin:miter;stroke-opacity:1" />
    <path
       inkscape:transform-center-y="-1.9248026"
       inkscape:transform-center-x="2.5680041"
       sodipodi:nodetypes="cccccccccccc"
       inkscape:connector-curvature="0"
       id="path3767-7"
       d="m 467.66303,547.78764 -34.10052,13.04219 11.76744,-4.88091 8.24798,7.43781 -8.24798,-7.43781 0.6835,-10.12099 -0.46738,10.62268 9.91722,-4.78541 0.34614,-6.51378 -1.21938,7.41354 5.10095,4.52322 0.76081,0.30274"
       style="fill:none;fill-rule:evenodd;stroke:#88aa00;stroke-width:2.42952824px;stroke-linecap:butt;stroke-linejoin:miter;stroke-opacity:1" />
    <path
       inkscape:connector-curvature="0"
       id="path3794"
       d="m 366.76741,708.47135 c 1.13366,-2.83109 1.92275,-5.27495 1.75354,-5.43082 -0.16911,-0.15575 -2.80033,1.18899 -5.84692,2.98854 -3.04658,1.79955 -5.67385,3.27188 -5.83835,3.27188 -0.16455,0 0.84737,-3.4498 2.2486,-7.66626 4.84644,-14.58342 8.58297,-31.58227 10.55831,-48.03377 1.24683,-10.38406 1.40844,-35.38631 0.29409,-45.499 -4.38015,-39.7498 -19.77471,-76.40891 -39.06691,-93.03022 l -3.89379,-3.35472 1.95121,-2.08811 c 1.07319,-1.14847 2.21495,-2.03427 2.53727,-1.96847 0.95061,0.19422 10.51295,10.92338 15.19872,17.05352 11.93736,15.617 19.73841,32.26923 24.46089,52.2145 1.87898,7.93587 1.99966,8.2268 3.41406,8.23086 1.39403,0.005 1.61815,-0.46753 4.55144,-9.57598 5.0713,-15.74745 6.22846,-21.02219 6.24572,-28.47066 0.0127,-5.56822 -0.2124,-7.15786 -1.60534,-11.33227 -2.16627,-6.49135 -2.72142,-10.43627 -2.73466,-19.43224 -0.0177,-11.69265 1.42095,-24.16246 5.32215,-46.14676 1.29057,-7.27286 2.4855,-13.74266 2.65535,-14.37737 0.27477,-1.02669 0.72393,-1.15621 4.0709,-1.174 3.47904,-0.0186 3.76204,0.0683 3.76197,1.15402 -5e-5,0.64569 -0.78456,6.27444 -1.74337,12.50829 -5.39957,35.10636 -5.90255,49.25028 -2.11599,59.5037 2.90278,7.86041 3.56339,11.75117 3.55126,20.91581 -0.0152,11.89414 -2.1294,20.57835 -7.67117,31.51801 -1.41295,2.78922 -2.56902,5.27017 -2.56902,5.51322 0,0.24304 0.49647,0.68661 1.10323,0.98568 0.94808,0.46732 1.55935,-0.005 4.34669,-3.35633 3.94073,-4.73852 11.75284,-11.94068 16.52585,-15.23553 5.84783,-4.03678 12.71005,-7.0192 22.33236,-9.70594 0.35731,-0.0998 0.92043,0.63128 1.25141,1.62452 l 0.60178,1.80589 -4.47451,2.40595 c -18.29566,9.83753 -33.14553,24.20006 -41.395,40.03654 -7.47736,14.35423 -10.84225,29.63823 -10.83818,49.22892 0.002,11.18074 0.5486,17.42235 3.01319,34.42894 1.72815,11.92473 2.39957,21.3634 1.5741,22.12793 -0.35743,0.33106 -14.06259,3.50917 -15.13282,3.50917 -0.25265,0 0.46825,-2.31635 1.60194,-5.14744 z"
       style="fill:#445500;fill-opacity:1;stroke:#88aa00;stroke-width:0.56239825" />
    <path
       inkscape:connector-curvature="0"
       id="path3800"
       d="m 312.35894,512.15361 c -2.82047,-1.73657 -5.72351,-7.48409 -9.33113,-18.47406 -2.54451,-7.75148 -5.28881,-15.01701 -7.30871,-19.34984 -0.43692,-0.93723 -0.36072,-0.95015 1.23121,-0.20891 0.93334,0.43466 5.7845,2.18533 10.78031,3.89043 14.66878,5.00647 20.45918,8.31421 23.83103,13.61337 1.44958,2.27811 1.50181,2.59341 0.85623,5.16928 -0.76871,3.0671 -3.52248,9.02943 -4.17036,9.02943 -0.23088,0 -1.89264,-1.61402 -3.69279,-3.58671 l -3.27302,-3.58674 2.30477,-4.22182 c 2.20179,-4.03324 2.25424,-4.24672 1.17425,-4.77907 -0.62178,-0.30649 -1.27607,-0.55723 -1.45396,-0.55723 -0.17797,0 -1.19898,1.5995 -2.26908,3.55445 l -1.94562,3.55444 -2.17037,-2.21257 -2.17039,-2.21256 1.47084,-2.67327 c 1.8355,-3.33607 1.83507,-3.78858 -0.003,-3.78858 -1.10819,0 -1.71752,0.4693 -2.45261,1.88903 -0.89127,1.72135 -1.90408,2.49124 -1.95253,1.48427 -0.0101,-0.22267 -1.52705,-1.9393 -3.36963,-3.81477 -2.50373,-2.54843 -3.60924,-3.31795 -4.37567,-3.04569 -1.59102,0.56513 -1.2564,1.33066 2.23216,5.10633 l 3.24146,3.50824 -1.63801,0.6503 c -0.90091,0.35769 -2.09951,0.66129 -2.66357,0.67467 -1.09496,0.0261 -1.31799,0.92282 -0.51834,2.08428 0.36186,0.52557 1.38956,0.61925 3.94667,0.35975 3.44978,-0.35007 3.46241,-0.34611 5.716,1.79847 l 2.25859,2.14931 -3.43064,0.8948 c -1.88683,0.49213 -3.85442,1.00781 -4.37243,1.14598 -0.64669,0.17254 -0.85481,0.67026 -0.66419,1.58863 0.15266,0.73557 0.40068,1.33743 0.55115,1.33743 0.15038,0 2.4011,-0.50032 5.00143,-1.11178 l 4.72785,-1.11177 2.59618,2.32616 c 3.96743,3.55482 5.09634,5.17495 4.2558,6.10773 -1.10475,1.226 -7.64151,4.04448 -9.38014,4.04448 -0.86777,0 -2.47383,-0.5517 -3.56902,-1.226 z"
       style="fill:#aad400;fill-opacity:1;stroke:#aad400;stroke-width:0.56239825" />
    <path
       inkscape:connector-curvature="0"
       id="path3804"
       d="m 443.3355,567.45935 c -4.71258,-1.64925 -5.39175,-2.0799 -6.82388,-4.32695 l -1.02258,-1.60437 3.95267,-1.46184 c 6.02302,-2.22754 5.96705,-2.23392 9.52946,1.08834 3.31279,3.08946 3.97925,3.38772 5.1535,2.30623 0.55512,-0.51127 -5.8e-4,-1.31409 -2.55593,-3.69234 l -3.26525,-3.03905 3.04622,-1.16593 3.04622,-1.16596 2.5439,2.15966 c 1.39915,1.18781 2.67238,2.15966 2.82942,2.15966 0.15695,0 0.57115,-0.49161 0.92027,-1.09247 0.53647,-0.92319 0.35805,-1.30697 -1.15141,-2.47676 -0.98242,-0.76136 -1.78622,-1.54904 -1.78622,-1.75039 0,-0.20145 2.25862,-1.19996 5.01917,-2.2191 5.43709,-2.00732 5.71103,-2.19135 5.17538,-3.47701 -0.49619,-1.19089 -1.26906,-1.09287 -5.99895,0.76089 -2.27224,0.89055 -4.27768,1.61917 -4.45651,1.61917 -0.17873,0 -0.32513,-1.04436 -0.32513,-2.32082 0,-1.27645 -0.27549,-2.57457 -0.61221,-2.88469 -0.42561,-0.39199 2.6556,-0.67015 10.10886,-0.91259 5.89657,-0.19189 11.89817,-0.51132 13.33687,-0.71006 l 2.6158,-0.36136 -2.95577,3.45983 c -1.62567,1.90291 -4.83971,5.92503 -7.14231,8.93803 -5.81318,7.60674 -9.27143,10.21097 -16.23028,12.22206 -5.41906,1.56613 -8.36101,1.55427 -12.95131,-0.0522 z"
       style="fill:#aad400;fill-opacity:1;stroke:#aad400;stroke-width:0.56239825" />
    <path
       inkscape:connector-curvature="0"
       id="path3806"
       d="m 446.66374,551.92522 c 0.0281,-0.62877 0.16708,-0.75665 0.35406,-0.3261 0.16937,0.38963 0.14861,0.85514 -0.0463,1.03448 -0.19468,0.1793 -0.33323,-0.13943 -0.30779,-0.70838 z"
       style="fill:#aad400;fill-opacity:1;stroke:#aad400;stroke-width:0.56239825" />
    <path
       inkscape:connector-curvature="0"
       id="path3808"
       d="m 434.09773,557.05971 c -1.0225,-4.70858 0.43217,-7.88671 4.59393,-10.03677 2.5923,-1.33924 7.97481,-2.33908 12.59215,-2.33908 l 3.10528,0 -0.36323,2.02397 c -0.19974,1.1132 -0.36614,2.44598 -0.36968,2.96175 -0.003,0.51575 -1.08137,1.56271 -2.39513,2.32654 -3.98214,2.31523 -3.89662,2.36342 -3.82716,-2.15689 l 0.0625,-4.07621 -1.61157,1.6e-4 c -1.57517,1.2e-4 -1.61155,0.0718 -1.61155,3.17104 0,5.73242 -0.20784,6.08868 -4.56005,7.81807 -2.13678,0.84908 -4.19057,1.65173 -4.564,1.78372 -0.3884,0.13733 -0.83843,-0.49451 -1.05162,-1.4763 z"
       style="fill:#aad400;fill-opacity:1;stroke:#aad400;stroke-width:0.56239825" />
    <path
       inkscape:connector-curvature="0"
       id="path3812"
       d="m 365.74665,712.91402 c 0,-0.10213 0.65927,-1.97083 1.46505,-4.15278 1.57266,-4.25852 1.81825,-5.93701 0.86876,-5.93701 -0.32797,0 -2.73648,1.22252 -5.35223,2.7167 -2.61578,1.4942 -4.8362,2.64279 -4.9343,2.55247 -0.098,-0.0902 0.99587,-3.9238 2.431,-8.51879 4.87358,-15.60417 8.95757,-35.57934 10.19346,-49.85705 0.88813,-10.26033 0.74304,-34.34962 -0.25926,-43.0475 -4.35463,-37.78867 -18.41776,-71.89795 -37.16547,-90.14265 l -5.28466,-5.14287 1.9205,-1.71438 1.92048,-1.71437 3.82524,4.19617 c 8.48024,9.3026 13.24682,15.45577 18.51128,23.89624 7.09345,11.37284 12.11477,23.37407 16.0335,38.32072 1.28417,4.89802 2.46279,9.3081 2.61919,9.80018 0.33929,1.06757 1.66292,1.61857 2.86643,1.19322 1.03724,-0.36658 4.19328,-9.12239 7.4644,-20.70851 2.02551,-7.17422 2.40358,-9.41246 2.65423,-15.71422 0.27951,-7.02701 0.2081,-7.64083 -1.63236,-14.03294 -1.7375,-6.03457 -1.94964,-7.60287 -2.18189,-16.12974 -0.37285,-13.68896 1.25708,-27.59597 6.7686,-57.75093 l 1.03582,-5.66715 3.35264,-0.16181 c 3.01865,-0.14573 3.35266,-0.0546 3.35266,0.91564 0,0.59262 -0.77623,6.37308 -1.72499,12.84548 -5.48377,37.41095 -5.72346,47.20088 -1.47884,60.40036 2.45565,7.63632 3.44246,15.53178 2.89354,23.15146 -0.76689,10.6458 -2.67747,17.53219 -7.84092,28.26124 -1.89524,3.93808 -2.28282,5.2182 -1.75669,5.80208 0.37128,0.41204 1.0198,0.74916 1.44113,0.74916 0.4213,0 3.14918,-2.52127 6.0619,-5.60284 11.35123,-12.00916 18.99998,-17.13175 31.77783,-21.28248 l 5.05312,-1.64144 0.68252,1.37965 c 0.3754,0.7588 0.60674,1.43354 0.51408,1.49943 -0.0926,0.066 -2.14614,1.18815 -4.56331,2.49394 -2.4172,1.30581 -6.90024,4.09445 -9.96236,6.19698 -17.89983,12.29056 -29.74168,27.23565 -36.30686,45.8213 -6.36425,18.01691 -7.3585,38.71831 -3.27963,68.28654 1.78337,12.92788 2.77491,23.40057 2.3191,24.49453 -0.36409,0.8739 -1.93534,1.43039 -7.56346,2.67872 -5.76678,1.27911 -6.73923,1.46198 -6.73923,1.26729 z"
       style="fill:#445500;fill-opacity:1;stroke:#aad400;stroke-width:0.56239825" />
    <g
       transform="matrix(1.4516543,0,0,1.4810029,-180.74735,-202.5536)"
       id="g3542">
      <path
         style="fill:none;fill-rule:evenodd;stroke:#668000;stroke-width:2.42952824px;stroke-linecap:butt;stroke-linejoin:miter;stroke-opacity:1"
         d="m 397.91056,394.77261 c -7.31131,13.33507 21.73147,34.14684 12.11374,52.2804 -15.05484,9.58887 -21.47743,6.20876 -28.46108,3.67156 -11.67603,-11.63428 8.48655,-36.31321 16.34734,-55.95196 z"
         id="path3675-4"
         inkscape:connector-curvature="0"
         sodipodi:nodetypes="cccc"
         inkscape:transform-center-x="-22.454635"
         inkscape:transform-center-y="11.436917" />
      <path
         style="fill:none;fill-rule:evenodd;stroke:#88aa00;stroke-width:2.42952824px;stroke-linecap:butt;stroke-linejoin:miter;stroke-opacity:1"
         d="m 393.23143,419.0177 0.58603,34.00287 -0.58603,-11.87403 10.54836,-4.31781 -10.54836,4.31781 -9.96233,-4.31781 10.54836,4.31781 -1.17204,-10.25482 -6.44623,-2.69863 7.03224,3.77807 6.44622,-2.69864 0.58601,-0.53974"
         id="path3767"
         inkscape:connector-curvature="0"
         sodipodi:nodetypes="cccccccccccc" />
      <path
         style="fill:#aad400;fill-opacity:1;stroke:#aad400;stroke-width:0.56239825"
         d="m 385.55898,450.69405 c -2.90106,-0.93182 -3.49256,-1.37021 -4.54164,-3.36617 -2.4047,-4.57505 -1.40763,-11.53715 3.06252,-21.38422 3.29684,-7.26248 11.36892,-22.30453 11.69228,-21.7882 0.16152,0.2579 0.6292,1.44044 1.03931,2.62783 0.41009,1.18741 2.95263,6.22934 5.65008,11.20429 6.67265,12.30649 8.02435,16.13137 7.70279,21.79654 -0.16278,2.86854 -0.5898,4.87362 -1.22928,5.7725 -0.97306,1.36773 -9.13058,5.40048 -12.27581,6.06865 l -1.61155,0.34235 0.008,-3.97153 c 0.0127,-5.93943 0.10126,-6.08294 5.03044,-8.07799 2.38583,-0.96568 4.33385,-2.01548 4.32892,-2.3329 -0.0177,-1.08562 -1.04408,-2.08401 -1.83646,-1.78498 -0.43543,0.16438 -2.30799,0.92529 -4.16128,1.69104 l -3.36962,1.39226 0,-3.17878 c 0,-3.09197 0.0514,-3.19522 1.87845,-3.78185 1.03314,-0.33171 2.50575,-0.98167 3.27244,-1.44435 1.32217,-0.79787 1.34257,-0.89356 0.39614,-1.85676 -0.97648,-0.99378 -1.04625,-0.99284 -3.25122,0.0431 l -2.25336,1.05875 -0.16759,-5.26334 -0.16784,-5.26334 -1.7014,-0.17883 -1.70142,-0.17884 0.39455,5.16947 0.39454,5.16945 -2.67934,-1.19888 c -2.30551,-1.03164 -2.7556,-1.08785 -3.22584,-0.40301 -0.99485,1.44889 -0.59269,2.06364 2.29776,3.51257 2.82375,1.41546 2.86608,1.47576 3.14949,4.48645 0.15797,1.67842 0.25447,3.08713 0.21442,3.13045 -0.04,0.0434 -1.87531,-0.66623 -4.07832,-1.57679 -3.33271,-1.37751 -4.09398,-1.52671 -4.53268,-0.88836 -1.022,1.48721 -0.50343,2.00258 3.81653,3.79299 4.92292,2.04031 4.99487,2.1539 5.00664,7.90371 l 0.008,3.91302 -1.61158,-0.0427 c -0.88635,-0.0236 -3.11252,-0.52473 -4.94703,-1.11395 z"
         id="path3802"
         inkscape:connector-curvature="0" />
    </g>
  </g>
</svg>
