<?xml version="1.0" encoding="UTF-8" standalone="no"?>
<!-- Created with Inkscape (http://www.inkscape.org/) -->

<svg
   xmlns:dc="http://purl.org/dc/elements/1.1/"
   xmlns:cc="http://creativecommons.org/ns#"
   xmlns:rdf="http://www.w3.org/1999/02/22-rdf-syntax-ns#"
   xmlns:svg="http://www.w3.org/2000/svg"
   xmlns="http://www.w3.org/2000/svg"
   xmlns:sodipodi="http://sodipodi.sourceforge.net/DTD/sodipodi-0.dtd"
   xmlns:inkscape="http://www.inkscape.org/namespaces/inkscape"
   width="210mm"
   height="297mm"
   viewBox="0 0 744.09448819 1052.3622047"
   id="svg4747"
   version="1.1"
   inkscape:version="0.91 r13725"
   sodipodi:docname="mudinha5.svg"
   inkscape:export-filename="/home/qui00214/Área de Trabalho/JURUBAMANJI/Plantas do jogo/png/Animação/mudinha5"
   inkscape:export-xdpi="8.3452215"
   inkscape:export-ydpi="8.3452215">
  <defs
     id="defs4749">
    <inkscape:perspective
       sodipodi:type="inkscape:persp3d"
       inkscape:vp_x="0 : 526.1811 : 1"
       inkscape:vp_y="0 : 1000 : 0"
       inkscape:vp_z="744.09449 : 526.1811 : 1"
       inkscape:persp3d-origin="372.04724 : 350.7874 : 1"
       id="perspective5007" />
  </defs>
  <sodipodi:namedview
     id="base"
     pagecolor="#ffffff"
     bordercolor="#666666"
     borderopacity="1.0"
     inkscape:pageopacity="0.0"
     inkscape:pageshadow="2"
     inkscape:zoom="0.62"
     inkscape:cx="41.471873"
     inkscape:cy="520"
     inkscape:document-units="px"
     inkscape:current-layer="g4753"
     showgrid="false"
     inkscape:window-width="1301"
     inkscape:window-height="744"
     inkscape:window-x="65"
     inkscape:window-y="24"
     inkscape:window-maximized="1" />
  <metadata
     id="metadata4752">
    <rdf:RDF>
      <cc:Work
         rdf:about="">
        <dc:format>image/svg+xml</dc:format>
        <dc:type
           rdf:resource="http://purl.org/dc/dcmitype/StillImage" />
        <dc:title />
      </cc:Work>
    </rdf:RDF>
  </metadata>
  <g
     inkscape:label="Layer 1"
     inkscape:groupmode="layer"
     id="layer1">
    <g
       id="g5057" />
    <rect
       y="179.19147"
       x="24.390236"
       height="700"
       width="700"
       id="rect5046"
       style="fill:none;stroke:#222b00" />
    <g
       id="g5017"
       transform="matrix(1.4425157,0,0,1.6734452,-273.96932,-681.20522)"
       inkscape:export-filename="/home/qui00214/Área de Trabalho/JURUBAMANJI/Plantas do jogo/png/Animação/semente9"
       inkscape:export-xdpi="8"
       inkscape:export-ydpi="8">
      <g
         id="g4753"
         transform="matrix(0.69323336,0,0,0.59756961,375.12021,721.45341)">
        <g
           id="g6481"
           transform="matrix(1.095899,0,0,1.099649,-694.90861,-327.63258)">
          <g
             transform="matrix(1.1172282,0,0,1.3986212,448.17283,-159.94111)"
             id="g9401-7-2-5">
            <path
               style="fill:none;fill-rule:evenodd;stroke:#445500;stroke-width:1.87827146px;stroke-linecap:butt;stroke-linejoin:miter;stroke-opacity:1"
               d="m 200.51546,298.78315 c 23.01054,17.13355 42.79466,99.3213 4.56558,155.49219 l 26.3193,-4.71619 4.3281,2.06434 29.73088,-2.27414 c -10.98018,-6.12042 -31.02639,-7.26877 -29.09776,-39.87736 0.9261,-15.65825 11.2656,-37.06613 23.79634,-64.00918 -5.87609,-23.46016 20.11082,-38.20574 24.52821,-48.30309"
               id="path3669-1-5-9"
               inkscape:connector-curvature="0"
               sodipodi:nodetypes="cccccscc" />
            <path
               style="fill:none;fill-rule:evenodd;stroke:#445500;stroke-width:1.84550929px;stroke-linecap:butt;stroke-linejoin:miter;stroke-opacity:1"
               d="m 204.40239,292.433 c 21.88956,22.89827 28.30141,42.9592 31.97185,62.51757 -0.55235,-43.35603 -6.60281,28.25349 5.52492,-67.01267 1.28145,-10.06608 11.01886,-28.58544 4.41228,-36.05685"
               id="path3671-4-3-7"
               inkscape:connector-curvature="0"
               sodipodi:nodetypes="ccsc" />
            <path
               style="fill:none;fill-rule:evenodd;stroke:#445500;stroke-width:1.84550929px;stroke-linecap:butt;stroke-linejoin:miter;stroke-opacity:1"
               d="m 260.91585,240.39638 c -2.3582,18.99037 2.52145,34.72223 -1.47905,46.49352 -8.60527,25.32059 -4.75792,23.42133 -8.22789,52.29887 4.41198,-16.79608 -4.01607,-15.35902 24.74307,-51.29201"
               id="path3673-7-3-3"
               inkscape:connector-curvature="0"
               sodipodi:nodetypes="cscc" />
            <path
               style="fill:#aad400;fill-opacity:1;stroke:#aad400;stroke-width:0.4272069"
               d="m 289.59363,329.28837 c 0.0207,-0.4921 0.12318,-0.59219 0.26103,-0.25522 0.12487,0.30494 0.10957,0.66927 -0.0341,0.80963 -0.14353,0.14033 -0.24568,-0.10912 -0.22692,-0.55441 z"
               id="path3806-2-9-6"
               inkscape:connector-curvature="0" />
          </g>
          <g
             transform="translate(207.6469,35.62856)"
             id="g10459-5-1">
            <path
               style="fill:none;fill-rule:evenodd;stroke:#668000;stroke-width:2.52334619px;stroke-linecap:butt;stroke-linejoin:miter;stroke-opacity:1"
               d="m 511.32548,172.4731 c -14.71853,4.84014 -11.5364,43.33002 -31.34146,50.15997 -16.91773,-4.01204 -18.53722,-11.56769 -21.15107,-18.89302 0.9298,-16.09433 31.62615,-13.25901 52.49253,-31.26695 z"
               id="path3675-1-0-0-3-0"
               inkscape:connector-curvature="0"
               sodipodi:nodetypes="cccc" />
            <path
               style="fill:none;fill-rule:evenodd;stroke:#88aa00;stroke-width:2.52334619px;stroke-linecap:butt;stroke-linejoin:miter;stroke-opacity:1"
               d="m 492.55242,190.19514 -26.39691,25.47511 8.98626,-9.20239 9.80567,5.29755 -9.80567,-5.29755 -2.65526,-11.17716 3.0113,11.64785 7.35627,-8.48239 -1.79303,-7.16225 1.29978,8.42672 6.03954,3.19332 0.78066,0.0743"
               id="path3767-0-6-2-1-4-8"
               inkscape:connector-curvature="0"
               sodipodi:nodetypes="cccccccccccc" />
            <path
               style="fill:#aad400;fill-opacity:1;stroke:#aad400;stroke-width:0.58411568"
               d="m 461.82592,199.40088 c 1.76842,-2.97958 7.65447,-6.08368 18.91935,-9.97739 7.94539,-2.7463 15.39081,-5.69792 19.82895,-7.86086 0.96001,-0.46786 0.97366,-0.38793 0.22083,1.29156 -0.44146,0.98467 -2.21388,6.09786 -3.93877,11.3626 -5.06457,15.45839 -8.43081,21.57302 -13.85411,25.16544 -2.33148,1.5444 -2.65493,1.60225 -5.30292,0.94825 -3.15298,-0.77874 -9.28874,-3.61575 -9.29207,-4.29642 -10e-4,-0.24257 1.64737,-2.00364 3.66346,-3.91348 l 3.66566,-3.47246 4.34645,2.38167 c 4.15231,2.27526 4.37176,2.32835 4.91276,1.18868 0.31147,-0.65613 0.56553,-1.3459 0.56462,-1.5328 -9.2e-4,-0.18697 -1.6484,-1.2446 -3.66108,-2.35046 l -3.65939,-2.01062 2.26047,-2.30106 2.26047,-2.30108 2.75224,1.52011 c 3.43463,1.89699 3.89922,1.89228 3.88975,-0.0388 -0.006,-1.16428 -0.49069,-1.80003 -1.95212,-2.55896 -1.77192,-0.92017 -2.56759,-1.977 -1.53398,-2.03738 0.22857,-0.0127 1.98323,-1.6226 3.89929,-3.57611 2.60358,-2.65445 3.38796,-3.82317 3.10448,-4.62583 -0.58843,-1.66622 -1.37268,-1.30746 -5.2312,2.39323 l -3.58523,3.43857 -0.67611,-1.7148 c -0.37189,-0.94314 -0.68977,-2.19955 -0.70642,-2.79203 -0.0324,-1.15014 -0.95425,-1.37601 -2.14261,-0.52495 -0.53774,0.38512 -0.62863,1.46572 -0.34902,4.14982 0.3772,3.62109 0.3732,3.6344 -1.81704,6.02225 l -2.19507,2.39315 -0.93638,-3.59586 c -0.515,-1.9777 -1.05459,-4.04002 -1.19912,-4.58295 -0.18048,-0.6778 -0.69257,-0.89176 -1.63448,-0.68285 -0.75443,0.16732 -1.37108,0.43356 -1.37031,0.59164 7.8e-4,0.158 0.52606,2.51793 1.16725,5.24411 l 1.16583,4.95669 -2.3749,2.74949 c -3.62931,4.20172 -5.28689,5.40302 -6.24892,4.52872 -1.26443,-1.14912 -4.19188,-7.9902 -4.20084,-9.81683 -0.004,-0.91169 0.55369,-2.60424 1.24035,-3.76121 z"
               id="path3800-62-5-1-4-6"
               inkscape:connector-curvature="0" />
            <path
               style="fill:none;fill-rule:evenodd;stroke:#668000;stroke-width:2.29103327px;stroke-linecap:butt;stroke-linejoin:miter;stroke-opacity:1"
               d="m 417.04107,197.2508 c 10.65024,12.11464 33.78919,-6.60606 48.32407,9.56609 6.07983,17.82444 2.04695,22.45143 -1.32864,27.93622 -10.8327,5.66474 -24.72415,-24.8668 -46.99543,-37.50231 z"
               id="path3675-1-9-3-7-6"
               inkscape:connector-curvature="0"
               sodipodi:nodetypes="cccc" />
            <path
               style="fill:none;fill-rule:evenodd;stroke:#88aa00;stroke-width:2.29103327px;stroke-linecap:butt;stroke-linejoin:miter;stroke-opacity:1"
               d="m 438.05663,207.99941 29.90791,14.88723 -10.52252,-4.85221 -1.61137,-11.54165 1.61137,11.54165 -5.83303,7.09312 5.95363,-7.62556 -9.22467,-3.58551 -3.69089,4.63284 4.75711,-4.67576 -1.03725,-7.08044 -0.35189,-0.77734"
               id="path3767-0-6-5-8-6-6"
               inkscape:connector-curvature="0"
               sodipodi:nodetypes="cccccccccccc" />
            <path
               style="fill:#aad400;fill-opacity:1;stroke:#aad400;stroke-width:0.53033882"
               d="m 459.71191,233.65596 c -2.82275,-0.47893 -7.83378,-4.84779 -16.10679,-14.04269 -5.83513,-6.48538 -11.54641,-12.40868 -15.21051,-15.77516 -0.79257,-0.7282 -0.74812,-0.77383 0.71806,-0.73734 0.85965,0.0215 5.05742,-0.3647 9.32838,-0.85807 12.5404,-1.44871 18.1986,-0.71742 23.28695,3.00971 2.18749,1.60229 2.39032,1.88828 3.32519,4.68879 1.11315,3.33459 2.42894,10.36199 1.99264,10.6424 -0.15548,0.0999 -2.13275,-0.76056 -4.39394,-1.91219 l -4.11127,-2.0939 -0.69271,-5.12957 c -0.66178,-4.90043 -0.73997,-5.13207 -1.75032,-5.18567 -0.58169,-0.0309 -1.15563,0.007 -1.27543,0.0839 -0.11985,0.077 0.043,2.08441 0.36189,4.46094 l 0.57971,4.32094 -2.63805,-1.22618 -2.63805,-1.22616 -0.43092,-3.25301 c -0.53775,-4.05956 -0.77865,-4.50226 -2.01646,-3.70673 -0.74629,0.47963 -0.9071,1.20267 -0.64724,2.91037 0.31506,2.07049 0.0424,3.26236 -0.52568,2.29777 -0.1252,-0.21356 -2.05951,-1.23715 -4.29758,-2.27526 -3.04112,-1.41062 -4.19477,-1.6853 -4.56614,-1.08712 -0.77095,1.24172 -0.13857,1.84615 4.21831,4.03167 l 4.04828,2.03072 -0.75731,1.34541 c -0.41651,0.74001 -1.06225,1.55591 -1.43499,1.81314 -0.7235,0.49945 -0.3969,1.47363 0.75918,2.2643 0.52314,0.35778 1.26503,0.005 2.84908,-1.35604 2.13705,-1.83571 2.14766,-1.8373 4.8056,-0.71369 l 2.66382,1.12608 -1.83451,2.36058 c -1.00898,1.2983 -2.05982,2.65459 -2.33519,3.01402 -0.34376,0.44877 -0.21927,1.02598 0.39741,1.84232 0.49392,0.65386 0.98096,1.13558 1.08229,1.07045 0.10127,-0.0651 1.35095,-1.52889 2.77696,-3.25278 l 2.59273,-3.13437 2.9852,1.15305 c 4.56194,1.76211 6.18363,2.8592 6.11356,4.13594 -0.0921,1.67807 -2.99551,7.26577 -4.16636,8.01826 -0.58438,0.37557 -1.95929,0.53071 -3.05536,0.34475 z"
               id="path3800-62-57-9-1-3"
               inkscape:connector-curvature="0" />
            <path
               style="fill:none;fill-rule:evenodd;stroke:#668000;stroke-width:2.53209567px;stroke-linecap:butt;stroke-linejoin:miter;stroke-opacity:1"
               d="m 424.2755,138.52096 c 3.547,16.85227 41.29508,31.00009 46.37679,53.81899 -5.25103,15.06139 -12.74001,13.27599 -20.08354,12.58559 -15.60476,-8.16941 -10.40654,-37.49748 -26.29325,-66.40458 z"
               id="path3675-59-6-1-7-4-2-68"
               inkscape:connector-curvature="0"
               sodipodi:nodetypes="cccc" />
            <path
               style="fill:none;fill-rule:evenodd;stroke:#88aa00;stroke-width:2.53209567px;stroke-linecap:butt;stroke-linejoin:miter;stroke-opacity:1"
               d="m 440.04983,165.21239 22.72205,37.7812 -8.25148,-13.10027 5.9389,-7.39227 -5.9389,7.39227 -11.09914,-2.38243 11.58593,2.23927 -7.67944,-11.15118 -7.11952,-1.43536 8.31217,2.49613 3.59014,-4.58437 0.1343,-0.74489"
               id="path3767-0-1-8-3-0-4-5-63"
               inkscape:connector-curvature="0"
               sodipodi:nodetypes="cccccccccccc" />
            <path
               style="fill:#aad400;fill-opacity:1;stroke:#aad400;stroke-width:0.58614099"
               d="m 446.57921,199.98896 c -2.76226,-3.10389 -5.31904,-10.36907 -8.21815,-23.35221 -2.04478,-9.15729 -4.32926,-17.90853 -6.0841,-23.30662 -0.37958,-1.16766 -0.30063,-1.1453 1.27572,0.36103 0.9242,0.88323 5.76463,4.95124 10.75647,9.04005 14.6571,12.00557 20.34661,18.11325 23.41581,25.13681 1.31948,3.01944 1.35015,3.36794 0.5029,5.71366 -1.00885,2.79306 -4.25952,7.6337 -4.92287,7.33073 -0.23639,-0.10797 -1.82113,-2.54404 -3.52163,-5.4135 l -3.09184,-5.21722 2.66509,-3.26162 c 2.54601,-3.11595 2.61515,-3.31085 1.54786,-4.36307 -0.61446,-0.60579 -1.26625,-1.16949 -1.44839,-1.25267 -0.18222,-0.0832 -1.34327,1.08336 -2.58029,2.59235 l -2.2491,2.7436 -2.06222,-3.28914 -2.06224,-3.28914 1.69927,-2.05991 c 2.12057,-2.57065 2.15285,-3.03597 0.27088,-3.89551 -1.13466,-0.51823 -1.79248,-0.32081 -2.64778,0.79471 -1.03703,1.35251 -2.1297,1.67022 -2.10649,0.61254 0.006,-0.23359 -1.42329,-2.70742 -3.17426,-5.49678 -2.37926,-3.79025 -3.45553,-5.09818 -4.25995,-5.17675 -1.66988,-0.16315 -1.38262,0.78019 1.91624,6.2924 l 3.0652,5.12178 -1.72415,-0.0976 c -0.94829,-0.0536 -2.19747,-0.30209 -2.77597,-0.55212 -1.123,-0.48521 -1.4162,0.33219 -0.68143,1.89995 0.3325,0.70942 1.37797,1.2863 4.01491,2.21537 3.55749,1.25342 3.57013,1.2634 5.72247,4.52157 l 2.15712,3.26538 -3.57728,-0.68457 c -1.96748,-0.37651 -4.01935,-0.76658 -4.55972,-0.86681 -0.67461,-0.12507 -0.92369,0.28919 -0.79492,1.32228 0.10312,0.82745 0.31354,1.56206 0.4676,1.63243 0.15397,0.0703 2.49463,0.60858 5.20127,1.1961 l 4.92116,1.06817 2.48998,3.60502 c 3.80514,5.50915 4.84386,7.70233 3.9158,8.26802 -1.21979,0.74353 -8.11646,0.58369 -9.89662,-0.22936 -0.88849,-0.4058 -2.49302,-1.72391 -3.56561,-2.92915 z"
               id="path3800-6-0-9-9-0-2-6"
               inkscape:connector-curvature="0" />
          </g>
          <g
             transform="matrix(-0.93566576,0,0,1.000578,1208.5296,34.32947)"
             id="g10459-5-3-3">
            <path
               style="fill:none;fill-rule:evenodd;stroke:#668000;stroke-width:2.52334619px;stroke-linecap:butt;stroke-linejoin:miter;stroke-opacity:1"
               d="m 511.32548,172.4731 c -14.71853,4.84014 -11.5364,43.33002 -31.34146,50.15997 -16.91773,-4.01204 -18.53722,-11.56769 -21.15107,-18.89302 0.9298,-16.09433 31.62615,-13.25901 52.49253,-31.26695 z"
               id="path3675-1-0-0-3-4-9"
               inkscape:connector-curvature="0"
               sodipodi:nodetypes="cccc" />
            <path
               style="fill:none;fill-rule:evenodd;stroke:#88aa00;stroke-width:2.52334619px;stroke-linecap:butt;stroke-linejoin:miter;stroke-opacity:1"
               d="m 492.55242,190.19514 -26.39691,25.47511 8.98626,-9.20239 9.80567,5.29755 -9.80567,-5.29755 -2.65526,-11.17716 3.0113,11.64785 7.35627,-8.48239 -1.79303,-7.16225 1.29978,8.42672 6.03954,3.19332 0.78066,0.0743"
               id="path3767-0-6-2-1-4-5-4"
               inkscape:connector-curvature="0"
               sodipodi:nodetypes="cccccccccccc" />
            <path
               style="fill:#aad400;fill-opacity:1;stroke:#aad400;stroke-width:0.58411568"
               d="m 461.82592,199.40088 c 1.76842,-2.97958 7.65447,-6.08368 18.91935,-9.97739 7.94539,-2.7463 15.39081,-5.69792 19.82895,-7.86086 0.96001,-0.46786 0.97366,-0.38793 0.22083,1.29156 -0.44146,0.98467 -2.21388,6.09786 -3.93877,11.3626 -5.06457,15.45839 -8.43081,21.57302 -13.85411,25.16544 -2.33148,1.5444 -2.65493,1.60225 -5.30292,0.94825 -3.15298,-0.77874 -9.28874,-3.61575 -9.29207,-4.29642 -10e-4,-0.24257 1.64737,-2.00364 3.66346,-3.91348 l 3.66566,-3.47246 4.34645,2.38167 c 4.15231,2.27526 4.37176,2.32835 4.91276,1.18868 0.31147,-0.65613 0.56553,-1.3459 0.56462,-1.5328 -9.2e-4,-0.18697 -1.6484,-1.2446 -3.66108,-2.35046 l -3.65939,-2.01062 2.26047,-2.30106 2.26047,-2.30108 2.75224,1.52011 c 3.43463,1.89699 3.89922,1.89228 3.88975,-0.0388 -0.006,-1.16428 -0.49069,-1.80003 -1.95212,-2.55896 -1.77192,-0.92017 -2.56759,-1.977 -1.53398,-2.03738 0.22857,-0.0127 1.98323,-1.6226 3.89929,-3.57611 2.60358,-2.65445 3.38796,-3.82317 3.10448,-4.62583 -0.58843,-1.66622 -1.37268,-1.30746 -5.2312,2.39323 l -3.58523,3.43857 -0.67611,-1.7148 c -0.37189,-0.94314 -0.68977,-2.19955 -0.70642,-2.79203 -0.0324,-1.15014 -0.95425,-1.37601 -2.14261,-0.52495 -0.53774,0.38512 -0.62863,1.46572 -0.34902,4.14982 0.3772,3.62109 0.3732,3.6344 -1.81704,6.02225 l -2.19507,2.39315 -0.93638,-3.59586 c -0.515,-1.9777 -1.05459,-4.04002 -1.19912,-4.58295 -0.18048,-0.6778 -0.69257,-0.89176 -1.63448,-0.68285 -0.75443,0.16732 -1.37108,0.43356 -1.37031,0.59164 7.8e-4,0.158 0.52606,2.51793 1.16725,5.24411 l 1.16583,4.95669 -2.3749,2.74949 c -3.62931,4.20172 -5.28689,5.40302 -6.24892,4.52872 -1.26443,-1.14912 -4.19188,-7.9902 -4.20084,-9.81683 -0.004,-0.91169 0.55369,-2.60424 1.24035,-3.76121 z"
               id="path3800-62-5-1-4-5-9"
               inkscape:connector-curvature="0" />
            <path
               style="fill:none;fill-rule:evenodd;stroke:#668000;stroke-width:2.29103327px;stroke-linecap:butt;stroke-linejoin:miter;stroke-opacity:1"
               d="m 417.04107,197.2508 c 10.65024,12.11464 33.78919,-6.60606 48.32407,9.56609 6.07983,17.82444 2.04695,22.45143 -1.32864,27.93622 -10.8327,5.66474 -24.72415,-24.8668 -46.99543,-37.50231 z"
               id="path3675-1-9-3-7-7-3"
               inkscape:connector-curvature="0"
               sodipodi:nodetypes="cccc" />
            <path
               style="fill:none;fill-rule:evenodd;stroke:#88aa00;stroke-width:2.29103327px;stroke-linecap:butt;stroke-linejoin:miter;stroke-opacity:1"
               d="m 438.05663,207.99941 29.90791,14.88723 -10.52252,-4.85221 -1.61137,-11.54165 1.61137,11.54165 -5.83303,7.09312 5.95363,-7.62556 -9.22467,-3.58551 -3.69089,4.63284 4.75711,-4.67576 -1.03725,-7.08044 -0.35189,-0.77734"
               id="path3767-0-6-5-8-6-22-2"
               inkscape:connector-curvature="0"
               sodipodi:nodetypes="cccccccccccc" />
            <path
               style="fill:#aad400;fill-opacity:1;stroke:#aad400;stroke-width:0.53033882"
               d="m 459.71191,233.65596 c -2.82275,-0.47893 -7.83378,-4.84779 -16.10679,-14.04269 -5.83513,-6.48538 -11.54641,-12.40868 -15.21051,-15.77516 -0.79257,-0.7282 -0.74812,-0.77383 0.71806,-0.73734 0.85965,0.0215 5.05742,-0.3647 9.32838,-0.85807 12.5404,-1.44871 18.1986,-0.71742 23.28695,3.00971 2.18749,1.60229 2.39032,1.88828 3.32519,4.68879 1.11315,3.33459 2.42894,10.36199 1.99264,10.6424 -0.15548,0.0999 -2.13275,-0.76056 -4.39394,-1.91219 l -4.11127,-2.0939 -0.69271,-5.12957 c -0.66178,-4.90043 -0.73997,-5.13207 -1.75032,-5.18567 -0.58169,-0.0309 -1.15563,0.007 -1.27543,0.0839 -0.11985,0.077 0.043,2.08441 0.36189,4.46094 l 0.57971,4.32094 -2.63805,-1.22618 -2.63805,-1.22616 -0.43092,-3.25301 c -0.53775,-4.05956 -0.77865,-4.50226 -2.01646,-3.70673 -0.74629,0.47963 -0.9071,1.20267 -0.64724,2.91037 0.31506,2.07049 0.0424,3.26236 -0.52568,2.29777 -0.1252,-0.21356 -2.05951,-1.23715 -4.29758,-2.27526 -3.04112,-1.41062 -4.19477,-1.6853 -4.56614,-1.08712 -0.77095,1.24172 -0.13857,1.84615 4.21831,4.03167 l 4.04828,2.03072 -0.75731,1.34541 c -0.41651,0.74001 -1.06225,1.55591 -1.43499,1.81314 -0.7235,0.49945 -0.3969,1.47363 0.75918,2.2643 0.52314,0.35778 1.26503,0.005 2.84908,-1.35604 2.13705,-1.83571 2.14766,-1.8373 4.8056,-0.71369 l 2.66382,1.12608 -1.83451,2.36058 c -1.00898,1.2983 -2.05982,2.65459 -2.33519,3.01402 -0.34376,0.44877 -0.21927,1.02598 0.39741,1.84232 0.49392,0.65386 0.98096,1.13558 1.08229,1.07045 0.10127,-0.0651 1.35095,-1.52889 2.77696,-3.25278 l 2.59273,-3.13437 2.9852,1.15305 c 4.56194,1.76211 6.18363,2.8592 6.11356,4.13594 -0.0921,1.67807 -2.99551,7.26577 -4.16636,8.01826 -0.58438,0.37557 -1.95929,0.53071 -3.05536,0.34475 z"
               id="path3800-62-57-9-1-7-8"
               inkscape:connector-curvature="0" />
            <path
               style="fill:none;fill-rule:evenodd;stroke:#668000;stroke-width:2.53209567px;stroke-linecap:butt;stroke-linejoin:miter;stroke-opacity:1"
               d="m 424.2755,138.52096 c 3.547,16.85227 41.29508,31.00009 46.37679,53.81899 -5.25103,15.06139 -12.74001,13.27599 -20.08354,12.58559 -15.60476,-8.16941 -10.40654,-37.49748 -26.29325,-66.40458 z"
               id="path3675-59-6-1-7-4-2-6-2"
               inkscape:connector-curvature="0"
               sodipodi:nodetypes="cccc" />
            <path
               style="fill:none;fill-rule:evenodd;stroke:#88aa00;stroke-width:2.53209567px;stroke-linecap:butt;stroke-linejoin:miter;stroke-opacity:1"
               d="m 440.04983,165.21239 22.72205,37.7812 -8.25148,-13.10027 5.9389,-7.39227 -5.9389,7.39227 -11.09914,-2.38243 11.58593,2.23927 -7.67944,-11.15118 -7.11952,-1.43536 8.31217,2.49613 3.59014,-4.58437 0.1343,-0.74489"
               id="path3767-0-1-8-3-0-4-5-7-7"
               inkscape:connector-curvature="0"
               sodipodi:nodetypes="cccccccccccc" />
            <path
               style="fill:#aad400;fill-opacity:1;stroke:#aad400;stroke-width:0.58614099"
               d="m 446.57921,199.98896 c -2.76226,-3.10389 -5.31904,-10.36907 -8.21815,-23.35221 -2.04478,-9.15729 -4.32926,-17.90853 -6.0841,-23.30662 -0.37958,-1.16766 -0.30063,-1.1453 1.27572,0.36103 0.9242,0.88323 5.76463,4.95124 10.75647,9.04005 14.6571,12.00557 20.34661,18.11325 23.41581,25.13681 1.31948,3.01944 1.35015,3.36794 0.5029,5.71366 -1.00885,2.79306 -4.25952,7.6337 -4.92287,7.33073 -0.23639,-0.10797 -1.82113,-2.54404 -3.52163,-5.4135 l -3.09184,-5.21722 2.66509,-3.26162 c 2.54601,-3.11595 2.61515,-3.31085 1.54786,-4.36307 -0.61446,-0.60579 -1.26625,-1.16949 -1.44839,-1.25267 -0.18222,-0.0832 -1.34327,1.08336 -2.58029,2.59235 l -2.2491,2.7436 -2.06222,-3.28914 -2.06224,-3.28914 1.69927,-2.05991 c 2.12057,-2.57065 2.15285,-3.03597 0.27088,-3.89551 -1.13466,-0.51823 -1.79248,-0.32081 -2.64778,0.79471 -1.03703,1.35251 -2.1297,1.67022 -2.10649,0.61254 0.006,-0.23359 -1.42329,-2.70742 -3.17426,-5.49678 -2.37926,-3.79025 -3.45553,-5.09818 -4.25995,-5.17675 -1.66988,-0.16315 -1.38262,0.78019 1.91624,6.2924 l 3.0652,5.12178 -1.72415,-0.0976 c -0.94829,-0.0536 -2.19747,-0.30209 -2.77597,-0.55212 -1.123,-0.48521 -1.4162,0.33219 -0.68143,1.89995 0.3325,0.70942 1.37797,1.2863 4.01491,2.21537 3.55749,1.25342 3.57013,1.2634 5.72247,4.52157 l 2.15712,3.26538 -3.57728,-0.68457 c -1.96748,-0.37651 -4.01935,-0.76658 -4.55972,-0.86681 -0.67461,-0.12507 -0.92369,0.28919 -0.79492,1.32228 0.10312,0.82745 0.31354,1.56206 0.4676,1.63243 0.15397,0.0703 2.49463,0.60858 5.20127,1.1961 l 4.92116,1.06817 2.48998,3.60502 c 3.80514,5.50915 4.84386,7.70233 3.9158,8.26802 -1.21979,0.74353 -8.11646,0.58369 -9.89662,-0.22936 -0.88849,-0.4058 -2.49302,-1.72391 -3.56561,-2.92915 z"
               id="path3800-6-0-9-9-0-2-5-1"
               inkscape:connector-curvature="0" />
          </g>
          <g
             transform="translate(265.0386,-21.40573)"
             id="g10459-5-0">
            <path
               style="fill:none;fill-rule:evenodd;stroke:#668000;stroke-width:2.52334619px;stroke-linecap:butt;stroke-linejoin:miter;stroke-opacity:1"
               d="m 511.32548,172.4731 c -14.71853,4.84014 -11.5364,43.33002 -31.34146,50.15997 -16.91773,-4.01204 -18.53722,-11.56769 -21.15107,-18.89302 0.9298,-16.09433 31.62615,-13.25901 52.49253,-31.26695 z"
               id="path3675-1-0-0-3-5"
               inkscape:connector-curvature="0"
               sodipodi:nodetypes="cccc" />
            <path
               style="fill:none;fill-rule:evenodd;stroke:#88aa00;stroke-width:2.52334619px;stroke-linecap:butt;stroke-linejoin:miter;stroke-opacity:1"
               d="m 492.55242,190.19514 -26.39691,25.47511 8.98626,-9.20239 9.80567,5.29755 -9.80567,-5.29755 -2.65526,-11.17716 3.0113,11.64785 7.35627,-8.48239 -1.79303,-7.16225 1.29978,8.42672 6.03954,3.19332 0.78066,0.0743"
               id="path3767-0-6-2-1-4-1"
               inkscape:connector-curvature="0"
               sodipodi:nodetypes="cccccccccccc" />
            <path
               style="fill:#aad400;fill-opacity:1;stroke:#aad400;stroke-width:0.58411568"
               d="m 461.82592,199.40088 c 1.76842,-2.97958 7.65447,-6.08368 18.91935,-9.97739 7.94539,-2.7463 15.39081,-5.69792 19.82895,-7.86086 0.96001,-0.46786 0.97366,-0.38793 0.22083,1.29156 -0.44146,0.98467 -2.21388,6.09786 -3.93877,11.3626 -5.06457,15.45839 -8.43081,21.57302 -13.85411,25.16544 -2.33148,1.5444 -2.65493,1.60225 -5.30292,0.94825 -3.15298,-0.77874 -9.28874,-3.61575 -9.29207,-4.29642 -10e-4,-0.24257 1.64737,-2.00364 3.66346,-3.91348 l 3.66566,-3.47246 4.34645,2.38167 c 4.15231,2.27526 4.37176,2.32835 4.91276,1.18868 0.31147,-0.65613 0.56553,-1.3459 0.56462,-1.5328 -9.2e-4,-0.18697 -1.6484,-1.2446 -3.66108,-2.35046 l -3.65939,-2.01062 2.26047,-2.30106 2.26047,-2.30108 2.75224,1.52011 c 3.43463,1.89699 3.89922,1.89228 3.88975,-0.0388 -0.006,-1.16428 -0.49069,-1.80003 -1.95212,-2.55896 -1.77192,-0.92017 -2.56759,-1.977 -1.53398,-2.03738 0.22857,-0.0127 1.98323,-1.6226 3.89929,-3.57611 2.60358,-2.65445 3.38796,-3.82317 3.10448,-4.62583 -0.58843,-1.66622 -1.37268,-1.30746 -5.2312,2.39323 l -3.58523,3.43857 -0.67611,-1.7148 c -0.37189,-0.94314 -0.68977,-2.19955 -0.70642,-2.79203 -0.0324,-1.15014 -0.95425,-1.37601 -2.14261,-0.52495 -0.53774,0.38512 -0.62863,1.46572 -0.34902,4.14982 0.3772,3.62109 0.3732,3.6344 -1.81704,6.02225 l -2.19507,2.39315 -0.93638,-3.59586 c -0.515,-1.9777 -1.05459,-4.04002 -1.19912,-4.58295 -0.18048,-0.6778 -0.69257,-0.89176 -1.63448,-0.68285 -0.75443,0.16732 -1.37108,0.43356 -1.37031,0.59164 7.8e-4,0.158 0.52606,2.51793 1.16725,5.24411 l 1.16583,4.95669 -2.3749,2.74949 c -3.62931,4.20172 -5.28689,5.40302 -6.24892,4.52872 -1.26443,-1.14912 -4.19188,-7.9902 -4.20084,-9.81683 -0.004,-0.91169 0.55369,-2.60424 1.24035,-3.76121 z"
               id="path3800-62-5-1-4-7"
               inkscape:connector-curvature="0" />
            <path
               style="fill:none;fill-rule:evenodd;stroke:#668000;stroke-width:2.29103327px;stroke-linecap:butt;stroke-linejoin:miter;stroke-opacity:1"
               d="m 417.04107,197.2508 c 10.65024,12.11464 33.78919,-6.60606 48.32407,9.56609 6.07983,17.82444 2.04695,22.45143 -1.32864,27.93622 -10.8327,5.66474 -24.72415,-24.8668 -46.99543,-37.50231 z"
               id="path3675-1-9-3-7-1"
               inkscape:connector-curvature="0"
               sodipodi:nodetypes="cccc" />
            <path
               style="fill:none;fill-rule:evenodd;stroke:#88aa00;stroke-width:2.29103327px;stroke-linecap:butt;stroke-linejoin:miter;stroke-opacity:1"
               d="m 438.05663,207.99941 29.90791,14.88723 -10.52252,-4.85221 -1.61137,-11.54165 1.61137,11.54165 -5.83303,7.09312 5.95363,-7.62556 -9.22467,-3.58551 -3.69089,4.63284 4.75711,-4.67576 -1.03725,-7.08044 -0.35189,-0.77734"
               id="path3767-0-6-5-8-6-2"
               inkscape:connector-curvature="0"
               sodipodi:nodetypes="cccccccccccc" />
            <path
               style="fill:#aad400;fill-opacity:1;stroke:#aad400;stroke-width:0.53033882"
               d="m 459.71191,233.65596 c -2.82275,-0.47893 -7.83378,-4.84779 -16.10679,-14.04269 -5.83513,-6.48538 -11.54641,-12.40868 -15.21051,-15.77516 -0.79257,-0.7282 -0.74812,-0.77383 0.71806,-0.73734 0.85965,0.0215 5.05742,-0.3647 9.32838,-0.85807 12.5404,-1.44871 18.1986,-0.71742 23.28695,3.00971 2.18749,1.60229 2.39032,1.88828 3.32519,4.68879 1.11315,3.33459 2.42894,10.36199 1.99264,10.6424 -0.15548,0.0999 -2.13275,-0.76056 -4.39394,-1.91219 l -4.11127,-2.0939 -0.69271,-5.12957 c -0.66178,-4.90043 -0.73997,-5.13207 -1.75032,-5.18567 -0.58169,-0.0309 -1.15563,0.007 -1.27543,0.0839 -0.11985,0.077 0.043,2.08441 0.36189,4.46094 l 0.57971,4.32094 -2.63805,-1.22618 -2.63805,-1.22616 -0.43092,-3.25301 c -0.53775,-4.05956 -0.77865,-4.50226 -2.01646,-3.70673 -0.74629,0.47963 -0.9071,1.20267 -0.64724,2.91037 0.31506,2.07049 0.0424,3.26236 -0.52568,2.29777 -0.1252,-0.21356 -2.05951,-1.23715 -4.29758,-2.27526 -3.04112,-1.41062 -4.19477,-1.6853 -4.56614,-1.08712 -0.77095,1.24172 -0.13857,1.84615 4.21831,4.03167 l 4.04828,2.03072 -0.75731,1.34541 c -0.41651,0.74001 -1.06225,1.55591 -1.43499,1.81314 -0.7235,0.49945 -0.3969,1.47363 0.75918,2.2643 0.52314,0.35778 1.26503,0.005 2.84908,-1.35604 2.13705,-1.83571 2.14766,-1.8373 4.8056,-0.71369 l 2.66382,1.12608 -1.83451,2.36058 c -1.00898,1.2983 -2.05982,2.65459 -2.33519,3.01402 -0.34376,0.44877 -0.21927,1.02598 0.39741,1.84232 0.49392,0.65386 0.98096,1.13558 1.08229,1.07045 0.10127,-0.0651 1.35095,-1.52889 2.77696,-3.25278 l 2.59273,-3.13437 2.9852,1.15305 c 4.56194,1.76211 6.18363,2.8592 6.11356,4.13594 -0.0921,1.67807 -2.99551,7.26577 -4.16636,8.01826 -0.58438,0.37557 -1.95929,0.53071 -3.05536,0.34475 z"
               id="path3800-62-57-9-1-1"
               inkscape:connector-curvature="0" />
            <path
               style="fill:none;fill-rule:evenodd;stroke:#668000;stroke-width:2.53209567px;stroke-linecap:butt;stroke-linejoin:miter;stroke-opacity:1"
               d="m 424.2755,138.52096 c 3.547,16.85227 41.29508,31.00009 46.37679,53.81899 -5.25103,15.06139 -12.74001,13.27599 -20.08354,12.58559 -15.60476,-8.16941 -10.40654,-37.49748 -26.29325,-66.40458 z"
               id="path3675-59-6-1-7-4-2-8"
               inkscape:connector-curvature="0"
               sodipodi:nodetypes="cccc" />
            <path
               style="fill:none;fill-rule:evenodd;stroke:#88aa00;stroke-width:2.53209567px;stroke-linecap:butt;stroke-linejoin:miter;stroke-opacity:1"
               d="m 440.04983,165.21239 22.72205,37.7812 -8.25148,-13.10027 5.9389,-7.39227 -5.9389,7.39227 -11.09914,-2.38243 11.58593,2.23927 -7.67944,-11.15118 -7.11952,-1.43536 8.31217,2.49613 3.59014,-4.58437 0.1343,-0.74489"
               id="path3767-0-1-8-3-0-4-5-6"
               inkscape:connector-curvature="0"
               sodipodi:nodetypes="cccccccccccc" />
            <path
               style="fill:#aad400;fill-opacity:1;stroke:#aad400;stroke-width:0.58614099"
               d="m 446.57921,199.98896 c -2.76226,-3.10389 -5.31904,-10.36907 -8.21815,-23.35221 -2.04478,-9.15729 -4.32926,-17.90853 -6.0841,-23.30662 -0.37958,-1.16766 -0.30063,-1.1453 1.27572,0.36103 0.9242,0.88323 5.76463,4.95124 10.75647,9.04005 14.6571,12.00557 20.34661,18.11325 23.41581,25.13681 1.31948,3.01944 1.35015,3.36794 0.5029,5.71366 -1.00885,2.79306 -4.25952,7.6337 -4.92287,7.33073 -0.23639,-0.10797 -1.82113,-2.54404 -3.52163,-5.4135 l -3.09184,-5.21722 2.66509,-3.26162 c 2.54601,-3.11595 2.61515,-3.31085 1.54786,-4.36307 -0.61446,-0.60579 -1.26625,-1.16949 -1.44839,-1.25267 -0.18222,-0.0832 -1.34327,1.08336 -2.58029,2.59235 l -2.2491,2.7436 -2.06222,-3.28914 -2.06224,-3.28914 1.69927,-2.05991 c 2.12057,-2.57065 2.15285,-3.03597 0.27088,-3.89551 -1.13466,-0.51823 -1.79248,-0.32081 -2.64778,0.79471 -1.03703,1.35251 -2.1297,1.67022 -2.10649,0.61254 0.006,-0.23359 -1.42329,-2.70742 -3.17426,-5.49678 -2.37926,-3.79025 -3.45553,-5.09818 -4.25995,-5.17675 -1.66988,-0.16315 -1.38262,0.78019 1.91624,6.2924 l 3.0652,5.12178 -1.72415,-0.0976 c -0.94829,-0.0536 -2.19747,-0.30209 -2.77597,-0.55212 -1.123,-0.48521 -1.4162,0.33219 -0.68143,1.89995 0.3325,0.70942 1.37797,1.2863 4.01491,2.21537 3.55749,1.25342 3.57013,1.2634 5.72247,4.52157 l 2.15712,3.26538 -3.57728,-0.68457 c -1.96748,-0.37651 -4.01935,-0.76658 -4.55972,-0.86681 -0.67461,-0.12507 -0.92369,0.28919 -0.79492,1.32228 0.10312,0.82745 0.31354,1.56206 0.4676,1.63243 0.15397,0.0703 2.49463,0.60858 5.20127,1.1961 l 4.92116,1.06817 2.48998,3.60502 c 3.80514,5.50915 4.84386,7.70233 3.9158,8.26802 -1.21979,0.74353 -8.11646,0.58369 -9.89662,-0.22936 -0.88849,-0.4058 -2.49302,-1.72391 -3.56561,-2.92915 z"
               id="path3800-6-0-9-9-0-2-2"
               inkscape:connector-curvature="0" />
          </g>
          <path
             inkscape:connector-curvature="0"
             id="path4405"
             d="m 681.91406,471.53965 c 0,-0.24768 2.34623,-6.26886 5.21384,-13.38042 16.25793,-40.31898 20.09993,-95.73765 10.07101,-145.26832 -3.2251,-15.92802 -10.28295,-36.43323 -15.4097,-44.76985 -2.4369,-3.96264 -4.22932,-8.25061 -3.98316,-9.52881 0.76777,-3.98668 6.42205,3.50176 14.24612,18.86733 8.23815,16.17879 12.63776,28.79899 16.23635,46.57369 1.39624,6.89654 3.15949,12.34839 3.91833,12.11523 0.76169,-0.23404 1.17007,-5.83133 0.9117,-12.49592 -0.46642,-12.03135 5.73424,-75.57735 8.74048,-89.57461 3.11406,-14.49935 4.38649,-18.41424 5.985,-18.41424 0.89224,0 2.44166,-1.12061 3.44316,-2.49025 1.63837,-2.24061 2.06079,-2.02641 4.21354,2.13655 3.37678,6.52997 2.97761,16.92601 -1.32504,34.51034 -3.60953,14.75159 -8.06056,63.56849 -5.98528,65.64377 1.65789,1.65789 2.37195,-0.71766 3.91365,-13.02002 1.7,-13.56545 5.22276,-23.49991 13.72284,-38.69948 4.43895,-7.93758 5.96398,-9.60949 7.55836,-8.28627 1.09857,0.91173 3.66474,2.10887 5.70262,2.66033 l 3.70523,1.00264 -8.17909,11.04854 c -12.85799,17.36894 -16.91861,27.15165 -18.24614,43.95801 -0.94729,11.99245 -2.42283,17.76535 -9.38043,36.69991 -12.74377,34.68114 -15.94902,48.19143 -15.98854,67.39256 -0.0498,24.20309 4.8892,35.02904 20.49656,44.92694 l 6.42488,4.07455 -10.91666,1.02297 c -6.00417,0.56264 -13.79947,0.60025 -17.32289,0.0835 -3.92267,-0.5752 -10.11841,-0.056 -15.98163,1.3393 -9.844,2.34262 -11.78511,2.65095 -11.78511,1.87195 l 0,5e-5 z"
             style="fill:#502d16" />
        </g>
        <path
           style="fill:#445500;fill-rule:evenodd;stroke:#668000;stroke-width:1px;stroke-linecap:butt;stroke-linejoin:miter;stroke-opacity:1"
           d="m 8.7448835,205.51113 12.7024965,1.58781 -7.939056,-12.7025 12.702496,12.7025 -7.93907,-11.90859 12.7025,13.49641 -11.11468,-20.64157 15.87812,20.64157 -7.93906,-23.02329 12.7025,22.22938 -6.35125,-20.64156 8.73297,19.84765 1.58781,-17.46594 2.38172,15.87813 7.93906,-14.29031 -0.79391,14.29031 15.87813,1.58781"
           id="path6267-6-1-5-8"
           inkscape:connector-curvature="0"
           sodipodi:nodetypes="ccccccccccccccccc" />
        <path
           style="fill:#445500;fill-rule:evenodd;stroke:#668000;stroke-width:1px;stroke-linecap:butt;stroke-linejoin:miter;stroke-opacity:1"
           d="m 58.744887,194.2208 12.7025,1.58781 -7.93906,-12.7025 12.7025,12.7025 -7.93907,-11.90859 12.7025,13.49641 -11.11468,-20.64157 15.87812,20.64157 -7.93906,-23.02329 12.7025,22.22938 -6.35125,-20.64156 8.73297,19.84765 1.58781,-17.46594 2.38172,15.87813 7.939063,-14.29031 -0.79391,14.29031 15.87813,1.58781"
           id="path6267-6-1-5-8-2"
           inkscape:connector-curvature="0"
           sodipodi:nodetypes="ccccccccccccccccc" />
        <path
           style="fill:#445500;fill-rule:evenodd;stroke:#668000;stroke-width:1px;stroke-linecap:butt;stroke-linejoin:miter;stroke-opacity:1"
           d="m 124.87391,194.2208 12.7025,1.58781 -7.93906,-12.7025 12.7025,12.7025 -7.93907,-11.90859 12.7025,13.49641 -11.11468,-20.64157 15.87812,20.64157 -7.93906,-23.02329 12.7025,22.22938 -6.35125,-20.64156 8.73297,19.84765 1.58781,-17.46594 2.38172,15.87813 7.93906,-14.29031 -0.79391,14.29031 15.87813,1.58781"
           id="path6267-6-1-5-8-8"
           inkscape:connector-curvature="0"
           sodipodi:nodetypes="ccccccccccccccccc"
           inkscape:transform-center-x="61.28419"
           inkscape:transform-center-y="-1.6602097" />
        <path
           style="fill:#445500;fill-rule:evenodd;stroke:#668000;stroke-width:1px;stroke-linecap:butt;stroke-linejoin:miter;stroke-opacity:1"
           d="m 95.841653,215.18855 12.702497,1.58781 -7.93906,-12.7025 12.7025,12.7025 -7.93907,-11.90859 12.7025,13.49641 -11.11468,-20.64157 15.87812,20.64157 -7.93906,-23.02329 12.7025,22.22938 -6.35125,-20.64156 8.73297,19.84765 1.58781,-17.46594 2.38172,15.87813 7.93906,-14.29031 -0.79391,14.29031 15.87813,1.58781"
           id="path6267-6-1-5-8-0"
           inkscape:connector-curvature="0"
           sodipodi:nodetypes="ccccccccccccccccc" />
        <path
           style="fill:#445500;fill-rule:evenodd;stroke:#668000;stroke-width:1px;stroke-linecap:butt;stroke-linejoin:miter;stroke-opacity:1"
           d="m -25.126084,184.54339 12.702496,1.58781 -7.939056,-12.7025 12.7024959,12.7025 -7.9390659,-11.90859 12.7024956,13.49641 -11.1146796,-20.64157 15.8781196,20.64157 -7.9390597,-23.02329 12.7024997,22.22938 -6.35125003,-20.64156 8.73297003,19.84765 1.5878104,-17.46594 2.38172,15.87813 7.93906,-14.29031 -0.79391,14.29031 15.87813,1.58781"
           id="path6267-6-1-5-8-23"
           inkscape:connector-curvature="0"
           sodipodi:nodetypes="ccccccccccccccccc" />
        <path
           style="fill:#445500;fill-rule:evenodd;stroke:#668000;stroke-width:1px;stroke-linecap:butt;stroke-linejoin:miter;stroke-opacity:1"
           d="m 52.29327,220.02726 12.7025,1.58781 -7.93906,-12.7025 12.7025,12.7025 -7.93907,-11.90859 12.7025,13.49641 -11.11468,-20.64157 15.87812,20.64157 -7.93906,-23.02329 12.7025,22.22938 -6.35125,-20.64156 8.73297,19.84765 1.58781,-17.46594 2.38172,15.87813 7.93906,-14.29031 -0.79391,14.29031 15.87813,1.58781"
           id="path6267-6-1-5-8-4"
           inkscape:connector-curvature="0"
           sodipodi:nodetypes="ccccccccccccccccc" />
        <path
           style="fill:#445500;fill-rule:evenodd;stroke:#668000;stroke-width:1px;stroke-linecap:butt;stroke-linejoin:miter;stroke-opacity:1"
           d="m -52.545439,215.18856 12.7025,1.58781 -7.93906,-12.7025 12.7025,12.7025 -7.93907,-11.90859 12.7025,13.49641 -11.11468,-20.64157 15.878122,20.64157 -7.939062,-23.02329 12.702502,22.22938 -6.35125,-20.64156 8.73297,19.84765 1.58781,-17.46594 2.38172,15.87813 7.9390597,-14.29031 -0.79391,14.29031 15.87813,1.58781"
           id="path6267-6-1-5-8-07"
           inkscape:connector-curvature="0"
           sodipodi:nodetypes="ccccccccccccccccc" />
        <path
           style="fill:#445500;fill-rule:evenodd;stroke:#668000;stroke-width:1px;stroke-linecap:butt;stroke-linejoin:miter;stroke-opacity:1"
           d="m 161.97069,213.57564 12.7025,1.58781 -7.93906,-12.7025 12.7025,12.7025 -7.93907,-11.90859 12.7025,13.49641 -11.11468,-20.64157 15.87812,20.64157 -7.93906,-23.02329 12.7025,22.22938 -6.35125,-20.64156 8.73297,19.84765 1.58781,-17.46594 2.38172,15.87813 7.93906,-14.29031 -0.79391,14.29031 15.87813,1.58781"
           id="path6267-6-1-5-8-1"
           inkscape:connector-curvature="0"
           sodipodi:nodetypes="ccccccccccccccccc" />
      </g>
    </g>
  </g>
</svg>
