<?xml version="1.0" encoding="UTF-8" standalone="no"?>
<!-- Created with Inkscape (http://www.inkscape.org/) -->

<svg
   xmlns:dc="http://purl.org/dc/elements/1.1/"
   xmlns:cc="http://creativecommons.org/ns#"
   xmlns:rdf="http://www.w3.org/1999/02/22-rdf-syntax-ns#"
   xmlns:svg="http://www.w3.org/2000/svg"
   xmlns="http://www.w3.org/2000/svg"
   xmlns:sodipodi="http://sodipodi.sourceforge.net/DTD/sodipodi-0.dtd"
   xmlns:inkscape="http://www.inkscape.org/namespaces/inkscape"
   id="svg3470"
   version="1.1"
   inkscape:version="0.91 r13725"
   width="743.40002"
   height="1051.2"
   viewBox="0 0 743.40002 1051.2"
   sodipodi:docname="semente colorida.JPG.svg"
   inkscape:export-filename="/home/musquito/Ãrea de Trabalho/Jogo/Plantas do jogo/png/semente colorida.JPG.png"
   inkscape:export-xdpi="8.3452215"
   inkscape:export-ydpi="8.3452215">
  <metadata
     id="metadata3476">
    <rdf:RDF>
      <cc:Work
         rdf:about="">
        <dc:format>image/svg+xml</dc:format>
        <dc:type
           rdf:resource="http://purl.org/dc/dcmitype/StillImage" />
        <dc:title />
      </cc:Work>
    </rdf:RDF>
  </metadata>
  <defs
     id="defs3474" />
  <sodipodi:namedview
     pagecolor="#ffffff"
     bordercolor="#666666"
     borderopacity="1"
     objecttolerance="10"
     gridtolerance="10"
     guidetolerance="10"
     inkscape:pageopacity="0"
     inkscape:pageshadow="2"
     inkscape:window-width="1301"
     inkscape:window-height="744"
     id="namedview3472"
     showgrid="false"
     inkscape:zoom="0.62"
     inkscape:cx="-2.1486087"
     inkscape:cy="490.9659"
     inkscape:window-x="65"
     inkscape:window-y="24"
     inkscape:window-maximized="1"
     inkscape:current-layer="svg3470" />
  <g
     inkscape:groupmode="layer"
     id="layer1"
     inkscape:label="semente" />
  <g
     inkscape:groupmode="layer"
     id="layer2"
     inkscape:label="semente 1" />
  <path
     style="fill:#28170b;fill-opacity:1;stroke:#ffb380;stroke-width:0.16420361"
     d=""
     id="path3672"
     inkscape:connector-curvature="0" />
  <path
     style="fill:#28170b;fill-opacity:1;stroke:#ffb380;stroke-width:0.16420361"
     d=""
     id="path3680"
     inkscape:connector-curvature="0" />
  <path
     style="fill:#28170b;fill-opacity:1;stroke:#ffb380;stroke-width:0.16420361"
     d=""
     id="path3682"
     inkscape:connector-curvature="0" />
  <path
     style="fill:#28170b;fill-opacity:1;stroke:#ffb380;stroke-width:0.16420361"
     d=""
     id="path3684"
     inkscape:connector-curvature="0" />
  <g
     id="g3379">
    <g
       transform="matrix(1.6218071,0,0,1.5857722,-36.50296,-429.09167)"
       id="g3359">
      <path
         style="fill:none;fill-rule:evenodd;stroke:#502d16;stroke-width:1px;stroke-linecap:butt;stroke-linejoin:miter;stroke-opacity:1"
         d="m 207.80142,620.85288 c -31.65922,3.71456 -23.47552,37.98374 -6.68098,41.92889 35.98785,10.01943 44.93574,-7.15295 52.75669,-11.97968 23.80132,-20.77262 25.16393,-39.94141 27.41504,-51.83517 -4.06949,-28.58897 -24.42519,-19.95927 -27.41504,-14.51384 -6.49422,9.61321 -8.92161,24.02471 -15.43537,28.10618 -8.30271,8.17829 -18.65262,10.5562 -30.64034,8.29362 z"
         id="path3490"
         inkscape:connector-curvature="0"
         sodipodi:nodetypes="ccccccc" />
      <path
         style="fill:none;fill-rule:evenodd;stroke:#ffb380;stroke-width:1px;stroke-linecap:butt;stroke-linejoin:miter;stroke-opacity:1"
         d="m 210.79634,622.00478 c -4.01602,4.86908 -4.91953,9.56524 2.07341,13.82271 10.15953,1.16496 18.5494,-1.6518 26.26315,-5.98985 14.36215,-11.5308 13.26984,-15.70232 15.43536,-21.4252 0.31281,-7.61189 -3.45718,-8.41911 -6.68098,-10.13665 l 1.61265,1.15189"
         id="path3492"
         inkscape:connector-curvature="0"
         sodipodi:nodetypes="cccccc" />
      <path
         style="fill:#502d16;fill-opacity:1;stroke:#ffb380;stroke-width:0.16420361"
         d="m 215.02283,664.95319 c -2.55849,-0.27905 -5.57379,-0.78237 -8.40774,-1.40345 -7.65993,-1.67872 -10.12064,-2.82569 -13.38677,-6.23978 -2.22034,-2.32092 -4.00689,-5.33406 -5.08587,-8.57762 -0.97679,-2.93637 -1.15112,-4.09796 -1.13732,-7.57821 0.0111,-2.81128 0.0541,-3.27537 0.43476,-4.69192 0.59245,-2.20494 1.30344,-3.82616 2.42376,-5.52674 3.1845,-4.83385 8.63433,-7.96945 16.01253,-9.21293 1.50032,-0.25286 1.99168,-0.2739 2.90115,-0.12421 0.6022,0.0991 1.14152,0.22682 1.1985,0.2838 0.057,0.057 -0.22926,0.57973 -0.63607,1.16167 -2.88831,4.13177 -2.90025,7.53309 -0.0372,10.596 0.55391,0.59257 1.39953,1.36757 1.87915,1.72221 1.60316,1.18539 1.61116,1.18691 6.18872,1.17769 3.68698,-0.007 4.34759,-0.052 6.48604,-0.43731 4.4263,-0.79761 8.0134,-2.00918 12.60389,-4.25707 2.91691,-1.42837 3.90052,-2.14243 7.78013,-5.64804 2.67239,-2.41478 5.14093,-5.12792 6.53081,-7.17796 1.52972,-2.25631 2.31267,-4.01093 3.45721,-7.74777 0.74506,-2.43258 0.82665,-2.85278 0.82665,-4.25726 0,-1.95266 -0.21134,-2.98472 -0.91483,-4.46748 -0.77066,-1.62432 -1.99427,-2.72634 -4.28991,-3.86362 -0.97565,-0.48335 -1.80332,-0.8959 -1.83925,-0.91679 -0.11363,-0.066 1.94252,-4.78246 3.27637,-7.51539 1.73476,-3.55437 3.24677,-5.94154 4.50174,-7.1074 2.48726,-2.31066 6.08854,-3.64794 9.82382,-3.64794 6.89944,0 11.92119,5.29937 14.23754,15.02463 0.95574,4.01266 0.95597,4.03485 0.0917,8.78489 -0.95744,5.26212 -1.54792,7.92198 -2.49702,11.24795 -2.56317,8.98225 -6.88927,17.12848 -13.13655,24.73668 -3.4747,4.23164 -9.1418,9.88587 -11.79926,11.77247 -0.63191,0.44861 -2.18227,1.71886 -3.44524,2.82277 -3.35223,2.93007 -4.45152,3.80169 -6.74329,5.34672 -4.66828,3.14717 -10.29641,5.1639 -16.20024,5.80502 -2.16537,0.23515 -8.62123,0.18651 -11.09791,-0.0836 z"
         id="path3656"
         inkscape:connector-curvature="0" />
      <path
         style="fill:#ffccaa;fill-opacity:1;stroke:#ffb380;stroke-width:0.16420361"
         d="m 213.67585,635.34023 c -0.90717,-0.1289 -2.03591,-0.87611 -3.38449,-2.24051 -2.72877,-2.76079 -2.67317,-5.86998 0.17408,-9.73369 0.65544,-0.88944 0.73496,-1.0774 0.55137,-1.30332 -0.18704,-0.23018 -0.17245,-0.24737 0.11388,-0.13418 0.58262,0.2303 6.79569,0.31324 8.605,0.11487 5.23161,-0.57359 9.98943,-2.26461 14.1372,-5.02463 2.10063,-1.39781 6.60975,-5.27101 7.68067,-6.59748 1.59295,-1.97305 3.53136,-5.65419 5.45243,-10.35442 l 0.55176,-1.34998 0.80049,0.5751 c 0.44028,0.3163 0.87325,0.53013 0.96216,0.47518 0.0889,-0.0549 0.51043,0.10106 0.93671,0.34668 2.49088,1.43523 3.4474,3.10002 3.72993,6.49179 0.11515,1.38232 0.1077,1.42166 -0.822,4.34282 -1.14111,3.58546 -1.48434,4.42316 -2.55494,6.23572 -1.74452,2.95353 -5.39871,6.87701 -9.88552,10.61403 -1.85002,1.54086 -2.41167,1.90193 -4.7619,3.06133 -5.11113,2.5214 -9.67099,3.91036 -14.65136,4.46291 -1.59692,0.17717 -6.43441,0.18844 -7.63547,0.0178 z"
         id="path3664"
         inkscape:connector-curvature="0" />
      <path
         style="fill:#28170b;fill-opacity:1;stroke:#ffb380;stroke-width:0.16420361"
         d="m 216.0568,664.88666 c -5.85736,-0.46448 -14.74067,-2.48462 -17.89819,-4.07019 -3.97453,-1.99584 -7.32171,-5.83028 -9.29369,-10.6466 -1.34245,-3.27877 -1.50159,-4.12067 -1.5832,-8.37567 -0.0707,-3.68874 -0.0609,-3.83803 0.35731,-5.40924 0.48837,-1.83486 1.52683,-4.13701 2.5612,-5.6779 1.62994,-2.42808 4.73969,-4.96901 7.89267,-6.44897 3.32902,-1.56259 7.73807,-2.65654 10.13299,-2.51414 0.75047,0.0446 1.40618,0.12283 1.45713,0.17378 0.051,0.051 -0.0547,0.33596 -0.23481,0.63333 -0.18011,0.29737 -0.59561,0.97957 -0.92334,1.516 -1.66004,2.71719 -1.90539,5.16787 -0.76199,7.61125 0.58316,1.2462 2.83712,3.61401 4.18883,4.40045 l 0.82102,0.47767 4.92611,-0.005 c 4.71466,-0.005 5.01421,-0.0237 6.97865,-0.44533 4.34769,-0.93305 7.96409,-2.20865 11.98686,-4.22808 3.14196,-1.57726 4.43517,-2.54484 8.52767,-6.38039 5.50976,-5.16382 7.8683,-9.02649 9.6264,-15.76557 0.88664,-3.39861 0.20914,-6.84542 -1.7669,-8.98917 -0.69696,-0.75611 -2.32845,-1.844 -3.93543,-2.62419 l -0.93087,-0.45194 0.32738,-0.83439 c 1.29197,-3.29287 4.07829,-8.978 5.40652,-11.03134 1.92897,-2.98203 4.3438,-4.71971 7.89521,-5.68131 1.12737,-0.30525 1.78903,-0.37039 3.74986,-0.36918 2.18103,10e-4 2.49126,0.04 3.69458,0.46001 5.09247,1.77764 8.3239,6.21007 10.43832,14.31784 0.93985,3.6039 0.87272,4.98479 -0.6023,12.38913 -2.7174,13.64086 -7.43372,23.50447 -16.10025,33.67175 -2.14753,2.5194 -8.01461,8.35371 -9.73315,9.67878 -0.7608,0.5866 -2.46031,1.9799 -3.77669,3.09621 -5.70468,4.83768 -7.83815,6.34614 -11.42461,8.07775 -3.30757,1.59695 -6.32483,2.55418 -10.09853,3.20378 -1.78885,0.30793 -9.17404,0.45726 -11.90476,0.24072 z"
         id="path3666"
         inkscape:connector-curvature="0" />
      <path
         style="fill:#28170b;fill-opacity:1;stroke:#ffb380;stroke-width:0.16420361"
         d="m 218.02724,666.18728 c -1.17405,-0.0675 -2.87356,-0.20974 -3.77668,-0.3161 -5.44547,-0.64134 -13.49865,-2.48515 -16.09627,-3.68533 -4.79501,-2.21543 -9.04074,-7.29484 -10.99166,-13.14995 -0.81133,-2.43497 -1.0947,-4.10164 -1.18653,-6.97865 -0.0964,-3.01916 0.10521,-4.66275 0.86871,-7.08304 2.26778,-7.18889 8.5444,-12.16893 17.65634,-14.009 2.65428,-0.536 3.25261,-0.55375 5.64432,-0.16744 2.95712,0.47764 9.1115,0.45341 11.74601,-0.0462 6.84982,-1.29911 12.10925,-4.22179 17.99991,-10.00259 2.05812,-2.01974 3.71085,-5.10287 7.02701,-13.10877 3.28506,-7.93079 6.31552,-13.61691 8.12369,-15.24263 1.60186,-1.44023 3.75927,-2.59378 6.25281,-3.34333 2.0556,-0.6179 5.45074,-0.72491 7.39842,-0.23317 4.16534,1.05164 7.33287,3.8341 9.66176,8.48719 1.3997,2.79657 2.6682,6.96703 3.14259,10.33194 0.2071,1.46899 0.20366,1.50386 -0.5766,5.82923 -0.43173,2.39326 -1.03269,5.44803 -1.33547,6.78837 -2.60615,11.53667 -7.2267,20.87939 -14.92453,30.17727 -3.17453,3.83438 -9.15959,9.76537 -11.41215,11.30905 -0.49672,0.3404 -2.12925,1.68609 -3.62785,2.99043 -3.39639,2.95612 -4.99277,4.20415 -7.29169,5.70056 -4.09917,2.66822 -8.56695,4.37839 -13.74093,5.25975 -1.73603,0.29572 -6.70853,0.69575 -7.93395,0.63827 -0.27093,-0.0127 -1.4532,-0.0783 -2.62726,-0.14582 z m 9.85222,-1.21472 c 7.87387,-1.2806 13.29991,-4.0075 20.60756,-10.3565 1.21921,-1.05928 2.99088,-2.52647 3.93705,-3.26044 6.76588,-5.24849 14.44025,-14.1191 18.84101,-21.77785 4.59215,-7.99184 6.95634,-15.25737 9.16771,-28.17377 l 0.45201,-2.64011 -0.51094,-2.54871 c -1.35461,-6.75719 -3.9175,-11.79125 -7.30937,-14.35713 -1.36236,-1.03061 -3.37248,-1.97787 -4.87304,-2.29641 -1.67232,-0.35501 -4.85675,-0.23228 -6.56815,0.25312 -1.69186,0.47987 -4.30866,1.80293 -5.53592,2.79898 -2.19057,1.77788 -4.54337,6.0969 -8.45406,15.51904 -2.62987,6.33625 -4.21143,9.47539 -5.93636,11.78277 -0.82584,1.10469 -4.08308,4.08127 -6.4627,5.90583 -6.46158,4.95438 -14.79061,7.00865 -23.98508,5.91567 -3.07916,-0.36603 -4.78561,-0.34046 -6.89209,0.10327 -10.01502,2.10968 -16.31765,8.14582 -17.46083,16.72254 -0.24098,1.80797 -0.11255,5.43083 0.25485,7.18897 1.66865,7.98512 6.84815,14.36268 13.31016,16.38889 3.91667,1.2281 10.71818,2.58535 15.35921,3.06494 2.23535,0.231 10.14558,0.0781 12.05898,-0.2331 z"
         id="path3670"
         inkscape:connector-curvature="0" />
      <path
         style="fill:#28170b;fill-opacity:1;stroke:#ffb380;stroke-width:0.16420361"
         d="m 216.4292,665.09095 c 0.29513,-0.0365 0.73848,-0.0358 0.98522,0.002 0.24674,0.0375 0.005,0.0674 -0.5366,0.0664 -0.54187,-9.2e-4 -0.74375,-0.0316 -0.44862,-0.0681 z"
         id="path3674"
         inkscape:connector-curvature="0" />
      <path
         style="fill:#28170b;fill-opacity:1;stroke:#ffb380;stroke-width:0.16420361"
         d="m 216.63151,665.21872 c -0.33753,-0.10089 -0.24255,-0.14514 0.53426,-0.24893 0.51963,-0.0694 1.11076,-0.0683 1.31363,0.002 0.20288,0.0708 1.25556,0.17619 2.33931,0.23421 1.96269,0.10508 1.95914,0.10555 -0.90312,0.12022 -1.58046,0.008 -3.0583,-0.0405 -3.28408,-0.10798 z"
         id="path3676"
         inkscape:connector-curvature="0" />
      <path
         style="fill:#28170b;fill-opacity:1;stroke:#ffb380;stroke-width:0.16420361"
         d="m 216.55107,665.20728 c 0.0567,-0.0918 0.17192,-0.12437 0.25599,-0.0724 0.22776,0.14076 0.18529,0.23929 -0.10313,0.23929 -0.1408,0 -0.20959,-0.0751 -0.15286,-0.16688 z"
         id="path3678"
         inkscape:connector-curvature="0" />
      <path
         style="fill:#28170b;fill-opacity:1;stroke:#ffb380;stroke-width:0.16420361"
         d="m 188.23204,633.55971 c 0.0154,-0.24572 0.96219,-1.92365 0.96972,-1.71868 0.009,0.23605 -0.77435,1.84183 -0.89814,1.84183 -0.0436,0 -0.0758,-0.0554 -0.0716,-0.12315 z"
         id="path3686"
         inkscape:connector-curvature="0" />
      <path
         style="fill:#28170b;fill-opacity:1;stroke:#ffb380;stroke-width:0.16420361"
         d="m 188.88362,632.33787 c -0.001,-0.15271 0.0714,-0.32333 0.16169,-0.37915 0.20781,-0.12843 0.20781,0.0889 0,0.41051 -0.13718,0.21227 -0.15953,0.20793 -0.16169,-0.0314 z"
         id="path3688"
         inkscape:connector-curvature="0" />
      <path
         style="fill:none;fill-rule:evenodd;stroke:#000000;stroke-width:1px;stroke-linecap:butt;stroke-linejoin:miter;stroke-opacity:1"
         d="m 220.19704,628.70406 c -0.27367,0 -0.55009,0.0387 -0.82101,0 -0.3265,-0.0466 -0.5626,-0.37416 -0.65682,-0.65682 -0.0173,-0.0519 0,-0.10947 0,-0.1642 0,-0.0547 -0.0173,-0.11228 0,-0.16421 0.0994,-0.29823 0.14054,-0.30473 0.32841,-0.49261 0.0547,-0.0547 0.0908,-0.13972 0.1642,-0.1642 0.0874,-0.0291 1.1727,0 1.31363,0 0.0547,0 0.11525,-0.0245 0.16421,0 0.0692,0.0346 0.10946,0.10947 0.1642,0.1642 0.0547,0.0547 0.21894,0.10947 0.1642,0.16421 -0.0547,0.0547 -0.1642,-0.24161 -0.1642,-0.16421 0,0.12239 0.13452,0.20968 0.1642,0.32841 0.25068,1.00272 -0.43192,-0.48367 0.32841,0.65682 0.0233,0.035 0,0.68404 0,0.82101 0,0.11339 0.025,0.60689 0,0.65682 -0.0346,0.0692 -0.095,0.12958 -0.1642,0.1642 -0.19255,0.0963 -0.1949,-0.0974 -0.32841,-0.1642 -0.049,-0.0245 -0.11525,0.0245 -0.1642,0 -0.0692,-0.0346 -0.095,-0.12959 -0.16421,-0.16421 -0.049,-0.0245 -0.11525,0.0245 -0.1642,0 -0.0692,-0.0346 -0.0908,-0.13972 -0.16421,-0.1642 -0.10385,-0.0346 -0.3284,0.10947 -0.3284,0 0,-0.24478 0.54734,-0.54734 0.3284,-0.65681 -0.24478,-0.12239 -0.49261,0.71155 -0.65681,0.49261 -0.50241,-0.66988 2.4134,-0.59381 -0.1642,-0.16421 -0.0764,0.0127 -0.095,-0.12958 -0.16421,-0.1642 -0.0489,-0.0245 -0.11524,0.0245 -0.1642,0 -0.13847,-0.0692 -0.18994,-0.25917 -0.32841,-0.32841 -0.0489,-0.0245 -0.11525,0.0245 -0.1642,0 -0.0692,-0.0346 -0.10947,-0.10947 -0.16421,-0.1642 -0.0663,-0.0663 -0.43474,-0.27993 -0.3284,-0.49261 0.0692,-0.13847 0.25917,-0.18994 0.3284,-0.32841 0.0245,-0.049 -0.0245,-0.11525 0,-0.1642 0.18154,-0.36307 0.10192,-0.051 0.32841,-0.16421 0.0692,-0.0346 0.095,-0.12958 0.16421,-0.1642 0.0489,-0.0245 0.1642,-0.0547 0.1642,0 0,0.0547 -0.21894,0 -0.1642,0 0.21893,0 0.43787,0 0.65681,0 0.0547,0 0.10947,0 0.1642,0 0.0547,0 0.16421,-0.0547 0.16421,0 0,0.0547 -0.10947,0 -0.16421,0 0.16421,0.0547 0.3247,0.12222 0.49261,0.1642 0.32215,0.0805 0.0116,-0.1526 0.32841,0.16421"
         id="path3696"
         inkscape:connector-curvature="0" />
      <path
         style="fill:none;fill-rule:evenodd;stroke:#000000;stroke-width:1px;stroke-linecap:butt;stroke-linejoin:miter;stroke-opacity:1"
         d="m 219.70443,627.71883 c 0.21894,-0.0547 0.43114,-0.1642 0.65682,-0.1642 0.0774,0 0.095,0.12959 0.1642,0.1642 0.049,0.0245 0.11525,-0.0245 0.16421,0 0.0692,0.0346 0.10946,0.10947 0.1642,0.16421 0.0547,0.0547 0.21894,0.10947 0.1642,0.1642 -0.24749,0.24749 -1.01693,-0.55093 -1.31363,-0.32841 -0.17515,0.13137 -0.0429,0.44213 0,0.65682 0.0605,0.30255 0.18749,0.0937 0.32841,0.1642 0.0692,0.0346 0.10947,0.10947 0.1642,0.16421 0.0547,0.0547 0.21894,0.10947 0.16421,0.1642 -0.0461,0.0461 -0.16299,-0.21813 -0.32841,-0.32841 -0.10183,-0.0679 -0.28295,-0.0506 -0.32841,-0.1642 -0.0813,-0.20328 -0.21893,-0.65682 0,-0.65682 0.21894,0 -0.0531,0.44442 0,0.65682 0.0133,0.0531 0.11525,-0.0245 0.16421,0 0.0692,0.0346 0.10947,0.10947 0.1642,0.1642 0.10947,0 0.22456,-0.0346 0.32841,0 0.0734,0.0245 0.21894,0.10947 0.1642,0.16421 -0.0547,0.0547 -0.10947,-0.10947 -0.1642,-0.16421 -0.0547,-0.0547 -0.11585,-0.10376 -0.16421,-0.1642 -0.17096,-0.2137 -0.3284,-0.43788 -0.49261,-0.65682 z"
         id="path3698"
         inkscape:connector-curvature="0" />
      <path
         style="fill:none;fill-rule:evenodd;stroke:#000000;stroke-width:1px;stroke-linecap:butt;stroke-linejoin:miter;stroke-opacity:1"
         d="m 241.14713,616.53661 c -0.0385,-1.35335 -0.0915,-1.24688 0.99751,-1.24688 0.30441,0 0.57506,-0.0968 0.74813,0.24937 0.0743,0.1487 -0.0744,0.35006 0,0.49876 0.0526,0.10514 0.1968,0.14423 0.24937,0.24937 0.0372,0.0743 0,0.16625 0,0.24938 0,0.20386 0.0421,1.61924 0,1.74564 -0.0372,0.11152 -0.14423,0.1968 -0.24937,0.24937 -0.0131,0.007 -0.73509,0.007 -0.74813,0 -0.10515,-0.0526 -0.13785,-0.2122 -0.24938,-0.24937 -0.15772,-0.0526 -0.33746,0.0403 -0.49875,0 -0.18033,-0.0451 -0.3441,-0.14628 -0.49875,-0.24938 -0.0978,-0.0652 -0.33251,-0.16625 -0.24938,-0.24938 0.0831,-0.0831 0.24938,0.36694 0.24938,0.24938 0,-1.66251 -1.16376,1.33001 0.24937,-1.49626 z"
         id="path3702"
         inkscape:connector-curvature="0" />
      <path
         style="fill:none;fill-rule:evenodd;stroke:#000000;stroke-width:1px;stroke-linecap:butt;stroke-linejoin:miter;stroke-opacity:1"
         d="m 241.89526,616.78599 c 0.0831,-0.33251 0.24938,-0.65477 0.24938,-0.99751 0,-0.11756 -0.13182,-0.24938 -0.24938,-0.24938 -0.0831,0 0,0.16625 0,0.24938 0,0.3325 -0.3325,0.99751 0,0.99751 0.34274,0 0.16625,-0.66501 0.24938,-0.99751 z"
         id="path3704"
         inkscape:connector-curvature="0" />
      <path
         style="fill:none;fill-rule:evenodd;stroke:#000000;stroke-width:1px;stroke-linecap:butt;stroke-linejoin:miter;stroke-opacity:1"
         d="m 242.39401,616.78599 c 0,0.3325 0.0806,0.67493 0,0.9975 -0.0202,0.0806 -0.16625,0 -0.24937,0 -0.24938,0 -0.49875,0 -0.74813,0 -0.0831,0 -0.16625,0 -0.24938,0 -0.0831,0 -0.24937,0.0831 -0.24937,0 0,-0.0831 0.16625,0 0.24937,0 0.0831,0 0.16625,0 0.24938,0 0.0831,0 0.17503,-0.0372 0.24938,0 0.10514,0.0526 0.14423,0.19681 0.24937,0.24938 0.73387,0.36693 -0.32832,-0.5777 0.49875,0.24938 0.0831,0.0831 0.33251,0.16625 0.24938,0.24937 -0.10438,0.10438 -0.23859,-0.36867 -0.49875,-0.49875 -0.12469,-0.0624 -0.74813,0.12469 -0.74813,0 0,-0.16625 0.49875,0.16625 0.49875,0 0,-0.23512 -0.36833,-0.30313 -0.49875,-0.49875 -0.0461,-0.0692 0.0263,-0.17052 0,-0.24938 -0.15098,-0.45293 -0.21343,-0.46281 -0.49875,-0.74813 z"
         id="path3706"
         inkscape:connector-curvature="0" />
      <path
         style="fill:none;fill-rule:evenodd;stroke:#000000;stroke-width:1px;stroke-linecap:butt;stroke-linejoin:miter;stroke-opacity:1"
         d="m 241.64589,615.78848 c 0.0956,0.54038 -1.50696,0.76951 -1.74564,1.24688 -0.0372,0.0743 0,0.16625 0,0.24938 0,0.0831 -0.0588,0.30815 0,0.24938 0.50455,-0.50455 0.0724,-0.71585 0.24938,-1.24689 0.0372,-0.11152 0.16625,-0.3325 0.24937,-0.24937 0.0831,0.0831 -0.16625,0.16625 -0.24937,0.24937"
         id="path3708"
         inkscape:connector-curvature="0" />
      <path
         style="fill:none;fill-rule:evenodd;stroke:#000000;stroke-width:1px;stroke-linecap:butt;stroke-linejoin:miter;stroke-opacity:1"
         d="m 240.14963,617.53412 c 0.3325,-0.0831 0.65477,-0.24938 0.9975,-0.24938 0.38167,0 0.9842,0.73482 1.24688,0.99751"
         id="path3710"
         inkscape:connector-curvature="0" />
    </g>
    <rect
       y="197.97415"
       x="12.903226"
       height="700"
       width="700"
       id="rect3356"
       style="fill:none;fill-opacity:1;stroke:#222b00" />
  </g>
</svg>
