<?xml version="1.0" encoding="UTF-8" standalone="no"?>
<!-- Created with Inkscape (http://www.inkscape.org/) -->

<svg
   xmlns:dc="http://purl.org/dc/elements/1.1/"
   xmlns:cc="http://creativecommons.org/ns#"
   xmlns:rdf="http://www.w3.org/1999/02/22-rdf-syntax-ns#"
   xmlns:svg="http://www.w3.org/2000/svg"
   xmlns="http://www.w3.org/2000/svg"
   xmlns:sodipodi="http://sodipodi.sourceforge.net/DTD/sodipodi-0.dtd"
   xmlns:inkscape="http://www.inkscape.org/namespaces/inkscape"
   width="210mm"
   height="297mm"
   viewBox="0 0 744.09448819 1052.3622047"
   id="svg4747"
   version="1.1"
   inkscape:version="0.91 r13725"
   sodipodi:docname="semente3.svg"
   inkscape:export-filename="/home/qui00214/Área de Trabalho/JURUBAMANJI/Plantas do jogo/png/Animação/semente3"
   inkscape:export-xdpi="8.3452215"
   inkscape:export-ydpi="8.3452215">
  <defs
     id="defs4749">
    <inkscape:perspective
       sodipodi:type="inkscape:persp3d"
       inkscape:vp_x="0 : 526.1811 : 1"
       inkscape:vp_y="0 : 1000 : 0"
       inkscape:vp_z="744.09449 : 526.1811 : 1"
       inkscape:persp3d-origin="372.04724 : 350.7874 : 1"
       id="perspective5007" />
  </defs>
  <sodipodi:namedview
     id="base"
     pagecolor="#ffffff"
     bordercolor="#666666"
     borderopacity="1.0"
     inkscape:pageopacity="0.0"
     inkscape:pageshadow="2"
     inkscape:zoom="0.62"
     inkscape:cx="-163.70968"
     inkscape:cy="520"
     inkscape:document-units="px"
     inkscape:current-layer="layer1"
     showgrid="false"
     inkscape:window-width="1301"
     inkscape:window-height="744"
     inkscape:window-x="65"
     inkscape:window-y="24"
     inkscape:window-maximized="1" />
  <metadata
     id="metadata4752">
    <rdf:RDF>
      <cc:Work
         rdf:about="">
        <dc:format>image/svg+xml</dc:format>
        <dc:type
           rdf:resource="http://purl.org/dc/dcmitype/StillImage" />
        <dc:title />
      </cc:Work>
    </rdf:RDF>
  </metadata>
  <g
     inkscape:label="Layer 1"
     inkscape:groupmode="layer"
     id="layer1">
    <g
       id="g5057">
      <g
         id="g4416"
         transform="matrix(1.7445032,0,0,1.6321668,961.84174,8.0159615)">
        <path
           style="fill:none;fill-rule:evenodd;stroke:#502d16;stroke-width:1px;stroke-linecap:butt;stroke-linejoin:miter;stroke-opacity:1"
           d="m 207.80142,620.85288 c -31.65922,3.71456 -23.47552,37.98374 -6.68098,41.92889 35.98785,10.01943 44.93574,-7.15295 52.75669,-11.97968 23.80132,-20.77262 25.16393,-39.94141 27.41504,-51.83517 -4.06949,-28.58897 -24.42519,-19.95927 -27.41504,-14.51384 -6.49422,9.61321 -8.92161,24.02471 -15.43537,28.10618 -8.30271,8.17829 -18.65262,10.5562 -30.64034,8.29362 z"
           id="path3490-0"
           inkscape:connector-curvature="0"
           sodipodi:nodetypes="ccccccc"
           transform="matrix(0.90976587,0,0,0.93741552,-560.54998,-261.23747)" />
        <path
           style="fill:none;fill-rule:evenodd;stroke:#ffb380;stroke-width:1px;stroke-linecap:butt;stroke-linejoin:miter;stroke-opacity:1"
           d="m 210.79634,622.00478 c -4.01602,4.86908 -4.91953,9.56524 2.07341,13.82271 10.15953,1.16496 18.5494,-1.6518 26.26315,-5.98985 14.36215,-11.5308 13.26984,-15.70232 15.43536,-21.4252 0.31281,-7.61189 -3.45718,-8.41911 -6.68098,-10.13665 l 1.61265,1.15189"
           id="path3492-4"
           inkscape:connector-curvature="0"
           sodipodi:nodetypes="cccccc"
           transform="matrix(0.90976587,0,0,0.93741552,-560.54998,-261.23747)" />
        <path
           transform="matrix(0.90976587,0,0,0.93741552,-560.54998,-261.23747)"
           style="fill:#502d16;fill-opacity:1;stroke:#ffb380;stroke-width:0.16420361"
           d="m 215.02283,664.95319 c -2.55849,-0.27905 -5.57379,-0.78237 -8.40774,-1.40345 -7.65993,-1.67872 -10.12064,-2.82569 -13.38677,-6.23978 -2.22034,-2.32092 -4.00689,-5.33406 -5.08587,-8.57762 -0.97679,-2.93637 -1.15112,-4.09796 -1.13732,-7.57821 0.0111,-2.81128 0.0541,-3.27537 0.43476,-4.69192 0.59245,-2.20494 1.30344,-3.82616 2.42376,-5.52674 3.1845,-4.83385 8.63433,-7.96945 16.01253,-9.21293 1.50032,-0.25286 1.99168,-0.2739 2.90115,-0.12421 0.6022,0.0991 1.14152,0.22682 1.1985,0.2838 0.057,0.057 -0.22926,0.57973 -0.63607,1.16167 -2.88831,4.13177 -2.90025,7.53309 -0.0372,10.596 0.55391,0.59257 1.39953,1.36757 1.87915,1.72221 1.60316,1.18539 1.61116,1.18691 6.18872,1.17769 3.68698,-0.007 4.34759,-0.052 6.48604,-0.43731 4.4263,-0.79761 8.0134,-2.00918 12.60389,-4.25707 2.91691,-1.42837 3.90052,-2.14243 7.78013,-5.64804 2.67239,-2.41478 5.14093,-5.12792 6.53081,-7.17796 1.52972,-2.25631 2.31267,-4.01093 3.45721,-7.74777 0.74506,-2.43258 0.82665,-2.85278 0.82665,-4.25726 0,-1.95266 -0.21134,-2.98472 -0.91483,-4.46748 -0.77066,-1.62432 -1.99427,-2.72634 -4.28991,-3.86362 -0.97565,-0.48335 -1.80332,-0.8959 -1.83925,-0.91679 -0.11363,-0.066 1.94252,-4.78246 3.27637,-7.51539 1.73476,-3.55437 3.24677,-5.94154 4.50174,-7.1074 2.48726,-2.31066 6.08854,-3.64794 9.82382,-3.64794 6.89944,0 11.92119,5.29937 14.23754,15.02463 0.95574,4.01266 0.95597,4.03485 0.0917,8.78489 -0.95744,5.26212 -1.54792,7.92198 -2.49702,11.24795 -2.56317,8.98225 -6.88927,17.12848 -13.13655,24.73668 -3.4747,4.23164 -9.1418,9.88587 -11.79926,11.77247 -0.63191,0.44861 -2.18227,1.71886 -3.44524,2.82277 -3.35223,2.93007 -4.45152,3.80169 -6.74329,5.34672 -4.66828,3.14717 -10.29641,5.1639 -16.20024,5.80502 -2.16537,0.23515 -8.62123,0.18651 -11.09791,-0.0836 z"
           id="path3656-9"
           inkscape:connector-curvature="0" />
        <path
           style="fill:#ffccaa;fill-opacity:1;stroke:#ffb380;stroke-width:0.16420361"
           d="m 213.67585,635.34023 c -0.90717,-0.1289 -2.03591,-0.87611 -3.38449,-2.24051 -2.72877,-2.76079 -2.67317,-5.86998 0.17408,-9.73369 0.65544,-0.88944 0.73496,-1.0774 0.55137,-1.30332 -0.18704,-0.23018 -0.17245,-0.24737 0.11388,-0.13418 0.58262,0.2303 6.79569,0.31324 8.605,0.11487 5.23161,-0.57359 9.98943,-2.26461 14.1372,-5.02463 2.10063,-1.39781 6.60975,-5.27101 7.68067,-6.59748 1.59295,-1.97305 3.53136,-5.65419 5.45243,-10.35442 l 0.55176,-1.34998 0.80049,0.5751 c 0.44028,0.3163 0.87325,0.53013 0.96216,0.47518 0.0889,-0.0549 0.51043,0.10106 0.93671,0.34668 2.49088,1.43523 3.4474,3.10002 3.72993,6.49179 0.11515,1.38232 0.1077,1.42166 -0.822,4.34282 -1.14111,3.58546 -1.48434,4.42316 -2.55494,6.23572 -1.74452,2.95353 -5.39871,6.87701 -9.88552,10.61403 -1.85002,1.54086 -2.41167,1.90193 -4.7619,3.06133 -5.11113,2.5214 -9.67099,3.91036 -14.65136,4.46291 -1.59692,0.17717 -6.43441,0.18844 -7.63547,0.0178 z"
           id="path3664-2"
           inkscape:connector-curvature="0"
           transform="matrix(0.90976587,0,0,0.93741552,-560.54998,-261.23747)" />
        <path
           style="fill:#28170b;fill-opacity:1;stroke:#ffb380;stroke-width:0.16420361"
           d="m 218.02724,666.18728 c -1.17405,-0.0675 -2.87356,-0.20974 -3.77668,-0.3161 -5.44547,-0.64134 -13.49865,-2.48515 -16.09627,-3.68533 -4.79501,-2.21543 -9.04074,-7.29484 -10.99166,-13.14995 -0.81133,-2.43497 -1.0947,-4.10164 -1.18653,-6.97865 -0.0964,-3.01916 0.10521,-4.66275 0.86871,-7.08304 2.26778,-7.18889 8.5444,-12.16893 17.65634,-14.009 2.65428,-0.536 3.25261,-0.55375 5.64432,-0.16744 2.95712,0.47764 9.1115,0.45341 11.74601,-0.0462 6.84982,-1.29911 12.10925,-4.22179 17.99991,-10.00259 2.05812,-2.01974 3.71085,-5.10287 7.02701,-13.10877 3.28506,-7.93079 6.31552,-13.61691 8.12369,-15.24263 1.60186,-1.44023 3.75927,-2.59378 6.25281,-3.34333 2.0556,-0.6179 5.45074,-0.72491 7.39842,-0.23317 4.16534,1.05164 7.33287,3.8341 9.66176,8.48719 1.3997,2.79657 2.6682,6.96703 3.14259,10.33194 0.2071,1.46899 0.20366,1.50386 -0.5766,5.82923 -0.43173,2.39326 -1.03269,5.44803 -1.33547,6.78837 -2.60615,11.53667 -7.2267,20.87939 -14.92453,30.17727 -3.17453,3.83438 -9.15959,9.76537 -11.41215,11.30905 -0.49672,0.3404 -2.12925,1.68609 -3.62785,2.99043 -3.39639,2.95612 -4.99277,4.20415 -7.29169,5.70056 -4.09917,2.66822 -8.56695,4.37839 -13.74093,5.25975 -1.73603,0.29572 -6.70853,0.69575 -7.93395,0.63827 -0.27093,-0.0127 -1.4532,-0.0783 -2.62726,-0.14582 z m 9.85222,-1.21472 c 7.87387,-1.2806 13.29991,-4.0075 20.60756,-10.3565 1.21921,-1.05928 2.99088,-2.52647 3.93705,-3.26044 6.76588,-5.24849 14.44025,-14.1191 18.84101,-21.77785 4.59215,-7.99184 6.95634,-15.25737 9.16771,-28.17377 l 0.45201,-2.64011 -0.51094,-2.54871 c -1.35461,-6.75719 -3.9175,-11.79125 -7.30937,-14.35713 -1.36236,-1.03061 -3.37248,-1.97787 -4.87304,-2.29641 -1.67232,-0.35501 -4.85675,-0.23228 -6.56815,0.25312 -1.69186,0.47987 -4.30866,1.80293 -5.53592,2.79898 -2.19057,1.77788 -4.54337,6.0969 -8.45406,15.51904 -2.62987,6.33625 -4.21143,9.47539 -5.93636,11.78277 -0.82584,1.10469 -4.08308,4.08127 -6.4627,5.90583 -6.46158,4.95438 -14.79061,7.00865 -23.98508,5.91567 -3.07916,-0.36603 -4.78561,-0.34046 -6.89209,0.10327 -10.01502,2.10968 -16.31765,8.14582 -17.46083,16.72254 -0.24098,1.80797 -0.11255,5.43083 0.25485,7.18897 1.66865,7.98512 6.84815,14.36268 13.31016,16.38889 3.91667,1.2281 10.71818,2.58535 15.35921,3.06494 2.23535,0.231 10.14558,0.0781 12.05898,-0.2331 z"
           id="path3670-6"
           inkscape:connector-curvature="0"
           transform="matrix(0.90976587,0,0,0.93741552,-560.54998,-261.23747)" />
        <path
           style="fill:#28170b;fill-opacity:1;stroke:#ffb380;stroke-width:0.16420361"
           d="m 216.4292,665.09095 c 0.29513,-0.0365 0.73848,-0.0358 0.98522,0.002 0.24674,0.0375 0.005,0.0674 -0.5366,0.0664 -0.54187,-9.2e-4 -0.74375,-0.0316 -0.44862,-0.0681 z"
           id="path3674-8"
           inkscape:connector-curvature="0"
           transform="matrix(0.90976587,0,0,0.93741552,-560.54998,-261.23747)" />
        <path
           style="fill:#28170b;fill-opacity:1;stroke:#ffb380;stroke-width:0.16420361"
           d="m 216.63151,665.21872 c -0.33753,-0.10089 -0.24255,-0.14514 0.53426,-0.24893 0.51963,-0.0694 1.11076,-0.0683 1.31363,0.002 0.20288,0.0708 1.25556,0.17619 2.33931,0.23421 1.96269,0.10508 1.95914,0.10555 -0.90312,0.12022 -1.58046,0.008 -3.0583,-0.0405 -3.28408,-0.10798 z"
           id="path3676-8"
           inkscape:connector-curvature="0"
           transform="matrix(0.90976587,0,0,0.93741552,-560.54998,-261.23747)" />
        <path
           style="fill:#28170b;fill-opacity:1;stroke:#ffb380;stroke-width:0.16420361"
           d="m 216.55107,665.20728 c 0.0567,-0.0918 0.17192,-0.12437 0.25599,-0.0724 0.22776,0.14076 0.18529,0.23929 -0.10313,0.23929 -0.1408,0 -0.20959,-0.0751 -0.15286,-0.16688 z"
           id="path3678-3"
           inkscape:connector-curvature="0"
           transform="matrix(0.90976587,0,0,0.93741552,-560.54998,-261.23747)" />
        <path
           style="fill:#28170b;fill-opacity:1;stroke:#ffb380;stroke-width:0.16420361"
           d="m 188.23204,633.55971 c 0.0154,-0.24572 0.96219,-1.92365 0.96972,-1.71868 0.009,0.23605 -0.77435,1.84183 -0.89814,1.84183 -0.0436,0 -0.0758,-0.0554 -0.0716,-0.12315 z"
           id="path3686-6"
           inkscape:connector-curvature="0"
           transform="matrix(0.90976587,0,0,0.93741552,-560.54998,-261.23747)" />
        <path
           style="fill:#28170b;fill-opacity:1;stroke:#ffb380;stroke-width:0.16420361"
           d="m 188.88362,632.33787 c -0.001,-0.15271 0.0714,-0.32333 0.16169,-0.37915 0.20781,-0.12843 0.20781,0.0889 0,0.41051 -0.13718,0.21227 -0.15953,0.20793 -0.16169,-0.0314 z"
           id="path3688-59"
           inkscape:connector-curvature="0"
           transform="matrix(0.90976587,0,0,0.93741552,-560.54998,-261.23747)" />
        <path
           style="fill:none;fill-rule:evenodd;stroke:#000000;stroke-width:1px;stroke-linecap:butt;stroke-linejoin:miter;stroke-opacity:1"
           d="m 220.19704,628.70406 c -0.27367,0 -0.55009,0.0387 -0.82101,0 -0.3265,-0.0466 -0.5626,-0.37416 -0.65682,-0.65682 -0.0173,-0.0519 0,-0.10947 0,-0.1642 0,-0.0547 -0.0173,-0.11228 0,-0.16421 0.0994,-0.29823 0.14054,-0.30473 0.32841,-0.49261 0.0547,-0.0547 0.0908,-0.13972 0.1642,-0.1642 0.0874,-0.0291 1.1727,0 1.31363,0 0.0547,0 0.11525,-0.0245 0.16421,0 0.0692,0.0346 0.10946,0.10947 0.1642,0.1642 0.0547,0.0547 0.21894,0.10947 0.1642,0.16421 -0.0547,0.0547 -0.1642,-0.24161 -0.1642,-0.16421 0,0.12239 0.13452,0.20968 0.1642,0.32841 0.25068,1.00272 -0.43192,-0.48367 0.32841,0.65682 0.0233,0.035 0,0.68404 0,0.82101 0,0.11339 0.025,0.60689 0,0.65682 -0.0346,0.0692 -0.095,0.12958 -0.1642,0.1642 -0.19255,0.0963 -0.1949,-0.0974 -0.32841,-0.1642 -0.049,-0.0245 -0.11525,0.0245 -0.1642,0 -0.0692,-0.0346 -0.095,-0.12959 -0.16421,-0.16421 -0.049,-0.0245 -0.11525,0.0245 -0.1642,0 -0.0692,-0.0346 -0.0908,-0.13972 -0.16421,-0.1642 -0.10385,-0.0346 -0.3284,0.10947 -0.3284,0 0,-0.24478 0.54734,-0.54734 0.3284,-0.65681 -0.24478,-0.12239 -0.49261,0.71155 -0.65681,0.49261 -0.50241,-0.66988 2.4134,-0.59381 -0.1642,-0.16421 -0.0764,0.0127 -0.095,-0.12958 -0.16421,-0.1642 -0.0489,-0.0245 -0.11524,0.0245 -0.1642,0 -0.13847,-0.0692 -0.18994,-0.25917 -0.32841,-0.32841 -0.0489,-0.0245 -0.11525,0.0245 -0.1642,0 -0.0692,-0.0346 -0.10947,-0.10947 -0.16421,-0.1642 -0.0663,-0.0663 -0.43474,-0.27993 -0.3284,-0.49261 0.0692,-0.13847 0.25917,-0.18994 0.3284,-0.32841 0.0245,-0.049 -0.0245,-0.11525 0,-0.1642 0.18154,-0.36307 0.10192,-0.051 0.32841,-0.16421 0.0692,-0.0346 0.095,-0.12958 0.16421,-0.1642 0.0489,-0.0245 0.1642,-0.0547 0.1642,0 0,0.0547 -0.21894,0 -0.1642,0 0.21893,0 0.43787,0 0.65681,0 0.0547,0 0.10947,0 0.1642,0 0.0547,0 0.16421,-0.0547 0.16421,0 0,0.0547 -0.10947,0 -0.16421,0 0.16421,0.0547 0.3247,0.12222 0.49261,0.1642 0.32215,0.0805 0.0116,-0.1526 0.32841,0.16421"
           id="path3696-0"
           inkscape:connector-curvature="0"
           transform="matrix(0.90976587,0,0,0.93741552,-560.54998,-261.23747)" />
        <path
           style="fill:none;fill-rule:evenodd;stroke:#000000;stroke-width:1px;stroke-linecap:butt;stroke-linejoin:miter;stroke-opacity:1"
           d="m 219.70443,627.71883 c 0.21894,-0.0547 0.43114,-0.1642 0.65682,-0.1642 0.0774,0 0.095,0.12959 0.1642,0.1642 0.049,0.0245 0.11525,-0.0245 0.16421,0 0.0692,0.0346 0.10946,0.10947 0.1642,0.16421 0.0547,0.0547 0.21894,0.10947 0.1642,0.1642 -0.24749,0.24749 -1.01693,-0.55093 -1.31363,-0.32841 -0.17515,0.13137 -0.0429,0.44213 0,0.65682 0.0605,0.30255 0.18749,0.0937 0.32841,0.1642 0.0692,0.0346 0.10947,0.10947 0.1642,0.16421 0.0547,0.0547 0.21894,0.10947 0.16421,0.1642 -0.0461,0.0461 -0.16299,-0.21813 -0.32841,-0.32841 -0.10183,-0.0679 -0.28295,-0.0506 -0.32841,-0.1642 -0.0813,-0.20328 -0.21893,-0.65682 0,-0.65682 0.21894,0 -0.0531,0.44442 0,0.65682 0.0133,0.0531 0.11525,-0.0245 0.16421,0 0.0692,0.0346 0.10947,0.10947 0.1642,0.1642 0.10947,0 0.22456,-0.0346 0.32841,0 0.0734,0.0245 0.21894,0.10947 0.1642,0.16421 -0.0547,0.0547 -0.10947,-0.10947 -0.1642,-0.16421 -0.0547,-0.0547 -0.11585,-0.10376 -0.16421,-0.1642 -0.17096,-0.2137 -0.3284,-0.43788 -0.49261,-0.65682 z"
           id="path3698-1"
           inkscape:connector-curvature="0"
           transform="matrix(0.90976587,0,0,0.93741552,-560.54998,-261.23747)" />
        <path
           style="fill:none;fill-rule:evenodd;stroke:#000000;stroke-width:1px;stroke-linecap:butt;stroke-linejoin:miter;stroke-opacity:1"
           d="m 241.14713,616.53661 c -0.0385,-1.35335 -0.0915,-1.24688 0.99751,-1.24688 0.30441,0 0.57506,-0.0968 0.74813,0.24937 0.0743,0.1487 -0.0744,0.35006 0,0.49876 0.0526,0.10514 0.1968,0.14423 0.24937,0.24937 0.0372,0.0743 0,0.16625 0,0.24938 0,0.20386 0.0421,1.61924 0,1.74564 -0.0372,0.11152 -0.14423,0.1968 -0.24937,0.24937 -0.0131,0.007 -0.73509,0.007 -0.74813,0 -0.10515,-0.0526 -0.13785,-0.2122 -0.24938,-0.24937 -0.15772,-0.0526 -0.33746,0.0403 -0.49875,0 -0.18033,-0.0451 -0.3441,-0.14628 -0.49875,-0.24938 -0.0978,-0.0652 -0.33251,-0.16625 -0.24938,-0.24938 0.0831,-0.0831 0.24938,0.36694 0.24938,0.24938 0,-1.66251 -1.16376,1.33001 0.24937,-1.49626 z"
           id="path3702-05"
           inkscape:connector-curvature="0"
           transform="matrix(0.90976587,0,0,0.93741552,-560.54998,-261.23747)" />
        <path
           style="fill:none;fill-rule:evenodd;stroke:#000000;stroke-width:1px;stroke-linecap:butt;stroke-linejoin:miter;stroke-opacity:1"
           d="m 241.89526,616.78599 c 0.0831,-0.33251 0.24938,-0.65477 0.24938,-0.99751 0,-0.11756 -0.13182,-0.24938 -0.24938,-0.24938 -0.0831,0 0,0.16625 0,0.24938 0,0.3325 -0.3325,0.99751 0,0.99751 0.34274,0 0.16625,-0.66501 0.24938,-0.99751 z"
           id="path3704-9"
           inkscape:connector-curvature="0"
           transform="matrix(0.90976587,0,0,0.93741552,-560.54998,-261.23747)" />
        <path
           style="fill:none;fill-rule:evenodd;stroke:#000000;stroke-width:1px;stroke-linecap:butt;stroke-linejoin:miter;stroke-opacity:1"
           d="m 242.39401,616.78599 c 0,0.3325 0.0806,0.67493 0,0.9975 -0.0202,0.0806 -0.16625,0 -0.24937,0 -0.24938,0 -0.49875,0 -0.74813,0 -0.0831,0 -0.16625,0 -0.24938,0 -0.0831,0 -0.24937,0.0831 -0.24937,0 0,-0.0831 0.16625,0 0.24937,0 0.0831,0 0.16625,0 0.24938,0 0.0831,0 0.17503,-0.0372 0.24938,0 0.10514,0.0526 0.14423,0.19681 0.24937,0.24938 0.73387,0.36693 -0.32832,-0.5777 0.49875,0.24938 0.0831,0.0831 0.33251,0.16625 0.24938,0.24937 -0.10438,0.10438 -0.23859,-0.36867 -0.49875,-0.49875 -0.12469,-0.0624 -0.74813,0.12469 -0.74813,0 0,-0.16625 0.49875,0.16625 0.49875,0 0,-0.23512 -0.36833,-0.30313 -0.49875,-0.49875 -0.0461,-0.0692 0.0263,-0.17052 0,-0.24938 -0.15098,-0.45293 -0.21343,-0.46281 -0.49875,-0.74813 z"
           id="path3706-9"
           inkscape:connector-curvature="0"
           transform="matrix(0.90976587,0,0,0.93741552,-560.54998,-261.23747)" />
        <path
           style="fill:none;fill-rule:evenodd;stroke:#000000;stroke-width:1px;stroke-linecap:butt;stroke-linejoin:miter;stroke-opacity:1"
           d="m 241.64589,615.78848 c 0.0956,0.54038 -1.50696,0.76951 -1.74564,1.24688 -0.0372,0.0743 0,0.16625 0,0.24938 0,0.0831 -0.0588,0.30815 0,0.24938 0.50455,-0.50455 0.0724,-0.71585 0.24938,-1.24689 0.0372,-0.11152 0.16625,-0.3325 0.24937,-0.24937 0.0831,0.0831 -0.16625,0.16625 -0.24937,0.24937"
           id="path3708-0"
           inkscape:connector-curvature="0"
           transform="matrix(0.90976587,0,0,0.93741552,-560.54998,-261.23747)" />
        <path
           style="fill:none;fill-rule:evenodd;stroke:#000000;stroke-width:1px;stroke-linecap:butt;stroke-linejoin:miter;stroke-opacity:1"
           d="m 240.14963,617.53412 c 0.3325,-0.0831 0.65477,-0.24938 0.9975,-0.24938 0.38167,0 0.9842,0.73482 1.24688,0.99751"
           id="path3710-9"
           inkscape:connector-curvature="0"
           transform="matrix(0.90976587,0,0,0.93741552,-560.54998,-261.23747)" />
        <path
           style="fill:#28170b;fill-opacity:1;stroke:#ffb380;stroke-width:0.15163994"
           d="m -303.1691,332.52638 c 0.014,-0.23035 0.87536,-1.80326 0.88221,-1.61112 0.008,0.22127 -0.70447,1.72656 -0.81709,1.72656 -0.0397,0 -0.069,-0.0519 -0.0651,-0.11544 z"
           id="path3686-4-2-1"
           inkscape:connector-curvature="0" />
        <path
           style="fill:#28170b;fill-opacity:1;stroke:#ffb380;stroke-width:0.15163994"
           d="m -302.57632,331.381 c -9.1e-4,-0.14315 0.065,-0.30309 0.1471,-0.35542 0.18906,-0.12039 0.18906,0.0833 0,0.38482 -0.1248,0.19899 -0.14513,0.19492 -0.1471,-0.0294 z"
           id="path3688-5-3-5"
           inkscape:connector-curvature="0" />
        <path
           inkscape:connector-curvature="0"
           id="path4126-9"
           d="m -369.4063,359.26217 c -7.20438,-1.51259 -10.63169,-3.11745 -13.29004,-6.22312 -3.33312,-3.89402 -4.77398,-7.53914 -5.10267,-12.90895 -0.35523,-5.80324 0.78339,-9.29518 4.26114,-13.06808 2.66557,-2.89181 8.11248,-5.59971 12.46328,-6.19605 l 2.88458,-0.39538 -1.27723,2.38303 c -2.1116,3.93979 -1.36257,7.11603 2.43085,10.30798 1.64693,1.3858 2.47606,1.60646 6.00696,1.59864 9.51892,-0.0211 18.66787,-3.82677 25.5699,-10.6363 4.74443,-4.68084 7.12812,-8.64608 8.60412,-14.31281 1.38355,-5.31182 0.21623,-8.70466 -3.81712,-11.09446 l -1.97593,-1.17077 3.06659,-6.25088 c 3.90738,-7.96475 6.01696,-9.62265 12.24422,-9.62265 3.52977,0 4.38897,0.23372 6.34561,1.72612 2.58177,1.96921 4.89973,6.15725 6.25842,11.30761 0.76552,2.90187 0.81015,4.31433 0.24758,7.83674 -3.23103,20.23081 -11.16042,33.58185 -28.58041,48.12204 -8.96037,7.47908 -15.17724,9.91972 -25.06985,9.84202 -3.05197,-0.024 -8.12347,-0.58409 -11.27,-1.24473 z"
           style="opacity:0;fill:#aad400;stroke:#aad400;stroke-width:0" />
      </g>
      <rect
         y="179.19147"
         x="24.390236"
         height="700"
         width="700"
         id="rect5046"
         style="fill:none;stroke:#222b00" />
    </g>
    <g
       id="g4780"
       transform="matrix(1.8613043,0,0,1.7818481,1001.9991,-41.590859)">
      <path
         sodipodi:nodetypes="ccccccc"
         inkscape:connector-curvature="0"
         id="path3490-0-3"
         d="m -372.10917,321.06457 c -28.80247,3.48208 -21.35722,35.60655 -6.07812,39.30479 32.74051,9.39237 40.881,-6.70529 47.99623,-11.22994 21.65363,-19.47257 22.89329,-37.4417 24.94127,-48.59109 -3.70228,-26.79974 -22.2212,-18.71013 -24.94127,-13.6055 -5.90822,9.01157 -8.11657,22.52114 -14.04257,26.34717 -7.55352,7.66646 -16.96952,9.89555 -27.87554,7.77457 z"
         style="fill:none;fill-rule:evenodd;stroke:#502d16;stroke-width:0.92348725px;stroke-linecap:butt;stroke-linejoin:miter;stroke-opacity:1" />
      <path
         transform="matrix(0.90976587,0,0,0.93741552,-560.54998,-261.23747)"
         inkscape:connector-curvature="0"
         id="path3696-0-5"
         d="m 220.19704,628.70406 c -0.27367,0 -0.55009,0.0387 -0.82101,0 -0.3265,-0.0466 -0.5626,-0.37416 -0.65682,-0.65682 -0.0173,-0.0519 0,-0.10947 0,-0.1642 0,-0.0547 -0.0173,-0.11228 0,-0.16421 0.0994,-0.29823 0.14054,-0.30473 0.32841,-0.49261 0.0547,-0.0547 0.0908,-0.13972 0.1642,-0.1642 0.0874,-0.0291 1.1727,0 1.31363,0 0.0547,0 0.11525,-0.0245 0.16421,0 0.0692,0.0346 0.10946,0.10947 0.1642,0.1642 0.0547,0.0547 0.21894,0.10947 0.1642,0.16421 -0.0547,0.0547 -0.1642,-0.24161 -0.1642,-0.16421 0,0.12239 0.13452,0.20968 0.1642,0.32841 0.25068,1.00272 -0.43192,-0.48367 0.32841,0.65682 0.0233,0.035 0,0.68404 0,0.82101 0,0.11339 0.025,0.60689 0,0.65682 -0.0346,0.0692 -0.095,0.12958 -0.1642,0.1642 -0.19255,0.0963 -0.1949,-0.0974 -0.32841,-0.1642 -0.049,-0.0245 -0.11525,0.0245 -0.1642,0 -0.0692,-0.0346 -0.095,-0.12959 -0.16421,-0.16421 -0.049,-0.0245 -0.11525,0.0245 -0.1642,0 -0.0692,-0.0346 -0.0908,-0.13972 -0.16421,-0.1642 -0.10385,-0.0346 -0.3284,0.10947 -0.3284,0 0,-0.24478 0.54734,-0.54734 0.3284,-0.65681 -0.24478,-0.12239 -0.49261,0.71155 -0.65681,0.49261 -0.50241,-0.66988 2.4134,-0.59381 -0.1642,-0.16421 -0.0764,0.0127 -0.095,-0.12958 -0.16421,-0.1642 -0.0489,-0.0245 -0.11524,0.0245 -0.1642,0 -0.13847,-0.0692 -0.18994,-0.25917 -0.32841,-0.32841 -0.0489,-0.0245 -0.11525,0.0245 -0.1642,0 -0.0692,-0.0346 -0.10947,-0.10947 -0.16421,-0.1642 -0.0663,-0.0663 -0.43474,-0.27993 -0.3284,-0.49261 0.0692,-0.13847 0.25917,-0.18994 0.3284,-0.32841 0.0245,-0.049 -0.0245,-0.11525 0,-0.1642 0.18154,-0.36307 0.10192,-0.051 0.32841,-0.16421 0.0692,-0.0346 0.095,-0.12958 0.16421,-0.1642 0.0489,-0.0245 0.1642,-0.0547 0.1642,0 0,0.0547 -0.21894,0 -0.1642,0 0.21893,0 0.43787,0 0.65681,0 0.0547,0 0.10947,0 0.1642,0 0.0547,0 0.16421,-0.0547 0.16421,0 0,0.0547 -0.10947,0 -0.16421,0 0.16421,0.0547 0.3247,0.12222 0.49261,0.1642 0.32215,0.0805 0.0116,-0.1526 0.32841,0.16421"
         style="fill:none;fill-rule:evenodd;stroke:#000000;stroke-width:1px;stroke-linecap:butt;stroke-linejoin:miter;stroke-opacity:1" />
      <path
         transform="matrix(0.90976587,0,0,0.93741552,-560.54998,-261.23747)"
         inkscape:connector-curvature="0"
         id="path3698-1-3"
         d="m 219.70443,627.71883 c 0.21894,-0.0547 0.43114,-0.1642 0.65682,-0.1642 0.0774,0 0.095,0.12959 0.1642,0.1642 0.049,0.0245 0.11525,-0.0245 0.16421,0 0.0692,0.0346 0.10946,0.10947 0.1642,0.16421 0.0547,0.0547 0.21894,0.10947 0.1642,0.1642 -0.24749,0.24749 -1.01693,-0.55093 -1.31363,-0.32841 -0.17515,0.13137 -0.0429,0.44213 0,0.65682 0.0605,0.30255 0.18749,0.0937 0.32841,0.1642 0.0692,0.0346 0.10947,0.10947 0.1642,0.16421 0.0547,0.0547 0.21894,0.10947 0.16421,0.1642 -0.0461,0.0461 -0.16299,-0.21813 -0.32841,-0.32841 -0.10183,-0.0679 -0.28295,-0.0506 -0.32841,-0.1642 -0.0813,-0.20328 -0.21893,-0.65682 0,-0.65682 0.21894,0 -0.0531,0.44442 0,0.65682 0.0133,0.0531 0.11525,-0.0245 0.16421,0 0.0692,0.0346 0.10947,0.10947 0.1642,0.1642 0.10947,0 0.22456,-0.0346 0.32841,0 0.0734,0.0245 0.21894,0.10947 0.1642,0.16421 -0.0547,0.0547 -0.10947,-0.10947 -0.1642,-0.16421 -0.0547,-0.0547 -0.11585,-0.10376 -0.16421,-0.1642 -0.17096,-0.2137 -0.3284,-0.43788 -0.49261,-0.65682 z"
         style="fill:none;fill-rule:evenodd;stroke:#000000;stroke-width:1px;stroke-linecap:butt;stroke-linejoin:miter;stroke-opacity:1" />
      <path
         transform="matrix(0.90976587,0,0,0.93741552,-560.54998,-261.23747)"
         inkscape:connector-curvature="0"
         id="path3702-05-6"
         d="m 241.14713,616.53661 c -0.0385,-1.35335 -0.0915,-1.24688 0.99751,-1.24688 0.30441,0 0.57506,-0.0968 0.74813,0.24937 0.0743,0.1487 -0.0744,0.35006 0,0.49876 0.0526,0.10514 0.1968,0.14423 0.24937,0.24937 0.0372,0.0743 0,0.16625 0,0.24938 0,0.20386 0.0421,1.61924 0,1.74564 -0.0372,0.11152 -0.14423,0.1968 -0.24937,0.24937 -0.0131,0.007 -0.73509,0.007 -0.74813,0 -0.10515,-0.0526 -0.13785,-0.2122 -0.24938,-0.24937 -0.15772,-0.0526 -0.33746,0.0403 -0.49875,0 -0.18033,-0.0451 -0.3441,-0.14628 -0.49875,-0.24938 -0.0978,-0.0652 -0.33251,-0.16625 -0.24938,-0.24938 0.0831,-0.0831 0.24938,0.36694 0.24938,0.24938 0,-1.66251 -1.16376,1.33001 0.24937,-1.49626 z"
         style="fill:none;fill-rule:evenodd;stroke:#000000;stroke-width:1px;stroke-linecap:butt;stroke-linejoin:miter;stroke-opacity:1" />
      <path
         transform="matrix(0.90976587,0,0,0.93741552,-560.54998,-261.23747)"
         inkscape:connector-curvature="0"
         id="path3704-9-3"
         d="m 241.89526,616.78599 c 0.0831,-0.33251 0.24938,-0.65477 0.24938,-0.99751 0,-0.11756 -0.13182,-0.24938 -0.24938,-0.24938 -0.0831,0 0,0.16625 0,0.24938 0,0.3325 -0.3325,0.99751 0,0.99751 0.34274,0 0.16625,-0.66501 0.24938,-0.99751 z"
         style="fill:none;fill-rule:evenodd;stroke:#000000;stroke-width:1px;stroke-linecap:butt;stroke-linejoin:miter;stroke-opacity:1" />
      <path
         transform="matrix(0.90976587,0,0,0.93741552,-560.54998,-261.23747)"
         inkscape:connector-curvature="0"
         id="path3706-9-6"
         d="m 242.39401,616.78599 c 0,0.3325 0.0806,0.67493 0,0.9975 -0.0202,0.0806 -0.16625,0 -0.24937,0 -0.24938,0 -0.49875,0 -0.74813,0 -0.0831,0 -0.16625,0 -0.24938,0 -0.0831,0 -0.24937,0.0831 -0.24937,0 0,-0.0831 0.16625,0 0.24937,0 0.0831,0 0.16625,0 0.24938,0 0.0831,0 0.17503,-0.0372 0.24938,0 0.10514,0.0526 0.14423,0.19681 0.24937,0.24938 0.73387,0.36693 -0.32832,-0.5777 0.49875,0.24938 0.0831,0.0831 0.33251,0.16625 0.24938,0.24937 -0.10438,0.10438 -0.23859,-0.36867 -0.49875,-0.49875 -0.12469,-0.0624 -0.74813,0.12469 -0.74813,0 0,-0.16625 0.49875,0.16625 0.49875,0 0,-0.23512 -0.36833,-0.30313 -0.49875,-0.49875 -0.0461,-0.0692 0.0263,-0.17052 0,-0.24938 -0.15098,-0.45293 -0.21343,-0.46281 -0.49875,-0.74813 z"
         style="fill:none;fill-rule:evenodd;stroke:#000000;stroke-width:1px;stroke-linecap:butt;stroke-linejoin:miter;stroke-opacity:1" />
      <path
         transform="matrix(0.90976587,0,0,0.93741552,-560.54998,-261.23747)"
         inkscape:connector-curvature="0"
         id="path3708-0-4"
         d="m 241.64589,615.78848 c 0.0956,0.54038 -1.50696,0.76951 -1.74564,1.24688 -0.0372,0.0743 0,0.16625 0,0.24938 0,0.0831 -0.0588,0.30815 0,0.24938 0.50455,-0.50455 0.0724,-0.71585 0.24938,-1.24689 0.0372,-0.11152 0.16625,-0.3325 0.24937,-0.24937 0.0831,0.0831 -0.16625,0.16625 -0.24937,0.24937"
         style="fill:none;fill-rule:evenodd;stroke:#000000;stroke-width:1px;stroke-linecap:butt;stroke-linejoin:miter;stroke-opacity:1" />
      <path
         transform="matrix(0.90976587,0,0,0.93741552,-560.54998,-261.23747)"
         inkscape:connector-curvature="0"
         id="path3710-9-8"
         d="m 240.14963,617.53412 c 0.3325,-0.0831 0.65477,-0.24938 0.9975,-0.24938 0.38167,0 0.9842,0.73482 1.24688,0.99751"
         style="fill:none;fill-rule:evenodd;stroke:#000000;stroke-width:1px;stroke-linecap:butt;stroke-linejoin:miter;stroke-opacity:1" />
      <path
         style="opacity:0;fill:#aad400;stroke:#aad400;stroke-width:0"
         d="m -369.4063,359.26217 c -7.20438,-1.51259 -10.63169,-3.11745 -13.29004,-6.22312 -3.33312,-3.89402 -4.77398,-7.53914 -5.10267,-12.90895 -0.35523,-5.80324 0.78339,-9.29518 4.26114,-13.06808 2.66557,-2.89181 8.11248,-5.59971 12.46328,-6.19605 l 2.88458,-0.39538 -1.27723,2.38303 c -2.1116,3.93979 -1.36257,7.11603 2.43085,10.30798 1.64693,1.3858 2.47606,1.60646 6.00696,1.59864 9.51892,-0.0211 18.66787,-3.82677 25.5699,-10.6363 4.74443,-4.68084 7.12812,-8.64608 8.60412,-14.31281 1.38355,-5.31182 0.21623,-8.70466 -3.81712,-11.09446 l -1.97593,-1.17077 3.06659,-6.25088 c 3.90738,-7.96475 6.01696,-9.62265 12.24422,-9.62265 3.52977,0 4.38897,0.23372 6.34561,1.72612 2.58177,1.96921 4.89973,6.15725 6.25842,11.30761 0.76552,2.90187 0.81015,4.31433 0.24758,7.83674 -3.23103,20.23081 -11.16042,33.58185 -28.58041,48.12204 -8.96037,7.47908 -15.17724,9.91972 -25.06985,9.84202 -3.05197,-0.024 -8.12347,-0.58409 -11.27,-1.24473 z"
         id="path4126-9-2"
         inkscape:connector-curvature="0" />
      <path
         sodipodi:nodetypes="ccc"
         inkscape:connector-curvature="0"
         id="path4513"
         d="m -330.92592,315.4215 11.12704,20.6116 1.16858,0"
         style="fill:#502d16;fill-rule:evenodd;stroke:#502d16;stroke-width:0.95695293px;stroke-linecap:butt;stroke-linejoin:miter;stroke-opacity:1" />
      <path
         transform="translate(-177.41815,72.029206)"
         inkscape:connector-curvature="0"
         id="path4766"
         d="m -190.16489,290.06511 c -4.80277,-0.72876 -11.52066,-2.50333 -13.52898,-3.57375 -2.20406,-1.17475 -5.15644,-4.06369 -6.56567,-6.42459 -3.83055,-6.41737 -4.42186,-14.10511 -1.53678,-19.98012 1.15935,-2.36082 4.18074,-5.62641 6.49633,-7.02136 3.32929,-2.00563 9.13072,-3.62734 11.63357,-3.25202 l 1.32277,0.19836 -1.02347,1.88925 c -0.56291,1.03908 -1.11877,2.34783 -1.23524,2.90833 -0.53733,2.58581 0.76648,5.41499 3.41138,7.40247 1.2822,0.9635 1.75915,1.1288 3.75557,1.3016 6.28585,0.54409 14.62206,-1.55424 21.02047,-5.29111 2.82041,-1.64721 9.66054,-8.36391 11.58699,-11.3779 0.72672,-1.13698 1.35346,-2.02885 1.39275,-1.98193 0.0393,0.0469 2.43955,4.47605 5.33393,9.84252 2.89438,5.36646 5.40629,9.84901 5.58201,9.96121 0.67433,0.43056 -7.10521,9.07168 -10.87543,12.07988 -1.15535,0.92184 -3.07838,2.56628 -4.27338,3.65431 -5.35042,4.87146 -10.14574,7.66871 -15.61066,9.10616 -2.61273,0.68722 -3.77908,0.80996 -8.5158,0.89614 -3.70349,0.0674 -6.42568,-0.0424 -8.37036,-0.33745 z"
         style="opacity:1;fill:#502d16;stroke:#aad400;stroke-width:0" />
      <path
         inkscape:connector-curvature="0"
         id="path4770"
         d="m -337.36666,301.27153 c 11.10753,23.69607 11.84804,23.69607 11.84804,23.69607"
         style="fill:#d38d5f;fill-rule:evenodd;stroke:#502d16;stroke-width:1px;stroke-linecap:butt;stroke-linejoin:miter;stroke-opacity:1" />
      <path
         transform="translate(-177.41815,72.029206)"
         inkscape:connector-curvature="0"
         id="path4776"
         d="m -188.71871,262.99963 c -2.45206,-0.47461 -5.39392,-4.37317 -5.39392,-7.14804 0,-4.41987 1.50164,-5.51385 7.60134,-5.53778 10.95031,-0.0429 22.02824,-7.00146 25.93383,-16.29012 l 1.00969,-2.40133 2.72716,6.13662 c 1.49993,3.37514 2.72445,6.55681 2.72113,7.07037 -0.003,0.51356 -2.5065,3.55097 -5.56265,6.74981 -6.17673,6.46511 -10.73293,9.01076 -19.42343,10.85233 -5.02897,1.06567 -6.57165,1.15684 -9.61315,0.56814 z m 7.93513,-6.08467 c 0,-1.8139 -1.06809,-3.02257 -2.67099,-3.02257 -1.25268,0 -1.77203,0.41597 -1.77203,1.41929 0,0.78061 0.41654,1.58737 0.92563,1.7928 1.56593,0.63186 3.51739,0.52672 3.51739,-0.18952 z m 19.62741,-10.43423 c 0.80251,-1.29849 -0.41646,-3.69588 -1.8792,-3.69588 -1.82873,0 -3.18611,2.41786 -2.0149,3.58907 1.05315,1.05315 3.27162,1.114 3.8941,0.10681 z"
         style="opacity:1;fill:#ffccaa;stroke:#502d16;stroke-width:0" />
      <path
         transform="translate(-177.41815,72.029206)"
         inkscape:connector-curvature="0"
         id="path4778"
         d="m -144.9041,257.03952 c -3.66505,-6.18021 -13.66441,-26.38047 -13.66441,-27.60421 0,-2.03287 6.66386,-14.68154 8.49281,-16.12019 4.80782,-3.78184 11.55086,-3.60949 15.38396,0.3932 2.56636,2.67991 4.96776,8.19775 5.49121,12.61752 0.83877,7.0821 -3.73418,23.33422 -9.0089,32.01735 -1.48184,2.43937 -2.8286,4.43522 -2.9928,4.43522 -0.1642,0 -1.83004,-2.5825 -3.70187,-5.73889 z"
         style="opacity:1;fill:#aad400;stroke:#502d16;stroke-width:0" />
    </g>
  </g>
</svg>
