<?xml version="1.0" encoding="UTF-8" standalone="no"?>
<!-- Created with Inkscape (http://www.inkscape.org/) -->

<svg
   xmlns:dc="http://purl.org/dc/elements/1.1/"
   xmlns:cc="http://creativecommons.org/ns#"
   xmlns:rdf="http://www.w3.org/1999/02/22-rdf-syntax-ns#"
   xmlns:svg="http://www.w3.org/2000/svg"
   xmlns="http://www.w3.org/2000/svg"
   xmlns:sodipodi="http://sodipodi.sourceforge.net/DTD/sodipodi-0.dtd"
   xmlns:inkscape="http://www.inkscape.org/namespaces/inkscape"
   width="210mm"
   height="297mm"
   viewBox="0 0 744.09448819 1052.3622047"
   id="svg4747"
   version="1.1"
   inkscape:version="0.91 r13725"
   sodipodi:docname="semente9.svg"
   inkscape:export-filename="/home/qui00214/Área de Trabalho/JURUBAMANJI/Plantas do jogo/png/Animação/semente8"
   inkscape:export-xdpi="8.3452215"
   inkscape:export-ydpi="8.3452215">
  <defs
     id="defs4749">
    <inkscape:perspective
       sodipodi:type="inkscape:persp3d"
       inkscape:vp_x="0 : 526.1811 : 1"
       inkscape:vp_y="0 : 1000 : 0"
       inkscape:vp_z="744.09449 : 526.1811 : 1"
       inkscape:persp3d-origin="372.04724 : 350.7874 : 1"
       id="perspective5007" />
  </defs>
  <sodipodi:namedview
     id="base"
     pagecolor="#ffffff"
     bordercolor="#666666"
     borderopacity="1.0"
     inkscape:pageopacity="0.0"
     inkscape:pageshadow="2"
     inkscape:zoom="0.62"
     inkscape:cx="406.65033"
     inkscape:cy="520"
     inkscape:document-units="px"
     inkscape:current-layer="layer1"
     showgrid="false"
     inkscape:window-width="1301"
     inkscape:window-height="744"
     inkscape:window-x="65"
     inkscape:window-y="24"
     inkscape:window-maximized="1" />
  <metadata
     id="metadata4752">
    <rdf:RDF>
      <cc:Work
         rdf:about="">
        <dc:format>image/svg+xml</dc:format>
        <dc:type
           rdf:resource="http://purl.org/dc/dcmitype/StillImage" />
        <dc:title></dc:title>
      </cc:Work>
    </rdf:RDF>
  </metadata>
  <g
     inkscape:label="Layer 1"
     inkscape:groupmode="layer"
     id="layer1">
    <g
       id="g5057" />
    <rect
       y="179.19147"
       x="24.390236"
       height="700"
       width="700"
       id="rect5046"
       style="fill:none;stroke:#222b00" />
    <g
       id="g5803"
       transform="matrix(1.4235284,0,0,1.4803241,16.437629,-206.46166)">
      <g
         id="g5888">
        <g
           id="g5003"
           transform="matrix(1.1460493,0,0,0.97140099,-58.702442,-173.59098)">
          <g
             transform="translate(-143.75,51.041667)"
             id="g4591">
            <g
               id="g4351">
              <g
                 id="g3880-5-1-5"
                 transform="matrix(0.23984257,1.4319213,-0.92896678,0.36969641,941.78024,-37.883915)">
                <g
                   id="g3687-4-9-9">
                  <path
                     sodipodi:nodetypes="cc"
                     inkscape:connector-curvature="0"
                     id="path3523-1-3-0"
                     d="m 277.72602,609.02864 c 34.92164,-2.62846 30.19426,12.06601 30.19424,12.06606"
                     style="fill:none;fill-rule:evenodd;stroke:#445500;stroke-width:2.04646087px;stroke-linecap:butt;stroke-linejoin:miter;stroke-opacity:1" />
                  <g
                     id="g3509-3-1-9"
                     transform="matrix(0.81401624,0.51505121,0.21521326,-1.4218147,-100.67803,1152.0184)">
                    <path
                       style="fill:none;fill-rule:evenodd;stroke:#668000;stroke-width:2.42952824px;stroke-linecap:butt;stroke-linejoin:miter;stroke-opacity:1"
                       d="m 287.16172,463.81515 c 6.15977,13.96444 51.36954,22.49785 47.46767,30.76449 -3.96627,16.45775 -11.17172,17.99895 -18.16664,20.50969 -25.10683,-21.90291 -13.60793,-30.58777 -29.30103,-51.27418 z"
                       id="path3675-2-4-5"
                       inkscape:connector-curvature="0"
                       sodipodi:nodetypes="cccc" />
                    <path
                       style="fill:none;fill-rule:evenodd;stroke:#88aa00;stroke-width:2.42952824px;stroke-linecap:butt;stroke-linejoin:miter;stroke-opacity:1"
                       d="m 303.86533,482.18374 24.01627,25.83083 -8.68021,-8.79608 5.1277,-9.52487 -5.1277,9.52487 -10.66138,2.53267 11.11248,-2.87719 -8.00915,-7.20512 -6.83254,1.71209 8.03173,-1.22565 3.09206,-5.86692 0.0775,-0.75996"
                       id="path3767-0-4-6-7"
                       inkscape:connector-curvature="0"
                       sodipodi:nodetypes="cccccccccccc" />
                  </g>
                  <path
                     sodipodi:nodetypes="cc"
                     inkscape:connector-curvature="0"
                     id="path3685-2-3-2"
                     d="m 276.66667,597.86662 c 35.2932,-0.15673 34.8547,-8.54877 42.22222,24.44444"
                     style="fill:none;fill-rule:evenodd;stroke:#668000;stroke-width:1px;stroke-linecap:butt;stroke-linejoin:miter;stroke-opacity:1" />
                </g>
                <path
                   style="fill:#aad400;stroke:#668000;stroke-width:0.74050236"
                   d="m 308.76028,616.5336 c -0.70378,-2.80409 -5.19519,-6.26277 -9.91428,-7.63465 -2.66676,-0.77525 -7.18943,-1.26566 -12.13269,-1.3156 l -7.88106,-0.0796 -0.47131,-3.99228 c -0.25922,-2.19576 -0.3098,-4.1538 -0.1124,-4.35121 0.19741,-0.1974 6.35,-0.6874 13.67243,-1.08889 12.3477,-0.67702 13.51827,-0.62996 16.13603,0.64869 3.28724,1.60566 5.30838,5.19371 7.55487,13.41183 l 1.46756,5.36865 -2.35945,0.0101 c -1.2977,0.006 -3.06617,0.19978 -3.92992,0.4316 -1.22497,0.32877 -1.6715,0.0189 -2.02978,-1.40861 z"
                   id="path3750-6-7-8"
                   inkscape:connector-curvature="0" />
              </g>
              <path
                 inkscape:connector-curvature="0"
                 id="path4345"
                 d="m 428.27428,587.61293 c -1.93222,-2.0849 -3.74668,-7.4496 -6.99898,-20.69355 -3.27427,-13.33336 -5.28417,-20.20767 -7.12895,-24.38267 -0.57995,-1.3125 -0.97675,-2.38637 -0.88178,-2.38637 0.095,0 0.74371,0.21712 1.44166,0.48248 2.10346,0.79973 6.80157,1.67158 14.472,2.68563 8.69375,1.14934 11.6422,1.86648 16.06377,3.90715 4.70586,2.17187 8.2839,4.86879 13.1728,9.92887 l 4.23657,4.38491 -1.69485,3.05548 c -2.79699,5.04243 -7.30354,11.01061 -8.31345,11.0098 -0.15566,-1.2e-4 -2.06992,-1.92501 -4.25392,-4.27752 l -3.97091,-4.2773 2.94818,-6.70401 c 1.6215,-3.6872 2.94818,-6.87596 2.94818,-7.08611 0,-0.21016 -0.76705,-0.37661 -1.70455,-0.36988 -1.6638,0.0119 -1.73678,0.0853 -3.05324,3.06818 -0.74178,1.68078 -1.98845,4.45439 -2.77038,6.16358 l -1.4217,3.10763 -2.34987,-2.95313 -2.34988,-2.95313 1.59754,-4.41326 c 0.87864,-2.4273 1.59753,-4.59341 1.59753,-4.81359 0,-0.22018 -0.76704,-0.39858 -1.70454,-0.39646 -1.69759,0.004 -1.71086,0.0187 -3.2513,3.63636 -0.85072,1.99788 -1.74503,3.6325 -1.98736,3.6325 -0.24233,0 -2.11707,-1.63636 -4.1661,-3.63636 -2.04902,-2 -3.92894,-3.63636 -4.1776,-3.63636 -0.24866,0 -1.04636,0.62026 -1.77266,1.37836 l -1.32056,1.37837 4.73655,4.44476 4.73655,4.44476 -2.66991,1.52757 c -3.36074,1.92282 -4.33216,2.8929 -4.33216,4.32618 0,1.67655 1.06894,1.44181 5.22004,-1.14636 1.99603,-1.24451 3.84392,-2.26273 4.10644,-2.26273 0.26252,0 1.54305,1.07915 2.84563,2.39812 l 2.36833,2.39811 -5.56567,3.45989 c -5.08093,3.15855 -5.55736,3.56966 -5.47013,4.72016 0.0525,0.69314 0.25709,1.40661 0.45454,1.58547 0.19745,0.17887 3.08487,-1.36774 6.4165,-3.43691 7.06014,-4.38485 6.28472,-4.42361 11.64482,0.58213 l 3.48247,3.25224 -1.94428,1.40844 c -2.92286,2.11731 -7.80441,4.69752 -12.81609,6.77411 -2.46656,1.02203 -4.6752,1.85824 -4.90806,1.85824 -0.23287,0 -0.91292,-0.5282 -1.51122,-1.17378 z"
                 style="fill:#aad400;stroke:#668000;stroke-width:0.45454547" />
            </g>
          </g>
          <path
             sodipodi:nodetypes="sssscscsscsssssss"
             style="fill:#aad400;stroke:#668000;stroke-width:0.64315981"
             d="m 229.92534,755.18722 c -6.02129,-3.17985 -8.74479,-5.88925 -11.08321,-11.02581 -2.68975,-5.90829 -3.07982,-10.01794 -1.57693,-16.61453 1.00188,-4.39759 1.44548,-5.38934 3.71609,-8.30779 2.67676,-3.44053 -3.43701,-11.55846 11.00144,-7.55192 3.2244,-0.91743 3.39834,-22.32225 14.10737,-20.67469 5.0978,0.78432 11.0903,0.82641 11.0903,0.82641 0,0 10.50119,-15.27565 21.76551,-11.32792 2.64558,0.92717 24.52416,-1.75097 18.86937,3.92309 -2.20524,2.21276 -4.25256,3.4107 -3.20882,2.63292 1.04375,-0.77775 1.97623,-1.68988 2.07219,-2.02691 0.096,-0.33701 1.7154,-0.98363 3.59872,-1.43689 8.52457,-2.05168 14.73895,3.61186 15.72628,14.33229 0.81134,8.80928 -4.14438,19.69098 -15.91942,34.9557 -5.11421,6.62988 -9.88429,10.7066 -19.84402,16.95969 -11.20587,7.03544 -19.80037,10.77439 -25.87649,11.25736 -4.06366,0.323 -19.86363,-3.50504 -24.43838,-5.921 z"
             id="path3790-8-5-1-0-4-3-9-8"
             inkscape:connector-curvature="0" />
        </g>
      </g>
    </g>
  </g>
</svg>
