<?xml version="1.0" encoding="utf-8"?>
<!-- Generator: Adobe Illustrator 22.1.0, SVG Export Plug-In . SVG Version: 6.00 Build 0)  -->
<svg version="1.1"
	 id="svg4747" inkscape:export-filename="/home/qui00214/Ãƒrea de Trabalho/JURUBAMANJI/Plantas do jogo/png/AnimaÃƒÂ§ÃƒÂ£o/semente7" inkscape:export-xdpi="8.3452215" inkscape:export-ydpi="8.3452215" inkscape:version="0.91 r13725" sodipodi:docname="semente7.svg" xmlns:cc="http://creativecommons.org/ns#" xmlns:dc="http://purl.org/dc/elements/1.1/" xmlns:inkscape="http://www.inkscape.org/namespaces/inkscape" xmlns:rdf="http://www.w3.org/1999/02/22-rdf-syntax-ns#" xmlns:sodipodi="http://sodipodi.sourceforge.net/DTD/sodipodi-0.dtd" xmlns:svg="http://www.w3.org/2000/svg"
	 xmlns="http://www.w3.org/2000/svg" xmlns:xlink="http://www.w3.org/1999/xlink" x="0px" y="0px" viewBox="0 0 595.3 841.9"
	 style="enable-background:new 0 0 595.3 841.9;" xml:space="preserve">
<style type="text/css">
	.st0{fill:#89C93D;}
	.st1{fill:#7C891D;}
	.st2{fill:#8D9F2E;}
	.st3{fill:none;stroke:#222B00;}
	.st4{fill:#A4CC2D;}
</style>
<defs>
	
	
		<inkscape:perspective  id="perspective5007" inkscape:persp3d-origin="372.04724 : 350.7874 : 1" inkscape:vp_x="0 : 526.1811 : 1" inkscape:vp_y="0 : 1000 : 0" inkscape:vp_z="744.09449 : 526.1811 : 1" sodipodi:type="inkscape:persp3d">
		</inkscape:perspective>
</defs>
<sodipodi:namedview  bordercolor="#666666" borderopacity="1.0" id="base" inkscape:current-layer="layer1" inkscape:cx="137.29549" inkscape:cy="520" inkscape:document-units="px" inkscape:pageopacity="0.0" inkscape:pageshadow="2" inkscape:window-height="744" inkscape:window-maximized="1" inkscape:window-width="1301" inkscape:window-x="65" inkscape:window-y="24" inkscape:zoom="0.62" pagecolor="#ffffff" showgrid="false">
	</sodipodi:namedview>
<g id="g5057">
</g>
<g>
	<polygon class="st0" points="398.2,355.2 392.6,368.1 367.8,425 355.4,419.6 381.6,359.4 352.5,336.5 360.9,325.9 387.1,346.5 	"/>
	<g>
		<path class="st1" d="M296,556.4h-0.1c0.1,0,0.2,0,0.3,0c0.1,0,0.2,0,0.3,0c0.1,0,0.2,0,0.2,0c0.1,0,0.2,0,0.3,0
			C296.6,556.3,296.3,556.4,296,556.4z"/>
		<path class="st1" d="M361.8,524.9L361.8,524.9c-6.1,5.7-13,11-20.5,15.5c-0.9,0.5-1.8,1-2.7,1.6c0,0,0,0-0.1,0
			c-0.7,0.4-1.4,0.8-2.2,1.2c-0.4,0.2-0.9,0.5-1.3,0.7c-2.3,1.2-4.6,2.3-6.9,3.3c-0.5,0.3-1.1,0.5-1.6,0.7c-0.4,0.2-0.9,0.4-1.3,0.5
			c-0.3,0.1-0.6,0.3-1,0.4c-0.4,0.2-0.8,0.3-1.2,0.5c-0.5,0.2-1.1,0.4-1.6,0.6c-0.8,0.3-1.5,0.6-2.3,0.8c-0.5,0.2-1,0.4-1.5,0.5
			c-0.4,0.1-0.7,0.3-1,0.4c-0.4,0.1-0.8,0.2-1.1,0.4c-0.5,0.2-1,0.3-1.5,0.5c-0.4,0.1-0.9,0.3-1.3,0.4c-0.3,0.1-0.6,0.2-0.9,0.3
			c-0.6,0.2-1.1,0.3-1.7,0.5c-2.9,0.8-5.8,1.4-8.7,1.9c-0.8,0.1-1.6,0.3-2.4,0.4c-0.7,0.1-1.5,0.2-2.2,0.3c-0.1,0-0.2,0-0.3,0
			c0.1,0,0.3,0,0.4,0c-0.6,0.1-1.2,0.2-1.7,0.2c-0.3,0-0.6,0.1-0.9,0.1c-1,0.1-2.1,0.2-3.1,0.3c-0.8,0.1-1.5,0.1-2.3,0.2
			c-0.8,0.1-1.5,0.1-2.3,0.1c-1.9,0.1-3.8,0.1-5.8,0.1c-2.5,0-5-0.1-7.5-0.2c-0.8,0-1.6-0.1-2.5-0.2h-0.2c-0.9-0.1-1.8-0.2-2.6-0.3
			c-0.3,0-0.6-0.1-0.9-0.1c-0.7-0.1-1.4-0.2-2.1-0.3c-0.5-0.1-0.9-0.1-1.4-0.2c-0.7-0.1-1.4-0.2-2.1-0.3c-0.5-0.1-0.9-0.1-1.4-0.2
			c-10.4-1.9-20.4-5.3-29.8-10c-3.3-1.7-6.6-3.6-9.7-5.6c-0.2-0.1-0.4-0.2-0.6-0.4c1.9,2,4,3.9,6.1,5.7c4,2.8,8.3,5.3,12.7,7.6
			c33.2,16.9,75.2,16.3,110.7-5.1c4.3-2.6,8.4-5.4,12.2-8.4C362,539.1,362.9,533.8,361.8,524.9z M307.8,554.2c1.9-0.5,3.8-1,5.7-1.5
			C311.7,553.3,309.8,553.8,307.8,554.2z M313.6,552.7c1.9-0.6,3.8-1.2,5.7-1.8C317.4,551.5,315.5,552.1,313.6,552.7z M326.8,547.9
			c1.9-0.8,3.7-1.7,5.5-2.5C330.5,546.3,328.6,547.1,326.8,547.9z M334.2,544.5c1.8-0.9,3.6-1.9,5.4-3
			C337.8,542.5,336,543.5,334.2,544.5z"/>
		<path class="st1" d="M291.3,556.9c1.5-0.2,3-0.3,4.5-0.5c0,0,0,0-0.1,0s-0.2,0-0.4,0c-0.3,0-0.6,0.1-0.9,0.1
			C293.3,556.7,292.3,556.8,291.3,556.9z"/>
		<path class="st1" d="M295.7,556.4h0.1l0,0C295.8,556.4,295.8,556.4,295.7,556.4z"/>
		<path class="st1" d="M296.2,556.4c-0.1,0-0.2,0-0.3,0h0.1C296,556.4,296.1,556.4,296.2,556.4z"/>
		<path class="st1" d="M313.6,552.7c-1.9,0.6-3.8,1.1-5.7,1.5C309.8,553.8,311.7,553.2,313.6,552.7z"/>
		<path class="st1" d="M319.3,550.9c-1.9,0.7-3.8,1.3-5.7,1.8C315.5,552.1,317.4,551.5,319.3,550.9z"/>
		<path class="st1" d="M332.3,545.4c-1.8,0.9-3.7,1.8-5.5,2.5C328.6,547.1,330.5,546.3,332.3,545.4z"/>
		<path class="st1" d="M339.6,541.5c-1.8,1-3.6,2-5.4,3C336,543.5,337.8,542.5,339.6,541.5z"/>
		<path class="st2" d="M397.5,436.6l-0.1,0.1l0,0c0,0.1,0,0.2,0,0.3c0,0.2,0,0.5,0,0.7s0,0.4,0,0.6c0-0.5,0-0.9-0.1-1.4
			c0,0,0-0.1,0-0.2l0,0c0-0.6-0.1-1.3-0.2-1.9c-0.4-3.5-1.1-7-2.1-10.5c-0.3-1.2-0.7-2.3-1.2-3.4c-0.8-2.2-1.8-4.4-2.9-6.5
			c-0.3-0.5-0.5-1-0.8-1.5s-0.6-1-0.9-1.5c-0.8-1.4-1.7-2.8-2.7-4.1c-0.9-1.3-1.9-2.5-3-3.8c-0.7-0.8-1.4-1.6-2.1-2.3l0,0
			c-10-6.9-21.9-10.5-34-10.2c0.4,0.6,0.8,1.2,1.1,1.8c13.3,22.1,7.6,51.5-11.8,75.5c-7.7,9.5-17.5,18.1-29.1,25.1
			c-1.2,0.7-2.3,1.4-3.5,2c-0.5,0.3-0.9,0.5-1.4,0.7c-0.7,0.4-1.4,0.8-2.1,1.1c-0.5,0.3-1.1,0.5-1.6,0.8c-0.7,0.3-1.3,0.7-2,1
			c-0.6,0.3-1.2,0.5-1.8,0.8c-0.6,0.3-1.2,0.6-1.8,0.8c-0.6,0.3-1.3,0.5-2,0.8c-0.5,0.2-1.1,0.5-1.6,0.7c-0.7,0.3-1.4,0.5-2.1,0.8
			c-0.5,0.2-1,0.4-1.5,0.5c-0.8,0.3-1.5,0.5-2.3,0.8c-0.5,0.2-0.9,0.3-1.3,0.4c-0.8,0.2-1.6,0.5-2.4,0.7c-0.4,0.1-0.8,0.3-1.2,0.4
			c-0.8,0.2-1.7,0.4-2.5,0.6c-0.4,0.1-0.7,0.2-1.1,0.3c-0.9,0.2-1.8,0.4-2.6,0.6c-0.3,0.1-0.6,0.2-1,0.2c-0.9,0.2-1.8,0.3-2.7,0.5
			c-0.3,0-0.6,0.1-0.8,0.2c-1,0.1-1.9,0.3-2.9,0.4c-0.2,0-0.5,0.1-0.7,0.1c-1,0.1-2,0.2-3,0.3c-0.2,0-0.3,0-0.5,0.1
			c-1,0.1-2.1,0.1-3.1,0.2c-0.1,0-0.3,0-0.4,0c-1,0-2.1,0.1-3.1,0.1c-0.1,0-0.2,0-0.3,0c-1.1,0-2.1,0-3.2,0h-0.2
			c-1.1,0-2.2-0.1-3.3-0.2h-0.1c-8.4-0.6-16.3-2.4-23.3-5.4c-7.1-3-13.3-7.3-18.4-12.7l-0.2-0.1c-2.2,12.4-0.3,25.6,6.3,37.4
			c2.3,4.2,5.1,7.9,8.2,11.3c0.2,0.1,0.4,0.3,0.6,0.4c3.1,2,6.4,3.9,9.7,5.6c9.3,4.8,19.4,8.1,29.8,10c0.5,0.1,0.9,0.2,1.4,0.2
			c0.7,0.1,1.4,0.2,2.1,0.3c0.4,0.1,0.9,0.1,1.4,0.2c0.7,0.1,1.4,0.2,2.1,0.3c0.3,0,0.6,0.1,0.9,0.1c0.9,0.1,1.7,0.2,2.6,0.3h0.1
			c0.8,0.1,1.6,0.1,2.5,0.2c2.5,0.2,5,0.2,7.5,0.2c1.9,0,3.8,0,5.8-0.1c0.8,0,1.5-0.1,2.3-0.1c0.8-0.1,1.5-0.1,2.3-0.2
			c1.5-0.2,2.9-0.3,4.4-0.5c0.1,0,0.1,0,0.2,0l0,0h0.1h0.1c0.3,0,0.6-0.1,0.8-0.1c0.8-0.1,1.5-0.2,2.2-0.3c0.8-0.1,1.6-0.3,2.4-0.4
			c2.9-0.5,5.8-1.2,8.7-1.9c0.6-0.2,1.1-0.3,1.7-0.5c0.3-0.1,0.6-0.2,0.9-0.3c0.4-0.1,0.9-0.3,1.3-0.4c0.5-0.1,1-0.3,1.5-0.5
			c0.4-0.1,0.8-0.2,1.1-0.4c0.3-0.1,0.7-0.2,1-0.4c0.5-0.2,1-0.3,1.5-0.5c0.8-0.3,1.5-0.5,2.3-0.8c0.5-0.2,1.1-0.4,1.6-0.6
			c0.4-0.1,0.8-0.3,1.2-0.5c0.3-0.1,0.6-0.3,1-0.4c0.4-0.2,0.9-0.4,1.3-0.5c0.5-0.2,1.1-0.5,1.6-0.7c2.3-1,4.6-2.1,6.9-3.3
			c0.4-0.2,0.8-0.4,1.3-0.7c0.7-0.4,1.4-0.8,2.2-1.2c0,0,0,0,0.1,0c0.9-0.5,1.8-1,2.7-1.6c7.6-4.5,14.4-9.8,20.5-15.6c0,0,0,0,0,0.1
			c0,0,0-0.1,0.1-0.1c-0.4-3.3-1.1-7-2.1-11.2c1.1,4.2,1.8,7.9,2.2,11.2c3.2-3,6.1-6.1,8.9-9.4C389.8,493,399.3,464.6,397.5,436.6z
			 M397,448.6c0.2-1.2,0.3-2.5,0.4-3.7C397.3,446.1,397.2,447.3,397,448.6z"/>
		<path class="st1" d="M291.3,556.9c1.5-0.2,3-0.3,4.5-0.5c0,0,0,0-0.1,0s-0.2,0-0.4,0c-0.3,0-0.6,0.1-0.9,0.1
			C293.3,556.7,292.3,556.8,291.3,556.9z"/>
		<path class="st1" d="M295.7,556.4h0.1l0,0C295.8,556.4,295.8,556.4,295.7,556.4z"/>
		<path class="st1" d="M296.9,556.3c-0.1,0-0.2,0-0.3,0c-0.1,0-0.2,0-0.2,0c-0.1,0-0.2,0-0.3,0c-0.1,0-0.2,0-0.3,0h0.1
			C296.3,556.4,296.6,556.3,296.9,556.3z"/>
		<path class="st1" d="M295.7,556.4c0.2,0,0.3,0,0.5-0.1c-0.3,0-0.6,0.1-0.9,0.1C295.4,556.5,295.5,556.5,295.7,556.4z"/>
		<path class="st1" d="M297,556.3c-0.2,0-0.4,0.1-0.6,0.1c0.1,0,0.2,0,0.2,0C296.8,556.3,296.9,556.3,297,556.3z"/>
		<path class="st1" d="M296.4,556.3h-0.1c0,0,0,0-0.1,0c0,0,0,0-0.1,0C296.3,556.4,296.3,556.4,296.4,556.3z"/>
		<path class="st1" d="M313.6,552.7c-1.9,0.6-3.8,1.1-5.7,1.5C309.8,553.8,311.7,553.2,313.6,552.7z"/>
		<path class="st1" d="M319.3,550.9c-1.9,0.7-3.8,1.3-5.7,1.8C315.5,552.1,317.4,551.5,319.3,550.9z"/>
		<path class="st1" d="M332.3,545.4c-1.8,0.9-3.7,1.8-5.5,2.5C328.6,547.1,330.5,546.3,332.3,545.4z"/>
		<path class="st1" d="M339.6,541.5c-1.8,1-3.6,2-5.4,3C336,543.5,337.8,542.5,339.6,541.5z"/>
		<path class="st0" d="M337,468.4c-7.7,9.5-17.5,18.1-29.1,25.1c-1.2,0.7-2.3,1.4-3.5,2c-0.5,0.3-0.9,0.5-1.4,0.7
			c-0.7,0.4-1.4,0.8-2.1,1.1c-0.5,0.3-1.1,0.5-1.6,0.8c-0.7,0.3-1.3,0.7-2,1c-0.6,0.3-1.2,0.5-1.8,0.8c-0.6,0.3-1.2,0.6-1.8,0.8
			c-0.6,0.3-1.3,0.5-2,0.8c-0.5,0.2-1.1,0.5-1.6,0.7c-0.7,0.3-1.4,0.5-2.1,0.8c-0.5,0.2-1,0.4-1.5,0.5c-0.8,0.3-1.5,0.5-2.3,0.8
			c-0.5,0.2-0.9,0.3-1.3,0.4c-0.8,0.2-1.6,0.5-2.4,0.7c-0.4,0.1-0.8,0.3-1.2,0.4c-0.8,0.2-1.7,0.4-2.5,0.6c-0.4,0.1-0.7,0.2-1.1,0.3
			c-0.9,0.2-1.8,0.4-2.6,0.6c-0.3,0.1-0.6,0.2-1,0.2c-0.9,0.2-1.8,0.3-2.7,0.5c-0.3,0-0.6,0.1-0.8,0.2c-1,0.1-1.9,0.3-2.9,0.4
			c-0.2,0-0.5,0.1-0.7,0.1c-1,0.1-2,0.2-3,0.3c-0.2,0-0.3,0-0.5,0.1c-1,0.1-2.1,0.1-3.1,0.2c-0.1,0-0.3,0-0.4,0
			c-1,0-2.1,0.1-3.1,0.1c-0.1,0-0.2,0-0.3,0c-1.1,0-2.1,0-3.2,0h-0.2c-1.1,0-2.2-0.1-3.3-0.2h-0.1c-8.4-0.6-16.3-2.4-23.3-5.4
			c-7.1-3-13.3-7.3-18.4-12.7c-0.1-0.1-0.1-0.1-0.2-0.2c2.6-15.2,11.4-29.3,25.2-38.2c13-8.4,28.1-10.8,42.1-7.9
			c5.5,1.1,10.9-0.3,15-3.5c2.8-2.2,5-5.3,6.1-9c3.9-13.3,12.5-25.2,25.3-32.9c7.4-4.5,15.5-7,23.6-7.9c1.5-0.1,3-0.2,4.4-0.3
			c0.4,0.6,0.8,1.2,1.1,1.8C362.1,415,356.4,444.4,337,468.4z"/>
		<path class="st1" d="M405.9,452.1c0.1-1.2,0.1-2.5,0.1-3.7C406.1,449.7,406,450.9,405.9,452.1z"/>
		<path class="st1" d="M405.5,455.8L405.5,455.8c0.2-1.2,0.3-2.4,0.4-3.7C405.8,453.4,405.7,454.6,405.5,455.8z"/>
		<path class="st1" d="M406.1,448.4c0,1.2-0.1,2.5-0.1,3.7c-0.1,1.2-0.2,2.5-0.4,3.7c0.1-0.6,0.2-1.2,0.2-1.8
			C405.9,452.1,406.1,450.3,406.1,448.4z"/>
		<path class="st1" d="M406.1,448.4c0-0.7,0-1.5,0-2.2C406.1,446.9,406.1,447.7,406.1,448.4L406.1,448.4z"/>
		<path class="st1" d="M405.9,444L405.9,444c0.1,0.7,0.1,1.5,0.1,2.2C406,445.4,406,444.7,405.9,444L405.9,444L405.9,444z"/>
		<path class="st1" d="M405.9,444c0.1,0.7,0.1,1.5,0.1,2.2s0,1.5,0,2.2c0-0.7,0-1.5,0-2.2C406,445.4,406,444.7,405.9,444L405.9,444z
			"/>
		<path class="st1" d="M406,443.9l-0.1,0.1c0,0.7,0.1,1.5,0.1,2.2c0,0.4,0,0.7,0,1.1c0-0.4,0-0.7,0-1.1c0-0.7-0.1-1.5-0.1-2.2l0,0
			c-0.6-8.7-3.3-17.3-8-25.3c-4.3-7.1-9.9-12.9-16.3-17.4c0.7,0.8,1.4,1.5,2.1,2.3c1,1.2,2,2.5,3,3.8c0.9,1.3,1.8,2.7,2.7,4.1
			c0.3,0.5,0.6,1,0.9,1.5s0.5,1,0.8,1.5c1.1,2.1,2.1,4.3,2.9,6.5c0.4,1.1,0.8,2.3,1.2,3.4c1,3.5,1.7,6.9,2.1,10.5
			c0.1,0.6,0.1,1.3,0.2,1.9l0,0l0.1-0.1c1.7,28-7.8,56.4-26.7,78.8c-2.8,3.3-5.7,6.4-8.9,9.4c1.1,9,0.2,14.2,0.2,14.4
			C392.4,515.5,408.2,479.4,406,443.9z"/>
		<path class="st1" d="M406.1,448.4L406.1,448.4c0-0.7,0-1.5,0-2.2C406.1,446.9,406.1,447.7,406.1,448.4z"/>
		<path class="st1" d="M405.9,444c0.1,0.7,0.1,1.5,0.1,2.2C406,445.5,406,444.7,405.9,444L405.9,444z"/>
		<path class="st1" d="M405.8,454c-0.1,0.6-0.1,1.2-0.2,1.8l0,0C405.6,455.2,405.7,454.6,405.8,454z"/>
		<path class="st1" d="M397.5,437.7c0-0.3,0-0.5-0.1-0.8c0,0,0-0.1,0-0.2l0,0c0,0.1,0,0.2,0,0.3
			C397.5,437.2,397.5,437.4,397.5,437.7z"/>
		<path class="st1" d="M397.4,436.7L397.4,436.7L397.4,436.7z"/>
		<path class="st1" d="M397.5,438.3c0-0.5,0-0.9-0.1-1.4c0,0.3,0,0.5,0.1,0.8C397.5,437.9,397.5,438.1,397.5,438.3z"/>
		<path class="st1" d="M397.6,440.1c0-0.6,0-1.2-0.1-1.8C397.5,438.9,397.5,439.5,397.6,440.1z"/>
		<path class="st1" d="M397.4,436.7L397.4,436.7L397.4,436.7z"/>
		<path class="st1" d="M397.4,444.9c-0.1,1.2-0.2,2.5-0.4,3.7C397.2,447.3,397.3,446.1,397.4,444.9z"/>
	</g>
</g>
<rect id="rect5046" x="19.5" y="143.4" class="st3" width="560" height="560"/>
<path class="st0" d="M343.1,367.7c2-0.4,4-1.2,5.8-2l0,0c11.2-3.5,18.9-15.4,17.6-28.4c-1.3-12.9-10.6-22.8-21.8-24.5
	c-4.2-0.9-8.7-0.9-13.1,0.2c0,0-29.6,5-50.8,39.9C281,352.9,321.6,372.9,343.1,367.7z M292.5,348.4L292.5,348.4L292.5,348.4z"/>
<path class="st4" d="M342.3,357.5c11.9-4.1,18.3-16.5,15.5-28.2c0-0.4-0.1-0.7-0.2-1s-0.1-0.3-0.2-0.6l0,0l-1.7,0.8l-23.3,25.9
	l-1.5-2.5l19.4-21.7l-14.2,5.1l-16,17.4l-1.5-2.5l12.1-13.5l-19.4,7.4l-0.8-2.6l19.4-7.4l-16.1-2.5l0.2-2.8l21.3,4l14.2-5.5
	l-26.2-4.5l0.2-2.8l31.4,5.6l1.6-0.9l0,0c-3.6-7.8-11.2-12.3-19.1-12.5c-2.5,0-4.9,0.3-7.4,1.2c0,0-22.9,5.7-36.9,36.5
	c0.4,0,15.4,6.2,30,8.4C330.2,359.3,337.3,359.5,342.3,357.5z"/>
</svg>
