<?xml version="1.0" encoding="utf-8"?>
<!-- Generator: Adobe Illustrator 22.1.0, SVG Export Plug-In . SVG Version: 6.00 Build 0)  -->
<svg version="1.1"
	 id="svg4747" inkscape:export-filename="/home/qui00214/Ãƒrea de Trabalho/JURUBAMANJI/Plantas do jogo/png/AnimaÃƒÂ§ÃƒÂ£o/semente8" inkscape:export-xdpi="8.3452215" inkscape:export-ydpi="8.3452215" inkscape:version="0.91 r13725" sodipodi:docname="semente8.svg" xmlns:cc="http://creativecommons.org/ns#" xmlns:dc="http://purl.org/dc/elements/1.1/" xmlns:inkscape="http://www.inkscape.org/namespaces/inkscape" xmlns:rdf="http://www.w3.org/1999/02/22-rdf-syntax-ns#" xmlns:sodipodi="http://sodipodi.sourceforge.net/DTD/sodipodi-0.dtd" xmlns:svg="http://www.w3.org/2000/svg"
	 xmlns="http://www.w3.org/2000/svg" xmlns:xlink="http://www.w3.org/1999/xlink" x="0px" y="0px" viewBox="0 0 595.3 841.9"
	 style="enable-background:new 0 0 595.3 841.9;" xml:space="preserve">
<style type="text/css">
	.st0{fill:none;stroke:#222B00;}
	.st1{fill:#89C93D;}
	.st2{fill:#8D9F2E;}
	.st3{fill:#7C891D;}
	.st4{fill:#A4CC2D;}
</style>
<defs>
	
	
		<inkscape:perspective  id="perspective5007" inkscape:persp3d-origin="372.04724 : 350.7874 : 1" inkscape:vp_x="0 : 526.1811 : 1" inkscape:vp_y="0 : 1000 : 0" inkscape:vp_z="744.09449 : 526.1811 : 1" sodipodi:type="inkscape:persp3d">
		</inkscape:perspective>
</defs>
<sodipodi:namedview  bordercolor="#666666" borderopacity="1.0" id="base" inkscape:current-layer="g5888" inkscape:cx="137.29549" inkscape:cy="520" inkscape:document-units="px" inkscape:pageopacity="0.0" inkscape:pageshadow="2" inkscape:window-height="716" inkscape:window-maximized="1" inkscape:window-width="1301" inkscape:window-x="65" inkscape:window-y="24" inkscape:zoom="0.62" pagecolor="#ffffff" showgrid="false">
	</sodipodi:namedview>
<g id="layer1" inkscape:groupmode="layer" inkscape:label="Layer 1">
	<g id="g5057">
	</g>
	<rect id="rect5046" x="19.5" y="143.4" class="st0" width="560" height="560"/>
</g>
<g>
	<polygon class="st1" points="400.8,338.9 395.2,351.8 370.4,408.7 358,403.3 384.2,343.1 355.1,320.2 363.5,309.6 389.7,330.2 	"/>
	<circle class="st2" cx="225.9" cy="458.9" r="18.4"/>
	<circle class="st1" cx="228.2" cy="461.9" r="18.4"/>
	<circle class="st2" cx="254.1" cy="449.8" r="22.1"/>
	<circle class="st1" cx="253" cy="454.2" r="22.1"/>
	<g>
		<path class="st3" d="M301.1,552.6H301c0.1,0,0.2,0,0.3,0c0.1,0,0.2,0,0.3,0c0.1,0,0.2,0,0.2,0c0.1,0,0.2,0,0.3,0
			C301.7,552.5,301.4,552.6,301.1,552.6z"/>
		<path class="st3" d="M366.9,521.1L366.9,521.1c-6.1,5.7-13,11-20.5,15.5c-0.9,0.5-1.8,1-2.7,1.6c0,0,0,0-0.1,0
			c-0.7,0.4-1.4,0.8-2.2,1.2c-0.4,0.2-0.9,0.5-1.3,0.7c-2.3,1.2-4.6,2.3-6.9,3.3c-0.5,0.3-1.1,0.5-1.6,0.7c-0.4,0.2-0.9,0.4-1.3,0.5
			c-0.3,0.1-0.6,0.3-1,0.4c-0.4,0.2-0.8,0.3-1.2,0.5c-0.5,0.2-1.1,0.4-1.6,0.6c-0.8,0.3-1.5,0.6-2.3,0.8c-0.5,0.2-1,0.4-1.5,0.5
			c-0.4,0.1-0.7,0.3-1,0.4c-0.4,0.1-0.8,0.2-1.1,0.4c-0.5,0.2-1,0.3-1.5,0.5c-0.4,0.1-0.9,0.3-1.3,0.4c-0.3,0.1-0.6,0.2-0.9,0.3
			c-0.6,0.2-1.1,0.3-1.7,0.5c-2.9,0.8-5.8,1.4-8.7,1.9c-0.8,0.1-1.6,0.3-2.4,0.4c-0.7,0.1-1.5,0.2-2.2,0.3c-0.1,0-0.2,0-0.3,0
			c0.1,0,0.3,0,0.4,0c-0.6,0.1-1.2,0.2-1.7,0.2c-0.3,0-0.6,0.1-0.9,0.1c-1,0.1-2.1,0.2-3.1,0.3c-0.8,0.1-1.5,0.1-2.3,0.2
			c-0.8,0.1-1.5,0.1-2.3,0.1c-1.9,0.1-3.8,0.1-5.8,0.1c-2.5,0-5-0.1-7.5-0.2c-0.8,0-1.6-0.1-2.5-0.2h-0.2c-0.9-0.1-1.8-0.2-2.6-0.3
			c-0.3,0-0.6-0.1-0.9-0.1c-0.7-0.1-1.4-0.2-2.1-0.3c-0.5-0.1-0.9-0.1-1.4-0.2c-0.7-0.1-1.4-0.2-2.1-0.3c-0.5-0.1-0.9-0.1-1.4-0.2
			c-10.4-1.9-20.4-5.3-29.8-10c-3.3-1.7-6.6-3.6-9.7-5.6c-0.2-0.1-0.4-0.2-0.6-0.4c1.9,2,4,3.9,6.1,5.7c4,2.8,8.3,5.3,12.7,7.6
			c33.2,16.9,75.2,16.3,110.7-5.1c4.3-2.6,8.4-5.4,12.2-8.4C367.1,535.3,368,530,366.9,521.1z M312.9,550.4c1.9-0.5,3.8-1,5.7-1.5
			C316.8,549.5,314.9,550,312.9,550.4z M318.7,548.9c1.9-0.6,3.8-1.2,5.7-1.8C322.5,547.7,320.6,548.3,318.7,548.9z M331.9,544.1
			c1.9-0.8,3.7-1.7,5.5-2.5C335.6,542.5,333.7,543.3,331.9,544.1z M339.3,540.7c1.8-0.9,3.6-1.9,5.4-3
			C342.9,538.7,341.1,539.7,339.3,540.7z"/>
		<path class="st3" d="M296.4,553.1c1.5-0.2,3-0.3,4.5-0.5c0,0,0,0-0.1,0s-0.2,0-0.4,0c-0.3,0-0.6,0.1-0.9,0.1
			C298.4,552.9,297.4,553,296.4,553.1z"/>
		<path class="st3" d="M300.8,552.6h0.1l0,0C300.9,552.6,300.9,552.6,300.8,552.6z"/>
		<path class="st3" d="M301.3,552.6c-0.1,0-0.2,0-0.3,0h0.1C301.1,552.6,301.2,552.6,301.3,552.6z"/>
		<path class="st3" d="M318.7,548.9c-1.9,0.6-3.8,1.1-5.7,1.5C314.9,550,316.8,549.4,318.7,548.9z"/>
		<path class="st3" d="M324.4,547.1c-1.9,0.7-3.8,1.3-5.7,1.8C320.6,548.3,322.5,547.7,324.4,547.1z"/>
		<path class="st3" d="M337.4,541.6c-1.8,0.9-3.7,1.8-5.5,2.5C333.7,543.3,335.6,542.5,337.4,541.6z"/>
		<path class="st3" d="M344.7,537.7c-1.8,1-3.6,2-5.4,3C341.1,539.7,342.9,538.7,344.7,537.7z"/>
		<path class="st2" d="M402.6,432.8l-0.1,0.1l0,0c0,0.1,0,0.2,0,0.3c0,0.2,0,0.5,0,0.7s0,0.4,0,0.6c0-0.5,0-0.9-0.1-1.4
			c0,0,0-0.1,0-0.2l0,0c0-0.6-0.1-1.3-0.2-1.9c-0.4-3.5-1.1-7-2.1-10.5c-0.3-1.2-0.7-2.3-1.2-3.4c-0.8-2.2-1.8-4.4-2.9-6.5
			c-0.3-0.5-0.5-1-0.8-1.5s-0.6-1-0.9-1.5c-0.8-1.4-1.7-2.8-2.7-4.1c-0.9-1.3-1.9-2.5-3-3.8c-0.7-0.8-1.4-1.6-2.1-2.3l0,0
			c-10-6.9-21.9-10.5-34-10.2c0.4,0.6,0.8,1.2,1.1,1.8c13.3,22.1,7.6,51.5-11.8,75.5c-7.7,9.5-17.5,18.1-29.1,25.1
			c-1.2,0.7-2.3,1.4-3.5,2c-0.5,0.3-0.9,0.5-1.4,0.7c-0.7,0.4-1.4,0.8-2.1,1.1c-0.5,0.3-1.1,0.5-1.6,0.8c-0.7,0.3-1.3,0.7-2,1
			c-0.6,0.3-1.2,0.5-1.8,0.8c-0.6,0.3-1.2,0.6-1.8,0.8c-0.6,0.3-1.3,0.5-2,0.8c-0.5,0.2-1.1,0.5-1.6,0.7c-0.7,0.3-1.4,0.5-2.1,0.8
			c-0.5,0.2-1,0.4-1.5,0.5c-0.8,0.3-1.5,0.5-2.3,0.8c-0.5,0.2-0.9,0.3-1.3,0.4c-0.8,0.2-1.6,0.5-2.4,0.7c-0.4,0.1-0.8,0.3-1.2,0.4
			c-0.8,0.2-1.7,0.4-2.5,0.6c-0.4,0.1-0.7,0.2-1.1,0.3c-0.9,0.2-1.8,0.4-2.6,0.6c-0.3,0.1-0.6,0.2-1,0.2c-0.9,0.2-1.8,0.3-2.7,0.5
			c-0.3,0-0.6,0.1-0.8,0.2c-1,0.1-1.9,0.3-2.9,0.4c-0.2,0-0.5,0.1-0.7,0.1c-1,0.1-2,0.2-3,0.3c-0.2,0-0.3,0-0.5,0.1
			c-1,0.1-2.1,0.1-3.1,0.2c-0.1,0-0.3,0-0.4,0c-1,0-2.1,0.1-3.1,0.1c-0.1,0-0.2,0-0.3,0c-1.1,0-2.1,0-3.2,0H256
			c-1.1,0-2.2-0.1-3.3-0.2h-0.1c-8.4-0.6-16.3-2.4-23.3-5.4c-7.1-3-13.3-7.3-18.4-12.7l-0.2-0.1c-2.2,12.4-0.3,25.6,6.3,37.4
			c2.3,4.2,5.1,7.9,8.2,11.3c0.2,0.1,0.4,0.3,0.6,0.4c3.1,2,6.4,3.9,9.7,5.6c9.3,4.8,19.4,8.1,29.8,10c0.5,0.1,0.9,0.2,1.4,0.2
			c0.7,0.1,1.4,0.2,2.1,0.3c0.4,0.1,0.9,0.1,1.4,0.2c0.7,0.1,1.4,0.2,2.1,0.3c0.3,0,0.6,0.1,0.9,0.1c0.9,0.1,1.7,0.2,2.6,0.3h0.1
			c0.8,0.1,1.6,0.1,2.5,0.2c2.5,0.2,5,0.2,7.5,0.2c1.9,0,3.8,0,5.8-0.1c0.8,0,1.5-0.1,2.3-0.1c0.8-0.1,1.5-0.1,2.3-0.2
			c1.5-0.2,2.9-0.3,4.4-0.5c0.1,0,0.1,0,0.2,0l0,0h0.1h0.1c0.3,0,0.6-0.1,0.8-0.1c0.8-0.1,1.5-0.2,2.2-0.3c0.8-0.1,1.6-0.3,2.4-0.4
			c2.9-0.5,5.8-1.2,8.7-1.9c0.6-0.2,1.1-0.3,1.7-0.5c0.3-0.1,0.6-0.2,0.9-0.3c0.4-0.1,0.9-0.3,1.3-0.4c0.5-0.1,1-0.3,1.5-0.5
			c0.4-0.1,0.8-0.2,1.1-0.4c0.3-0.1,0.7-0.2,1-0.4c0.5-0.2,1-0.3,1.5-0.5c0.8-0.3,1.5-0.5,2.3-0.8c0.5-0.2,1.1-0.4,1.6-0.6
			c0.4-0.1,0.8-0.3,1.2-0.5c0.3-0.1,0.6-0.3,1-0.4c0.4-0.2,0.9-0.4,1.3-0.5c0.5-0.2,1.1-0.5,1.6-0.7c2.3-1,4.6-2.1,6.9-3.3
			c0.4-0.2,0.8-0.4,1.3-0.7c0.7-0.4,1.4-0.8,2.2-1.2c0,0,0,0,0.1,0c0.9-0.5,1.8-1,2.7-1.6c7.6-4.5,14.4-9.8,20.5-15.6c0,0,0,0,0,0.1
			c0,0,0-0.1,0.1-0.1c-0.4-3.3-1.1-7-2.1-11.2c1.1,4.2,1.8,7.9,2.2,11.2c3.2-3,6.1-6.1,8.9-9.4C394.9,489.2,404.4,460.8,402.6,432.8
			z M402.1,444.8c0.2-1.2,0.3-2.5,0.4-3.7C402.4,442.3,402.3,443.5,402.1,444.8z"/>
		<path class="st3" d="M296.4,553.1c1.5-0.2,3-0.3,4.5-0.5c0,0,0,0-0.1,0s-0.2,0-0.4,0c-0.3,0-0.6,0.1-0.9,0.1
			C298.4,552.9,297.4,553,296.4,553.1z"/>
		<path class="st3" d="M300.8,552.6h0.1l0,0C300.9,552.6,300.9,552.6,300.8,552.6z"/>
		<path class="st3" d="M302,552.5c-0.1,0-0.2,0-0.3,0c-0.1,0-0.2,0-0.2,0c-0.1,0-0.2,0-0.3,0c-0.1,0-0.2,0-0.3,0h0.1
			C301.4,552.6,301.7,552.5,302,552.5z"/>
		<path class="st3" d="M300.8,552.6c0.2,0,0.3,0,0.5-0.1c-0.3,0-0.6,0.1-0.9,0.1C300.5,552.7,300.6,552.7,300.8,552.6z"/>
		<path class="st3" d="M302.1,552.5c-0.2,0-0.4,0.1-0.6,0.1c0.1,0,0.2,0,0.2,0C301.9,552.5,302,552.5,302.1,552.5z"/>
		<path class="st3" d="M301.5,552.5h-0.1c0,0,0,0-0.1,0c0,0,0,0-0.1,0C301.4,552.6,301.4,552.6,301.5,552.5z"/>
		<path class="st3" d="M318.7,548.9c-1.9,0.6-3.8,1.1-5.7,1.5C314.9,550,316.8,549.4,318.7,548.9z"/>
		<path class="st3" d="M324.4,547.1c-1.9,0.7-3.8,1.3-5.7,1.8C320.6,548.3,322.5,547.7,324.4,547.1z"/>
		<path class="st3" d="M337.4,541.6c-1.8,0.9-3.7,1.8-5.5,2.5C333.7,543.3,335.6,542.5,337.4,541.6z"/>
		<path class="st3" d="M344.7,537.7c-1.8,1-3.6,2-5.4,3C341.1,539.7,342.9,538.7,344.7,537.7z"/>
		<path class="st1" d="M342.1,464.6c-7.7,9.5-17.5,18.1-29.1,25.1c-1.2,0.7-2.3,1.4-3.5,2c-0.5,0.3-0.9,0.5-1.4,0.7
			c-0.7,0.4-1.4,0.8-2.1,1.1c-0.5,0.3-1.1,0.5-1.6,0.8c-0.7,0.3-1.3,0.7-2,1c-0.6,0.3-1.2,0.5-1.8,0.8c-0.6,0.3-1.2,0.6-1.8,0.8
			c-0.6,0.3-1.3,0.5-2,0.8c-0.5,0.2-1.1,0.5-1.6,0.7c-0.7,0.3-1.4,0.5-2.1,0.8c-0.5,0.2-1,0.4-1.5,0.5c-0.8,0.3-1.5,0.5-2.3,0.8
			c-0.5,0.2-0.9,0.3-1.3,0.4c-0.8,0.2-1.6,0.5-2.4,0.7c-0.4,0.1-0.8,0.3-1.2,0.4c-0.8,0.2-1.7,0.4-2.5,0.6c-0.4,0.1-0.7,0.2-1.1,0.3
			c-0.9,0.2-1.8,0.4-2.6,0.6c-0.3,0.1-0.6,0.2-1,0.2c-0.9,0.2-1.8,0.3-2.7,0.5c-0.3,0-0.6,0.1-0.8,0.2c-1,0.1-1.9,0.3-2.9,0.4
			c-0.2,0-0.5,0.1-0.7,0.1c-1,0.1-2,0.2-3,0.3c-0.2,0-0.3,0-0.5,0.1c-1,0.1-2.1,0.1-3.1,0.2c-0.1,0-0.3,0-0.4,0
			c-1,0-2.1,0.1-3.1,0.1c-0.1,0-0.2,0-0.3,0c-1.1,0-2.1,0-3.2,0h-0.2c-1.1,0-2.2-0.1-3.3-0.2h-0.1c-8.4-0.6-16.3-2.4-23.3-5.4
			c-7.1-3-13.3-7.3-18.4-12.7c-0.1-0.1-0.1-0.1-0.2-0.2c2.6-15.2,11.4-29.3,25.2-38.2c13-8.4,28.1-10.8,42.1-7.9
			c5.5,1.1,10.9-0.3,15-3.5c2.8-2.2,5-5.3,6.1-9c3.9-13.3,12.5-25.2,25.3-32.9c7.4-4.5,15.5-7,23.6-7.9c1.5-0.1,3-0.2,4.4-0.3
			c0.4,0.6,0.8,1.2,1.1,1.8C367.2,411.2,361.5,440.6,342.1,464.6z"/>
		<path class="st3" d="M411,448.3c0.1-1.2,0.1-2.5,0.1-3.7C411.2,445.9,411.1,447.1,411,448.3z"/>
		<path class="st3" d="M410.6,452L410.6,452c0.2-1.2,0.3-2.4,0.4-3.7C410.9,449.6,410.8,450.8,410.6,452z"/>
		<path class="st3" d="M411.2,444.6c0,1.2-0.1,2.5-0.1,3.7c-0.1,1.2-0.2,2.5-0.4,3.7c0.1-0.6,0.2-1.2,0.2-1.8
			C411,448.3,411.2,446.5,411.2,444.6z"/>
		<path class="st3" d="M411.2,444.6c0-0.7,0-1.5,0-2.2C411.2,443.1,411.2,443.9,411.2,444.6L411.2,444.6z"/>
		<path class="st3" d="M411,440.2L411,440.2c0.1,0.7,0.1,1.5,0.1,2.2C411.1,441.6,411.1,440.9,411,440.2L411,440.2L411,440.2z"/>
		<path class="st3" d="M411,440.2c0.1,0.7,0.1,1.5,0.1,2.2s0,1.5,0,2.2c0-0.7,0-1.5,0-2.2C411.1,441.6,411.1,440.9,411,440.2
			L411,440.2z"/>
		<path class="st3" d="M411.1,440.1l-0.1,0.1c0,0.7,0.1,1.5,0.1,2.2c0,0.4,0,0.7,0,1.1c0-0.4,0-0.7,0-1.1c0-0.7-0.1-1.5-0.1-2.2l0,0
			c-0.6-8.7-3.3-17.3-8-25.3c-4.3-7.1-9.9-12.9-16.3-17.4c0.7,0.8,1.4,1.5,2.1,2.3c1,1.2,2,2.5,3,3.8c0.9,1.3,1.8,2.7,2.7,4.1
			c0.3,0.5,0.6,1,0.9,1.5s0.5,1,0.8,1.5c1.1,2.1,2.1,4.3,2.9,6.5c0.4,1.1,0.8,2.3,1.2,3.4c1,3.5,1.7,6.9,2.1,10.5
			c0.1,0.6,0.1,1.3,0.2,1.9l0,0l0.1-0.1c1.7,28-7.8,56.4-26.7,78.8c-2.8,3.3-5.7,6.4-8.9,9.4c1.1,9,0.2,14.2,0.2,14.4
			C397.5,511.7,413.3,475.6,411.1,440.1z"/>
		<path class="st3" d="M411.2,444.6L411.2,444.6c0-0.7,0-1.5,0-2.2C411.2,443.1,411.2,443.9,411.2,444.6z"/>
		<path class="st3" d="M411,440.2c0.1,0.7,0.1,1.5,0.1,2.2C411.1,441.7,411.1,440.9,411,440.2L411,440.2z"/>
		<path class="st3" d="M410.9,450.2c-0.1,0.6-0.1,1.2-0.2,1.8l0,0C410.7,451.4,410.8,450.8,410.9,450.2z"/>
		<path class="st3" d="M402.6,433.9c0-0.3,0-0.5-0.1-0.8c0,0,0-0.1,0-0.2l0,0c0,0.1,0,0.2,0,0.3
			C402.6,433.4,402.6,433.6,402.6,433.9z"/>
		<path class="st3" d="M402.5,432.9L402.5,432.9L402.5,432.9z"/>
		<path class="st3" d="M402.6,434.5c0-0.5,0-0.9-0.1-1.4c0,0.3,0,0.5,0.1,0.8C402.6,434.1,402.6,434.3,402.6,434.5z"/>
		<path class="st3" d="M402.7,436.3c0-0.6,0-1.2-0.1-1.8C402.6,435.1,402.6,435.7,402.7,436.3z"/>
		<path class="st3" d="M402.5,432.9L402.5,432.9L402.5,432.9z"/>
		<path class="st3" d="M402.5,441.1c-0.1,1.2-0.2,2.5-0.4,3.7C402.3,443.5,402.4,442.3,402.5,441.1z"/>
	</g>
	
		<ellipse transform="matrix(0.5378 -0.8431 0.8431 0.5378 -212.7153 457.4164)" class="st2" cx="310.8" cy="422.7" rx="31.3" ry="24.1"/>
	
		<ellipse transform="matrix(0.5378 -0.8431 0.8431 0.5378 -214.4895 462.0332)" class="st1" cx="314.1" cy="426.6" rx="31.3" ry="24.1"/>
	<path class="st1" d="M343.7,349.4c2-0.4,4-1.2,5.8-2l0,0c11.2-3.5,18.9-15.4,17.6-28.4c-1.3-12.9-10.6-22.8-21.8-24.5
		c-4.2-0.9-8.7-0.9-13.1,0.2c0,0-29.6,5-50.8,39.9C281.5,334.6,322.2,354.6,343.7,349.4z M293.1,330L293.1,330L293.1,330z"/>
	<path class="st4" d="M342.8,339.2c11.9-4.1,18.3-16.5,15.5-28.2c0-0.4-0.1-0.7-0.2-1s-0.1-0.3-0.2-0.6l0,0l-1.7,0.8l-23.2,26
		l-1.5-2.5l19.4-21.7l-14.2,5.1l-16,17.4l-1.5-2.5l12.1-13.5l-19.4,7.4l-0.8-2.6l19.4-7.4l-16.1-2.5l0.2-2.8l21.3,4l14.2-5.5
		l-26.2-4.5l0.2-2.8l31.4,5.6l1.6-0.9l0,0c-3.6-7.8-11.2-12.3-19.1-12.5c-2.5,0-4.9,0.3-7.4,1.2c0,0-22.9,5.7-36.9,36.5
		c0.4,0,15.4,6.2,30,8.4C330.8,341,337.9,341.2,342.8,339.2z"/>
</g>
</svg>
